<?xml version="1.0" encoding="UTF-8"?>
<svg id="Layer_1" xmlns="http://www.w3.org/2000/svg" version="1.1" viewBox="0 0 911.6 273.8">
  <!-- Generator: Adobe Illustrator 30.3.0, SVG Export Plug-In . SVG Version: 2.1.3 Build 182)  -->
  <defs>
    <style>
      .st0 {
        fill: #005e7e;
      }

      .st1 {
        fill: #58595b;
      }

      .st2 {
        fill: #ef4066;
      }
    </style>
  </defs>
  <g>
    <path class="st0" d="M386.8,141c-4.7-2.7-8.4-6.4-11.1-11.2-2.7-4.7-4-9.9-4-15.7s1.4-11.5,4.3-16.3c1.5-2.4,3.3-4.6,5.5-6.4,5.1-4.3,11.3-6.5,18.5-6.5s9.3.7,12.9,2c3.5,1.3,6.2,3,7.9,5,1,1.3,1.6,2.9,1.8,4.8.3,1.9.4,4.3.4,7.1h0c-1.5,0-2.8-1-3.2-2.4-1.2-4-2.9-7-5.4-9-2.9-2.4-6.9-3.6-11.9-3.6s-11.2,2.4-14.2,7.2c-3.1,4.8-4.6,10.8-4.6,18.1s1.7,16.8,5.1,21.1c3.4,4.3,8,6.4,13.8,6.4s8.3-.7,11.6-2.2v-15.3c0-3,1.1-5.5,3.4-7.5,2.3-2,6.7-3,13.2-3h0c0,1.1-.8,2.1-1.9,2.4-2.4.8-3.6,3.4-3.6,7.9v12c0,2.2-1.3,4.2-3.3,5.2-2.3,1.1-4.7,2-7.2,2.6-3.7.9-7.8,1.4-12.3,1.4s-11.1-1.4-15.8-4.1Z"/>
    <path class="st0" d="M653.6,141c-4.7-2.7-8.4-6.4-11.1-11.2-2.7-4.7-4-9.9-4-15.7s1.4-11.5,4.3-16.3c1.5-2.4,3.3-4.6,5.5-6.4,5.1-4.3,11.3-6.5,18.5-6.5s9.3.7,12.9,2c3.5,1.3,6.2,3,7.9,5,1,1.3,1.6,2.9,1.8,4.8.3,1.9.4,4.3.4,7.1h0c-1.5,0-2.8-1-3.2-2.4-1.2-4-2.9-7-5.4-9-2.9-2.4-6.9-3.6-11.9-3.6s-11.2,2.4-14.2,7.2c-3.1,4.8-4.6,10.8-4.6,18.1s1.7,16.8,5.1,21.1c3.4,4.3,8,6.4,13.8,6.4s8.3-.7,11.6-2.2v-15.3c0-3,1.1-5.5,3.4-7.5,2.3-2,6.7-3,13.2-3h0c0,1.1-.8,2.1-1.9,2.4-2.4.8-3.6,3.4-3.6,7.9v12c0,2.2-1.3,4.2-3.3,5.2-2.3,1.1-4.7,2-7.2,2.6-3.7.9-7.8,1.4-12.3,1.4s-11.1-1.4-15.8-4.1Z"/>
    <path class="st0" d="M434.1,141.1c-2.5-2.1-3.8-4.9-3.8-8.5s.7-5.2,2-7.1c1.3-1.9,3.7-3.3,7.1-4.3,3.4-1,8.1-1.5,14.1-1.5h1.3c0-5-.7-8.5-2.1-10.6-1.4-2.1-3.4-3.1-6.1-3.1s-4.1.5-5.5,1.6c-.8.6-1.5,1.5-2,2.7-.9,2-2.9,3.4-5.1,3.4h0c-.4,0-.7-.3-.7-.7,0-1.7.2-3.1.4-4.3.3-1.4.8-2.6,1.8-3.6,1.8-2,6.1-3,12.9-3s10.1,1.5,13.1,4.5c3,3,4.5,7.5,4.5,13.5v17.5c0,3.2-2.6,5.7-5.7,5.7h-4.6s0-3.9,0-3.9h-.4c-.5.8-1.3,1.6-2.4,2.4-1.9,1.5-4.6,2.3-7.9,2.3s-8.2-1-10.8-3.1ZM450.5,139.2c.9-.5,1.7-1.2,2.5-2,.7-.8,1.3-1.7,1.7-2.8v-10.7h-1.3c-4.1,0-7,.7-8.8,2.2-1.8,1.5-2.7,3.7-2.7,6.8s.5,4.1,1.5,5.4c1,1.3,2.3,1.9,4.1,1.9s2.2-.2,3.1-.7Z"/>
    <path class="st0" d="M597.6,141.1c-2.5-2.1-3.8-4.9-3.8-8.5s.7-5.2,2-7.1c1.3-1.9,3.7-3.3,7.1-4.3,3.4-1,8.1-1.5,14.1-1.5h1.3c0-5-.7-8.5-2.1-10.6-1.4-2.1-3.4-3.1-6.1-3.1s-4.1.5-5.5,1.6c-.8.6-1.5,1.5-2,2.7-.9,2-2.9,3.4-5.1,3.4h0c-.4,0-.7-.3-.7-.7,0-1.7.2-3.1.4-4.3.3-1.4.8-2.6,1.8-3.6,1.8-2,6.1-3,12.9-3s10.1,1.5,13.1,4.5c3,3,4.5,7.5,4.5,13.5v17.5c0,3.2-2.6,5.7-5.7,5.7h-4.6s0-3.9,0-3.9h-.4c-.5.8-1.3,1.6-2.4,2.4-1.9,1.5-4.6,2.3-7.9,2.3s-8.2-1-10.8-3.1ZM614,139.2c.9-.5,1.7-1.2,2.5-2,.7-.8,1.3-1.7,1.7-2.8v-10.7h-1.3c-4.1,0-7,.7-8.8,2.2-1.8,1.5-2.7,3.7-2.7,6.8s.5,4.1,1.5,5.4c1,1.3,2.3,1.9,4.1,1.9s2.2-.2,3.1-.7Z"/>
    <path class="st0" d="M747.4,141.1c-2.5-2.1-3.8-4.9-3.8-8.5s.7-5.2,2-7.1c1.3-1.9,3.7-3.3,7.1-4.3,3.4-1,8.1-1.5,14.1-1.5h1.3c0-5-.7-8.5-2.1-10.6-1.4-2.1-3.4-3.1-6.1-3.1s-4.1.5-5.5,1.6c-.8.6-1.5,1.5-2,2.7-.9,2-2.9,3.4-5.1,3.4h0c-.4,0-.7-.3-.7-.7,0-1.7.2-3.1.4-4.3.3-1.4.8-2.6,1.8-3.6,1.8-2,6.1-3,12.9-3s10.1,1.5,13.1,4.5c3,3,4.5,7.5,4.5,13.5v17.5c0,3.2-2.6,5.7-5.7,5.7h-4.6s0-3.9,0-3.9h-.4c-.5.8-1.3,1.6-2.4,2.4-1.9,1.5-4.6,2.3-7.9,2.3s-8.2-1-10.8-3.1ZM763.8,139.2c.9-.5,1.7-1.2,2.5-2,.7-.8,1.3-1.7,1.7-2.8v-10.7h-1.3c-4.1,0-7,.7-8.8,2.2-1.8,1.5-2.7,3.7-2.7,6.8s.5,4.1,1.5,5.4c1,1.3,2.3,1.9,4.1,1.9s2.2-.2,3.1-.7Z"/>
    <path class="st0" d="M503.5,106.4h0c.4.8.2,1.8-.5,2.3l-1.3,1c-1,.8-2.5.7-3.4-.1h0c-1.3-1.2-2.7-1.7-4.4-1.7-3.3,0-5.9.9-7.6,2.7l.2,1.3c.1,1,.2,2,.2,2.8v23.1c0,3.2-2.6,5.7-5.7,5.7h-5.4v-29.2c0-2.9-.4-5.1-1.2-6.5-.8-1.4-2.4-2.1-4.8-2.1h-.9c0-1.4,1.2-2.6,2.6-2.6h5.9c1.9,0,3.5.2,4.6.7,1.1.5,2,1.3,2.6,2.4,3.1-2.7,6.7-4,10.8-4s4.5.6,6.1,1.7c1,.7,1.8,1.6,2.2,2.4Z"/>
    <path class="st0" d="M521,142c-1-.7-1.7-1.5-2.3-2.4h-.4l-1.3,1.7c-1.1,1.4-2.7,2.2-4.5,2.2h-4.5v-45.5c0-2.9-.4-5.1-1.2-6.5-.8-1.4-2.4-2.1-4.8-2.1h-.9c0-1.4,1.2-2.6,2.6-2.6h7.7c2.1,0,3.6.3,4.7,1,1.1.7,1.9,1.8,2.3,3.4.5,1.6.7,3.8.7,6.7v6.9c.7-.5,1.5-.9,2.4-1.3,2.3-.9,4.5-1.3,6.6-1.3,6,0,10.5,2,13.7,5.9,3.2,3.9,4.8,9,4.8,15.2s-1.6,11.2-4.7,15.2c-3.1,3.9-7.6,5.9-13.3,5.9s-5.6-.8-7.6-2.3ZM533,135.8c1.3-3.1,2-7.3,2-12.5,0-11.4-2.9-17.2-8.6-17.2s-3.4.4-5.2,1.3c-.8.5-1.5.9-2.1,1.3v26.2c.5,1.1,1.1,2.1,1.9,2.8,1.7,1.8,3.7,2.7,5.8,2.7s4.9-1.5,6.2-4.6Z"/>
    <path class="st0" d="M551.4,97.9c0-2.9-.4-5.1-1.2-6.5-.8-1.4-2.4-2.1-4.8-2.1h-.9c0-1.4,1.2-2.6,2.6-2.6h7.7c2.1,0,3.6.3,4.7,1,1.1.7,1.9,1.8,2.3,3.4.5,1.6.7,3.8.7,6.7v7.6c.5-.4,1.4-.9,2.7-1.6,2.3-1.1,4.5-1.6,6.8-1.6,4.6,0,8.5,1.2,11.6,3.6,3.1,2.4,4.7,6.4,4.7,12.1v19.8c0,3.2-2.6,5.7-5.7,5.7h-5.4v-25.1c0-4.1-.7-7.1-2.2-9-1.5-1.9-3.3-2.8-5.5-2.8s-3.2.5-4.9,1.5c-.7.4-1.3.9-2,1.5v28.2c0,3.2-2.6,5.7-5.7,5.7h-5.4v-45.5Z"/>
    <path class="st0" d="M702,114.2c0-2.9-.4-5.1-1.2-6.5-.8-1.4-2.4-2.1-4.8-2.1h-.9c0-1.4,1.2-2.6,2.6-2.6h5.9c1.9,0,3.5.2,4.6.7,1.1.5,2,1.3,2.6,2.4,2.9-2.7,7.1-4,12.5-4s9.5,1.3,12.2,3.8c2.7,2.5,4.1,6.5,4.1,12v19.7c0,3.2-2.6,5.7-5.7,5.7h-5.4v-25.5c0-3.9-.7-6.8-2.2-8.7-1.5-1.8-3.4-2.7-6-2.7s-3.3.2-4.7.7c-1.3.5-2.4,1.1-3.2,1.9l.3,1.2c.2.7.3,1.8.3,3.3v24c0,3.2-2.6,5.7-5.7,5.7h-5.4v-29.2Z"/>
    <path class="st0" d="M788.8,114.2c0-2.9-.4-5.1-1.2-6.5-.8-1.4-2.4-2.1-4.8-2.1h-.9c0-1.4,1.2-2.6,2.6-2.6h5.9c1.9,0,3.5.2,4.6.7,1.1.5,2,1.3,2.6,2.4,2.9-2.7,7.1-4,12.5-4s9.5,1.3,12.2,3.8c2.7,2.5,4.1,6.5,4.1,12v19.7c0,3.2-2.6,5.7-5.7,5.7h-5.4v-25.5c0-3.9-.7-6.8-2.2-8.7-1.5-1.8-3.4-2.7-6-2.7s-3.3.2-4.7.7c-1.3.5-2.4,1.1-3.2,1.9l.3,1.2c.2.7.3,1.8.3,3.3v24c0,3.2-2.6,5.7-5.7,5.7h-5.4v-29.2Z"/>
    <g>
      <path class="st1" d="M378.7,187.8h-4.7v-34.7h24v4.2h-19.3v10.6h17v4.2h-17v15.8Z"/>
      <path class="st1" d="M452.6,170.5c0,1.3-.1,2.6-.4,4-.2,1.4-.6,2.8-1.2,4.1-.5,1.4-1.2,2.6-2.1,3.9-.9,1.2-1.9,2.3-3.2,3.3-1.3,1-2.7,1.7-4.4,2.2-1.7.5-3.6.8-5.8.8s-4.1-.3-5.8-.8c-1.7-.5-3.1-1.3-4.4-2.2-1.3-1-2.3-2-3.2-3.3-.9-1.2-1.5-2.5-2.1-3.9-.5-1.4-.9-2.7-1.2-4.1-.2-1.4-.4-2.7-.4-4s.1-2.6.4-4c.2-1.4.6-2.8,1.2-4.1.5-1.4,1.2-2.6,2.1-3.9.9-1.2,1.9-2.3,3.2-3.3,1.3-1,2.7-1.7,4.4-2.2,1.7-.5,3.6-.8,5.8-.8s4.1.3,5.8.8c1.7.5,3.1,1.3,4.4,2.2,1.3,1,2.3,2,3.2,3.3.9,1.2,1.5,2.5,2.1,3.9.5,1.4.9,2.7,1.2,4.1.2,1.4.4,2.7.4,4ZM447.7,170.5c0-2-.3-3.9-.8-5.6-.5-1.7-1.3-3.2-2.4-4.5-1-1.3-2.3-2.2-3.8-2.9-1.5-.7-3.2-1.1-5.1-1.1s-3.6.4-5.1,1.1c-1.5.7-2.7,1.7-3.8,2.9-1,1.3-1.8,2.7-2.4,4.5-.5,1.7-.8,3.6-.8,5.6s.3,3.9.8,5.6c.5,1.7,1.3,3.2,2.4,4.5,1,1.3,2.3,2.2,3.8,2.9,1.5.7,3.2,1.1,5.1,1.1s3.6-.4,5.1-1.1c1.5-.7,2.8-1.7,3.8-2.9,1-1.3,1.8-2.7,2.4-4.5.5-1.7.8-3.6.8-5.6Z"/>
      <path class="st1" d="M501.7,153.1v22.5c0,1.8-.3,3.5-.8,5.1-.6,1.6-1.4,3-2.6,4.2-1.1,1.2-2.6,2.1-4.4,2.8-1.8.7-3.8,1-6.2,1s-4.3-.3-6-1c-1.7-.7-3.1-1.6-4.2-2.8-1.1-1.2-1.9-2.5-2.4-4-.5-1.5-.8-3.1-.8-4.7v-23.2h4.7v21.9c0,1.9.3,3.5.8,4.7.5,1.2,1.2,2.2,2,2.9.8.7,1.8,1.3,2.8,1.5,1,.3,2.1.4,3.2.4s2.1-.1,3.2-.4c1.1-.3,2.1-.8,2.9-1.5.9-.7,1.6-1.7,2.1-2.9.5-1.2.8-2.8.8-4.7v-22h4.7Z"/>
      <path class="st1" d="M548.6,153.1h4.5v34.7h-5.3l-17.7-28h0v28h-4.5v-34.7h5.6l17.4,28h0v-28Z"/>
      <path class="st1" d="M577.2,153.1h14.1c2.3,0,4.3.4,6.1,1.2,1.8.8,3.3,2,4.6,3.5,1.3,1.5,2.2,3.3,2.9,5.3.7,2.1,1,4.4,1,6.9s-.2,4-.7,6.1c-.5,2.1-1.3,4-2.4,5.8-1.1,1.7-2.7,3.2-4.6,4.3-1.9,1.1-4.3,1.7-7.1,1.7h-13.9v-34.7ZM581.9,183.8h9.1c3.1,0,5.5-1.2,7.3-3.5,1.8-2.3,2.7-5.7,2.7-10.1s-.9-7.7-2.8-9.9c-1.9-2.2-4.4-3.3-7.6-3.3h-8.8v26.7Z"/>
      <path class="st1" d="M629.7,177.7l-3.6,10.1h-4.8l13.1-34.7h5.3l12.6,34.7h-5.1l-3.4-10.1h-13.9ZM641.9,173.5l-5.1-15.3h0l-5.6,15.3h10.8Z"/>
      <path class="st1" d="M665.2,153.1h28.2v4.2h-11.8v30.6h-4.7v-30.6h-11.8v-4.2Z"/>
      <path class="st1" d="M719.6,187.8h-4.7v-34.7h4.7v34.7Z"/>
      <path class="st1" d="M775.9,170.5c0,1.3-.1,2.6-.4,4-.2,1.4-.6,2.8-1.2,4.1-.5,1.4-1.2,2.6-2.1,3.9-.9,1.2-1.9,2.3-3.2,3.3-1.3,1-2.7,1.7-4.4,2.2s-3.6.8-5.8.8-4.1-.3-5.8-.8c-1.7-.5-3.1-1.3-4.4-2.2-1.3-1-2.3-2-3.2-3.3-.9-1.2-1.5-2.5-2.1-3.9-.5-1.4-.9-2.7-1.2-4.1-.2-1.4-.4-2.7-.4-4s.1-2.6.4-4c.2-1.4.6-2.8,1.2-4.1.5-1.4,1.2-2.6,2.1-3.9.9-1.2,1.9-2.3,3.2-3.3,1.3-1,2.7-1.7,4.4-2.2,1.7-.5,3.6-.8,5.8-.8s4.1.3,5.8.8c1.7.5,3.1,1.3,4.4,2.2,1.3,1,2.3,2,3.2,3.3.9,1.2,1.5,2.5,2.1,3.9.5,1.4.9,2.7,1.2,4.1.2,1.4.4,2.7.4,4ZM771,170.5c0-2-.3-3.9-.8-5.6-.5-1.7-1.3-3.2-2.4-4.5-1-1.3-2.3-2.2-3.8-2.9-1.5-.7-3.2-1.1-5.1-1.1s-3.6.4-5.1,1.1c-1.5.7-2.7,1.7-3.8,2.9-1,1.3-1.8,2.7-2.4,4.5-.5,1.7-.8,3.6-.8,5.6s.3,3.9.8,5.6c.5,1.7,1.3,3.2,2.4,4.5,1,1.3,2.3,2.2,3.8,2.9,1.5.7,3.2,1.1,5.1,1.1s3.6-.4,5.1-1.1c1.5-.7,2.8-1.7,3.8-2.9,1-1.3,1.8-2.7,2.4-4.5.5-1.7.8-3.6.8-5.6Z"/>
      <path class="st1" d="M820.6,153.1h4.5v34.7h-5.3l-17.7-28h0v28h-4.5v-34.7h5.6l17.4,28h0v-28Z"/>
    </g>
  </g>
  <g>
    <circle class="st2" cx="216.7" cy="103.5" r="18.4"/>
    <g>
      <path class="st2" d="M230.5,141c11.1-12.2,28-18.2,53.4-18.6,8.5-.1,15.9-2.7,21.8-5.9.2-4.2.3-8.9.2-14,0,0-11.2,13.4-31.3,15.5-21.3,2.3-35.8,6.9-45.4,19.5-5.4,7.1-8.3,18-9.8,28,1.7-8.3,5-17.6,11.1-24.4Z"/>
      <path class="st2" d="M348,131.1c-.9-1.8-3.1-2.5-4.8-1.6l-.8.4-1.8.9c-.7.3-1.3.6-2,.9-1.4.6-2.8,1.2-4.2,1.7-2.8,1.1-5.7,2-8.6,2.7-5.8,1.5-11.8,2.2-17.8,2.1-3,0-6-.3-9-.7l-4.8-.7c-1.6-.2-3.2-.4-4.9-.6-6.5-.7-13.1-1.2-19.9-1.1-3.4,0-6.8.3-10.2.8-3.4.5-6.8,1.3-10.1,2.3-3.3,1.1-6.6,2.5-9.6,4.2-3.1,1.8-5.9,3.8-8.5,6.2-2.6,2.4-4.9,5.1-6.9,7.9-2,2.9-3.6,5.9-5,9.1-1.4,3.1-2.4,6.4-3.2,9.7-.4,1.6-.8,3.3-1,5-.1.8-.3,1.7-.4,2.5,0,.4-.1.8-.1,1.3,0,.4,0,.8-.1,1.4,0,1.6,1,2.9,2.6,3.1,1.6.2,3.1-1,3.3-2.6h0c0-.4,0-.8.1-1.1l.2-1.1c.1-.7.3-1.5.4-2.2.3-1.5.7-3,1.1-4.4.9-2.9,2-5.8,3.3-8.5,1.3-2.7,2.9-5.3,4.6-7.7,1.8-2.4,3.8-4.5,6.1-6.4l.8-.7.9-.7c.6-.5,1.2-.8,1.8-1.3,1.2-.8,2.5-1.5,3.8-2.2,2.6-1.3,5.4-2.3,8.2-3.1,5.7-1.4,11.8-1.8,17.9-1.7,3.1,0,6.2.2,9.3.5,3.1.3,6.3.6,9.4,1l9.5,1.2c3.4.5,6.9.7,10.3.7,6.9,0,13.8-1.1,20.4-3,1.6-.5,3.3-1,4.9-1.6,1.6-.6,3.2-1.3,4.7-2,.7-.3,1.3-.7,2-1-.4,1.9-1,3.8-1.6,5.7-.8,2.3-1.8,4.5-2.9,6.7-1.1,2.2-2.4,4.3-3.9,6.3h0c0,.1,0,.3,0,.4.1.1.3.2.5,0,2-1.6,3.8-3.4,5.4-5.4,1.7-1.9,3.2-4,4.6-6.2,2.8-4.4,5-9.3,6.5-14.5h0c.2-.8.1-1.7-.3-2.5Z"/>
      <path class="st0" d="M230.6,145.3c.5-.6,1-1.2,1.5-1.7,11.1-11.8,27.7-17.3,52.3-17.3h1c19.1,0,32.8-12.2,37.4-16.9,0,10.7-1.3,18.5-2.5,23.5-4.4.9-8.8,1.3-13.3,1.4-3.1,0-6-.2-8.9-.5l-4.8-.6c-1.6-.2-3.3-.3-4.9-.5-5.7-.5-10.8-.8-15.6-.8s-2.9,0-4.4,0c-3.5.2-7,.5-10.3,1-3.6.6-7,1.5-10.3,2.6-3.7,1.3-6.9,2.8-9.7,4.5-2.6,1.6-5.1,3.4-7.4,5.4Z"/>
    </g>
    <g>
      <path class="st2" d="M202.9,141c-11.1-12.2-28-18.2-53.4-18.6-8.5-.1-15.9-2.7-21.8-5.9-.2-4.2-.3-8.9-.2-14,0,0,11.2,13.4,31.3,15.5,21.3,2.3,35.8,6.9,45.4,19.5,5.4,7.1,8.3,18,9.8,28-1.7-8.3-5-17.6-11.1-24.4Z"/>
      <path class="st2" d="M85.4,131.1c.9-1.8,3.1-2.5,4.8-1.6l.8.4,1.8.9c.7.3,1.3.6,2,.9,1.4.6,2.8,1.2,4.2,1.7,2.8,1.1,5.7,2,8.6,2.7,5.8,1.5,11.8,2.2,17.8,2.1,3,0,6-.3,9-.7l4.8-.7c1.6-.2,3.2-.4,4.9-.6,6.5-.7,13.1-1.2,19.9-1.1,3.4,0,6.8.3,10.2.8,3.4.5,6.8,1.3,10.1,2.3,3.3,1.1,6.6,2.5,9.6,4.2,3.1,1.8,5.9,3.8,8.5,6.2,2.6,2.4,4.9,5.1,6.9,7.9,2,2.9,3.6,5.9,5,9.1,1.4,3.1,2.4,6.4,3.2,9.7.4,1.6.8,3.3,1,5,.1.8.3,1.7.4,2.5,0,.4.1.8.1,1.3,0,.4,0,.8.1,1.4,0,1.6-1,2.9-2.6,3.1-1.6.2-3.1-1-3.3-2.6h0c0-.4,0-.8-.1-1.1l-.2-1.1c-.1-.7-.3-1.5-.4-2.2-.3-1.5-.7-3-1.1-4.4-.9-2.9-2-5.8-3.3-8.5-1.3-2.7-2.9-5.3-4.6-7.7-1.8-2.4-3.8-4.5-6.1-6.4l-.8-.7-.9-.7c-.6-.5-1.2-.8-1.8-1.3-1.2-.8-2.5-1.5-3.8-2.2-2.6-1.3-5.4-2.3-8.2-3.1-5.7-1.4-11.8-1.8-17.9-1.7-3.1,0-6.2.2-9.3.5-3.1.3-6.3.6-9.4,1l-9.5,1.2c-3.4.5-6.9.7-10.3.7-6.9,0-13.8-1.1-20.4-3-1.6-.5-3.3-1-4.9-1.6-1.6-.6-3.2-1.3-4.7-2-.7-.3-1.3-.7-2-1,.4,1.9,1,3.8,1.6,5.7.8,2.3,1.8,4.5,2.9,6.7,1.1,2.2,2.4,4.3,3.9,6.3h0c0,.1,0,.3,0,.4-.1.1-.3.2-.5,0-2-1.6-3.8-3.4-5.4-5.4-1.7-1.9-3.2-4-4.6-6.2-2.8-4.4-5-9.3-6.5-14.5h0c-.2-.8-.1-1.7.3-2.5Z"/>
      <path class="st0" d="M202.9,145.3c-2.3-2-4.8-3.8-7.4-5.4-2.8-1.7-6-3.2-9.7-4.5-3.2-1.1-6.7-2-10.3-2.6-3.3-.5-6.7-.9-10.3-1-1.5,0-3,0-4.4,0-4.8,0-9.9.3-15.6.8-1.6.2-3.3.3-4.9.5l-4.8.6c-2.8.3-5.8.5-8.9.5-4.4,0-8.9-.5-13.3-1.4-1.3-4.9-2.6-12.8-2.5-23.5,4.6,4.7,18.3,16.9,37.4,16.9h1c24.6,0,41.2,5.5,52.3,17.3.5.6,1,1.1,1.5,1.7Z"/>
    </g>
  </g>
</svg>