<?xml version="1.0" encoding="UTF-8"?>
<svg id="Layer_1" xmlns="http://www.w3.org/2000/svg" version="1.1" viewBox="0 0 874.7 1119.7">
  <!-- Generator: Adobe Illustrator 30.3.0, SVG Export Plug-In . SVG Version: 2.1.3 Build 182)  -->
  <defs>
    <style>
      .st0, .st1 {
        fill: #ee4166;
      }

      .st0, .st2 {
        fill-rule: evenodd;
      }

      .st3 {
        fill: #ef4266;
      }

      .st2 {
        fill: #4d4d4e;
      }

      .st4 {
        fill: #b379a3;
      }

      .st5 {
        fill: #a7a9ac;
      }

      .st6 {
        fill: #5b5a5d;
      }

      .st7 {
        fill: #353635;
      }
    </style>
  </defs>
  <path class="st7" d="M724.7,998.4l.8-3.8h3.8l-.8,3.8h-3.7ZM714.2,998.4l.8-3.8h3.8l-.8,3.8h-3.7ZM703.8,998.4l.8-3.8h3.8l-.8,3.8h-3.7ZM686.6,986.9h11c0-.3,0-.6,0-.7,0-1.7-.4-2.9-1.3-3.8-.8-.9-1.9-1.3-3.2-1.3s-2.7.5-3.9,1.5c-1.2,1-2,2.4-2.6,4.4M696.3,991.8l3.2.3c-.5,1.6-1.5,3.1-3.2,4.6-1.7,1.4-3.7,2.2-6,2.2s-2.8-.3-4-1c-1.2-.7-2.1-1.6-2.8-2.9-.6-1.3-.9-2.7-.9-4.3s.5-4.2,1.5-6.2c1-2,2.3-3.5,3.8-4.5,1.6-1,3.3-1.4,5.1-1.4s4.2.7,5.6,2.2c1.4,1.4,2.1,3.4,2.1,5.9s0,1.9-.3,2.9h-14.4c0,.4,0,.7,0,1,0,1.8.4,3.2,1.3,4.2.8,1,1.9,1.4,3.1,1.4s2.3-.4,3.4-1.1c1.1-.7,2-1.8,2.6-3.2M676.6,991.3l3.3.3c-.8,2.4-2,4.2-3.6,5.4-1.5,1.2-3.3,1.8-5.2,1.8s-3.9-.7-5.2-2.1c-1.3-1.4-2-3.3-2-5.7s.4-4.2,1.3-6.3c.8-2.1,2.1-3.6,3.6-4.7,1.6-1.1,3.4-1.6,5.4-1.6s3.7.6,5,1.8c1.2,1.2,1.8,2.8,1.8,4.7l-3.3.2c0-1.2-.4-2.2-1.1-2.9-.7-.7-1.6-1-2.8-1s-2.5.4-3.5,1.3c-1,.8-1.7,2.1-2.3,3.8-.6,1.7-.8,3.4-.8,5s.4,2.9,1.1,3.7c.7.8,1.6,1.3,2.7,1.3s2.1-.4,3.1-1.2c1-.8,1.8-2.1,2.3-3.7M656.6,988.5c-.5.2-1,.3-1.5.4-.5,0-1.4.2-2.7.3-1.9.2-3.3.4-4.1.7-.8.3-1.4.7-1.8,1.3-.4.6-.6,1.2-.6,1.9s.3,1.7,1,2.3c.6.6,1.5.9,2.7.9s2.2-.3,3.2-.9c1-.6,1.8-1.4,2.4-2.4.6-1,1-2.5,1.4-4.5M655.4,996c-1.2,1-2.3,1.7-3.3,2.2-1.1.5-2.2.7-3.4.7-1.8,0-3.2-.5-4.4-1.6-1.1-1.1-1.6-2.4-1.6-4.1s.3-2,.7-2.9c.5-.8,1.2-1.5,2-2,.8-.5,1.8-.9,3-1.1.8-.1,2.2-.3,4.3-.4,2.1,0,3.6-.3,4.5-.7.3-.9.4-1.7.4-2.3s-.3-1.4-.8-1.8c-.8-.6-1.9-.9-3.4-.9s-2.5.3-3.4.9c-.9.6-1.5,1.5-1.9,2.6l-3.4-.3c.7-1.9,1.8-3.4,3.3-4.4,1.5-1,3.4-1.5,5.6-1.5s4.3.6,5.7,1.7c1.1.9,1.6,2,1.6,3.3s-.1,2.2-.5,3.6l-1.1,4.8c-.4,1.5-.5,2.8-.5,3.8s.1,1.5.4,2.6h-3.4c-.2-.6-.3-1.5-.4-2.4M629.7,998.4l4.1-19.5h3l-.8,4c1-1.5,2-2.6,3-3.3,1-.7,1.9-1.1,2.9-1.1s1.5.2,2.4.7l-1.3,3.1c-.6-.4-1.2-.6-1.9-.6-1.2,0-2.4.7-3.6,2-1.2,1.3-2.2,3.6-2.9,7l-1.6,7.8h-3.2ZM612.8,989.8c0,1.3.1,2.3.4,3,.4.9.9,1.7,1.6,2.2.7.5,1.4.7,2.3.7s2.2-.4,3.2-1.1c1.1-.8,2-2,2.6-3.6.7-1.6,1-3.1,1-4.6s-.4-2.9-1.3-3.8c-.9-.9-2-1.4-3.3-1.4s-1.6.2-2.4.7c-.8.4-1.5,1.1-2.1,2-.7.9-1.2,2-1.5,3.2-.3,1.2-.5,2.2-.5,2.8M608.6,1000.2l3.4.3c0,.8,0,1.3.3,1.7.2.4.5.7,1,.9.6.3,1.4.4,2.3.4,2,0,3.4-.5,4.3-1.6.6-.7,1.1-2.2,1.6-4.6l.3-1.6c-1.7,1.8-3.6,2.6-5.5,2.6s-3.6-.7-4.9-2.2c-1.3-1.4-2-3.5-2-6.2s.5-4.2,1.6-6c1-1.8,2.3-3.2,3.7-4.2,1.4-.9,2.9-1.4,4.4-1.4,2.6,0,4.5,1.2,5.9,3.6l.7-3.2h3.1l-4,18.8c-.4,2.1-1,3.7-1.7,4.9-.7,1.2-1.7,2.1-2.9,2.7-1.2.6-2.7,1-4.3,1s-2.9-.2-4.1-.6c-1.1-.4-2-1-2.5-1.8-.6-.8-.8-1.7-.8-2.7s0-.6,0-1M574.6,989.7l3.5-.3v.9c0,1,.2,2,.7,2.9.5.9,1.3,1.5,2.4,2,1.1.5,2.4.7,3.9.7,2.1,0,3.8-.5,4.9-1.4,1.1-.9,1.7-2,1.7-3.2s-.3-1.6-.9-2.3c-.6-.7-2.3-1.6-5-2.8-2.1-.9-3.5-1.6-4.3-2.1-1.2-.8-2.1-1.7-2.7-2.6-.6-.9-.9-2-.9-3.2s.4-2.6,1.1-3.7c.8-1.1,1.9-2,3.3-2.5,1.5-.6,3.1-.9,4.9-.9s4,.4,5.5,1.1c1.5.7,2.6,1.7,3.3,2.9.7,1.2,1,2.4,1,3.5v.5l-3.5.3c0-.8,0-1.4-.2-1.8-.2-.7-.6-1.4-1.1-1.9-.5-.5-1.2-.9-2.1-1.3-.9-.3-1.9-.5-3-.5-2,0-3.5.4-4.6,1.3-.8.7-1.3,1.6-1.3,2.7s.2,1.3.5,1.8c.3.5,1,1,1.8,1.5.6.4,2.2,1.1,4.5,2.1,1.9.9,3.3,1.5,4,2,1,.7,1.7,1.4,2.2,2.4.5.9.8,2,.8,3.2s-.5,2.8-1.3,4c-.9,1.2-2.1,2.2-3.7,2.9-1.6.7-3.4,1-5.4,1-3.1,0-5.5-.7-7.5-2-1.9-1.3-2.9-3.7-2.9-7.2M563.7,998.4l5.6-26.9h3.6l-5.6,26.9h-3.6ZM536,998.4l5.6-26.9h3.6l-2.4,11.2h14l2.3-11.2h3.6l-5.6,26.9h-3.6l2.6-12.7h-14l-2.6,12.7h-3.6ZM515.7,998.4l.8-3.8h3.8l-.8,3.8h-3.7ZM505.2,998.4l.8-3.8h3.8l-.8,3.8h-3.7ZM494.8,998.4l.8-3.8h3.8l-.8,3.8h-3.7ZM475.4,991.7l3.4-.2c0,1,.1,1.8.4,2.4.3.7.8,1.2,1.6,1.6.8.4,1.7.7,2.7.7s2.6-.3,3.3-.9c.7-.6,1.1-1.3,1.1-2.1s-.2-1.1-.7-1.6c-.4-.5-1.5-1.2-3.3-1.9-1.7-.7-2.9-1.3-3.4-1.6-.8-.5-1.4-1.1-1.9-1.8-.4-.7-.6-1.5-.6-2.3,0-1.5.6-2.8,1.8-4,1.2-1.1,2.9-1.6,5.1-1.6s4.3.6,5.6,1.7c1.3,1.1,1.9,2.6,2,4.5l-3.2.2c0-1.2-.5-2.1-1.2-2.8-.8-.7-1.9-1-3.3-1s-2,.3-2.7.8c-.6.5-1,1.1-1,1.7s.3,1.2.8,1.6c.4.3,1.3.8,2.8,1.5,2.5,1.1,4.1,2,4.8,2.6,1.1,1,1.6,2.2,1.6,3.7s-.3,1.9-.9,2.8c-.6.9-1.5,1.7-2.7,2.2-1.2.6-2.6.8-4.3.8s-4.2-.6-5.7-1.7c-1.6-1.1-2.3-2.9-2.3-5.4M472.4,995.7l-.5,2.7c-.8.2-1.6.3-2.3.3-1.3,0-2.4-.3-3.1-1-.6-.5-.9-1.2-.9-2s.2-1.4.5-3l2.4-11.4h-2.6l.5-2.6h2.6l1-4.8,3.8-2.3-1.5,7.1h3.3l-.6,2.6h-3.2l-2.3,10.8c-.3,1.4-.4,2.2-.4,2.5,0,.4.1.7.3.9.2.2.6.3,1.1.3.7,0,1.4,0,2-.2M452.1,998.4l4.1-19.5h3l-.8,4c1-1.5,2-2.6,3-3.3,1-.7,1.9-1.1,3-1.1s1.5.2,2.4.7l-1.4,3.1c-.6-.4-1.2-.6-1.9-.6-1.2,0-2.4.7-3.6,2-1.2,1.3-2.2,3.6-2.9,7l-1.6,7.8h-3.2ZM435.1,990.7c0,1.8.4,3.2,1.3,4.2.9.9,2,1.4,3.4,1.4s1.4-.1,2.1-.4c.7-.3,1.4-.7,2-1.3.6-.6,1.1-1.3,1.6-2,.4-.7.8-1.6,1-2.4.4-1.2.6-2.4.6-3.5,0-1.8-.4-3.1-1.3-4.1-.9-1-2-1.5-3.4-1.5s-2,.3-2.9.8c-.9.5-1.6,1.2-2.3,2.2-.7,1-1.2,2.1-1.5,3.3-.3,1.3-.5,2.4-.5,3.4M431.8,991c0-3.8,1.1-6.9,3.4-9.4,1.8-2,4.3-3.1,7.3-3.1s4.2.7,5.7,2.2c1.4,1.5,2.2,3.4,2.2,5.9s-.5,4.3-1.4,6.2c-.9,1.9-2.2,3.4-3.9,4.4-1.7,1-3.4,1.5-5.3,1.5s-2.9-.3-4.1-1c-1.3-.6-2.2-1.6-2.9-2.7-.7-1.2-1-2.6-1-4.1M421.1,998.4l3.6-17h-2.9l.5-2.6h2.9l.6-2.8c.3-1.4.6-2.4.9-3,.3-.6.8-1.1,1.5-1.5.7-.4,1.7-.6,2.9-.6s2.1.2,3.7.5l-.6,2.9c-1.1-.3-2.1-.4-2.8-.4s-1.1.2-1.5.5c-.3.3-.6,1.1-.9,2.3l-.4,2.1h3.7l-.5,2.6h-3.8l-3.6,17h-3.3ZM410.7,998.4l3.6-17h-2.9l.5-2.6h2.9l.6-2.8c.3-1.4.6-2.4.9-3,.3-.6.8-1.1,1.5-1.5.7-.4,1.7-.6,2.9-.6s2.1.2,3.7.5l-.6,2.9c-1.1-.3-2.1-.4-2.8-.4s-1.1.2-1.5.5c-.3.3-.6,1.1-.9,2.3l-.4,2.1h3.7l-.5,2.6h-3.8l-3.6,17h-3.3ZM394,986.9h11c0-.3,0-.6,0-.7,0-1.7-.4-2.9-1.3-3.8-.8-.9-1.9-1.3-3.2-1.3s-2.7.5-3.9,1.5c-1.2,1-2,2.4-2.6,4.4M403.7,991.8l3.2.3c-.5,1.6-1.5,3.1-3.2,4.6-1.7,1.4-3.7,2.2-6,2.2s-2.8-.3-4-1c-1.2-.7-2.1-1.6-2.8-2.9-.6-1.3-1-2.7-1-4.3s.5-4.2,1.5-6.2c1-2,2.3-3.5,3.8-4.5,1.6-1,3.3-1.4,5.1-1.4s4.2.7,5.6,2.2c1.4,1.4,2.1,3.4,2.1,5.9s0,1.9-.3,2.9h-14.4c0,.4,0,.7,0,1,0,1.8.4,3.2,1.3,4.2.8,1,1.9,1.4,3.1,1.4s2.3-.4,3.4-1.1c1.1-.7,2-1.8,2.6-3.2M366.4,998.4l4.1-19.5h3l-.8,4c1-1.5,2-2.6,3-3.3,1-.7,1.9-1.1,2.9-1.1s1.5.2,2.4.7l-1.4,3.1c-.6-.4-1.2-.6-1.9-.6-1.2,0-2.4.7-3.6,2-1.2,1.3-2.2,3.6-2.9,7l-1.6,7.8h-3.2ZM358.8,994.9c-2.3,2.6-4.7,3.9-7.2,3.9s-2.7-.4-3.6-1.3c-.9-.9-1.4-1.9-1.4-3.2s.2-2.2.7-4.2l2.6-11.3h3.3l-2.8,12.6c-.2,1.1-.4,1.9-.4,2.5s.2,1.2.7,1.6c.5.4,1.1.6,2,.6s1.9-.2,2.8-.7c.9-.5,1.7-1.1,2.3-1.8.6-.8,1.2-1.7,1.6-2.7.3-.7.6-1.8.9-3.5l1.9-8.5h3.3l-4.3,19.5h-3.1l.7-3.5ZM328.5,990.7c0,1.8.4,3.2,1.3,4.2.9.9,2,1.4,3.4,1.4s1.4-.1,2.1-.4c.7-.3,1.4-.7,2-1.3.6-.6,1.1-1.3,1.6-2,.4-.7.8-1.6,1-2.4.4-1.2.6-2.4.6-3.5,0-1.8-.5-3.1-1.3-4.1-.9-1-2-1.5-3.4-1.5s-2,.3-2.8.8c-.9.5-1.6,1.2-2.3,2.2-.7,1-1.2,2.1-1.5,3.3-.3,1.3-.5,2.4-.5,3.4M325.2,991c0-3.8,1.1-6.9,3.4-9.4,1.8-2,4.3-3.1,7.3-3.1s4.2.7,5.7,2.2c1.4,1.5,2.2,3.4,2.2,5.9s-.5,4.3-1.4,6.2c-.9,1.9-2.2,3.4-3.9,4.4-1.7,1-3.4,1.5-5.3,1.5s-2.9-.3-4.1-1c-1.2-.6-2.2-1.6-2.9-2.7-.6-1.2-1-2.6-1-4.1M304.6,998.4l.8-3.8h3.8l-.8,3.8h-3.7ZM294.2,998.4l.8-3.8h3.8l-.8,3.8h-3.7ZM283.7,998.4l.8-3.8h3.8l-.8,3.8h-3.7ZM261.9,998.4l5.6-26.9h3.3l-2.2,10.3c1.2-1.2,2.4-2,3.4-2.6,1.1-.5,2.1-.8,3.2-.8,1.6,0,2.8.4,3.7,1.3.9.8,1.3,2,1.3,3.4s-.2,1.9-.6,3.8l-2.5,11.5h-3.3l2.6-11.8c.4-1.7.6-2.8.6-3.2,0-.6-.2-1.2-.6-1.6-.4-.4-1.1-.6-1.9-.6-1.2,0-2.3.3-3.4.9-1.1.6-1.9,1.5-2.5,2.6-.6,1.1-1.2,2.9-1.7,5.3l-1.8,8.4h-3.3ZM259.2,995.7l-.6,2.7c-.8.2-1.6.3-2.3.3-1.3,0-2.4-.3-3.2-1-.6-.5-.9-1.2-.9-2s.2-1.4.5-3l2.4-11.4h-2.6l.5-2.6h2.6l1-4.8,3.8-2.3-1.5,7.1h3.3l-.6,2.6h-3.2l-2.3,10.8c-.3,1.4-.4,2.2-.4,2.5,0,.4.1.7.3.9.2.2.6.3,1.1.3.7,0,1.4,0,2-.2M243,998.4l4.1-19.5h3.3l-4.1,19.5h-3.3ZM247.9,975.2l.8-3.8h3.3l-.8,3.8h-3.3ZM236.5,988.5c-.5.2-1,.3-1.5.4-.5,0-1.4.2-2.7.3-1.9.2-3.3.4-4.1.7-.8.3-1.4.7-1.8,1.3-.4.6-.6,1.2-.6,1.9s.3,1.7,1,2.3c.6.6,1.6.9,2.7.9s2.2-.3,3.2-.9c1-.6,1.8-1.4,2.4-2.4.6-1,1.1-2.5,1.4-4.5M235.3,996c-1.2,1-2.3,1.7-3.3,2.2-1.1.5-2.2.7-3.4.7-1.8,0-3.2-.5-4.3-1.6-1.1-1.1-1.7-2.4-1.7-4.1s.3-2,.7-2.9c.5-.8,1.2-1.5,2-2,.8-.5,1.8-.9,3-1.1.7-.1,2.2-.3,4.3-.4,2.1,0,3.6-.3,4.5-.7.3-.9.4-1.7.4-2.3s-.3-1.4-.8-1.8c-.8-.6-1.9-.9-3.4-.9s-2.5.3-3.4.9c-.9.6-1.5,1.5-1.9,2.6l-3.3-.3c.7-1.9,1.8-3.4,3.2-4.4,1.5-1,3.4-1.5,5.6-1.5s4.3.6,5.7,1.7c1.1.9,1.6,2,1.6,3.3s-.2,2.2-.5,3.6l-1.1,4.8c-.3,1.5-.5,2.8-.5,3.8s.1,1.5.4,2.6h-3.4c-.2-.6-.3-1.5-.4-2.4M212.1,998.4l3.6-17h-2.9l.5-2.6h3l.6-2.8c.3-1.4.6-2.4.9-3,.3-.6.8-1.1,1.5-1.5.7-.4,1.7-.6,2.9-.6s2.1.2,3.7.5l-.6,2.9c-1.1-.3-2.1-.4-2.8-.4s-1.1.2-1.5.5c-.3.3-.6,1.1-.9,2.3l-.4,2.1h3.8l-.5,2.6h-3.8l-3.6,17h-3.3ZM188.8,998.4l4.1-19.5h3l-.8,4c1-1.5,2-2.6,3-3.3,1-.7,1.9-1.1,2.9-1.1s1.5.2,2.4.7l-1.4,3.1c-.6-.4-1.2-.6-1.9-.6-1.2,0-2.4.7-3.6,2-1.2,1.3-2.2,3.6-2.9,7l-1.6,7.8h-3.2ZM181.1,994.9c-2.3,2.6-4.7,3.9-7.2,3.9s-2.7-.4-3.6-1.3c-.9-.9-1.4-1.9-1.4-3.2s.2-2.2.7-4.2l2.6-11.3h3.3l-2.8,12.6c-.2,1.1-.4,1.9-.4,2.5s.2,1.2.7,1.6c.5.4,1.1.6,2,.6s1.9-.2,2.8-.7c.9-.5,1.7-1.1,2.3-1.8.7-.8,1.2-1.7,1.6-2.7.3-.7.6-1.8.9-3.5l1.9-8.5h3.3l-4.3,19.5h-3.1l.7-3.5ZM150.8,990.7c0,1.8.4,3.2,1.3,4.2.9.9,2,1.4,3.4,1.4s1.4-.1,2.1-.4c.7-.3,1.4-.7,2-1.3.6-.6,1.1-1.3,1.5-2,.4-.7.8-1.6,1-2.4.4-1.2.6-2.4.6-3.5,0-1.8-.4-3.1-1.3-4.1-.9-1-2-1.5-3.4-1.5s-2,.3-2.9.8c-.9.5-1.6,1.2-2.3,2.2-.7,1-1.2,2.1-1.5,3.3-.3,1.3-.5,2.4-.5,3.4M147.5,991c0-3.8,1.1-6.9,3.3-9.4,1.9-2,4.3-3.1,7.3-3.1s4.2.7,5.7,2.2c1.4,1.5,2.2,3.4,2.2,5.9s-.5,4.3-1.4,6.2c-.9,1.9-2.2,3.4-3.9,4.4-1.7,1-3.4,1.5-5.3,1.5s-2.9-.3-4.1-1c-1.2-.6-2.2-1.6-2.8-2.7-.7-1.2-1-2.6-1-4.1M126.8,1005.9l.2-3.1c.7.2,1.4.3,2,.3s1.2-.1,1.6-.5c.6-.4,1.1-1.2,1.8-2.3l1.1-1.9-3.2-19.6h3.3l1.5,9.8c.3,1.9.5,3.9.8,5.8l8.7-15.6h3.5l-12.4,22.1c-1.2,2.2-2.3,3.6-3.2,4.3-.9.7-2,1.1-3.2,1.1s-1.5-.1-2.3-.4"/>
  <g>
    <polygon class="st1" points="244.3 840.2 312.7 840.2 312.7 858.2 265.7 858.2 265.7 880.7 306.4 880.7 306.4 897.4 265.7 897.4 265.7 937.6 244.3 937.6 244.3 840.2"/>
    <polygon class="st1" points="203.4 937.6 179.3 937.6 147.7 840.2 169.8 840.2 191.4 908.7 191.7 908.7 213.7 840.2 235.8 840.2 203.4 937.6"/>
    <path class="st4" d="M424.3,876.2c-2.4-21.1-19.4-32.9-39.4-32.9s-44.9,21.1-44.9,48.2,16.7,47.5,44.9,47.5,38.1-14.4,40.2-37.3h-19.4c-1.5,12.2-8.4,20.5-20.7,20.5-18,0-24.8-15.4-24.8-30.6s6.8-31.4,24.8-31.4,18.6,6.9,20,16h19.4Z"/>
    <path class="st4" d="M499.5,908.2c1.4-20.3-9.6-39.3-32.1-39.3s-33.8,15.1-33.8,34.9,12.9,34.8,33.8,34.8,25.8-6.5,31-22.2h-16c-1.2,4.1-7,8.6-14.3,8.6s-15.7-5.1-16.2-16.8h47.7ZM451.8,896.7c.4-5.1,3.3-14.1,15.1-14.1s12.8,4.9,14.5,14.1h-29.6Z"/>
    <path class="st4" d="M510.3,936.8h18.2v-34.7c0-13.4,4.2-18.9,14.1-18.9s11.7,5.4,11.7,16.2v37.4h18.2v-40.7c0-16.4-4.9-27.2-24.2-27.2s-15.6,3.5-20.2,11h-.4v-9.2h-17.3v66.1Z"/>
    <path class="st4" d="M609.2,850.9h-18.2v19.8h-11v12.1h11v39c0,13.3,9.6,15.7,20.8,15.7s7.6-.1,10.6-.6v-14.2c-1.7.4-3.6.5-5.6.5-6.1,0-7.7-1.5-7.7-7.7v-32.8h13.3v-12.1h-13.3v-19.8Z"/>
    <path class="st4" d="M631.2,936.8h18.2v-29.8c0-11.8,4.5-21.2,17.9-21.2s4.9.3,6.5.6v-16.9c-1.3-.4-2.6-.6-4-.6-9.1,0-17.7,5.8-21.1,14.1h-.3s0-12.3,0-12.3h-17.3v66.1Z"/>
    <path class="st4" d="M743.7,908.2c1.4-20.3-9.6-39.3-32.1-39.3s-33.8,15.1-33.8,34.9,12.9,34.8,33.8,34.8,25.8-6.5,31-22.2h-16c-1.2,4.1-7,8.6-14.3,8.6s-15.7-5.1-16.2-16.8h47.7ZM695.9,896.7c.4-5.1,3.3-14.1,15.1-14.1s12.8,4.9,14.5,14.1h-29.6Z"/>
    <path class="st1" d="M128.5,805.1c-8.4,0-15.2,6.8-15.2,15.2s4.9,13.1,11.6,14.7c.3-2.2.8-3.7.8-3.7,0,0,.4-2.1.8-4.5.4-2.4-1.4-3.4-1.4-3.4-1.2-2-2.5-4.6,0-9.4,2.5-4.8,5.5.9,5.5.9,0,0,1.5,2.3,1.8,2.9.4.6,1.4,4.3.1,5.8-1.2,1.5-1.5,2.8-1.5,2.8,0,0-1.1,4.8-1.1,4.9s-.2,1.5-1.2,3.2c-.2.3-.4.6-.5.9,0,0,.1,0,.2,0,8.4,0,15.2-6.8,15.2-15.2s-6.8-15.2-15.2-15.2Z"/>
    <path class="st0" d="M126.9,840.2c0,3.7,2.2,5.4,3.2,8.7,1.3,4.1-1.7,9.4-2.1,14.3-.4,4.2,1,18.1,1,18.1-.4-1.2-2.9-12-2.6-17.9.2-6.7,3.7-11.3,2.1-14.2-1.5-2.9-2.9-4.1-3.4-6.8-.1-.7-.2-1.4-.3-2.1h-7v97.4h21.4v-97.4h-12.3Z"/>
  </g>
  <g>
    <path class="st2" d="M445.9,160.7c-1.6-1.9-3.1-3.7-4.7-5.6,13.6-13.9,27.2-27.8,40.8-41.7,55.5,73.3,70.2,160.6,50.8,215.1-31.3,87.9-152.9,88.1-186.8,13.2-11.3-31.2,1.9-57.2,24.5-72.1,15.3-10,29.9-14.1,47.9-11.1,19.1,3.2,42.9,12.2,66.2,17.4,6.2,1.4,23.2,5.8,27.9,3.7,4.5-2,4.5-7.3,4.8-10.6,1.4.6,3.3,1.4,4.7,2l-10.9,25.7c-29.2-7.4-58.6-14.8-87.9-22.1-17.8-3.4-33.4-2.8-46.4,2.5-43.6,17.9-34.5,63.6-1.7,88.8,55.6,42.9,134,18.3,153.9-49.1,13.1-44.4,2.1-78.5-14.7-120.3-10-24.9-22.6-47.3-38.6-66.3-10,10.2-20,20.3-30,30.5"/>
    <path class="st7" d="M531,169.7v-7.4h1.4l1.7,5.2c.2.5.3.8.4,1.1,0-.3.2-.7.4-1.2l1.8-5.1h1.3v7.4h-.9v-6.2l-2.1,6.2h-.9l-2.1-6.3v6.3h-.9ZM526.7,169.7v-6.5h-2.4v-.9h5.8v.9h-2.4v6.5h-1ZM538.1,159.1c-1.8-1.8-4.2-2.9-6.9-2.9s-5.2,1.1-6.9,2.9c-1.8,1.8-2.9,4.2-2.9,6.9s1.1,5.1,2.9,6.9c1.8,1.8,4.2,2.9,6.9,2.9s5.1-1.1,6.9-2.9c1.8-1.8,2.9-4.2,2.9-6.9s-1.1-5.2-2.9-6.9M531.1,155.2c3,0,5.7,1.2,7.7,3.2,2,2,3.2,4.7,3.2,7.7s-1.2,5.7-3.2,7.7c-2,2-4.7,3.2-7.7,3.2s-5.7-1.2-7.7-3.2c-2-2-3.2-4.7-3.2-7.7s1.2-5.7,3.2-7.7c2-2,4.7-3.2,7.7-3.2"/>
    <path class="st0" d="M410,334.2c-1.4-6.8-6.2-9.9-11.7-10.2-12.9-.6-19.9,14.6-18.4,25.8,1.3,10.5,9.7,18.4,25.6,16.8,10.4,6.6,18.8,11.6,28.3,14,13.8,3.5,33.6,1.9,40-13,4.4-10.3-3.1-21.6-15.5-24.9-.4-5-.8-9.9-1.2-14.9,3.6-6.8-3.2-10.8-7.6-12-2.6-.1-4.5,2.8-3.1,4.7,2,2.2,3.8,3.3,5,6.4-.5,5.2-4.7,11.1-7.1,16.1-2.8,4.9-2.3,9.1,2.6,12.3,3.9,1.5,5.3,3.4,4.3,5.7-3.6.8-4.1-4.2-8.5-5.9-4.4.3-8.6,5.1-12.3,2.8,1.2-4.5,2-8.9,1.4-13-.1-3.2-4-3.9-5.4-6.9,1.2-1.7,2.6-2.9,2-5.9-2.2-2.7-6.8-1.9-7-.2.3,2,.3,4.3,1.2,6.1,1,2.8,1.2,5.5,3.2,7.8-1,1.6-2,3.2-3.1,4.7-.6,1.4-3.3-.6-2.2-2.9,3.5-5.4-.2-10.5-2.6-11.2.2-.9-.3-2.6-.9-3.3-2,1-4.4,1.4-6.8,1.1"/>
    <path class="st0" d="M488.8,159.7c-2.3,10.8-4.5,21.6-6.8,32.3-.8-6.2-2.5-10.6-4.9-13.7-8.5-10.8-39.9-5-50.9-.7-10.9,4.3-20.4,11.2-28.6,20.5-23.7,26.4-39.2,96.1,1.6,110.3,24.2,8.4,64.8-12.6,68.4-40.7,1.6-12.3-2.5-25.1-12.1-33.4,19.4-2.6,30.8,4,23.3,33-4.7,11.1-10.7,20.3-18,27.6-25.2,25.2-87,36.8-98.9-6.1-9.1-32.9,5.5-72.7,30.1-95.7,11.3-10.5,25.2-18.9,41.8-25.1,17.9-6.6,36.1-10.1,55-8.4"/>
    <polygon class="st6" points="326.7 368.9 323.5 364.1 325.2 363 333.1 374.6 331.4 375.7 328.1 370.9 314.2 380.4 312.8 378.4 326.7 368.9"/>
    <polygon class="st6" points="336.5 378.7 330.5 383.9 336.6 390.8 342.5 385.6 344.2 387.4 329.9 400 328.3 398.1 335 392.2 328.9 385.3 322.2 391.2 320.6 389.4 334.9 376.9 336.5 378.7"/>
    <polygon class="st6" points="348.5 404.9 343 400.1 338.4 405.2 344.6 410.6 343.2 412.2 335.2 405.1 347.8 390.9 355.5 397.7 354.1 399.2 348.3 394.1 344.3 398.5 349.8 403.4 348.5 404.9"/>
    <path class="st6" d="M366.3,427.1c-1,0-2.8-.7-4.7-1.9-4.6-2.8-6.2-7.8-2.9-13.1,3.1-5.1,8.7-6.4,13.7-3.3,2,1.2,3,2.5,3.4,3.1l-1.6,1.4c-.6-.9-1.5-1.9-2.8-2.7-3.8-2.3-7.8-1.5-10.4,2.8-2.4,3.9-1.7,7.9,2.2,10.3,1.3.8,2.7,1.3,3.8,1.4l-.6,1.9Z"/>
    <path class="st6" d="M389.7,428.1c-2.7,6-7.7,7.5-12.1,5.5-4.6-2-6.2-7-3.9-12.3,2.5-5.5,7.5-7.6,12.1-5.5,4.7,2.1,6.2,7.1,3.9,12.2M376.2,422.4c-1.6,3.7-1.1,7.9,2.4,9.5,3.5,1.6,7-.8,8.8-4.7,1.5-3.4,1.3-7.8-2.4-9.5-3.7-1.6-7.1.9-8.8,4.7"/>
    <path class="st6" d="M392.3,436c.9,1,2.2,2,3.8,2.5,2.4.7,4.2-.1,4.7-2,.5-1.7-.2-3-2.3-4.6-2.7-1.9-4-4-3.2-6.6.9-2.8,3.8-4.2,7.4-3.2,1.9.6,3.1,1.4,3.7,2.1l-1.2,1.7c-.5-.5-1.5-1.4-3.2-1.9-2.5-.7-3.9.5-4.2,1.7-.5,1.7.3,2.9,2.6,4.6,2.7,2.1,3.8,4.1,3,6.7-.8,2.8-3.6,4.6-7.9,3.3-1.7-.5-3.5-1.6-4.3-2.6l1.2-1.8Z"/>
    <path class="st6" d="M425.3,438c.3-2.6.6-5.8,1-8.1h0c-1,2.1-2.1,4.3-3.5,6.7l-4.7,8.6-1.8-.3-1.6-9.4c-.5-2.8-.8-5.3-1-7.6h0c-.4,2.3-1.1,5.4-1.7,8.2l-1.8,8-2.3-.4,4.3-18.5,3.1.5,1.8,9.6c.4,2.4.7,4.6.9,6.6h0c.8-1.8,1.8-3.7,3-6l4.8-8.5,3.1.5-1.8,18.9-2.4-.4.8-8.3Z"/>
    <rect class="st6" x="425.7" y="436.1" width="19" height="2.4" transform="translate(-19.5 854.4) rotate(-87.7)"/>
    <path class="st6" d="M456.2,445.8c-.9.5-2.7,1-5,1.2-5.3.3-9.5-2.9-9.8-9.1-.3-5.9,3.5-10.2,9.4-10.5,2.4-.1,3.9.3,4.5.6l-.5,2c-1-.4-2.3-.7-3.9-.6-4.4.2-7.3,3.2-7,8.2.2,4.6,3.1,7.5,7.7,7.3,1.5,0,3-.5,4-1l.6,1.9Z"/>
    <path class="st6" d="M472.7,443.9l-9.3-17.2,2.5-.6,4.6,8.7c1.1,2.2,2.2,4.3,3,6h0c-.2-1.9-.2-4.2-.1-6.8v-9.9c0,0,2.6-.6,2.6-.6l4.6,8.8c1.1,2,2.1,4.1,2.9,6h0c-.1-2.1-.1-4.3-.2-6.7v-9.9c0,0,2.5-.6,2.5-.6l-.5,19.7-2.5.6-4.8-9c-1.2-2.2-2-3.9-2.7-5.7h0c.1,1.9.2,3.8.1,6.4l-.2,10.2-2.5.6Z"/>
    <path class="st6" d="M507,421.7c2.6,6,.4,10.8-4.1,12.7-4.6,2-9.4-.1-11.7-5.4-2.4-5.5-.6-10.6,4.1-12.7,4.7-2.1,9.4.2,11.7,5.4M493.6,427.9c1.6,3.7,5.1,6.2,8.6,4.6,3.5-1.6,4.1-5.7,2.4-9.7-1.5-3.5-4.9-6.3-8.6-4.6-3.7,1.6-4.1,5.9-2.4,9.7"/>
    <path class="st6" d="M525.7,411.8c-1.6-2.2-3.4-4.7-4.7-6.7h0c.7,2.3,1.3,4.7,1.9,7.4l2.1,9.6-1.6,1-7.5-6c-2.2-1.8-4.2-3.4-5.8-5h0c1.2,2.1,2.8,4.8,4.2,7.3l4,7.1-2,1.3-9.1-16.7,2.6-1.7,7.7,6c1.9,1.5,3.6,2.9,5.1,4.4h0c-.6-1.9-1.2-4-1.8-6.5l-2.1-9.5,2.6-1.7,11.2,15.3-2,1.3-4.9-6.8Z"/>
    <path class="st6" d="M525.8,398.6c.7-.9,1.8-2.1,3.1-3.2,1.9-1.6,3.3-2.3,4.8-2.4,1.2,0,2.4.4,3.4,1.5,1.2,1.4,1.3,3.4.3,5.3h0c1.7-.8,4.2-1.1,6.1,1.1,1.1,1.2,1.4,2.6,1.3,3.9-.2,1.8-1.5,3.6-3.8,5.6-1.3,1.1-2.3,1.9-3,2.3l-12.2-14.1ZM532.7,402.9l1.7-1.5c2-1.7,2.2-3.7,1-5.1-1.5-1.7-3.3-1.2-5.2.4-.8.7-1.3,1.2-1.5,1.6l4,4.6ZM538.7,409.8c.4-.2,1-.7,1.6-1.3,1.9-1.7,3.1-3.9,1.3-6-1.7-2-4.1-1.3-6.1.4l-1.5,1.3,4.7,5.5Z"/>
  </g>
  <g>
    <path class="st7" d="M175.6,711.2c-6.3,8.1-14.2,11-21.9,11-24.6,0-39.2-18.4-39.2-41.5s14.6-42.1,39.2-42.1,31.9,9.9,33.7,28.2h-16.8c-2.1-8.9-8.5-13.4-16.9-13.4-15.8,0-21.7,13.4-21.7,27.4s5.9,26.7,21.7,26.7,18-6,19-17.2h-17.7v-13.1h33.5v43.2h-11.2l-1.8-9.1Z"/>
    <path class="st7" d="M200.4,680.2c.9-14.8,14.2-19.3,27.2-19.3s25.4,2.6,25.4,16.4v30.1c0,5.3.6,10.5,2,12.9h-16.1c-.6-1.8-1-3.7-1.1-5.6-5,5.3-12.3,7.2-19.5,7.2-11.1,0-19.7-5.5-19.7-17.3.2-26.3,39.1-12.2,38.5-25.2,0-6.7-4.7-7.8-10.3-7.8s-10,2.5-10.5,8.7h-15.9ZM237.1,691.9c-2.7,2.3-8.3,2.5-13.2,3.4-4.9.9-9.4,2.7-9.4,8.5s4.6,7.4,9.7,7.4c12.4,0,12.9-9.7,12.9-13.3v-5.9Z"/>
    <path class="st7" d="M265.2,662.4h15.1v10.7h.2c3-7.3,10.5-12.3,18.4-12.3s2.3.2,3.5.6v14.8c-1.5-.3-3.8-.6-5.7-.6-11.7,0-15.6,8.3-15.6,18.6v26h-15.9v-57.8Z"/>
    <path class="st7" d="M308.7,640.4h15.9v29.1h.2c3.9-5.9,11.1-8.6,18.2-8.6,11.5,0,23.9,9.3,23.9,30.4s-12.4,30.5-23.9,30.5-15.5-2.6-19-8.9h-.2v7.4h-15.1v-79.8ZM337.6,672.8c-9.4,0-13.5,8.7-13.5,18.6s4.1,18.4,13.5,18.4,13.5-8.8,13.5-18.4-4.1-18.6-13.5-18.6"/>
    <path class="st7" d="M377,640.4h15.9v30.1h.3c4-6.6,11-9.6,16.9-9.6,16.9,0,21.1,9.5,21.1,23.8v35.6h-15.9v-32.6c0-9.5-2.7-14.2-10.2-14.2s-12.3,4.8-12.3,16.5v30.3h-15.9v-79.8Z"/>
    <path class="st7" d="M442.6,680.2c.9-14.8,14.2-19.3,27.2-19.3s25.4,2.6,25.4,16.4v30.1c0,5.3.6,10.5,2,12.9h-16.1c-.6-1.8-1-3.7-1.1-5.6-5,5.3-12.3,7.2-19.5,7.2-11.1,0-19.7-5.5-19.7-17.3.2-26.3,39.1-12.2,38.5-25.2,0-6.7-4.7-7.8-10.3-7.8s-10,2.5-10.5,8.7h-15.9ZM479.3,691.9c-2.7,2.3-8.3,2.5-13.2,3.4-4.9.9-9.4,2.7-9.4,8.5s4.6,7.4,9.7,7.4c12.4,0,12.9-9.7,12.9-13.3v-5.9Z"/>
    <path class="st7" d="M566.8,711.2c-6.3,8.1-14.2,11-21.9,11-24.6,0-39.2-18.4-39.2-41.5s14.7-42.1,39.2-42.1,31.9,9.9,33.6,28.2h-16.8c-2.1-8.9-8.5-13.4-16.9-13.4-15.8,0-21.7,13.4-21.7,27.4s5.9,26.7,21.7,26.7,18-6,19-17.2h-17.7v-13.1h33.5v43.2h-11.2l-1.8-9.1Z"/>
    <path class="st7" d="M646.5,720.2h-15.1v-8.1h-.3c-4,6.6-11,9.6-17.7,9.6-16.9,0-21.1-9.5-21.1-23.8v-35.5h15.9v32.6c0,9.5,2.7,14.2,10.2,14.2s12.3-4.8,12.3-16.5v-30.3h15.9v57.8Z"/>
    <path class="st7" d="M699.8,712.8h-.2c-3.7,6.3-10.1,8.9-17.5,8.9-17.4,0-25.9-14.9-25.9-31s8.6-30,25.6-30,13.5,2.9,17.1,8.6h.2v-29.1h15.9v79.8h-15.1v-7.4ZM685.9,672.8c-10.4,0-14,9.1-14,18.4s4.1,18.6,14,18.6,13.6-9.2,13.6-18.7-3.4-18.3-13.6-18.3"/>
    <path class="st7" d="M743.2,653.5h-15.9v-13.1h15.9v13.1ZM727.3,662.4h15.9v57.8h-15.9v-57.8Z"/>
  </g>
  <g>
    <path class="st3" d="M757.4,487.3c-2.4-2.4-5.8-3.9-9.5-3.9s-7,1.5-9.5,3.9c-2.4,2.4-3.9,5.8-3.9,9.5s1.5,7.1,3.9,9.5c2.4,2.4,5.8,3.9,9.5,3.9s7.1-1.5,9.5-3.9c2.4-2.4,3.9-5.8,3.9-9.5s-1.5-7-3.9-9.5ZM756.4,505.3c-2.2,2.2-5.2,3.5-8.5,3.5s-6.4-1.3-8.5-3.5c-2.2-2.2-3.5-5.2-3.5-8.5s1.4-6.4,3.5-8.5c2.2-2.2,5.2-3.5,8.5-3.5s6.4,1.3,8.5,3.5c2.2,2.2,3.5,5.2,3.5,8.5s-1.4,6.3-3.5,8.5Z"/>
    <path class="st3" d="M752.6,498.5c-.2.6-.4,1.1-.5,1.5,0-.3-.2-.7-.4-1.3l-2.1-6.4h-1.8v9.1h1.2v-7.7l2.6,7.7h1.1l2.7-7.6v7.6h1.2v-9.1h-1.6l-2.2,6.3Z"/>
    <polygon class="st3" points="739.4 493.3 742.3 493.3 742.3 501.3 743.5 501.3 743.5 493.3 746.5 493.3 746.5 492.2 739.4 492.2 739.4 493.3"/>
    <path class="st3" d="M227.4,471.3c2,0,3.9,1,5.5,3-1.1-7.2-5.2-11-12.4-11.6-3.4-.3-6.4.4-9,1.9-2.6,1.6-4.2,3.9-4.8,6.8-.7,4.1.9,8.4,4.9,13.1,4.2,5,6.3,8.7,6.3,10.8,0,4.8-3.2,7.2-9.8,7.2h-80.9c-3.5,0-5.8-.2-6.8-.7-1-.5-2.5-2.1-4.4-5l-.6.8c2.3,3.5,3.3,6.9,3,10.2-.1,1.9-.9,4.1-2.1,6.7-1.3,2.6-1.9,4.9-1.7,7.1.1,4.5,1.4,8.1,3.9,11l.6-.6c-.8-1.6-1.2-3-1.2-4.3,0-3.4,2.6-5.1,7.7-5.1h12.4c-6.9,2.4-12.2,6.6-16,12.5-3.7,5.9-5.6,12.6-5.6,20.1s1.1,17.4,3.3,24.1c3.4,9.8,8.7,14.7,16.1,14.7s4.6-1.1,7.7-3.5c3.1-2.3,5.7-3.5,7.7-3.5,4.5,0,7,2.3,7.5,6.9,4.2-4.6,6.5-7.2,6.9-7.7,1.9-2.7,2.8-6,2.8-9.8,0-7.2-2.9-11.5-8.7-12.8-5.4-.4-10.8-.9-16.1-1.4-5.8-1.6-8.7-6.4-8.7-14.3s4.3-14.8,13-19.6c7-3.8,15.1-5.7,24.2-5.7s17.3,2,24.6,5.9c8.8,4.8,13.2,11.3,13.2,19.6s-2.8,11.6-8.5,13.7c-5.3.9-10.6,1.9-15.9,2.9-5.7,1.5-8.5,5.4-8.5,11.6s.9,8,2.8,11.4c2.3,4.2,5.4,6.3,9.4,6.3s5-1.1,8.6-3.5c3.6-2.3,6.5-3.5,8.6-3.5,5.3,0,8.1,2.3,8.5,6.9,8.5-8.5,12.8-22.1,12.8-40.7s-2.8-15.2-8.3-21.8c-3.1-3.5-6.8-6.4-10.9-8.9,6.2,0,11.4-1.9,15.4-5.6,4.1-3.7,6-8.9,5.7-15.6-.1-2.8-1.5-6.9-4-12.2-2.5-5.3-3.8-9.1-3.8-11.4,0-4.5,1.8-6.7,5.5-6.7Z"/>
    <path class="st3" d="M292,588.1c-2.7,3.6-5.3,7.1-7.9,10.7-3.1,4.3-4.7,8.4-4.7,12.4s1.9,7,5.7,7.8c.9.1,2.7-.4,5.4-1.7,2.6-1.3,4.4-2,5.4-2.1,1-.1,1.9.2,2.7,1.1.9.9,1.3,1.8,1.3,2.7,3.1-1.8,4.7-4.5,4.7-8.1s-1.6-8-4.7-12.2c-2.6-3.5-5.2-7-7.9-10.6Z"/>
    <path class="st3" d="M347.3,471.3c2,0,3.9,1,5.5,3-1.1-7.2-5.2-11-12.4-11.6-3.4-.3-6.4.4-9.1,1.9-2.6,1.6-4.2,3.9-4.8,6.8-.7,4.1.9,8.4,4.9,13.1,4.2,5,6.3,8.7,6.3,10.8,0,4.8-3.2,7.2-9.8,7.2h-18.3c-6,0-10.3-1.9-13-5.7l-.6.8c2.2,3,3.2,5.8,3.2,8.2s-.7,4.6-2,8c-1.4,3.4-2,6.1-2,8,0,4.4,1.3,8.1,3.9,11.1l.6-.6c-.8-1.7-1.2-3.1-1.2-4.2,0-3.7,4.3-5.5,12.8-5.5s12.2,1.7,17.1,5.1c5.3,3.8,7.9,8.8,7.9,15.2s-2.1,10.9-6.4,14.6c-4.3,3.6-9.5,5.5-15.8,5.5s-13.6-1.3-16.7-4c-3.5-3-5-8.2-4.5-15.9h-2.2v5.8c.1,9.4-5.8,14.1-17.9,14.1s-13.4-3.3-13.4-9.9,2.8-5.7,8.4-7.3c8.7-2.7,13.8-4.5,15.5-5.5,5.6-3.2,8.4-8.4,8.4-15.3s-2.8-13.5-8.5-17.4c-4.9-3.4-11.3-5-19.3-5s-13.9,1.6-18.9,4.9c-5.7,3.9-8.5,9.4-8.5,16.6s2,11.3,6.1,15.2c.9-4.1,3.5-6.1,7.5-6.1s2.8.2,5.3.5c2.5.3,4.3.5,5.5.5,4.7,0,7.7-1.6,8.7-4.9-2.3.8-4.6,1.2-6.9,1.2-4.7,0-7.1-2-7.1-6s1.4-4.8,4.1-6.4c2.3-1.5,4.9-2.2,7.9-2.2,8.8,0,13.2,3.3,13.2,10s-3.8,8.2-11.5,9.6c-11.8,2-18.9,3.7-21.3,4.9-7.7,4.1-11.5,11.8-11.5,23.2s3.2,17.4,9.7,23c6.1,5.2,14,7.7,23.9,7.7s11.5-1.8,20.1-5.5c8.5-3.7,15.1-5.5,19.8-5.5,8.1,0,13.2,3.7,15.2,11,14.9-7.5,22.3-21,22.3-40.7s-2.2-17.9-6.7-24.4c-1.9-2.8-4.2-5-6.7-7,3.7-.8,7-2.4,9.7-4.9,4.1-3.7,6-8.9,5.7-15.6-.1-2.8-1.5-6.9-4-12.2-2.5-5.3-3.8-9.1-3.8-11.4,0-4.5,1.8-6.7,5.5-6.7Z"/>
    <path class="st3" d="M441.7,507.8c-.3-3.3.8-6.6,3.1-10.2l-.6-.8c-1.9,2.8-3.4,4.5-4.4,5-1,.5-3.3.7-6.8.7h-53.9c-6.2,0-11.6,2.3-16.2,6.8-4.5,4.5-6.8,9.9-6.8,16.2,0,9.8,3.9,16.3,11.6,19.5-7.7,4.6-11.6,11.7-11.6,21.4s2.1,14.4,6.3,19.7c4.2,5.3,10,7.9,17.3,7.9s6.7-1.3,11.3-4c4.5-2.6,8.2-4,11.1-4,6.8,0,10.5,2.6,11.2,7.9,8.3-7.2,12.4-16.9,12.4-29s-.2-6.9-.6-11.8c-3.4,7.3-13.6,11-30.7,11s-18-2.8-18.1-8.3c-.1-3.4,1.8-5.5,5.9-6.3,1.4-.4,5.3-.7,12-.8,1.3,0,2.7.4,4.2,1.1,1.4.7,2.1,1.7,2.1,2.7s-.2,1.1-.6,1.6l.4.2c1.2-1.4,1.9-3.2,2-5.5,0-1.1-.3-2.3-.9-3.7-.6-1.4-1-2.5-1.1-3.5-.1-1.8.5-3.5,2-5.3l-.4-.4c-1.8,2.6-4.9,3.9-9.5,3.9-11.7,0-17.5-3.1-17.5-9.3s.9-4,2.8-5.6c1.9-1.6,4-2.3,6.3-2.3h49.8c5.7,0,8.5,1.8,8.5,5.5s-.4,2.4-1.2,3.9l.6.6c2.5-2.8,3.7-6.5,3.9-11,.1-2.2-.4-4.5-1.7-7.1-1.3-2.6-2-4.8-2.1-6.7Z"/>
    <path class="st3" d="M603.4,502.6c-1.4,0-3.3.4-5.7,1.2-2.4.8-4.3,1.2-5.5,1.2-6,0-10.8-2.7-14.6-8.1l-.6.8c2.2,3,3.3,5.8,3.3,8.3s-.7,4.3-2,7.7c-1.4,3.4-2,6-2,7.9,0,4.2,1.3,7.9,3.9,11l.6-.6-1-4c0-3.6,3.7-5.4,11-5.4,17.1,0,25.6,6.8,25.6,20.4s-2.4,11.7-7.3,15.2c-4.3,3.2-9.9,4.8-16.7,4.8-13,0-21.1-2.9-24.4-8.7,0-.4,0-.7,0-1.1,0-8-2.8-15.2-8.3-21.8-3.1-3.5-6.8-6.4-10.9-8.9,6.2,0,11.4-1.9,15.4-5.6,4.1-3.7,6-8.9,5.7-15.6-.1-2.8-1.5-6.9-4-12.2-2.5-5.3-3.8-9.1-3.8-11.4,0-4.5,1.8-6.7,5.5-6.7s3.9,1,5.5,3c-1.1-7.2-5.2-11-12.4-11.6-3.4-.3-6.4.4-9,1.9-2.6,1.6-4.2,3.9-4.8,6.8-.7,4.1.9,8.4,4.9,13.1,4.2,5,6.3,8.7,6.3,10.8,0,4.8-3.2,7.2-9.8,7.2h-80.9c-3.5,0-5.8-.2-6.8-.7-1-.5-2.5-2.1-4.4-5l-.6.8c2.3,3.5,3.3,6.9,3.1,10.2-.1,1.9-.9,4.1-2.1,6.7-1.3,2.6-1.9,4.9-1.7,7.1.1,4.5,1.4,8.1,3.9,11l.6-.6c-.8-1.6-1.2-3-1.2-4.3,0-3.4,2.6-5.1,7.7-5.1h12.4c-6.9,2.4-12.2,6.6-16,12.5-3.7,5.9-5.6,12.6-5.6,20.1s1.1,17.4,3.3,24.1c3.4,9.8,8.7,14.7,16.1,14.7s4.6-1.1,7.7-3.5c3.1-2.3,5.7-3.5,7.7-3.5,4.5,0,7,2.3,7.5,6.9,4.2-4.6,6.5-7.2,6.9-7.7,1.9-2.7,2.8-6,2.8-9.8,0-7.2-2.9-11.5-8.7-12.8-5.4-.4-10.8-.9-16.1-1.4-5.8-1.6-8.7-6.4-8.7-14.3s4.3-14.8,13-19.6c7-3.8,15.1-5.7,24.2-5.7s17.3,2,24.6,5.9c8.8,4.8,13.2,11.3,13.2,19.6s-2.8,11.6-8.5,13.7c-5.3.9-10.6,1.9-15.9,2.9-5.7,1.5-8.5,5.4-8.5,11.6s.9,8,2.8,11.4c2.3,4.2,5.4,6.3,9.3,6.3s5-1.1,8.6-3.5c3.6-2.3,6.5-3.5,8.6-3.5,5.3,0,8.1,2.3,8.5,6.9,3.8-3.8,6.7-8.7,8.9-14.6.2.4.3.9.5,1.3,3.9,8.9,10.2,13.3,18.7,13.3s5.3-1.3,8.9-4c3.7-2.6,6.6-4,8.9-4,6.1,0,9.4,2.6,10,7.9,8.9-8.7,13.4-23.7,13.4-45s-1.1-20-3.4-27.9c-3.5-12.4-9.4-18.5-17.5-18.5Z"/>
    <path class="st3" d="M716.9,500.5c-9.1-6.5-20.2-9.8-33.3-9.8s-16.4,1.4-23.2,4.3c-9.1,3.8-13.6,9.4-13.6,16.7s2,11.1,5.9,14.3c-13.4,6.2-20.1,16.5-20.1,30.8s3.1,18.5,9.4,25.7c6.6,7.7,14.8,11.6,24.4,11.6s11.6-1.8,20.1-5.5c8.5-3.7,15.2-5.5,20.1-5.5,8,0,13,3.7,15,11,14.9-7.5,22.4-20.4,22.4-38.7s-3.1-20.8-9.2-25.7c-2.2-12.5-8.1-22.2-17.9-29.1ZM723.7,534.3c1.4,1.5,2.1,3.3,2.1,5.3s-.7,3.8-2.1,5.3c-1.4,1.5-3.2,2.2-5.2,2.2s-3.8-.7-5.2-2.2c-1.4-1.5-2.1-3.3-2.1-5.3s.7-3.8,2.1-5.3c1.4-1.5,3.1-2.2,5.2-2.2s3.8.8,5.2,2.2ZM673,505.2c2.6-1.9,5.5-2.8,8.8-2.8s5.4.9,7.6,2.8c2.2,1.9,3.3,4.3,3.3,7.1s-1.2,5.3-3.5,7.3c-2.4,2-5,3.1-7.8,3.1s-6.1-.9-8.5-2.6c-2.4-1.8-3.7-4.2-3.7-7.3s1.3-5.6,3.9-7.5ZM710.8,562.9c-14.4,0-21.5-5.3-21.3-15.9h-2c0,4.9-1.7,8.8-5.1,11.6-3.4,2.8-7.6,4.2-12.6,4.2-12.2,0-18.3-5.3-18.3-15.8s3-12.3,9-17.4c4.7,1.9,9.3,2.8,13.6,2.8,7.6,0,14.1-1.6,19.5-4.6,6.5-3.6,9.8-9,9.8-16.1s-1-6.5-3-9.3c11,.9,18.4,8.9,22.4,23.8-1.9-1.4-4.4-2-7.5-2-6,0-11,1.3-15,3.9-4.9,3.1-7.3,7.4-7.3,13s2.1,9.2,6.3,12.5c4.2,3.3,8.9,5,14,5s12.8-2.5,17.3-7.5c-3.1,7.9-9.6,11.8-19.5,11.8Z"/>
  </g>
  <rect class="st5" x="114.1" y="765.7" width="629.9" height="4.7"/>
</svg>