<?xml version="1.0" encoding="UTF-8"?>
<svg xmlns="http://www.w3.org/2000/svg" version="1.1" viewBox="0 0 970.2 326">
  <!-- Generator: Adobe Illustrator 30.3.0, SVG Export Plug-In . SVG Version: 2.1.3 Build 182)  -->
  <defs>
    <style>
      .st0, .st1 {
        fill: #ef4266;
      }

      .st0, .st2 {
        fill-rule: evenodd;
      }

      .st2 {
        fill: #4d4d4e;
      }

      .st3 {
        fill: #c7c4c3;
      }

      .st4 {
        isolation: isolate;
      }

      .st5 {
        fill: #b479a4;
      }

      .st6 {
        fill: #353635;
      }

      .st7 {
        fill: #a8a8ab;
        mix-blend-mode: multiply;
      }
    </style>
  </defs>
  <g class="st4">
    <g id="Layer_1">
      <g>
        <rect class="st3" x="512.7" y="99.1" width="1.7" height="106.6"/>
        <g>
          <polygon class="st1" points="630.8 133.7 681.5 133.7 681.5 147 646.7 147 646.7 163.7 676.9 163.7 676.9 176 646.7 176 646.7 205.8 630.8 205.8 630.8 133.7"/>
          <polygon class="st1" points="600.6 205.8 582.7 205.8 559.3 133.7 575.7 133.7 591.7 184.4 591.9 184.4 608.2 133.7 624.5 133.7 600.6 205.8"/>
          <path class="st6" d="M880.7,236.4l.5-2.2h2.2l-.5,2.2h-2.2ZM874.6,236.4l.5-2.2h2.2l-.5,2.2h-2.2ZM868.6,236.4l.5-2.2h2.2l-.5,2.2h-2.2ZM858.7,229.7h6.3c0-.2,0-.3,0-.4,0-1-.2-1.7-.7-2.2-.5-.5-1.1-.8-1.9-.8s-1.6.3-2.3.8c-.7.6-1.2,1.4-1.5,2.5M864.3,232.6l1.9.2c-.3.9-.9,1.8-1.9,2.6-1,.8-2.1,1.2-3.5,1.2s-1.6-.2-2.3-.6c-.7-.4-1.2-.9-1.6-1.7-.4-.7-.5-1.6-.5-2.5s.3-2.4.8-3.6c.6-1.2,1.3-2,2.2-2.6.9-.6,1.9-.8,2.9-.8s2.4.4,3.2,1.2c.8.8,1.2,2,1.2,3.4s0,1.1-.1,1.7h-8.3c0,.2,0,.4,0,.6,0,1.1.2,1.9.7,2.4.5.6,1.1.8,1.8.8s1.3-.2,1.9-.6c.6-.4,1.1-1,1.5-1.9M852.9,232.3l1.9.2c-.5,1.4-1.2,2.4-2.1,3.1-.9.7-1.9,1-3,1s-2.2-.4-3-1.2c-.8-.8-1.1-1.9-1.1-3.3s.2-2.4.7-3.6c.5-1.2,1.2-2.1,2.1-2.7.9-.6,1.9-.9,3.1-.9s2.2.3,2.9,1c.7.7,1.1,1.6,1.1,2.7h-1.9c0-.6-.2-1.1-.6-1.5-.4-.4-.9-.6-1.6-.6s-1.4.2-2,.7c-.6.5-1,1.2-1.3,2.2-.3,1-.5,1.9-.5,2.9s.2,1.7.6,2.2c.4.5.9.7,1.6.7s1.2-.2,1.8-.7c.6-.5,1-1.2,1.3-2.2M841.4,230.7c-.3.1-.6.2-.9.2-.3,0-.8.1-1.5.2-1.1,0-1.9.2-2.4.4-.5.1-.8.4-1,.7-.2.3-.3.7-.3,1.1s.2,1,.6,1.3c.4.3.9.5,1.6.5s1.2-.2,1.8-.5c.6-.3,1.1-.8,1.4-1.4.3-.6.6-1.5.8-2.6M840.7,235c-.7.6-1.3,1-1.9,1.2-.6.3-1.3.4-2,.4-1,0-1.9-.3-2.5-.9-.6-.6-.9-1.4-.9-2.3s.1-1.2.4-1.7c.3-.5.7-.9,1.1-1.2.5-.3,1-.5,1.7-.6.4,0,1.2-.2,2.5-.2,1.2,0,2.1-.2,2.6-.4.1-.5.2-1,.2-1.3s-.2-.8-.5-1c-.4-.3-1.1-.5-2-.5s-1.5.2-2,.5c-.5.4-.9.9-1.1,1.5l-1.9-.2c.4-1.1,1-2,1.9-2.6.9-.6,1.9-.9,3.2-.9s2.5.3,3.3,1c.6.5.9,1.1.9,1.9s0,1.3-.3,2.1l-.6,2.8c-.2.9-.3,1.6-.3,2.2s0,.9.2,1.5h-1.9c-.1-.4-.2-.8-.2-1.4M825.9,236.4l2.3-11.3h1.7l-.5,2.3c.6-.9,1.2-1.5,1.7-1.9.6-.4,1.1-.6,1.7-.6s.9.1,1.4.4l-.8,1.8c-.3-.2-.7-.4-1.1-.4-.7,0-1.4.4-2.1,1.1-.7.7-1.3,2.1-1.7,4l-.9,4.5h-1.8ZM816.1,231.4c0,.8,0,1.3.2,1.7.2.5.5,1,.9,1.2.4.3.8.4,1.3.4s1.3-.2,1.9-.7c.6-.4,1.1-1.1,1.5-2,.4-.9.6-1.8.6-2.7s-.3-1.7-.8-2.2c-.5-.5-1.1-.8-1.9-.8s-.9.1-1.4.4c-.4.2-.8.6-1.2,1.1-.4.5-.7,1.1-.9,1.8-.2.7-.3,1.3-.3,1.6M813.7,237.4l2,.2c0,.4,0,.8.2,1,.1.2.3.4.6.5.3.2.8.2,1.3.2,1.2,0,2-.3,2.5-.9.3-.4.6-1.3.9-2.6l.2-.9c-1,1-2.1,1.5-3.2,1.5s-2.1-.4-2.8-1.3c-.8-.8-1.1-2-1.1-3.6s.3-2.4.9-3.5c.6-1.1,1.3-1.9,2.2-2.4.8-.5,1.7-.8,2.6-.8,1.5,0,2.6.7,3.4,2.1l.4-1.8h1.8l-2.3,10.9c-.2,1.2-.6,2.1-1,2.8-.4.7-1,1.2-1.7,1.5-.7.4-1.5.6-2.5.6s-1.7-.1-2.3-.4c-.7-.2-1.1-.6-1.5-1-.3-.5-.5-1-.5-1.5s0-.4,0-.6M794.1,231.4l2-.2v.5c0,.6.1,1.1.4,1.6.3.5.7.9,1.4,1.2.6.3,1.4.4,2.3.4,1.2,0,2.2-.3,2.8-.8.6-.5,1-1.2,1-1.9s-.2-.9-.5-1.3c-.4-.4-1.3-.9-2.9-1.6-1.2-.5-2-.9-2.5-1.2-.7-.5-1.2-1-1.5-1.5-.3-.5-.5-1.2-.5-1.8s.2-1.5.7-2.2c.4-.6,1.1-1.1,1.9-1.5.8-.3,1.8-.5,2.9-.5s2.3.2,3.2.6c.9.4,1.5,1,1.9,1.7.4.7.6,1.4.6,2v.3l-2,.2c0-.4,0-.8-.1-1-.1-.4-.4-.8-.6-1.1-.3-.3-.7-.5-1.2-.7-.5-.2-1.1-.3-1.7-.3-1.1,0-2,.3-2.6.8-.5.4-.7.9-.7,1.5s0,.7.3,1c.2.3.6.6,1.1.9.4.2,1.2.6,2.6,1.2,1.1.5,1.9.9,2.3,1.2.6.4,1,.8,1.3,1.4.3.5.5,1.1.5,1.8s-.3,1.6-.8,2.3c-.5.7-1.2,1.3-2.1,1.6-.9.4-1.9.6-3.1.6-1.8,0-3.2-.4-4.3-1.1-1.1-.8-1.7-2.1-1.7-4.1M787.8,236.4l3.3-15.5h2.1l-3.3,15.5h-2.1ZM771.8,236.4l3.3-15.5h2.1l-1.4,6.5h8.1l1.4-6.5h2.1l-3.3,15.5h-2.1l1.5-7.3h-8.1l-1.5,7.3h-2.1ZM760.1,236.4l.5-2.2h2.2l-.5,2.2h-2.2ZM754.1,236.4l.5-2.2h2.2l-.5,2.2h-2.2ZM748,236.4l.5-2.2h2.2l-.5,2.2h-2.2ZM736.8,232.5h1.9c0,.4,0,.9.3,1.3.2.4.5.7.9.9.5.3,1,.4,1.6.4s1.5-.2,1.9-.5c.4-.3.6-.7.6-1.2s-.1-.6-.4-.9c-.3-.3-.9-.7-1.9-1.1-1-.4-1.7-.7-1.9-.9-.5-.3-.8-.6-1.1-1-.2-.4-.4-.8-.4-1.4,0-.9.3-1.6,1.1-2.3.7-.6,1.7-1,3-1s2.5.3,3.2,1c.7.7,1.1,1.5,1.1,2.6h-1.9c0-.5-.3-1.1-.7-1.5-.4-.4-1.1-.6-1.9-.6s-1.2.2-1.5.5c-.4.3-.5.6-.5,1s.2.7.5.9c.2.2.8.5,1.6.8,1.5.6,2.4,1.1,2.8,1.5.6.6.9,1.3.9,2.1s-.2,1.1-.5,1.6c-.3.5-.9,1-1.6,1.3-.7.3-1.5.5-2.5.5s-2.4-.3-3.3-1c-.9-.6-1.3-1.7-1.3-3.1M735.1,234.8l-.3,1.6c-.5.1-.9.2-1.3.2-.8,0-1.4-.2-1.8-.6-.3-.3-.5-.7-.5-1.2s0-.8.3-1.7l1.4-6.6h-1.5l.3-1.5h1.5l.6-2.8,2.2-1.3-.9,4.1h1.9l-.3,1.5h-1.9l-1.3,6.2c-.2.8-.2,1.3-.2,1.4,0,.2,0,.4.2.5.1.1.3.2.6.2.4,0,.8,0,1.1-.1M723.4,236.4l2.3-11.3h1.7l-.5,2.3c.6-.9,1.2-1.5,1.7-1.9.6-.4,1.1-.6,1.7-.6s.8.1,1.4.4l-.8,1.8c-.3-.2-.7-.4-1.1-.4-.7,0-1.4.4-2.1,1.1-.7.7-1.3,2.1-1.7,4l-.9,4.5h-1.8ZM713.6,231.9c0,1.1.3,1.9.8,2.4.5.5,1.2.8,1.9.8s.8,0,1.2-.3c.4-.2.8-.4,1.1-.8.4-.3.7-.7.9-1.2.2-.4.4-.9.6-1.4.2-.7.3-1.4.3-2,0-1-.3-1.8-.8-2.4-.5-.6-1.2-.8-1.9-.8s-1.2.1-1.6.4c-.5.3-1,.7-1.4,1.2-.4.6-.7,1.2-.9,1.9-.2.7-.3,1.4-.3,2M711.7,232.1c0-2.2.6-4,1.9-5.4,1.1-1.2,2.5-1.8,4.2-1.8s2.4.4,3.3,1.3c.8.8,1.2,2,1.2,3.4s-.3,2.5-.8,3.6c-.5,1.1-1.3,2-2.2,2.6-1,.6-2,.9-3,.9s-1.7-.2-2.4-.6c-.7-.4-1.3-.9-1.6-1.6-.4-.7-.6-1.5-.6-2.4M705.5,236.4l2.1-9.8h-1.7l.3-1.5h1.7l.3-1.6c.2-.8.3-1.4.5-1.7.2-.3.5-.6.9-.9.4-.2,1-.3,1.7-.3s1.2,0,2.1.3l-.4,1.7c-.6-.2-1.2-.2-1.6-.2s-.7,0-.9.3c-.2.2-.4.6-.5,1.3l-.3,1.2h2.2l-.3,1.5h-2.2l-2.1,9.8h-1.9ZM699.5,236.4l2.1-9.8h-1.7l.3-1.5h1.7l.3-1.6c.2-.8.3-1.4.5-1.7.2-.3.5-.6.9-.9.4-.2,1-.3,1.7-.3s1.2,0,2.1.3l-.3,1.7c-.7-.2-1.2-.2-1.6-.2s-.7,0-.9.3c-.2.2-.4.6-.5,1.3l-.3,1.2h2.2l-.3,1.5h-2.2l-2.1,9.8h-1.9ZM689.9,229.7h6.3c0-.2,0-.3,0-.4,0-1-.2-1.7-.7-2.2-.5-.5-1.1-.8-1.9-.8s-1.6.3-2.2.8c-.7.6-1.2,1.4-1.5,2.5M695.5,232.6l1.9.2c-.3.9-.9,1.8-1.9,2.6-1,.8-2.1,1.2-3.5,1.2s-1.6-.2-2.3-.6c-.7-.4-1.2-.9-1.6-1.7-.4-.7-.5-1.6-.5-2.5s.3-2.4.9-3.6c.6-1.2,1.3-2,2.2-2.6.9-.6,1.9-.8,2.9-.8s2.4.4,3.2,1.2c.8.8,1.2,2,1.2,3.4s0,1.1-.1,1.7h-8.3c0,.2,0,.4,0,.6,0,1.1.2,1.9.7,2.4.5.6,1.1.8,1.8.8s1.3-.2,1.9-.6c.6-.4,1.1-1,1.5-1.9M674,236.4l2.3-11.3h1.7l-.5,2.3c.6-.9,1.2-1.5,1.7-1.9.6-.4,1.1-.6,1.7-.6s.8.1,1.4.4l-.8,1.8c-.3-.2-.7-.4-1.1-.4-.7,0-1.4.4-2.1,1.1-.7.7-1.3,2.1-1.7,4l-.9,4.5h-1.8ZM669.6,234.4c-1.3,1.5-2.7,2.3-4.2,2.3s-1.6-.2-2.1-.7c-.5-.5-.8-1.1-.8-1.8s.1-1.3.4-2.4l1.5-6.5h1.9l-1.6,7.3c-.1.6-.2,1.1-.2,1.4s.1.7.4.9c.3.2.6.3,1.2.3s1.1-.1,1.6-.4c.5-.3,1-.6,1.3-1.1.4-.4.7-1,.9-1.6.2-.4.3-1.1.5-2l1.1-4.9h1.9l-2.5,11.3h-1.8l.4-2ZM652.1,231.9c0,1.1.3,1.9.8,2.4.5.5,1.2.8,1.9.8s.8,0,1.2-.3c.4-.2.8-.4,1.1-.8.4-.3.6-.7.9-1.2.2-.4.4-.9.6-1.4.2-.7.3-1.4.3-2,0-1-.3-1.8-.8-2.4-.5-.6-1.2-.8-1.9-.8s-1.1.1-1.6.4c-.5.3-1,.7-1.3,1.2-.4.6-.7,1.2-.9,1.9-.2.7-.3,1.4-.3,2M650.2,232.1c0-2.2.6-4,1.9-5.4,1.1-1.2,2.5-1.8,4.2-1.8s2.4.4,3.3,1.3c.8.8,1.2,2,1.2,3.4s-.3,2.5-.8,3.6c-.5,1.1-1.3,2-2.2,2.6-1,.6-2,.9-3,.9s-1.7-.2-2.4-.6c-.7-.4-1.3-.9-1.6-1.6-.4-.7-.6-1.5-.6-2.4M638.3,236.4l.5-2.2h2.2l-.5,2.2h-2.2ZM632.3,236.4l.5-2.2h2.2l-.5,2.2h-2.2ZM626.3,236.4l.5-2.2h2.2l-.5,2.2h-2.2ZM613.7,236.4l3.3-15.5h1.9l-1.2,6c.7-.7,1.4-1.2,2-1.5.6-.3,1.2-.4,1.9-.4.9,0,1.6.2,2.1.7.5.5.8,1.1.8,1.9s-.1,1.1-.4,2.2l-1.5,6.6h-1.9l1.5-6.8c.2-1,.3-1.6.3-1.9,0-.4-.1-.7-.4-.9-.2-.2-.6-.3-1.1-.3-.7,0-1.3.2-1.9.5-.6.4-1.1.9-1.4,1.5-.3.6-.7,1.6-1,3.1l-1,4.8h-1.9ZM612.1,234.8l-.3,1.6c-.5.1-.9.2-1.3.2-.8,0-1.4-.2-1.8-.6-.3-.3-.5-.7-.5-1.2s0-.8.3-1.7l1.4-6.6h-1.5l.3-1.5h1.5l.6-2.8,2.2-1.3-.9,4.1h1.9l-.3,1.5h-1.9l-1.3,6.2c-.2.8-.2,1.3-.2,1.4,0,.2,0,.4.2.5.1.1.3.2.6.2.4,0,.8,0,1.1-.1M602.8,236.4l2.4-11.3h1.9l-2.4,11.3h-1.9ZM605.6,223l.5-2.2h1.9l-.5,2.2h-1.9ZM599,230.7c-.3.1-.6.2-.9.2-.3,0-.8.1-1.5.2-1.1,0-1.9.2-2.4.4-.5.1-.8.4-1,.7-.2.3-.4.7-.4,1.1s.2,1,.6,1.3c.4.3.9.5,1.6.5s1.3-.2,1.8-.5c.6-.3,1-.8,1.4-1.4.3-.6.6-1.5.8-2.6M598.3,235c-.7.6-1.3,1-1.9,1.2-.6.3-1.3.4-2,.4-1,0-1.9-.3-2.5-.9-.6-.6-1-1.4-1-2.3s.1-1.2.4-1.7c.3-.5.7-.9,1.1-1.2.5-.3,1.1-.5,1.7-.6.4,0,1.3-.2,2.5-.2,1.2,0,2.1-.2,2.6-.4.1-.5.2-1,.2-1.3s-.2-.8-.5-1c-.4-.3-1.1-.5-2-.5s-1.5.2-2,.5c-.5.4-.9.9-1.1,1.5l-1.9-.2c.4-1.1,1-2,1.9-2.6.9-.6,1.9-.9,3.2-.9s2.5.3,3.3,1c.6.5.9,1.1.9,1.9s0,1.3-.3,2.1l-.6,2.8c-.2.9-.3,1.6-.3,2.2s0,.9.2,1.5h-1.9c-.1-.4-.2-.8-.2-1.4M584.9,236.4l2.1-9.8h-1.7l.3-1.5h1.7l.3-1.6c.2-.8.3-1.4.5-1.7.2-.3.5-.6.9-.9.4-.2,1-.3,1.7-.3s1.2,0,2.1.3l-.4,1.7c-.6-.2-1.2-.2-1.6-.2s-.7,0-.9.3c-.2.2-.4.6-.5,1.3l-.2,1.2h2.2l-.3,1.5h-2.2l-2.1,9.8h-1.9ZM571.5,236.4l2.3-11.3h1.7l-.5,2.3c.6-.9,1.2-1.5,1.7-1.9.6-.4,1.1-.6,1.7-.6s.9.1,1.4.4l-.8,1.8c-.3-.2-.7-.4-1.1-.4-.7,0-1.4.4-2.1,1.1-.7.7-1.3,2.1-1.7,4l-.9,4.5h-1.8ZM567.1,234.4c-1.3,1.5-2.7,2.3-4.1,2.3s-1.6-.2-2.1-.7c-.5-.5-.8-1.1-.8-1.8s.1-1.3.4-2.4l1.5-6.5h1.9l-1.6,7.3c-.1.6-.2,1.1-.2,1.4s.1.7.4.9c.3.2.7.3,1.2.3s1.1-.1,1.6-.4c.5-.3,1-.6,1.3-1.1.4-.4.7-1,.9-1.6.2-.4.3-1.1.5-2l1.1-4.9h1.9l-2.5,11.3h-1.8l.4-2ZM549.6,231.9c0,1.1.3,1.9.8,2.4.5.5,1.2.8,1.9.8s.8,0,1.2-.3c.4-.2.8-.4,1.1-.8.4-.3.6-.7.9-1.2.2-.4.4-.9.6-1.4.2-.7.3-1.4.3-2,0-1-.3-1.8-.8-2.4-.5-.6-1.2-.8-1.9-.8s-1.2.1-1.6.4c-.5.3-1,.7-1.3,1.2-.4.6-.7,1.2-.9,1.9-.2.7-.3,1.4-.3,2M547.7,232.1c0-2.2.6-4,1.9-5.4,1.1-1.2,2.5-1.8,4.2-1.8s2.4.4,3.3,1.3c.8.8,1.2,2,1.2,3.4s-.3,2.5-.8,3.6c-.5,1.1-1.3,2-2.2,2.6-1,.6-2,.9-3,.9s-1.7-.2-2.4-.6c-.7-.4-1.3-.9-1.6-1.6-.4-.7-.6-1.5-.6-2.4M535.8,240.7v-1.8c.5.1.9.2,1.3.2s.7,0,.9-.3c.3-.2.7-.7,1-1.3l.6-1.1-1.9-11.3h1.9l.8,5.7c.2,1.1.3,2.2.4,3.4l5-9h2l-7.2,12.7c-.7,1.2-1.3,2.1-1.8,2.5-.5.4-1.2.6-1.9.6s-.9,0-1.3-.2"/>
          <path class="st5" d="M726,175.6c-1.2-10.5-9.7-16.4-19.6-16.4s-22.4,10.5-22.4,24,8.3,23.6,22.4,23.6,19-7.2,20-18.6h-9.7c-.8,6.1-4.2,10.2-10.3,10.2-9,0-12.4-7.6-12.4-15.2s3.4-15.6,12.4-15.6,9.2,3.4,9.9,8h9.7Z"/>
          <path class="st5" d="M763.5,191.5c.7-10.1-4.8-19.5-16-19.5s-16.8,7.5-16.8,17.4,6.4,17.3,16.8,17.3,12.9-3.2,15.4-11.1h-8c-.6,2-3.5,4.3-7.1,4.3s-7.8-2.6-8.1-8.4h23.8ZM739.7,185.8c.2-2.6,1.7-7,7.5-7s6.4,2.4,7.2,7h-14.7Z"/>
          <path class="st5" d="M768.9,205.7h9v-17.3c0-6.7,2.1-9.4,7-9.4s5.8,2.7,5.8,8.1v18.6h9v-20.3c0-8.2-2.4-13.6-12-13.6s-7.8,1.7-10.1,5.5h-.2v-4.6h-8.6v32.9Z"/>
          <path class="st5" d="M818.1,162.9h-9v9.9h-5.5v6h5.5v19.4c0,6.6,4.8,7.8,10.4,7.8s3.8,0,5.3-.3v-7.1c-.8.2-1.8.3-2.8.3-3.1,0-3.8-.8-3.8-3.8v-16.3h6.6v-6h-6.6v-9.9Z"/>
          <path class="st5" d="M829.1,205.7h9v-14.8c0-5.9,2.2-10.6,8.9-10.6s2.4.1,3.2.3v-8.4c-.6-.2-1.3-.3-2-.3-4.5,0-8.8,2.9-10.5,7h-.1s0-6.1,0-6.1h-8.6v32.9Z"/>
          <path class="st5" d="M885.1,191.5c.7-10.1-4.8-19.5-16-19.5s-16.8,7.5-16.8,17.4,6.4,17.3,16.8,17.3,12.9-3.2,15.4-11.1h-8c-.6,2-3.5,4.3-7.1,4.3s-7.8-2.6-8.1-8.4h23.8ZM861.3,185.8c.2-2.6,1.7-7,7.5-7s6.4,2.4,7.2,7h-14.7Z"/>
          <path class="st1" d="M545.2,107.7c-6.2,0-11.2,5-11.2,11.2s3.7,9.7,8.6,10.9c.2-1.7.6-2.8.6-2.8,0,0,.3-1.6.6-3.4.3-1.8-1-2.5-1-2.5-.9-1.5-1.9-3.4,0-7,1.9-3.5,4.1.7,4.1.7,0,0,1.1,1.7,1.4,2.1.3.4,1,3.2,0,4.3-.9,1.1-1.1,2.1-1.1,2.1,0,0-.8,3.5-.8,3.7s-.1,1.1-.9,2.4c-.2.3-.3.5-.4.7,0,0,0,0,.1,0,6.2,0,11.2-5,11.2-11.2s-5-11.2-11.2-11.2Z"/>
          <path class="st0" d="M544,133.7c0,2.7,1.6,4,2.4,6.4.9,3-1.2,6.9-1.6,10.6-.3,3.1.7,13.4.7,13.4-.3-.9-2.1-8.9-1.9-13.3.1-4.9,2.7-8.4,1.6-10.5-1.1-2.2-2.1-3-2.5-5-.1-.5-.2-1.1-.2-1.6h-5.2v72.1h15.8v-72.1h-9.1Z"/>
        </g>
        <g>
          <path class="st6" d="M227.8,201.2c-2.9,3.8-6.6,5.1-10.2,5.1-11.5,0-18.3-8.6-18.3-19.4s6.8-19.7,18.3-19.7,14.9,4.6,15.7,13.2h-7.8c-1-4.2-4-6.3-7.9-6.3-7.4,0-10.1,6.3-10.1,12.8s2.8,12.5,10.1,12.5,8.4-2.8,8.9-8h-8.2v-6.1h15.7v20.1h-5.2l-.8-4.2Z"/>
          <path class="st6" d="M239.4,186.8c.4-6.9,6.6-9,12.7-9s11.8,1.2,11.8,7.7v14c0,2.5.3,4.9.9,6h-7.5c-.3-.8-.5-1.7-.5-2.6-2.4,2.5-5.7,3.3-9.1,3.3-5.2,0-9.2-2.6-9.2-8.1.1-12.3,18.3-5.7,18-11.7,0-3.1-2.2-3.7-4.8-3.7s-4.6,1.1-4.9,4.1h-7.4ZM256.5,192.3c-1.3,1.1-3.9,1.1-6.2,1.6-2.3.4-4.4,1.3-4.4,4s2.1,3.4,4.5,3.4c5.8,0,6-4.5,6-6.2v-2.8Z"/>
          <path class="st6" d="M269.6,178.5h7v5h.1c1.4-3.4,4.9-5.7,8.6-5.7s1.1.1,1.6.3v6.9c-.7-.2-1.8-.3-2.7-.3-5.5,0-7.3,3.9-7.3,8.7v12.2h-7.4v-27Z"/>
          <path class="st6" d="M289.9,168.2h7.4v13.6h.1c1.8-2.8,5.2-4,8.5-4,5.4,0,11.2,4.3,11.2,14.2s-5.8,14.2-11.2,14.2-7.3-1.2-8.9-4.2h-.1v3.4h-7v-37.3ZM303.4,183.3c-4.4,0-6.3,4.1-6.3,8.7s1.9,8.6,6.3,8.6,6.3-4.1,6.3-8.6-1.9-8.7-6.3-8.7"/>
          <path class="st6" d="M321.8,168.2h7.4v14h.2c1.9-3.1,5.1-4.5,7.9-4.5,7.9,0,9.9,4.4,9.9,11.1v16.6h-7.4v-15.2c0-4.4-1.3-6.6-4.8-6.6s-5.7,2.2-5.7,7.7v14.1h-7.4v-37.3Z"/>
          <path class="st6" d="M352.5,186.8c.4-6.9,6.6-9,12.7-9s11.9,1.2,11.9,7.7v14c0,2.5.3,4.9.9,6h-7.5c-.3-.8-.5-1.7-.5-2.6-2.3,2.5-5.7,3.3-9.1,3.3-5.2,0-9.2-2.6-9.2-8.1.1-12.3,18.3-5.7,18-11.7,0-3.1-2.2-3.7-4.8-3.7s-4.6,1.1-4.9,4.1h-7.4ZM369.6,192.3c-1.3,1.1-3.9,1.1-6.2,1.6-2.3.4-4.4,1.3-4.4,4s2.1,3.4,4.5,3.4c5.8,0,6-4.5,6-6.2v-2.8Z"/>
          <path class="st6" d="M410.5,201.2c-2.9,3.8-6.6,5.1-10.2,5.1-11.5,0-18.3-8.6-18.3-19.4s6.8-19.7,18.3-19.7,14.9,4.6,15.7,13.2h-7.8c-1-4.2-4-6.3-7.9-6.3-7.4,0-10.1,6.3-10.1,12.8s2.8,12.5,10.1,12.5,8.4-2.8,8.9-8h-8.2v-6.1h15.7v20.1h-5.2l-.8-4.2Z"/>
          <path class="st6" d="M447.7,205.5h-7v-3.8h-.2c-1.9,3.1-5.1,4.5-8.2,4.5-7.9,0-9.9-4.4-9.9-11.1v-16.6h7.4v15.2c0,4.4,1.3,6.6,4.8,6.6s5.7-2.2,5.7-7.7v-14.1h7.4v27Z"/>
          <path class="st6" d="M472.6,202h-.1c-1.7,2.9-4.7,4.2-8.2,4.2-8.1,0-12.1-6.9-12.1-14.5s4-14,12-14,6.3,1.4,8,4h.1v-13.6h7.4v37.3h-7v-3.4ZM466.1,183.3c-4.9,0-6.5,4.2-6.5,8.6s1.9,8.7,6.5,8.7,6.4-4.3,6.4-8.7-1.6-8.6-6.4-8.6"/>
          <path class="st6" d="M492.8,174.3h-7.4v-6.1h7.4v6.1ZM485.4,178.5h7.4v27h-7.4v-27Z"/>
          <g>
            <path class="st2" d="M140.8,105.1c-.7-.8-1.3-1.6-2-2.4,5.8-5.9,11.5-11.8,17.3-17.7,23.5,31.1,29.8,68.1,21.6,91.2-13.3,37.3-64.9,37.4-79.2,5.6-4.8-13.2.8-24.3,10.4-30.6,6.5-4.2,12.7-6,20.3-4.7,8.1,1.4,18.2,5.2,28.1,7.4,2.6.6,9.8,2.5,11.8,1.6,1.9-.9,1.9-3.1,2-4.5.6.3,1.4.6,2,.8l-4.6,10.9c-12.4-3.1-24.9-6.3-37.3-9.4-7.5-1.4-14.2-1.2-19.7,1.1-18.5,7.6-14.6,27-.7,37.7,23.6,18.2,56.9,7.8,65.3-20.8,5.5-18.8.9-33.3-6.2-51.1-4.3-10.6-9.6-20.1-16.4-28.1-4.2,4.3-8.5,8.6-12.7,12.9"/>
            <path class="st6" d="M175.9,106.5v-3.1h.6l.7,2.2c0,.2.1.4.1.5,0-.1,0-.3.2-.5l.7-2.1h.5v3.1h-.4v-2.6l-.9,2.6h-.4l-.9-2.6v2.6h-.4ZM174,106.5v-2.7h-1v-.4h2.4v.4h-1v2.7h-.4ZM178.8,102.1c-.7-.7-1.8-1.2-2.9-1.2s-2.1.5-2.9,1.2c-.7.7-1.2,1.8-1.2,2.9s.5,2.1,1.2,2.9c.7.7,1.8,1.2,2.9,1.2s2.1-.5,2.9-1.2c.7-.7,1.2-1.8,1.2-2.9s-.5-2.1-1.2-2.9M175.9,100.4c1.2,0,2.4.5,3.2,1.3.8.8,1.3,2,1.3,3.2s-.5,2.4-1.3,3.2c-.8.8-1.9,1.3-3.2,1.3s-2.4-.5-3.2-1.3c-.8-.8-1.3-1.9-1.3-3.2s.5-2.4,1.3-3.2c.8-.8,1.9-1.3,3.2-1.3"/>
            <path class="st0" d="M125.6,178.7c-.6-2.9-2.6-4.2-5-4.3-5.5-.3-8.4,6.2-7.8,10.9.6,4.5,4.1,7.8,10.8,7.1,4.4,2.8,8,4.9,12,6,5.8,1.5,14.2.8,17-5.5,1.9-4.4-1.3-9.1-6.6-10.6-.2-2.1-.3-4.2-.5-6.3,1.5-2.9-1.4-4.6-3.2-5.1-1.1,0-1.9,1.2-1.3,2,.8.9,1.6,1.4,2.1,2.7-.2,2.2-2,4.7-3,6.8-1.2,2.1-1,3.9,1.1,5.2,1.6.7,2.3,1.5,1.8,2.4-1.5.3-1.7-1.8-3.6-2.5-1.8.1-3.6,2.1-5.2,1.2.5-1.9.8-3.8.6-5.5,0-1.4-1.7-1.7-2.3-2.9.5-.7,1.1-1.2.9-2.5-.9-1.1-2.9-.8-3,0,.1.8.1,1.8.5,2.6.4,1.2.5,2.3,1.3,3.3-.4.7-.9,1.3-1.3,2-.3.6-1.4-.3-.9-1.2,1.5-2.3,0-4.4-1.1-4.7,0-.4-.1-1.1-.4-1.4-.8.4-1.9.6-2.9.5"/>
            <path class="st0" d="M159,104.7c-1,4.6-1.9,9.1-2.9,13.7-.3-2.6-1-4.5-2.1-5.8-3.6-4.6-16.9-2.1-21.6-.3-4.6,1.8-8.6,4.7-12.1,8.7-10.1,11.2-16.6,40.8.7,46.8,10.3,3.6,27.5-5.3,29-17.3.7-5.2-1-10.6-5.1-14.1,8.2-1.1,13.1,1.7,9.9,14-2,4.7-4.5,8.6-7.6,11.7-10.7,10.7-36.9,15.6-41.9-2.6-3.9-14,2.3-30.8,12.8-40.6,4.8-4.5,10.7-8,17.7-10.6,7.6-2.8,15.3-4.3,23.3-3.6"/>
            <polygon class="st7" points="90.5 196.6 88.9 194.7 89.6 194.2 93.4 198.7 92.8 199.3 91.2 197.4 85.7 202 85 201.3 90.5 196.6"/>
            <polygon class="st7" points="95 200.3 92.8 202.8 95.7 205.4 97.9 202.9 98.7 203.6 93.3 209.6 92.5 208.8 95 206.1 92.2 203.4 89.6 206.2 88.9 205.5 94.3 199.6 95 200.3"/>
            <polygon class="st7" points="101.3 210.8 98.8 209 97.1 211.4 99.9 213.4 99.4 214.1 95.7 211.5 100.4 204.9 103.9 207.4 103.4 208.1 100.7 206.2 99.3 208.3 101.8 210.1 101.3 210.8"/>
            <path class="st7" d="M109.9,219.3c-.4,0-1.2-.2-2.1-.6-2.1-1-3-3-1.8-5.4,1.1-2.3,3.4-3.1,5.6-2,.9.4,1.4.9,1.6,1.1l-.6.7c-.3-.3-.7-.7-1.3-1-1.7-.8-3.4-.3-4.3,1.6-.8,1.8-.4,3.4,1.4,4.3.6.3,1.2.4,1.7.4l-.2.8Z"/>
            <path class="st7" d="M119.8,218.7c-.8,2.6-2.9,3.5-4.9,2.9-2-.6-2.9-2.7-2.2-5,.8-2.4,2.8-3.5,4.9-2.9,2.1.7,2.9,2.7,2.2,5M113.8,216.9c-.5,1.6-.1,3.4,1.4,3.9,1.6.5,2.9-.7,3.5-2.4.5-1.5.2-3.4-1.4-3.9-1.6-.5-2.9.7-3.5,2.4"/>
            <path class="st7" d="M121.2,221.9c.4.4,1,.7,1.7.9,1,.2,1.8-.2,1.9-1,.1-.7-.2-1.2-1.2-1.8-1.2-.7-1.9-1.5-1.7-2.6.2-1.2,1.4-2,3-1.7.8.1,1.4.4,1.7.7l-.4.8c-.2-.2-.7-.5-1.4-.7-1.1-.2-1.6.4-1.7.9-.1.7.3,1.2,1.3,1.8,1.2.8,1.8,1.5,1.6,2.7-.2,1.2-1.3,2.1-3.2,1.8-.8-.1-1.6-.5-1.9-.9l.4-.8Z"/>
            <path class="st7" d="M135.2,221.2c0-1.1,0-2.5,0-3.5h0c-.3.9-.7,1.9-1.2,3l-1.6,3.8h-.8s-1.1-3.9-1.1-3.9c-.3-1.2-.6-2.2-.8-3.2h0c0,1-.2,2.3-.3,3.5l-.4,3.4h-1s.9-8.1.9-8.1h1.3c0,0,1.2,4,1.2,4,.3,1,.5,1.9.7,2.7h0c.2-.8.6-1.7,1-2.7l1.6-3.8h1.3c0,0,.1,8.1.1,8.1h-1c0,0,0-3.6,0-3.6Z"/>
            <rect class="st7" x="138.9" y="216.5" width="1" height="8" transform="translate(-14.7 10) rotate(-3.9)"/>
            <path class="st7" d="M148.6,223.1c-.3.2-1.1.6-2,.7-2.2.4-4.2-.8-4.6-3.4-.4-2.5,1-4.4,3.5-4.8,1-.2,1.7,0,1.9,0v.9c-.5-.1-1.1-.2-1.8,0-1.9.3-2.9,1.7-2.6,3.8.3,1.9,1.6,3,3.6,2.7.6-.1,1.2-.3,1.6-.6l.3.8Z"/>
            <path class="st7" d="M155.5,221.5l-4.7-6.8,1-.4,2.3,3.5c.6.9,1.1,1.7,1.5,2.4h0c-.2-.8-.3-1.8-.4-2.9l-.4-4.2,1-.4,2.4,3.5c.5.8,1.1,1.6,1.5,2.4h0c-.2-.9-.3-1.8-.4-2.8l-.4-4.2,1-.4.7,8.3-1,.4-2.4-3.6c-.6-.9-1-1.6-1.4-2.3h0c.1.8.3,1.6.3,2.7l.4,4.3-1,.4Z"/>
            <path class="st7" d="M168.9,210.6c1.4,2.4.7,4.5-1.1,5.5-1.8,1.1-4,.4-5.2-1.7-1.3-2.2-.7-4.5,1.1-5.5,1.9-1.1,4-.3,5.2,1.7M163.6,213.8c.9,1.5,2.4,2.4,3.9,1.5,1.4-.8,1.5-2.6.6-4.2-.8-1.4-2.4-2.4-3.9-1.6-1.5.9-1.4,2.7-.6,4.2"/>
            <path class="st7" d="M176.4,205.5c-.8-.8-1.7-1.8-2.3-2.6h0c.4.9.7,1.9,1.1,3l1.3,3.9-.6.5-3.4-2.2c-1-.6-1.9-1.2-2.7-1.8h0c.6.8,1.4,1.9,2.1,2.9l2,2.8-.8.6-4.6-6.6,1-.8,3.5,2.2c.9.6,1.7,1.1,2.3,1.6h0c-.4-.8-.7-1.7-1-2.7l-1.3-3.9,1-.8,5.4,5.9-.8.6-2.4-2.6Z"/>
            <path class="st7" d="M175.8,200c.2-.4.7-1,1.2-1.5.7-.8,1.3-1.1,1.9-1.2.5,0,1,0,1.5.5.6.5.7,1.4.4,2.2h0c.7-.4,1.7-.6,2.6.2.5.5.7,1,.7,1.6,0,.8-.5,1.6-1.3,2.6-.5.5-.9.9-1.2,1.1l-5.8-5.4ZM178.9,201.4l.6-.7c.7-.8.8-1.7.2-2.2-.7-.6-1.5-.4-2.2.4-.3.4-.5.6-.6.7l1.9,1.8ZM181.8,204.1c.2-.1.4-.3.6-.6.7-.8,1.1-1.8.3-2.6-.8-.7-1.8-.4-2.6.5l-.6.6,2.3,2.1Z"/>
          </g>
          <g>
            <path class="st1" d="M490.9,97.8c-1.1-1.1-2.6-1.8-4.3-1.8s-3.2.7-4.3,1.8c-1.1,1.1-1.8,2.6-1.8,4.3s.7,3.2,1.8,4.3c1.1,1.1,2.6,1.8,4.3,1.8s3.2-.7,4.3-1.8c1.1-1.1,1.8-2.6,1.8-4.3s-.7-3.2-1.8-4.3ZM490.5,106c-1,1-2.4,1.6-3.9,1.6s-2.9-.6-3.9-1.6c-1-1-1.6-2.4-1.6-3.9s.6-2.9,1.6-3.9c1-1,2.4-1.6,3.9-1.6s2.9.6,3.9,1.6c1,1,1.6,2.4,1.6,3.9s-.6,2.9-1.6,3.9Z"/>
            <path class="st1" d="M488.8,102.9c0,.3-.2.5-.2.7,0-.1,0-.3-.2-.6l-1-2.9h-.8v4.1h.5v-3.5l1.2,3.5h.5l1.2-3.5v3.5h.5v-4.1h-.7l-1,2.9Z"/>
            <polygon class="st1" points="482.8 100.5 484.1 100.5 484.1 104.2 484.7 104.2 484.7 100.5 486 100.5 486 100 482.8 100 482.8 100.5"/>
            <path class="st1" d="M250.4,90.5c.9,0,1.8.5,2.5,1.4-.5-3.3-2.4-5-5.6-5.3-1.5-.1-2.9.2-4.1.9-1.2.7-1.9,1.7-2.2,3.1-.3,1.9.4,3.8,2.2,5.9,1.9,2.3,2.9,3.9,2.9,4.9,0,2.2-1.5,3.2-4.4,3.2h-36.7c-1.6,0-2.6-.1-3.1-.3-.5-.2-1.1-1-2-2.2l-.3.4c1,1.6,1.5,3.1,1.4,4.6,0,.9-.4,1.9-1,3-.6,1.2-.8,2.2-.8,3.2,0,2,.6,3.7,1.8,5l.3-.3c-.4-.7-.6-1.4-.6-1.9,0-1.5,1.2-2.3,3.5-2.3h5.6c-3.1,1.1-5.6,3-7.2,5.7-1.7,2.7-2.5,5.7-2.5,9.1s.5,7.9,1.5,10.9c1.5,4.4,4,6.7,7.3,6.7s2.1-.5,3.5-1.6c1.4-1,2.6-1.6,3.5-1.6,2,0,3.2,1,3.4,3.1,1.9-2.1,3-3.3,3.1-3.5.9-1.2,1.3-2.7,1.3-4.4,0-3.3-1.3-5.2-4-5.8-2.5-.2-4.9-.4-7.3-.7-2.6-.7-4-2.9-4-6.5s2-6.7,5.9-8.9c3.2-1.7,6.9-2.6,11-2.6s7.8.9,11.2,2.7c4,2.2,6,5.1,6,8.9s-1.3,5.3-3.9,6.2c-2.4.4-4.8.9-7.2,1.3-2.6.7-3.9,2.4-3.9,5.3s.4,3.6,1.3,5.2c1,1.9,2.5,2.9,4.2,2.9s2.3-.5,3.9-1.6c1.6-1,2.9-1.6,3.9-1.6,2.4,0,3.7,1,3.9,3.1,3.9-3.9,5.8-10,5.8-18.5s-1.3-6.9-3.8-9.9c-1.4-1.6-3.1-2.9-5-4.1,2.8,0,5.2-.8,7-2.5,1.8-1.7,2.7-4,2.6-7.1,0-1.3-.7-3.1-1.8-5.5-1.1-2.4-1.7-4.1-1.7-5.2,0-2,.8-3,2.5-3Z"/>
            <path class="st1" d="M279.7,143.6c-1.2,1.6-2.4,3.2-3.6,4.9-1.4,1.9-2.1,3.8-2.1,5.6s.9,3.2,2.6,3.6c.4,0,1.2-.2,2.4-.8,1.2-.6,2-.9,2.4-1,.4,0,.8.1,1.2.5.4.4.6.8.6,1.2,1.4-.8,2.1-2,2.1-3.7s-.7-3.6-2.1-5.5c-1.2-1.6-2.4-3.2-3.6-4.8Z"/>
            <path class="st1" d="M304.8,90.5c.9,0,1.8.5,2.5,1.4-.5-3.3-2.4-5-5.6-5.3-1.5-.1-2.9.2-4.1.9-1.2.7-1.9,1.7-2.2,3.1-.3,1.9.4,3.8,2.2,5.9,1.9,2.3,2.9,3.9,2.9,4.9,0,2.2-1.5,3.2-4.4,3.2h-8.3c-2.7,0-4.7-.9-5.9-2.6l-.3.4c1,1.4,1.5,2.6,1.5,3.7s-.3,2.1-.9,3.6c-.6,1.6-.9,2.8-.9,3.6,0,2,.6,3.7,1.7,5l.3-.3c-.4-.8-.6-1.4-.6-1.9,0-1.7,1.9-2.5,5.8-2.5s5.5.8,7.8,2.3c2.4,1.7,3.6,4,3.6,6.9s-1,5-2.9,6.6c-1.9,1.7-4.3,2.5-7.2,2.5s-6.2-.6-7.6-1.8c-1.6-1.3-2.3-3.7-2-7.2h-1v2.6c0,4.3-2.6,6.4-8.1,6.4s-6.1-1.5-6.1-4.5,1.3-2.6,3.8-3.3c3.9-1.2,6.3-2,7-2.5,2.6-1.5,3.8-3.8,3.8-7s-1.3-6.1-3.9-7.9c-2.2-1.5-5.1-2.3-8.8-2.3s-6.3.7-8.6,2.2c-2.6,1.8-3.9,4.3-3.9,7.5s.9,5.1,2.8,6.9c.4-1.8,1.6-2.8,3.4-2.8s1.3,0,2.4.2c1.1.2,1.9.2,2.5.2,2.2,0,3.5-.7,4-2.2-1,.4-2.1.6-3.1.6-2.2,0-3.2-.9-3.2-2.7s.6-2.2,1.8-2.9c1-.7,2.2-1,3.6-1,4,0,6,1.5,6,4.5s-1.7,3.7-5.2,4.3c-5.4.9-8.6,1.7-9.7,2.2-3.5,1.8-5.2,5.3-5.2,10.5s1.5,7.9,4.4,10.4c2.8,2.3,6.4,3.5,10.8,3.5s5.2-.8,9.1-2.5c3.9-1.7,6.9-2.5,9-2.5,3.7,0,6,1.7,6.9,5,6.7-3.4,10.1-9.5,10.1-18.5s-1-8.1-3-11.1c-.8-1.3-1.9-2.3-3-3.2,1.7-.4,3.2-1.1,4.4-2.2,1.8-1.7,2.7-4,2.6-7.1,0-1.3-.7-3.1-1.8-5.5-1.1-2.4-1.7-4.1-1.7-5.2,0-2,.8-3,2.5-3Z"/>
            <path class="st1" d="M347.6,107.1c-.1-1.5.3-3,1.4-4.6l-.3-.4c-.9,1.3-1.5,2-2,2.3-.5.2-1.5.3-3.1.3h-24.5c-2.8,0-5.3,1-7.3,3.1-2.1,2.1-3.1,4.5-3.1,7.3,0,4.4,1.8,7.4,5.3,8.9-3.5,2.1-5.3,5.3-5.3,9.7s1,6.6,2.9,9c1.9,2.4,4.5,3.6,7.8,3.6s3.1-.6,5.1-1.8c2.1-1.2,3.7-1.8,5-1.8,3.1,0,4.8,1.2,5.1,3.6,3.8-3.3,5.6-7.7,5.6-13.2s0-3.2-.3-5.4c-1.5,3.3-6.2,5-13.9,5s-8.2-1.3-8.2-3.8c0-1.5.8-2.5,2.7-2.9.6-.2,2.4-.3,5.4-.4.6,0,1.2.2,1.9.5.6.3,1,.8,1,1.2s0,.5-.3.7h.2c.6-.5.9-1.4.9-2.4,0-.5-.1-1-.4-1.7-.3-.6-.4-1.1-.5-1.6,0-.8.2-1.6.9-2.4l-.2-.2c-.8,1.2-2.2,1.8-4.3,1.8-5.3,0-8-1.4-8-4.2s.4-1.8,1.3-2.5c.9-.7,1.8-1.1,2.9-1.1h22.6c2.6,0,3.9.8,3.9,2.5s-.2,1.1-.6,1.8l.3.3c1.1-1.3,1.7-3,1.8-5,0-1-.2-2.1-.8-3.2-.6-1.2-.9-2.2-1-3Z"/>
            <path class="st1" d="M421.1,104.7c-.6,0-1.5.2-2.6.6-1.1.4-1.9.6-2.5.6-2.7,0-4.9-1.2-6.6-3.7l-.3.4c1,1.4,1.5,2.6,1.5,3.8s-.3,2-.9,3.5c-.6,1.5-.9,2.7-.9,3.6,0,1.9.6,3.6,1.8,5l.3-.3-.5-1.8c0-1.6,1.7-2.4,5-2.4,7.7,0,11.6,3.1,11.6,9.3s-1.1,5.3-3.3,6.9c-2,1.5-4.5,2.2-7.6,2.2-5.9,0-9.6-1.3-11.1-3.9,0-.2,0-.3,0-.5,0-3.6-1.3-6.9-3.8-9.9-1.4-1.6-3.1-2.9-5-4.1,2.8,0,5.2-.8,7-2.5,1.8-1.7,2.7-4,2.6-7.1,0-1.3-.7-3.1-1.8-5.5-1.1-2.4-1.7-4.1-1.7-5.2,0-2,.8-3,2.5-3s1.8.5,2.5,1.4c-.5-3.3-2.4-5-5.6-5.3-1.5-.1-2.9.2-4.1.9-1.2.7-1.9,1.7-2.2,3.1-.3,1.9.4,3.8,2.2,5.9,1.9,2.3,2.9,3.9,2.9,4.9,0,2.2-1.5,3.2-4.4,3.2h-36.7c-1.6,0-2.6-.1-3.1-.3-.5-.2-1.1-1-2-2.2l-.3.4c1,1.6,1.5,3.1,1.4,4.6,0,.9-.4,1.9-1,3-.6,1.2-.8,2.2-.8,3.2,0,2,.6,3.7,1.8,5l.3-.3c-.4-.7-.6-1.4-.6-1.9,0-1.5,1.2-2.3,3.5-2.3h5.6c-3.1,1.1-5.5,3-7.2,5.7-1.7,2.7-2.5,5.7-2.5,9.1s.5,7.9,1.5,10.9c1.5,4.4,4,6.7,7.3,6.7s2.1-.5,3.5-1.6c1.4-1,2.6-1.6,3.5-1.6,2,0,3.2,1,3.4,3.1,1.9-2.1,3-3.3,3.1-3.5.9-1.2,1.3-2.7,1.3-4.4,0-3.3-1.3-5.2-4-5.8-2.5-.2-4.9-.4-7.3-.7-2.6-.7-4-2.9-4-6.5s2-6.7,5.9-8.9c3.2-1.7,6.9-2.6,11-2.6s7.8.9,11.2,2.7c4,2.2,6,5.1,6,8.9s-1.3,5.3-3.9,6.2c-2.4.4-4.8.9-7.2,1.3-2.6.7-3.9,2.4-3.9,5.3s.4,3.6,1.3,5.2c1,1.9,2.5,2.9,4.2,2.9s2.3-.5,3.9-1.6c1.6-1,2.9-1.6,3.9-1.6,2.4,0,3.7,1,3.9,3.1,1.7-1.7,3.1-4,4-6.6,0,.2.1.4.2.6,1.8,4,4.6,6,8.5,6s2.4-.6,4.1-1.8c1.7-1.2,3-1.8,4.1-1.8,2.8,0,4.3,1.2,4.5,3.6,4.1-3.9,6.1-10.8,6.1-20.4s-.5-9.1-1.6-12.7c-1.6-5.6-4.2-8.4-7.9-8.4Z"/>
            <path class="st1" d="M472.6,103.8c-4.1-3-9.2-4.4-15.1-4.4s-7.4.6-10.5,1.9c-4.1,1.7-6.2,4.2-6.2,7.6s.9,5.1,2.7,6.5c-6.1,2.8-9.1,7.5-9.1,14s1.4,8.4,4.2,11.7c3,3.5,6.7,5.3,11.1,5.3s5.3-.8,9.1-2.5c3.9-1.7,6.9-2.5,9.1-2.5,3.6,0,5.9,1.7,6.8,5,6.8-3.4,10.2-9.2,10.2-17.6s-1.4-9.4-4.2-11.6c-1-5.7-3.7-10.1-8.1-13.2ZM475.7,119.1c.6.7,1,1.5,1,2.4s-.3,1.7-1,2.4c-.6.7-1.4,1-2.4,1s-1.7-.3-2.4-1c-.6-.7-1-1.5-1-2.4s.3-1.7,1-2.4c.6-.7,1.4-1,2.4-1s1.7.3,2.4,1ZM452.6,105.9c1.2-.9,2.5-1.3,4-1.3s2.4.4,3.5,1.3c1,.9,1.5,1.9,1.5,3.2s-.5,2.4-1.6,3.3c-1.1.9-2.3,1.4-3.6,1.4s-2.8-.4-3.9-1.2c-1.1-.8-1.7-1.9-1.7-3.3s.6-2.6,1.8-3.4ZM469.8,132.1c-6.5,0-9.7-2.4-9.7-7.2h-.9c0,2.2-.8,4-2.3,5.3-1.5,1.3-3.4,1.9-5.7,1.9-5.5,0-8.3-2.4-8.3-7.2s1.4-5.6,4.1-7.9c2.1.9,4.2,1.3,6.2,1.3,3.4,0,6.4-.7,8.9-2.1,3-1.6,4.4-4.1,4.4-7.3s-.5-2.9-1.4-4.2c5,.4,8.4,4,10.2,10.8-.9-.6-2-.9-3.4-.9-2.7,0-5,.6-6.8,1.8-2.2,1.4-3.3,3.4-3.3,5.9s1,4.2,2.9,5.7c1.9,1.5,4,2.3,6.4,2.3s5.8-1.1,7.8-3.4c-1.4,3.6-4.4,5.4-8.9,5.4Z"/>
          </g>
        </g>
      </g>
    </g>
  </g>
</svg>