<?xml version="1.0" encoding="UTF-8"?>
<svg id="Layer_1" xmlns="http://www.w3.org/2000/svg" version="1.1" viewBox="0 0 874.7 841.7">
  <!-- Generator: Adobe Illustrator 30.3.0, SVG Export Plug-In . SVG Version: 2.1.3 Build 182)  -->
  <defs>
    <style>
      .st0 {
        fill: #231f20;
      }

      .st1 {
        fill: #fff;
      }

      .st2 {
        fill: #a7aaac;
      }

      .st3 {
        fill: #ef4166;
      }

      .st4 {
        fill: #58595b;
      }

      .st5 {
        fill: #ef4066;
      }

      .st6 {
        fill: #353635;
      }
    </style>
  </defs>
  <g>
    <path class="st6" d="M177.3,366.5c-6.4,8.3-14.6,11.3-22.5,11.3-25.3,0-40.3-18.9-40.3-42.6s15-43.3,40.3-43.3,32.7,10.2,34.6,28.9h-17.2c-2.2-9.2-8.7-13.8-17.3-13.8-16.2,0-22.3,13.8-22.3,28.1s6.1,27.4,22.3,27.4,18.5-6.2,19.5-17.7h-18.1v-13.4h34.5v44.3h-11.5l-1.8-9.3Z"/>
    <path class="st6" d="M202.8,334.7c.9-15.2,14.6-19.9,27.9-19.9s26.1,2.6,26.1,16.9v30.9c0,5.4.6,10.8,2.1,13.2h-16.5c-.6-1.8-1-3.8-1.1-5.7-5.2,5.4-12.6,7.4-20,7.4-11.4,0-20.2-5.6-20.2-17.8.2-27,40.2-12.5,39.5-25.8,0-6.9-4.8-8-10.6-8s-10.2,2.5-10.8,9h-16.3ZM240.5,346.7c-2.8,2.4-8.5,2.5-13.6,3.4-5.1.9-9.6,2.8-9.6,8.7s4.7,7.6,10,7.6c12.7,0,13.2-10,13.2-13.7v-6.1Z"/>
    <path class="st6" d="M269.4,316.4h15.5v11h.2c3.1-7.5,10.8-12.6,19-12.6s2.4.2,3.6.6v15.2c-1.5-.3-3.9-.6-5.9-.6-12.1,0-16.1,8.5-16.1,19.1v26.8h-16.3v-59.4Z"/>
    <path class="st6" d="M314.1,293.8h16.3v29.9h.2c4-6.1,11.4-8.8,18.7-8.8,11.8,0,24.6,9.5,24.6,31.2s-12.7,31.3-24.6,31.3-16-2.6-19.5-9.2h-.2v7.6h-15.5v-82ZM343.7,327.1c-9.6,0-13.9,9-13.9,19.1s4.2,19,13.9,19,13.9-9.1,13.9-19-4.2-19.1-13.9-19.1"/>
    <path class="st6" d="M384.2,293.8h16.3v30.9h.3c4.1-6.8,11.3-9.9,17.3-9.9,17.3,0,21.7,9.8,21.7,24.5v36.5h-16.3v-33.5c0-9.8-2.8-14.6-10.5-14.6s-12.6,4.9-12.6,17v31.1h-16.3v-82Z"/>
    <path class="st6" d="M451.6,334.7c.9-15.2,14.6-19.9,27.9-19.9s26.1,2.6,26.1,16.9v30.9c0,5.4.6,10.8,2.1,13.2h-16.5c-.6-1.8-1-3.8-1.1-5.7-5.2,5.4-12.6,7.4-20,7.4-11.4,0-20.2-5.6-20.2-17.8.2-27,40.2-12.5,39.5-25.8,0-6.9-4.8-8-10.6-8s-10.2,2.5-10.8,9h-16.3ZM489.3,346.7c-2.8,2.4-8.5,2.5-13.6,3.4-5.1.9-9.6,2.8-9.6,8.7s4.7,7.6,10,7.6c12.7,0,13.2-10,13.2-13.7v-6.1Z"/>
    <path class="st6" d="M579.2,366.5c-6.4,8.3-14.6,11.3-22.5,11.3-25.3,0-40.3-18.9-40.3-42.6s15.1-43.3,40.3-43.3,32.7,10.2,34.6,28.9h-17.2c-2.2-9.2-8.7-13.8-17.3-13.8-16.2,0-22.3,13.8-22.3,28.1s6.1,27.4,22.3,27.4,18.5-6.2,19.5-17.7h-18.1v-13.4h34.5v44.3h-11.5l-1.8-9.3Z"/>
    <path class="st6" d="M661.1,375.8h-15.5v-8.3h-.3c-4.1,6.8-11.3,9.9-18.1,9.9-17.3,0-21.7-9.8-21.7-24.5v-36.5h16.3v33.5c0,9.8,2.8,14.6,10.5,14.6s12.6-4.9,12.6-17v-31.1h16.3v59.4Z"/>
    <path class="st6" d="M715.8,368.2h-.2c-3.8,6.4-10.3,9.2-18,9.2-17.9,0-26.6-15.3-26.6-31.8s8.8-30.8,26.3-30.8,13.9,3,17.6,8.8h.2v-29.9h16.3v82h-15.5v-7.6ZM701.6,327.1c-10.7,0-14.4,9.3-14.4,18.9s4.3,19.1,14.4,19.1,14-9.4,14-19.2-3.4-18.8-14-18.8"/>
    <path class="st6" d="M760.4,307.2h-16.3v-13.4h16.3v13.4ZM744.1,316.4h16.3v59.4h-16.3v-59.4Z"/>
  </g>
  <g>
    <path class="st3" d="M756.5,138c-2.4-2.4-5.8-3.9-9.5-3.9s-7,1.5-9.5,3.9c-2.4,2.4-3.9,5.8-3.9,9.5s1.5,7,3.9,9.5c2.4,2.4,5.8,3.9,9.5,3.9s7-1.5,9.5-3.9c2.4-2.4,3.9-5.8,3.9-9.5s-1.5-7-3.9-9.5ZM755.6,156c-2.2,2.2-5.2,3.5-8.5,3.5s-6.3-1.3-8.5-3.5c-2.2-2.2-3.5-5.2-3.5-8.5s1.4-6.3,3.5-8.5c2.2-2.2,5.2-3.5,8.5-3.5s6.4,1.3,8.5,3.5c2.2,2.2,3.5,5.2,3.5,8.5s-1.4,6.3-3.5,8.5Z"/>
    <path class="st3" d="M751.8,149.2c-.2.6-.4,1.1-.5,1.5,0-.3-.2-.7-.4-1.3l-2.1-6.4h-1.8v9.1h1.2v-7.7l2.6,7.7h1.1l2.6-7.6v7.6h1.2v-9.1h-1.6l-2.2,6.3Z"/>
    <polygon class="st3" points="738.5 144 741.5 144 741.5 152 742.7 152 742.7 144 745.7 144 745.7 142.9 738.5 142.9 738.5 144"/>
    <path class="st3" d="M227.3,122c2,0,3.9,1,5.5,3-1.1-7.2-5.2-11-12.4-11.6-3.4-.3-6.4.4-9,1.9-2.6,1.6-4.2,3.8-4.8,6.8-.7,4.1.9,8.4,4.9,13.1,4.2,5,6.3,8.6,6.3,10.8,0,4.8-3.2,7.1-9.7,7.1h-80.8c-3.5,0-5.8-.2-6.8-.7-1-.5-2.5-2.1-4.4-4.9l-.6.8c2.3,3.5,3.3,6.9,3,10.1-.1,1.9-.9,4.1-2.1,6.7-1.3,2.6-1.9,4.9-1.7,7.1.1,4.5,1.4,8.1,3.9,11l.6-.6c-.8-1.6-1.2-3-1.2-4.3,0-3.4,2.6-5.1,7.7-5.1h12.4c-6.9,2.4-12.2,6.6-15.9,12.5-3.7,5.9-5.6,12.6-5.6,20.1s1.1,17.4,3.3,24c3.4,9.8,8.7,14.7,16,14.7s4.6-1.1,7.7-3.4c3.1-2.3,5.7-3.5,7.7-3.5,4.5,0,7,2.3,7.5,6.9,4.2-4.6,6.5-7.2,6.9-7.7,1.9-2.7,2.8-6,2.8-9.8,0-7.2-2.9-11.5-8.7-12.8-5.4-.4-10.8-.9-16-1.4-5.8-1.6-8.7-6.4-8.7-14.2s4.3-14.8,13-19.5c7-3.8,15.1-5.7,24.2-5.7s17.3,2,24.6,5.9c8.8,4.7,13.2,11.3,13.2,19.5s-2.8,11.6-8.5,13.6c-5.3.9-10.6,1.9-15.8,2.8-5.7,1.5-8.5,5.4-8.5,11.6s.9,8,2.8,11.4c2.3,4.2,5.4,6.3,9.3,6.3s5-1.1,8.6-3.4c3.6-2.3,6.5-3.5,8.6-3.5,5.3,0,8.1,2.3,8.5,6.9,8.5-8.5,12.8-22.1,12.8-40.6s-2.8-15.2-8.3-21.7c-3.1-3.5-6.8-6.4-10.9-8.9,6.2,0,11.4-1.9,15.4-5.6,4.1-3.7,6-8.9,5.7-15.5-.1-2.8-1.5-6.9-4-12.2-2.5-5.3-3.8-9.1-3.8-11.4,0-4.5,1.8-6.7,5.5-6.7Z"/>
    <path class="st3" d="M291.8,238.7c-2.7,3.6-5.3,7.1-7.9,10.7-3.1,4.3-4.7,8.4-4.7,12.3s1.9,7,5.7,7.8c.9.1,2.7-.4,5.4-1.7,2.6-1.3,4.4-2,5.4-2.1,1-.1,1.9.2,2.7,1.1.9.9,1.3,1.8,1.3,2.7,3.1-1.8,4.7-4.5,4.7-8.1s-1.6-8-4.7-12.2c-2.6-3.5-5.2-7-7.9-10.6Z"/>
    <path class="st3" d="M347.1,122c2,0,3.9,1,5.5,3-1.1-7.2-5.2-11-12.4-11.6-3.4-.3-6.4.4-9,1.9-2.6,1.6-4.2,3.8-4.8,6.8-.7,4.1.9,8.4,4.9,13.1,4.2,5,6.3,8.6,6.3,10.8,0,4.8-3.2,7.1-9.7,7.1h-18.3c-5.9,0-10.3-1.9-13-5.7l-.6.8c2.2,3,3.2,5.8,3.2,8.2s-.7,4.6-2,8c-1.4,3.4-2,6.1-2,8,0,4.4,1.3,8.1,3.8,11.1l.6-.6c-.8-1.7-1.2-3.1-1.2-4.2,0-3.7,4.3-5.5,12.8-5.5s12.2,1.7,17.1,5c5.3,3.8,7.9,8.8,7.9,15.1s-2.1,10.9-6.4,14.5c-4.3,3.6-9.5,5.5-15.7,5.5s-13.5-1.3-16.6-4c-3.5-3-5-8.2-4.5-15.9h-2.2v5.8c.1,9.4-5.8,14.1-17.8,14.1s-13.4-3.3-13.4-9.9,2.8-5.6,8.4-7.3c8.7-2.7,13.8-4.5,15.4-5.4,5.6-3.2,8.4-8.3,8.4-15.3s-2.8-13.4-8.5-17.3c-4.9-3.4-11.3-5-19.3-5s-13.9,1.6-18.9,4.8c-5.7,3.9-8.5,9.4-8.5,16.6s2,11.2,6.1,15.1c.9-4.1,3.4-6.1,7.5-6.1s2.8.2,5.3.5c2.4.3,4.3.5,5.5.5,4.7,0,7.6-1.6,8.7-4.9-2.3.8-4.6,1.2-6.9,1.2-4.7,0-7.1-2-7.1-6s1.4-4.8,4.1-6.4c2.3-1.5,4.9-2.2,7.9-2.2,8.8,0,13.2,3.3,13.2,10s-3.8,8.2-11.5,9.5c-11.8,2-18.9,3.6-21.3,4.9-7.6,4.1-11.5,11.8-11.5,23.1s3.2,17.4,9.7,22.9c6.1,5.1,14,7.7,23.9,7.7s11.5-1.8,20-5.5c8.5-3.7,15.1-5.5,19.8-5.5,8.1,0,13.2,3.7,15.2,11,14.8-7.4,22.3-21,22.3-40.6s-2.2-17.9-6.7-24.4c-1.9-2.8-4.2-5-6.7-7,3.7-.8,7-2.4,9.7-4.9,4.1-3.7,6-8.9,5.7-15.5-.1-2.8-1.5-6.9-4-12.2-2.5-5.3-3.8-9.1-3.8-11.4,0-4.5,1.8-6.7,5.5-6.7Z"/>
    <path class="st3" d="M441.3,158.5c-.3-3.2.8-6.6,3.1-10.2l-.6-.8c-1.9,2.8-3.4,4.5-4.4,5-1,.5-3.3.7-6.8.7h-53.8c-6.2,0-11.6,2.3-16.1,6.8-4.5,4.5-6.8,9.9-6.8,16.1,0,9.8,3.9,16.2,11.6,19.5-7.7,4.6-11.6,11.7-11.6,21.3s2.1,14.4,6.3,19.7c4.2,5.3,10,7.9,17.3,7.9s6.7-1.3,11.3-4c4.5-2.6,8.2-4,11.1-4,6.8,0,10.5,2.6,11.2,7.9,8.3-7.2,12.4-16.9,12.4-29s-.2-6.9-.6-11.8c-3.4,7.3-13.6,11-30.7,11s-17.9-2.8-18.1-8.3c-.1-3.4,1.8-5.5,5.9-6.3,1.3-.4,5.3-.7,12-.8,1.3,0,2.7.4,4.2,1.1,1.4.7,2.1,1.7,2.1,2.7s-.2,1.1-.6,1.6l.4.2c1.2-1.3,1.9-3.2,2-5.5,0-1.1-.3-2.3-.9-3.7-.6-1.4-1-2.5-1.1-3.5-.1-1.8.5-3.5,2-5.3l-.4-.4c-1.8,2.6-4.9,3.9-9.5,3.9-11.7,0-17.5-3.1-17.5-9.3s.9-4,2.8-5.6c1.9-1.6,4-2.3,6.3-2.3h49.7c5.7,0,8.5,1.8,8.5,5.5s-.4,2.4-1.2,3.9l.6.6c2.5-2.8,3.7-6.5,3.9-11,.1-2.2-.4-4.5-1.7-7.1-1.3-2.6-2-4.8-2.1-6.7Z"/>
    <path class="st3" d="M602.8,153.2c-1.4,0-3.2.4-5.7,1.2-2.4.8-4.3,1.2-5.5,1.2-6,0-10.8-2.7-14.6-8.1l-.6.8c2.2,3,3.2,5.8,3.2,8.3s-.7,4.3-2,7.7c-1.3,3.4-2,6-2,7.9,0,4.2,1.3,7.9,3.9,11l.6-.6-1-4c0-3.6,3.7-5.4,11-5.4,17,0,25.6,6.8,25.6,20.4s-2.4,11.6-7.3,15.2c-4.3,3.2-9.9,4.8-16.6,4.8-13,0-21-2.9-24.4-8.7,0-.4,0-.7,0-1.1,0-8-2.8-15.2-8.3-21.7-3.1-3.5-6.7-6.4-10.9-8.9,6.2,0,11.3-1.9,15.4-5.6,4.1-3.7,6-8.9,5.7-15.5-.1-2.8-1.5-6.9-4-12.2-2.5-5.3-3.8-9.1-3.8-11.4,0-4.5,1.8-6.7,5.5-6.7s3.9,1,5.5,3c-1.1-7.2-5.2-11-12.4-11.6-3.4-.3-6.4.4-9,1.9-2.6,1.6-4.2,3.8-4.8,6.8-.7,4.1.9,8.4,4.9,13.1,4.2,5,6.3,8.6,6.3,10.8,0,4.8-3.2,7.1-9.7,7.1h-80.8c-3.5,0-5.8-.2-6.8-.7-1-.5-2.5-2.1-4.4-4.9l-.6.8c2.3,3.5,3.3,6.9,3.1,10.1-.1,1.9-.9,4.1-2.1,6.7-1.3,2.6-1.9,4.9-1.7,7.1.1,4.5,1.4,8.1,3.9,11l.6-.6c-.8-1.6-1.2-3-1.2-4.3,0-3.4,2.6-5.1,7.7-5.1h12.4c-6.9,2.4-12.2,6.6-15.9,12.5-3.7,5.9-5.6,12.6-5.6,20.1s1.1,17.4,3.3,24c3.4,9.8,8.7,14.7,16,14.7s4.6-1.1,7.7-3.4c3.1-2.3,5.7-3.5,7.7-3.5,4.5,0,7,2.3,7.5,6.9,4.2-4.6,6.5-7.2,6.9-7.7,1.9-2.7,2.8-6,2.8-9.8,0-7.2-2.9-11.5-8.7-12.8-5.4-.4-10.8-.9-16-1.4-5.8-1.6-8.7-6.4-8.7-14.2s4.3-14.8,13-19.5c7-3.8,15.1-5.7,24.2-5.7s17.2,2,24.6,5.9c8.8,4.7,13.2,11.3,13.2,19.5s-2.8,11.6-8.5,13.6c-5.3.9-10.5,1.9-15.8,2.8-5.7,1.5-8.5,5.4-8.5,11.6s.9,8,2.8,11.4c2.3,4.2,5.4,6.3,9.3,6.3s5-1.1,8.6-3.4c3.6-2.3,6.5-3.5,8.6-3.5,5.3,0,8.1,2.3,8.5,6.9,3.8-3.8,6.7-8.7,8.8-14.5.2.4.3.9.5,1.3,3.9,8.8,10.2,13.3,18.7,13.3s5.3-1.3,8.9-4c3.7-2.6,6.6-4,8.9-4,6.1,0,9.4,2.6,10,7.9,8.9-8.7,13.4-23.7,13.4-45s-1.1-20-3.4-27.9c-3.5-12.3-9.3-18.5-17.5-18.5Z"/>
    <path class="st3" d="M716.1,151.2c-9.1-6.5-20.2-9.8-33.3-9.8s-16.4,1.4-23.1,4.3c-9.1,3.8-13.6,9.3-13.6,16.7s2,11.1,5.9,14.2c-13.4,6.2-20.1,16.5-20.1,30.7s3.1,18.4,9.3,25.6c6.6,7.7,14.7,11.6,24.4,11.6s11.6-1.8,20.1-5.5c8.5-3.7,15.2-5.5,20.1-5.5,8,0,13,3.7,15,11,14.9-7.5,22.3-20.3,22.3-38.6s-3.1-20.7-9.1-25.6c-2.2-12.5-8.1-22.2-17.9-29.1ZM722.9,184.9c1.4,1.5,2.1,3.2,2.1,5.3s-.7,3.8-2.1,5.3c-1.4,1.5-3.2,2.2-5.2,2.2s-3.8-.7-5.2-2.2c-1.4-1.5-2.1-3.2-2.1-5.3s.7-3.8,2.1-5.3c1.4-1.5,3.1-2.2,5.2-2.2s3.8.7,5.2,2.2ZM672.3,155.9c2.6-1.9,5.5-2.8,8.7-2.8s5.4.9,7.6,2.8c2.2,1.9,3.3,4.3,3.3,7.1s-1.2,5.3-3.5,7.3c-2.4,2-5,3-7.8,3s-6.1-.9-8.5-2.6c-2.4-1.8-3.7-4.2-3.7-7.3s1.3-5.6,3.9-7.5ZM710,213.5c-14.3,0-21.4-5.3-21.3-15.8h-2c0,4.9-1.7,8.8-5.1,11.6-3.4,2.8-7.6,4.2-12.6,4.2-12.2,0-18.3-5.3-18.3-15.7s3-12.2,8.9-17.4c4.7,1.9,9.3,2.8,13.6,2.8,7.6,0,14.1-1.6,19.5-4.6,6.5-3.6,9.7-9,9.7-16.1s-1-6.5-3-9.3c11,.9,18.4,8.9,22.3,23.8-1.9-1.4-4.4-2-7.5-2-6,0-11,1.3-15,3.9-4.9,3.1-7.3,7.4-7.3,13s2.1,9.2,6.3,12.5c4.2,3.3,8.9,5,14,5s12.8-2.5,17.3-7.5c-3.1,7.9-9.6,11.8-19.5,11.8Z"/>
  </g>
  <rect class="st2" x="114.2" y="424" width="647.1" height="1.8"/>
  <g>
    <g>
      <polygon class="st0" points="497.4 720.6 500.1 720.6 509.8 703.3 509.9 703.3 510.3 720.6 513.1 720.6 525.2 700 522.6 700 512.5 717.7 512.5 717.7 512.2 700 509.3 700 499.6 717.7 499.5 717.7 498.9 700 496.3 700 497.4 720.6"/>
      <path class="st0" d="M538.5,712.7c-1.1,4-5.1,6.5-8.9,6.5s-4.2-1.6-3.5-4.1c1.1-4,6.4-4,10.9-4.8.7-.1,1.9-.3,2.4-.9h0l-.9,3.3ZM529.3,706.3c1-3.4,3.6-4.8,6.8-4.8s5.2.8,4.3,4.2c-.6,2.2-1.9,2.6-4,2.8-5.6.6-11.3.9-12.8,6.6-1.1,4.2,1.5,6,5.3,6s6.1-1.5,8.6-4.2h0c-.6,2.1-.6,3.6,2,3.6s1.1,0,1.7-.2l.6-2.1c-.3.1-.6.2-.8.2-1,0-1.3-.5-1.1-1.5l2.9-10.9c1.5-5.6-2.2-6.6-5.8-6.6s-8.6,2.1-10.2,6.9h2.5Z"/>
      <path class="st0" d="M550.7,720.6l-1.5,2.4c-1.4,1.9-2.2,3.2-4.5,3.2s-1.1,0-1.7-.2l-.6,2.1c.4.2.9.2,1.9.2,3.2,0,4.2-1,6.6-4.5l15.3-23.8h-2.5l-11.1,17.6-2.1-17.6h-2.7l2.7,20.5Z"/>
      <path class="st0" d="M588.3,693.8h-2.5l-1.7,6.2h-3.6l-.6,2.1h3.6l-3.8,14.1c-1,3.5-.1,4.6,3.2,4.6s1.5,0,2.3,0l.6-2.2c-.7,0-1.5.1-2.2.1-1.8-.1-1.7-1.1-1.3-2.7l3.7-13.9h4.2l.6-2.1h-4.2l1.7-6.2Z"/>
      <path class="st0" d="M604.2,699.4c-6.3,0-11.1,5-12.7,10.9-1.6,5.9.5,10.9,6.8,10.9s11.1-5,12.7-10.9c1.6-5.9-.5-10.9-6.8-10.9ZM603.6,701.6c4.8,0,6,4.4,4.9,8.8-1.2,4.4-4.8,8.8-9.6,8.8s-6-4.4-4.9-8.8c1.2-4.4,4.8-8.8,9.6-8.8Z"/>
      <path class="st0" d="M625.8,720.6h2.5l3.2-12c1.2-4,4.3-7.1,8.4-7.1s4.5,2.7,3.6,6.2l-3.4,12.9h2.5l3.6-13.3c1.3-4.9.4-7.9-5.4-7.9s-6.1,1.7-7.7,4.1h0l3.1-11.5h-2.5l-7.6,28.5Z"/>
      <path class="st0" d="M668.1,711c1.7-5.8.6-11.6-6-11.6s-10.8,5.5-12.2,10.9c-1.6,5.9-.2,10.9,6.4,10.9s8.6-2.7,11-7.4h-2.5c-1.6,3.2-4.2,5.3-7.9,5.3s-5.6-4.4-4.6-8.1h15.9ZM652.8,708.9c1.4-3.8,4.6-7.4,8.8-7.4s5.5,3.6,4.6,7.4h-13.3Z"/>
      <path class="st0" d="M685,712.7c-1.1,4-5.1,6.5-8.9,6.5s-4.2-1.6-3.5-4.1c1.1-4,6.4-4,10.9-4.8.7-.1,1.9-.3,2.4-.9h0l-.9,3.3ZM675.8,706.3c1-3.4,3.6-4.8,6.8-4.8s5.2.8,4.3,4.2c-.6,2.2-1.9,2.6-4,2.8-5.6.6-11.3.9-12.8,6.6-1.1,4.2,1.5,6,5.3,6s6.1-1.5,8.6-4.2h0c-.6,2.1-.6,3.6,2,3.6s1,0,1.7-.2l.6-2.1c-.3.1-.6.2-.8.2-1,0-1.3-.5-1.1-1.5l2.9-10.9c1.5-5.6-2.2-6.6-5.8-6.6s-8.6,2.1-10.2,6.9h2.5Z"/>
      <polygon class="st0" points="691.2 720.6 693.8 720.6 701.4 692.1 698.9 692.1 691.2 720.6"/>
      <path class="st0" d="M710.6,693.8h-2.5l-1.7,6.2h-3.6l-.6,2.1h3.6l-3.8,14.1c-1,3.5-.1,4.6,3.2,4.6s1.5,0,2.3,0l.6-2.2c-.7,0-1.5.1-2.2.1-1.8-.1-1.7-1.1-1.3-2.7l3.7-13.9h4.2l.6-2.1h-4.2l1.7-6.2Z"/>
      <path class="st0" d="M712,720.6h2.5l3.2-12c1.2-4,4.3-7.1,8.4-7.1s4.5,2.7,3.6,6.2l-3.4,12.9h2.5l3.6-13.3c1.3-4.9.4-7.9-5.4-7.9s-6.1,1.7-7.7,4.1h0l3.1-11.5h-2.5l-7.6,28.5Z"/>
    </g>
    <path class="st4" d="M113.4,518.9c0,2.2,1.8,3.9,4.1,3.9s4.1-1.8,4.1-3.9v-31.5c0-2.2-1.8-3.9-4.1-3.9s-4.1,1.8-4.1,3.9v31.5Z"/>
    <rect class="st4" x="117.5" y="495.9" width="44.1" height="14.6"/>
    <path class="st5" d="M250.4,463h-88.9v22.3h80.9c13.4,0,25.7,2.9,25.7,19.6s-12.3,19.6-25.7,19.6h-51.4v135.2h28.7v-112.9h30.7c33.3,0,45.9-20.7,45.9-41.9s-12.7-41.9-45.9-41.9"/>
    <path class="st4" d="M282.3,545.8h23.1v43h.5c5.9-9.4,15.9-13.8,24.6-13.8,24.6,0,30.7,13.6,30.7,34.1v50.9h-23.1v-46.7c0-13.6-3.9-20.3-14.8-20.3s-17.9,6.9-17.9,23.7v43.4h-23.1v-114.2Z"/>
    <path class="st4" d="M377.7,602.8c1.3-21.1,20.7-27.7,39.5-27.7s36.9,3.7,36.9,23.5v43c0,7.5.8,15,2.9,18.4h-23.4c-.8-2.6-1.5-5.3-1.6-8-7.3,7.5-17.9,10.2-28.3,10.2-16.1,0-28.6-7.8-28.6-24.8.3-37.6,56.9-17.4,55.9-36,0-9.6-6.8-11.2-15-11.2s-14.5,3.5-15.3,12.5h-23.1ZM431.1,619.6c-3.9,3.4-12,3.5-19.2,4.8-7.2,1.3-13.7,3.8-13.7,12.2s6.7,10.6,14.2,10.6c18,0,18.7-13.9,18.7-19v-8.5Z"/>
    <path class="st4" d="M472,577.3h22v15.4h.3c4.4-10.4,15.3-17.6,26.8-17.6s3.4.3,5,.8v21.1c-2.1-.5-5.5-.8-8.3-.8-17.1,0-22.8,11.8-22.8,26.6v37.3h-23.1v-82.7Z"/>
    <path class="st4" d="M536,577.3h21.8v11.2h.3c6-8.5,14.6-13.4,25.7-13.4s20,3.7,24.6,13.8c5-7.2,13.7-13.8,25.4-13.8,17.9,0,30.7,8.2,30.7,29.6v55.3h-23.1v-46.9c0-11-1-20.2-14.1-20.2s-15.5,10.7-15.5,21v46.1h-23.1v-46.4c0-9.6.7-20.6-14-20.6s-15.6,2.9-15.6,19v48h-23.1v-82.7Z"/>
    <path class="st4" d="M681.7,602.8c1.3-21.1,20.7-27.7,39.5-27.7s36.9,3.7,36.9,23.5v43c0,7.5.8,15,2.9,18.4h-23.4c-.8-2.6-1.5-5.3-1.6-8-7.3,7.5-17.9,10.2-28.3,10.2-16.1,0-28.6-7.8-28.6-24.8.3-37.6,56.9-17.4,56-36,0-9.6-6.8-11.2-15-11.2s-14.5,3.5-15.3,12.5h-23.1ZM735,619.6c-3.9,3.4-12,3.5-19.2,4.8-7.2,1.3-13.7,3.8-13.7,12.2s6.7,10.6,14.1,10.6c18.1,0,18.7-13.9,18.7-19v-8.5Z"/>
    <path class="st1" d="M270.5,498.7v10.8c15.1-.5,26.4-2.7,26.4-5.4s-11.3-4.8-26.4-5.4"/>
    <polygon class="st5" points="337.7 505 296.4 505 296.4 503.1 334.3 503.1 337.7 505"/>
  </g>
</svg>