<?xml version="1.0" encoding="UTF-8"?>
<svg xmlns="http://www.w3.org/2000/svg" version="1.1" viewBox="0 0 911.6 326">
  <!-- Generator: Adobe Illustrator 30.3.0, SVG Export Plug-In . SVG Version: 2.1.3 Build 182)  -->
  <defs>
    <style>
      .st0 {
        fill: #fff;
      }

      .st1 {
        fill: #4d4d4e;
      }

      .st1, .st2 {
        fill-rule: evenodd;
      }

      .st3 {
        fill: #c7c5c4;
      }

      .st4 {
        isolation: isolate;
      }

      .st5, .st2 {
        fill: #ef4166;
      }

      .st6 {
        fill: #a8aaad;
        mix-blend-mode: multiply;
      }

      .st7 {
        fill: #58595b;
      }

      .st8 {
        fill: #ef4066;
      }

      .st9 {
        fill: #353635;
      }
    </style>
  </defs>
  <g class="st4">
    <g id="Layer_1">
      <g>
        <rect class="st3" x="515.6" y="103" width="1.8" height="107.3"/>
        <g>
          <path class="st9" d="M228.7,205.8c-2.9,3.8-6.7,5.1-10.3,5.1-11.6,0-18.4-8.7-18.4-19.5s6.9-19.8,18.4-19.8,15,4.7,15.8,13.2h-7.9c-1-4.2-4-6.3-7.9-6.3-7.4,0-10.2,6.3-10.2,12.9s2.8,12.6,10.2,12.6,8.5-2.8,8.9-8.1h-8.3v-6.1h15.8v20.3h-5.3l-.8-4.3Z"/>
          <path class="st9" d="M240.4,191.2c.4-6.9,6.7-9.1,12.8-9.1s11.9,1.2,11.9,7.7v14.1c0,2.5.3,4.9.9,6h-7.6c-.3-.8-.5-1.7-.5-2.6-2.4,2.5-5.8,3.4-9.1,3.4-5.2,0-9.2-2.6-9.2-8.1.1-12.3,18.4-5.7,18.1-11.8,0-3.2-2.2-3.7-4.8-3.7s-4.7,1.2-4.9,4.1h-7.5ZM257.6,196.7c-1.3,1.1-3.9,1.2-6.2,1.6-2.3.4-4.4,1.3-4.4,4s2.2,3.5,4.6,3.5c5.8,0,6-4.6,6-6.3v-2.8Z"/>
          <path class="st9" d="M270.9,182.9h7.1v5h.1c1.4-3.4,4.9-5.8,8.7-5.8s1.1.1,1.6.3v6.9c-.7-.2-1.8-.3-2.7-.3-5.5,0-7.4,3.9-7.4,8.7v12.2h-7.5v-27.2Z"/>
          <path class="st9" d="M291.3,172.5h7.5v13.7h.1c1.8-2.8,5.2-4,8.6-4,5.4,0,11.2,4.4,11.2,14.3s-5.8,14.3-11.2,14.3-7.3-1.2-8.9-4.2h-.1v3.5h-7.1v-37.5ZM304.9,187.7c-4.4,0-6.4,4.1-6.4,8.7s1.9,8.7,6.4,8.7,6.4-4.2,6.4-8.7-1.9-8.7-6.4-8.7"/>
          <path class="st9" d="M323.4,172.5h7.5v14.1h.2c1.9-3.1,5.2-4.5,7.9-4.5,7.9,0,9.9,4.5,9.9,11.2v16.7h-7.5v-15.3c0-4.5-1.3-6.7-4.8-6.7s-5.8,2.3-5.8,7.8v14.2h-7.5v-37.5Z"/>
          <path class="st9" d="M354.3,191.2c.4-6.9,6.7-9.1,12.8-9.1s11.9,1.2,11.9,7.7v14.1c0,2.5.3,4.9.9,6h-7.6c-.3-.8-.5-1.7-.5-2.6-2.4,2.5-5.8,3.4-9.1,3.4-5.2,0-9.2-2.6-9.2-8.1.1-12.3,18.4-5.7,18.1-11.8,0-3.2-2.2-3.7-4.8-3.7s-4.7,1.2-4.9,4.1h-7.5ZM371.5,196.7c-1.3,1.1-3.9,1.2-6.2,1.6-2.3.4-4.4,1.3-4.4,4s2.2,3.5,4.6,3.5c5.8,0,6-4.6,6-6.3v-2.8Z"/>
          <path class="st9" d="M412.6,205.8c-2.9,3.8-6.7,5.1-10.3,5.1-11.6,0-18.4-8.7-18.4-19.5s6.9-19.8,18.4-19.8,15,4.7,15.8,13.2h-7.9c-1-4.2-4-6.3-7.9-6.3-7.4,0-10.2,6.3-10.2,12.9s2.8,12.6,10.2,12.6,8.5-2.8,8.9-8.1h-8.3v-6.1h15.8v20.3h-5.3l-.8-4.3Z"/>
          <path class="st9" d="M450.1,210h-7.1v-3.8h-.2c-1.9,3.1-5.2,4.5-8.3,4.5-7.9,0-9.9-4.5-9.9-11.2v-16.7h7.5v15.3c0,4.5,1.3,6.7,4.8,6.7s5.8-2.3,5.8-7.8v-14.2h7.5v27.2Z"/>
          <path class="st9" d="M475.1,206.6h-.1c-1.7,2.9-4.7,4.2-8.2,4.2-8.2,0-12.2-7-12.2-14.6s4-14.1,12-14.1,6.4,1.4,8,4h.1v-13.7h7.5v37.5h-7.1v-3.5ZM468.6,187.7c-4.9,0-6.6,4.3-6.6,8.7s1.9,8.7,6.6,8.7,6.4-4.3,6.4-8.8-1.6-8.6-6.4-8.6"/>
          <path class="st9" d="M495.5,178.7h-7.5v-6.1h7.5v6.1ZM488.1,182.9h7.5v27.2h-7.5v-27.2Z"/>
          <g>
            <path class="st1" d="M141.2,109c-.7-.8-1.3-1.6-2-2.4,5.8-5.9,11.6-11.9,17.4-17.8,23.7,31.3,30,68.6,21.7,91.8-13.4,37.5-65.3,37.6-79.8,5.6-4.8-13.3.8-24.4,10.5-30.8,6.5-4.3,12.8-6,20.5-4.7,8.1,1.4,18.3,5.2,28.3,7.4,2.6.6,9.9,2.5,11.9,1.6,1.9-.9,1.9-3.1,2.1-4.5.6.3,1.4.6,2,.8l-4.7,11c-12.5-3.1-25-6.3-37.5-9.5-7.6-1.4-14.3-1.2-19.8,1.1-18.6,7.7-14.7,27.1-.7,37.9,23.8,18.3,57.2,7.8,65.7-21,5.6-19,.9-33.5-6.3-51.4-4.3-10.6-9.7-20.2-16.5-28.3-4.3,4.3-8.5,8.7-12.8,13"/>
            <path class="st9" d="M172.7,93.7v-4.4h.9l1,3.1c0,.3.2.5.2.6,0-.2.1-.4.2-.7l1-3h.8v4.4h-.6v-3.7l-1.3,3.7h-.5l-1.3-3.7v3.7h-.6ZM170.1,93.7v-3.9h-1.4v-.5h3.5v.5h-1.4v3.9h-.6ZM176.9,87.4c-1.1-1.1-2.5-1.7-4.1-1.7s-3.1.6-4.1,1.7c-1.1,1.1-1.7,2.5-1.7,4.1s.7,3.1,1.7,4.1c1,1.1,2.5,1.7,4.1,1.7s3.1-.6,4.1-1.7c1.1-1.1,1.7-2.5,1.7-4.1s-.7-3.1-1.7-4.1M172.8,85c1.8,0,3.4.7,4.6,1.9,1.2,1.2,1.9,2.8,1.9,4.6s-.7,3.4-1.9,4.6c-1.2,1.2-2.8,1.9-4.6,1.9s-3.4-.7-4.6-1.9c-1.2-1.2-1.9-2.8-1.9-4.6s.7-3.4,1.9-4.6c1.2-1.2,2.8-1.9,4.6-1.9"/>
            <path class="st2" d="M125.9,183.1c-.6-2.9-2.6-4.2-5-4.3-5.5-.3-8.5,6.2-7.9,11,.6,4.5,4.2,7.9,10.9,7.2,4.5,2.8,8,5,12.1,6,5.9,1.5,14.3.8,17.1-5.6,1.9-4.4-1.3-9.2-6.6-10.6-.2-2.1-.3-4.2-.5-6.4,1.5-2.9-1.4-4.6-3.2-5.1-1.1,0-1.9,1.2-1.3,2,.8.9,1.6,1.4,2.2,2.8-.2,2.2-2,4.7-3,6.9-1.2,2.1-1,3.9,1.1,5.3,1.7.7,2.3,1.5,1.8,2.4-1.5.3-1.7-1.8-3.6-2.5-1.9.1-3.7,2.2-5.2,1.2.5-1.9.8-3.8.6-5.6,0-1.4-1.7-1.7-2.3-2.9.5-.7,1.1-1.3.9-2.5-1-1.1-2.9-.8-3,0,.1.8.1,1.8.5,2.6.4,1.2.5,2.4,1.4,3.3-.4.7-.9,1.3-1.3,2-.3.6-1.4-.3-.9-1.2,1.5-2.3,0-4.5-1.1-4.8,0-.4-.1-1.1-.4-1.4-.8.4-1.9.6-2.9.5"/>
            <path class="st2" d="M159.5,108.6c-1,4.6-1.9,9.2-2.9,13.8-.3-2.6-1.1-4.5-2.1-5.9-3.6-4.6-17-2.1-21.7-.3-4.6,1.8-8.7,4.8-12.2,8.8-10.1,11.3-16.7,41.1.7,47.1,10.3,3.6,27.7-5.4,29.2-17.4.7-5.2-1-10.7-5.2-14.2,8.3-1.1,13.2,1.7,9.9,14.1-2,4.8-4.6,8.7-7.7,11.8-10.7,10.8-37.2,15.7-42.2-2.6-3.9-14.1,2.3-31,12.9-40.8,4.8-4.5,10.8-8.1,17.9-10.7,7.6-2.8,15.4-4.3,23.5-3.6"/>
            <polygon class="st6" points="90.5 201.1 88.9 199.2 89.6 198.7 93.5 203.2 92.8 203.8 91.2 201.9 85.7 206.6 85 205.8 90.5 201.1"/>
            <polygon class="st6" points="95.1 204.8 92.8 207.3 95.7 210 98 207.5 98.8 208.2 93.3 214.2 92.5 213.4 95.1 210.6 92.2 208 89.7 210.8 88.9 210.1 94.3 204.1 95.1 204.8"/>
            <polygon class="st6" points="101.4 215.4 98.9 213.6 97.2 216 100 218 99.5 218.7 95.8 216.1 100.5 209.5 104.1 212 103.6 212.7 100.8 210.8 99.4 212.9 101.9 214.7 101.4 215.4"/>
            <path class="st6" d="M110,224c-.4,0-1.2-.2-2.1-.6-2.1-1-3-3-1.9-5.4,1.1-2.3,3.4-3.1,5.7-2,.9.4,1.4.9,1.6,1.2l-.6.7c-.3-.3-.7-.7-1.3-1-1.7-.8-3.4-.3-4.3,1.7-.9,1.8-.4,3.4,1.4,4.3.6.3,1.2.4,1.7.4l-.2.8Z"/>
            <path class="st6" d="M120,223.3c-.9,2.7-2.9,3.5-4.9,2.9-2-.7-3-2.7-2.2-5,.8-2.4,2.8-3.6,4.9-2.9,2.1.7,2.9,2.7,2.2,5M114,221.5c-.5,1.6-.1,3.4,1.5,3.9,1.6.5,2.9-.7,3.5-2.4.5-1.5.2-3.4-1.5-3.9-1.6-.5-3,.7-3.5,2.4"/>
            <path class="st6" d="M121.5,226.5c.4.4,1,.7,1.7.9,1.1.2,1.8-.2,1.9-1.1.1-.7-.2-1.2-1.2-1.9-1.2-.7-1.9-1.5-1.7-2.6.2-1.2,1.4-2,3-1.7.8.2,1.4.5,1.7.7l-.4.8c-.2-.2-.7-.5-1.4-.7-1.1-.2-1.6.4-1.7.9-.1.7.3,1.2,1.3,1.8,1.3.8,1.8,1.5,1.6,2.7-.2,1.2-1.3,2.1-3.2,1.8-.8-.1-1.6-.5-1.9-.9l.4-.8Z"/>
            <path class="st6" d="M135.6,225.9c0-1.1,0-2.5,0-3.5h0c-.3.9-.7,1.9-1.2,3l-1.6,3.9h-.8s-1.1-4-1.1-4c-.3-1.2-.6-2.2-.8-3.2h0c0,1-.2,2.4-.3,3.6l-.4,3.5h-1s.9-8.1.9-8.1h1.3c0,0,1.2,4,1.2,4,.3,1,.5,1.9.7,2.8h0c.2-.8.6-1.7,1-2.7l1.6-3.8h1.3c0,0,.1,8.2.1,8.2h-1c0,0,0-3.6,0-3.6Z"/>
            <rect class="st6" x="139.2" y="221.1" width="1" height="8.1" transform="translate(-15.1 10.1) rotate(-3.9)"/>
            <path class="st6" d="M149,227.7c-.3.3-1.1.6-2,.7-2.3.4-4.2-.8-4.6-3.4-.4-2.5,1-4.5,3.5-4.9,1-.2,1.7,0,2,0v.9c-.5-.1-1.1-.2-1.8,0-1.9.3-2.9,1.7-2.6,3.8.3,2,1.6,3,3.6,2.7.6-.1,1.3-.3,1.6-.6l.3.8Z"/>
            <path class="st6" d="M156,226.2l-4.8-6.9,1-.4,2.3,3.5c.6.9,1.1,1.7,1.5,2.4h0c-.2-.8-.3-1.8-.4-2.9l-.4-4.2,1-.4,2.4,3.5c.5.8,1.1,1.6,1.5,2.4h0c-.2-.9-.3-1.8-.4-2.9l-.4-4.2,1-.4.7,8.4-1,.4-2.4-3.6c-.6-.9-1-1.6-1.4-2.3h0c.1.8.3,1.6.3,2.7l.4,4.4-1,.4Z"/>
            <path class="st6" d="M169.5,215.2c1.4,2.4.7,4.5-1.1,5.6-1.9,1.1-4,.4-5.2-1.7-1.3-2.2-.7-4.5,1.1-5.6,1.9-1.1,4-.3,5.2,1.7M164.1,218.4c.9,1.5,2.5,2.4,3.9,1.6,1.4-.8,1.5-2.6.6-4.2-.8-1.4-2.4-2.4-3.9-1.6-1.5.9-1.5,2.7-.6,4.2"/>
            <path class="st6" d="M177,210.1c-.8-.8-1.7-1.9-2.3-2.6h0c.4.9.8,1.9,1.1,3.1l1.4,4-.6.5-3.4-2.2c-1-.6-1.9-1.3-2.7-1.9h0c.6.8,1.4,1.9,2.1,2.9l2,2.8-.8.6-4.6-6.7,1-.8,3.5,2.2c.9.6,1.7,1.1,2.3,1.6h0c-.4-.8-.7-1.7-1-2.7l-1.3-4,1-.8,5.5,6-.8.6-2.4-2.6Z"/>
            <path class="st6" d="M176.4,204.5c.2-.4.7-1,1.2-1.5.7-.8,1.3-1.1,1.9-1.2.5,0,1,0,1.5.5.6.5.7,1.4.4,2.2h0c.7-.4,1.7-.6,2.6.2.5.5.7,1,.7,1.6,0,.8-.5,1.6-1.4,2.6-.5.5-.9.9-1.2,1.1l-5.8-5.4ZM179.5,206l.6-.7c.8-.8.8-1.7.2-2.2-.7-.6-1.5-.4-2.2.4-.3.4-.5.6-.6.7l1.9,1.8ZM182.4,208.6c.2-.1.4-.3.6-.6.7-.8,1.1-1.8.3-2.6-.8-.8-1.8-.4-2.6.5l-.6.6,2.3,2.1Z"/>
          </g>
          <g>
            <path class="st5" d="M493.6,101.7c-1.1-1.1-2.6-1.8-4.3-1.8s-3.2.7-4.3,1.8c-1.1,1.1-1.8,2.6-1.8,4.3s.7,3.2,1.8,4.3c1.1,1.1,2.6,1.8,4.3,1.8s3.2-.7,4.3-1.8c1.1-1.1,1.8-2.6,1.8-4.3s-.7-3.2-1.8-4.3ZM493.2,109.9c-1,1-2.4,1.6-3.9,1.6s-2.9-.6-3.9-1.6c-1-1-1.6-2.4-1.6-3.9s.6-2.9,1.6-3.9c1-1,2.4-1.6,3.9-1.6s2.9.6,3.9,1.6c1,1,1.6,2.4,1.6,3.9s-.6,2.9-1.6,3.9Z"/>
            <path class="st5" d="M491.5,106.8c0,.3-.2.5-.2.7,0-.1,0-.3-.2-.6l-1-2.9h-.8v4.2h.5v-3.5l1.2,3.5h.5l1.2-3.5v3.5h.5v-4.2h-.7l-1,2.9Z"/>
            <polygon class="st5" points="485.4 104.4 486.8 104.4 486.8 108.1 487.3 108.1 487.3 104.4 488.7 104.4 488.7 103.9 485.4 103.9 485.4 104.4"/>
            <path class="st5" d="M251.5,94.3c.9,0,1.8.5,2.5,1.4-.5-3.3-2.4-5-5.7-5.3-1.5-.1-2.9.2-4.1.9-1.2.7-1.9,1.8-2.2,3.1-.3,1.9.4,3.9,2.2,6,1.9,2.3,2.9,4,2.9,4.9,0,2.2-1.5,3.3-4.5,3.3h-37c-1.6,0-2.6-.1-3.1-.3-.5-.2-1.1-1-2-2.3l-.3.4c1.1,1.6,1.5,3.2,1.4,4.6,0,.9-.4,1.9-1,3.1-.6,1.2-.9,2.3-.8,3.3,0,2,.6,3.7,1.8,5l.3-.3c-.4-.7-.6-1.4-.6-2,0-1.5,1.2-2.3,3.5-2.3h5.7c-3.2,1.1-5.6,3-7.3,5.7-1.7,2.7-2.6,5.8-2.6,9.2s.5,7.9,1.5,11c1.5,4.5,4,6.7,7.3,6.7s2.1-.5,3.5-1.6c1.4-1.1,2.6-1.6,3.5-1.6,2,0,3.2,1.1,3.4,3.2,1.9-2.1,3-3.3,3.2-3.5.9-1.2,1.3-2.7,1.3-4.5,0-3.3-1.3-5.2-4-5.9-2.5-.2-4.9-.4-7.3-.7-2.7-.7-4-2.9-4-6.5s2-6.8,5.9-8.9c3.2-1.7,6.9-2.6,11.1-2.6s7.9.9,11.2,2.7c4,2.2,6,5.2,6,8.9s-1.3,5.3-3.9,6.2c-2.4.4-4.8.9-7.2,1.3-2.6.7-3.9,2.5-3.9,5.3s.4,3.7,1.3,5.2c1,1.9,2.5,2.9,4.3,2.9s2.3-.5,3.9-1.6c1.6-1.1,3-1.6,3.9-1.6,2.4,0,3.7,1.1,3.9,3.2,3.9-3.9,5.9-10.1,5.9-18.6s-1.3-7-3.8-9.9c-1.4-1.6-3.1-2.9-5-4.1,2.8,0,5.2-.9,7-2.6,1.9-1.7,2.7-4.1,2.6-7.1,0-1.3-.7-3.2-1.8-5.6-1.1-2.4-1.7-4.1-1.7-5.2,0-2,.8-3.1,2.5-3.1Z"/>
            <path class="st5" d="M281,147.7c-1.2,1.6-2.4,3.3-3.6,4.9-1.4,1.9-2.1,3.8-2.1,5.6s.9,3.2,2.6,3.6c.4,0,1.3-.2,2.5-.8,1.2-.6,2-.9,2.5-1,.4,0,.9.1,1.3.5.4.4.6.8.6,1.3,1.4-.8,2.1-2,2.1-3.7s-.7-3.7-2.1-5.6c-1.2-1.6-2.4-3.2-3.6-4.8Z"/>
            <path class="st5" d="M306.3,94.3c.9,0,1.8.5,2.5,1.4-.5-3.3-2.4-5-5.7-5.3-1.6-.1-2.9.2-4.1.9-1.2.7-1.9,1.8-2.2,3.1-.3,1.9.4,3.9,2.2,6,1.9,2.3,2.9,4,2.9,4.9,0,2.2-1.5,3.3-4.5,3.3h-8.4c-2.7,0-4.7-.9-5.9-2.6l-.3.4c1,1.4,1.5,2.6,1.5,3.8s-.3,2.1-.9,3.7c-.6,1.6-.9,2.8-.9,3.7,0,2,.6,3.7,1.8,5.1l.3-.3c-.4-.8-.6-1.4-.6-1.9,0-1.7,2-2.5,5.9-2.5s5.6.8,7.8,2.3c2.4,1.7,3.6,4,3.6,6.9s-1,5-2.9,6.7c-1.9,1.7-4.4,2.5-7.2,2.5s-6.2-.6-7.6-1.8c-1.6-1.4-2.3-3.8-2-7.3h-1v2.7c0,4.3-2.7,6.4-8.2,6.4s-6.1-1.5-6.1-4.5,1.3-2.6,3.9-3.3c4-1.2,6.3-2.1,7.1-2.5,2.6-1.5,3.9-3.8,3.9-7s-1.3-6.2-3.9-7.9c-2.2-1.5-5.2-2.3-8.8-2.3s-6.4.7-8.6,2.2c-2.6,1.8-3.9,4.3-3.9,7.6s.9,5.1,2.8,6.9c.4-1.9,1.6-2.8,3.4-2.8s1.3,0,2.4.2c1.1.2,2,.2,2.5.2,2.2,0,3.5-.7,4-2.2-1.1.4-2.1.6-3.2.6-2.2,0-3.3-.9-3.3-2.8s.6-2.2,1.9-2.9c1-.7,2.3-1,3.6-1,4,0,6,1.5,6,4.6s-1.8,3.7-5.3,4.4c-5.4.9-8.6,1.7-9.8,2.2-3.5,1.9-5.2,5.4-5.2,10.6s1.5,8,4.4,10.5c2.8,2.4,6.4,3.5,10.9,3.5s5.3-.8,9.2-2.5c3.9-1.7,6.9-2.5,9.1-2.5,3.7,0,6,1.7,6.9,5,6.8-3.4,10.2-9.6,10.2-18.6s-1-8.2-3.1-11.1c-.9-1.3-1.9-2.3-3.1-3.2,1.7-.4,3.2-1.1,4.4-2.2,1.9-1.7,2.7-4.1,2.6-7.1,0-1.3-.7-3.2-1.8-5.6-1.1-2.4-1.7-4.1-1.7-5.2,0-2,.8-3.1,2.5-3.1Z"/>
            <path class="st5" d="M349.4,111.1c-.1-1.5.3-3,1.4-4.6l-.3-.4c-.9,1.3-1.5,2-2,2.3-.5.2-1.5.3-3.1.3h-24.6c-2.8,0-5.3,1-7.4,3.1-2.1,2.1-3.1,4.5-3.1,7.4,0,4.5,1.8,7.4,5.3,8.9-3.5,2.1-5.3,5.4-5.3,9.8s1,6.6,2.9,9c1.9,2.4,4.6,3.6,7.9,3.6s3.1-.6,5.2-1.8c2.1-1.2,3.8-1.8,5.1-1.8,3.1,0,4.8,1.2,5.1,3.6,3.8-3.3,5.7-7.7,5.7-13.3s0-3.2-.3-5.4c-1.5,3.3-6.2,5-14,5s-8.2-1.3-8.3-3.8c0-1.5.8-2.5,2.7-2.9.6-.2,2.4-.3,5.5-.4.6,0,1.3.2,1.9.5.6.3,1,.8,1,1.3s0,.5-.3.7h.2c.6-.5.9-1.4.9-2.4,0-.5-.1-1.1-.4-1.7-.3-.6-.4-1.1-.5-1.6,0-.8.2-1.6.9-2.4l-.2-.2c-.8,1.2-2.3,1.8-4.3,1.8-5.3,0-8-1.4-8-4.3s.4-1.8,1.3-2.6c.9-.7,1.8-1.1,2.9-1.1h22.8c2.6,0,3.9.8,3.9,2.5s-.2,1.1-.6,1.8l.3.3c1.1-1.3,1.7-3,1.8-5,0-1-.2-2.1-.8-3.3-.6-1.2-.9-2.2-1-3.1Z"/>
            <path class="st5" d="M423.3,108.6c-.6,0-1.5.2-2.6.6-1.1.4-2,.6-2.5.6-2.7,0-5-1.2-6.7-3.7l-.3.4c1,1.4,1.5,2.6,1.5,3.8s-.3,2-.9,3.5c-.6,1.5-.9,2.8-.9,3.6,0,1.9.6,3.6,1.8,5l.3-.3-.5-1.8c0-1.6,1.7-2.5,5-2.5,7.8,0,11.7,3.1,11.7,9.3s-1.1,5.3-3.3,6.9c-2,1.5-4.5,2.2-7.6,2.2-5.9,0-9.6-1.3-11.2-4,0-.2,0-.3,0-.5,0-3.7-1.3-7-3.8-9.9-1.4-1.6-3.1-2.9-5-4.1,2.8,0,5.2-.9,7-2.6,1.9-1.7,2.7-4.1,2.6-7.1,0-1.3-.7-3.2-1.8-5.6-1.1-2.4-1.7-4.1-1.7-5.2,0-2,.8-3.1,2.5-3.1s1.8.5,2.5,1.4c-.5-3.3-2.4-5-5.7-5.3-1.5-.1-2.9.2-4.1.9-1.2.7-1.9,1.8-2.2,3.1-.3,1.9.4,3.9,2.2,6,1.9,2.3,2.9,4,2.9,4.9,0,2.2-1.5,3.3-4.5,3.3h-37c-1.6,0-2.6-.1-3.1-.3-.5-.2-1.1-1-2-2.3l-.3.4c1.1,1.6,1.5,3.2,1.4,4.6,0,.9-.4,1.9-1,3.1-.6,1.2-.9,2.3-.8,3.3,0,2,.7,3.7,1.8,5l.3-.3c-.4-.7-.6-1.4-.6-2,0-1.5,1.2-2.3,3.5-2.3h5.7c-3.2,1.1-5.6,3-7.3,5.7-1.7,2.7-2.6,5.8-2.6,9.2s.5,7.9,1.5,11c1.5,4.5,4,6.7,7.3,6.7s2.1-.5,3.5-1.6c1.4-1.1,2.6-1.6,3.5-1.6,2,0,3.2,1.1,3.4,3.2,1.9-2.1,3-3.3,3.2-3.5.9-1.2,1.3-2.7,1.3-4.5,0-3.3-1.3-5.2-4-5.9-2.5-.2-4.9-.4-7.3-.7-2.7-.7-4-2.9-4-6.5s2-6.8,5.9-8.9c3.2-1.7,6.9-2.6,11.1-2.6s7.9.9,11.2,2.7c4,2.2,6,5.2,6,8.9s-1.3,5.3-3.9,6.2c-2.4.4-4.8.9-7.2,1.3-2.6.7-3.9,2.5-3.9,5.3s.4,3.7,1.3,5.2c1.1,1.9,2.5,2.9,4.3,2.9s2.3-.5,3.9-1.6c1.6-1.1,3-1.6,3.9-1.6,2.4,0,3.7,1.1,3.9,3.2,1.7-1.7,3.1-4,4-6.7,0,.2.1.4.2.6,1.8,4,4.6,6.1,8.5,6.1s2.4-.6,4.1-1.8c1.7-1.2,3-1.8,4.1-1.8,2.8,0,4.3,1.2,4.6,3.6,4.1-4,6.1-10.8,6.1-20.6s-.5-9.2-1.6-12.8c-1.6-5.6-4.3-8.5-8-8.5Z"/>
            <path class="st5" d="M475.1,107.7c-4.1-3-9.2-4.5-15.2-4.5s-7.5.6-10.6,2c-4.2,1.7-6.2,4.3-6.2,7.6s.9,5.1,2.7,6.5c-6.1,2.9-9.2,7.5-9.2,14.1s1.4,8.4,4.3,11.7c3,3.5,6.7,5.3,11.1,5.3s5.3-.8,9.2-2.5c3.9-1.7,7-2.5,9.2-2.5,3.7,0,5.9,1.7,6.9,5,6.8-3.4,10.2-9.3,10.2-17.7s-1.4-9.5-4.2-11.7c-1-5.7-3.7-10.1-8.2-13.3ZM478.3,123.1c.6.7,1,1.5,1,2.4s-.3,1.7-1,2.4c-.6.7-1.4,1-2.4,1s-1.7-.3-2.4-1c-.6-.7-1-1.5-1-2.4s.3-1.7,1-2.4c.7-.7,1.4-1,2.4-1s1.7.3,2.4,1ZM455.1,109.8c1.2-.9,2.5-1.3,4-1.3s2.5.4,3.5,1.3c1,.9,1.5,2,1.5,3.3s-.5,2.4-1.6,3.3c-1.1.9-2.3,1.4-3.6,1.4s-2.8-.4-3.9-1.2c-1.1-.8-1.7-1.9-1.7-3.3s.6-2.6,1.8-3.4ZM472.4,136.2c-6.6,0-9.8-2.4-9.8-7.2h-.9c0,2.3-.8,4-2.3,5.3-1.5,1.3-3.5,1.9-5.8,1.9-5.6,0-8.4-2.4-8.4-7.2s1.4-5.6,4.1-7.9c2.2.9,4.2,1.3,6.2,1.3,3.5,0,6.4-.7,8.9-2.1,3-1.7,4.5-4.1,4.5-7.4s-.5-3-1.4-4.2c5,.4,8.4,4.1,10.2,10.9-.9-.6-2-.9-3.4-.9-2.7,0-5,.6-6.9,1.8-2.2,1.4-3.3,3.4-3.3,5.9s1,4.2,2.9,5.7c1.9,1.5,4.1,2.3,6.4,2.3s5.9-1.1,7.9-3.4c-1.4,3.6-4.4,5.4-8.9,5.4Z"/>
          </g>
        </g>
        <g>
          <path class="st7" d="M536.9,147.3c0,1,.8,1.8,1.8,1.8s1.8-.8,1.8-1.8v-14.1c0-1-.8-1.8-1.8-1.8s-1.8.8-1.8,1.8v14.1Z"/>
          <g>
            <polygon class="st7" points="708.6 237.5 709.9 237.5 714.2 229.8 714.2 229.8 714.4 237.5 715.7 237.5 721.1 228.3 719.9 228.3 715.4 236.2 715.4 236.2 715.3 228.3 714 228.3 709.6 236.2 709.6 236.2 709.3 228.3 708.1 228.3 708.6 237.5"/>
            <path class="st7" d="M727.1,234c-.5,1.8-2.3,2.9-4,2.9s-1.9-.7-1.6-1.8c.5-1.8,2.9-1.8,4.9-2.1.3,0,.8-.1,1.1-.4h0l-.4,1.5ZM722.9,231.1c.5-1.5,1.6-2.1,3-2.1s2.3.4,1.9,1.9c-.3,1-.8,1.2-1.8,1.3-2.5.3-5.1.4-5.7,3-.5,1.9.7,2.7,2.4,2.7s2.7-.7,3.9-1.9h0c-.3.9-.3,1.6.9,1.6s.5,0,.8,0l.3-.9c-.1,0-.3,0-.4,0-.4,0-.6-.2-.5-.7l1.3-4.9c.7-2.5-1-3-2.6-3s-3.9.9-4.6,3.1h1.1Z"/>
            <path class="st7" d="M732.5,237.5l-.7,1.1c-.6.9-1,1.4-2,1.4s-.5,0-.7,0l-.3.9c.2,0,.4,0,.8,0,1.4,0,1.9-.4,3-2l6.9-10.6h-1.1l-4.9,7.9-.9-7.9h-1.2l1.2,9.2Z"/>
            <path class="st7" d="M749.3,225.5h-1.1l-.7,2.8h-1.6l-.3.9h1.6l-1.7,6.3c-.4,1.6,0,2.1,1.4,2.1s.7,0,1,0l.3-1c-.3,0-.7,0-1,0-.8,0-.8-.5-.6-1.2l1.7-6.2h1.9l.3-.9h-1.9l.7-2.8Z"/>
            <path class="st7" d="M756.4,228c-2.8,0-5,2.2-5.7,4.9-.7,2.6.2,4.9,3.1,4.9s5-2.2,5.7-4.9c.7-2.6-.2-4.9-3.1-4.9ZM756.1,229c2.1,0,2.7,2,2.2,3.9-.5,1.9-2.1,3.9-4.3,3.9s-2.7-2-2.2-3.9c.5-1.9,2.1-3.9,4.3-3.9Z"/>
            <path class="st7" d="M766.1,237.5h1.1l1.4-5.4c.5-1.8,1.9-3.2,3.7-3.2s2,1.2,1.6,2.8l-1.5,5.8h1.1l1.6-5.9c.6-2.2.2-3.6-2.4-3.6s-2.7.7-3.4,1.9h0l1.4-5.1h-1.1l-3.4,12.8Z"/>
            <path class="st7" d="M785,233.2c.8-2.6.3-5.2-2.7-5.2s-4.8,2.4-5.5,4.9c-.7,2.6,0,4.9,2.9,4.9s3.9-1.2,4.9-3.3h-1.1c-.7,1.4-1.9,2.4-3.5,2.4s-2.5-2-2.1-3.6h7.1ZM778.1,232.3c.6-1.7,2.1-3.3,3.9-3.3s2.5,1.6,2,3.3h-6Z"/>
            <path class="st7" d="M792.5,234c-.5,1.8-2.3,2.9-4,2.9s-1.9-.7-1.6-1.8c.5-1.8,2.9-1.8,4.9-2.1.3,0,.8-.1,1.1-.4h0l-.4,1.5ZM788.4,231.1c.5-1.5,1.6-2.1,3-2.1s2.3.4,1.9,1.9c-.3,1-.8,1.2-1.8,1.3-2.5.3-5.1.4-5.7,3-.5,1.9.7,2.7,2.4,2.7s2.7-.7,3.9-1.9h0c-.3.9-.3,1.6.9,1.6s.5,0,.8,0l.3-.9c-.1,0-.3,0-.4,0-.4,0-.6-.2-.5-.7l1.3-4.9c.7-2.5-1-3-2.6-3s-3.9.9-4.6,3.1h1.1Z"/>
            <polygon class="st7" points="795.3 237.5 796.5 237.5 799.9 224.8 798.8 224.8 795.3 237.5"/>
            <path class="st7" d="M804,225.5h-1.1l-.7,2.8h-1.6l-.3.9h1.6l-1.7,6.3c-.4,1.6,0,2.1,1.4,2.1s.7,0,1,0l.3-1c-.3,0-.7,0-1,0-.8,0-.8-.5-.6-1.2l1.7-6.2h1.9l.3-.9h-1.9l.7-2.8Z"/>
            <path class="st7" d="M804.6,237.5h1.1l1.4-5.4c.5-1.8,1.9-3.2,3.7-3.2s2,1.2,1.6,2.8l-1.5,5.8h1.1l1.6-5.9c.6-2.2.2-3.6-2.4-3.6s-2.7.7-3.4,1.9h0l1.4-5.1h-1.1l-3.4,12.8Z"/>
            <rect class="st7" x="538.7" y="137" width="19.7" height="6.5"/>
            <path class="st7" d="M612.4,159.3h10.3v19.2h.2c2.6-4.2,7.1-6.2,11-6.2,11,0,13.7,6.1,13.7,15.2v22.7h-10.3v-20.9c0-6.1-1.7-9.1-6.6-9.1s-8,3.1-8,10.6v19.4h-10.3v-51.1Z"/>
            <path class="st7" d="M655.1,184.8c.6-9.4,9.2-12.4,17.7-12.4s16.5,1.6,16.5,10.5v19.2c0,3.4.4,6.7,1.3,8.2h-10.5c-.4-1.1-.7-2.4-.7-3.6-3.3,3.4-8,4.6-12.7,4.6-7.2,0-12.8-3.5-12.8-11.1.1-16.8,25.5-7.8,25-16.1,0-4.3-3.1-5-6.7-5s-6.5,1.6-6.8,5.6h-10.3ZM679,192.3c-1.7,1.5-5.4,1.6-8.6,2.1-3.2.6-6.1,1.7-6.1,5.4s3,4.7,6.3,4.7c8.1,0,8.4-6.2,8.4-8.5v-3.8Z"/>
            <path class="st7" d="M697.3,173.4h9.8v6.9h.1c2-4.6,6.8-7.9,12-7.9s1.5.1,2.3.4v9.4c-.9-.2-2.5-.4-3.7-.4-7.6,0-10.2,5.3-10.2,11.9v16.7h-10.3v-37Z"/>
            <path class="st7" d="M725.9,173.4h9.7v5h.1c2.7-3.8,6.5-6,11.5-6s8.9,1.6,11,6.2c2.3-3.2,6.1-6.2,11.3-6.2,8,0,13.7,3.6,13.7,13.2v24.7h-10.3v-21c0-4.9-.4-9-6.3-9s-6.9,4.8-6.9,9.4v20.6h-10.3v-20.7c0-4.3.3-9.2-6.3-9.2s-7,1.3-7,8.5v21.5h-10.3v-37Z"/>
            <path class="st7" d="M791.1,184.8c.6-9.4,9.2-12.4,17.7-12.4s16.5,1.6,16.5,10.5v19.2c0,3.4.4,6.7,1.3,8.2h-10.5c-.4-1.1-.7-2.4-.7-3.6-3.3,3.4-8,4.6-12.7,4.6-7.2,0-12.8-3.5-12.8-11.1.1-16.8,25.5-7.8,25-16.1,0-4.3-3.1-5-6.7-5s-6.5,1.6-6.8,5.6h-10.3ZM814.9,192.3c-1.7,1.5-5.4,1.6-8.6,2.1-3.2.6-6.1,1.7-6.1,5.4s3,4.7,6.3,4.7c8.1,0,8.4-6.2,8.4-8.5v-3.8Z"/>
            <path class="st0" d="M618.8,141.1h0c0-.3,0-.6,0-.9.2.1.2.3.2.4s0,.3-.2.4Z"/>
            <path class="st8" d="M607.2,143.1c5.9-.2,10.6-1,11.6-2,0,9.5-5.7,18.7-20.6,18.7h-13.7v50.5h-12.8v-60.5h23c6,0,11.5-1.3,11.5-8.8s-5.5-8.8-11.5-8.8h-36.2v-10h39.8c14.5,0,20.2,8.7,20.5,17.9-1.1-1-5.7-1.8-11.6-2v4.8Z"/>
            <polygon class="st8" points="637.2 141.1 618.8 141.1 618.8 140.3 635.7 140.3 637.2 141.1"/>
          </g>
        </g>
      </g>
    </g>
  </g>
</svg>