<?xml version="1.0" encoding="UTF-8"?>
<svg id="Layer_1" xmlns="http://www.w3.org/2000/svg" version="1.1" viewBox="0 0 874.7 868.1">
  <!-- Generator: Adobe Illustrator 30.3.0, SVG Export Plug-In . SVG Version: 2.1.3 Build 182)  -->
  <defs>
    <style>
      .st0 {
        fill: #229dbf;
      }

      .st1 {
        fill: #a7aaac;
      }

      .st2 {
        fill: #ef4166;
      }

      .st3 {
        fill: #7ab6e3;
      }

      .st4 {
        fill: #ef4066;
      }

      .st5 {
        fill: #595a5c;
      }

      .st6 {
        fill: #353635;
      }
    </style>
  </defs>
  <g>
    <path class="st5" d="M377.5,745.5h2.8l6-23h-2.8l-6,23ZM384.6,718.2h2.8l1.2-4.5h-2.8l-1.2,4.5Z"/>
    <polygon class="st5" points="386.4 745.5 389.2 745.5 397.6 713.7 394.8 713.7 386.4 745.5"/>
    <polygon class="st5" points="395.4 745.5 398.2 745.5 406.5 713.7 403.8 713.7 395.4 745.5"/>
    <path class="st5" d="M428.7,722.5h-2.8l-3.2,12.1c-1.2,4.7-4.5,9.2-9.2,9.2s-5.3-2.2-4.4-6.3l3.9-15h-2.8l-3.9,14.9c-1.4,5.4-.1,8.7,5.6,8.7s6.8-1.7,9.1-4.8h0l-1.1,4.1h2.5l6.1-23Z"/>
    <path class="st5" d="M428.7,745.5h2.8l3.4-12.8c1.3-4.8,4.2-8.5,9-8.5s4.1,2.6,3.2,5.7l-4.1,15.6h2.8l3.4-13c1.1-4.3,3.5-8.3,8.3-8.3s4.8,2.1,3.8,5.8l-4.1,15.5h2.8l4.1-15.6c1.4-5.4-.4-8.1-5.4-8.1s-6.2,1.5-8.4,4.5c0-3-2.3-4.5-5.3-4.5s-6.4,1.7-8.6,4.5h-.1l1-3.9h-2.5l-6,23Z"/>
    <path class="st5" d="M466.1,745.5h2.8l6-23h-2.8l-6.1,23ZM473.3,718.2h2.8l1.2-4.5h-2.8l-1.2,4.5Z"/>
    <path class="st5" d="M475,745.5h2.8l3.5-13.4c1.3-4.5,4.8-7.9,9.2-7.9s4.9,3,3.9,7l-3.8,14.3h2.8l3.9-14.8c1.4-5.5.4-8.9-5.9-8.9s-6.7,1.9-8.4,4.6h0l1-4h-2.8l-6,23Z"/>
    <path class="st5" d="M516.2,736.6c-1.2,4.5-5.5,7.2-9.8,7.2s-4.6-1.7-3.8-4.5c1.2-4.5,7-4.5,11.9-5.3.8-.1,2.1-.4,2.6-1h0l-1,3.7ZM506.1,729.6c1.1-3.7,4-5.4,7.4-5.4s5.7.9,4.7,4.7c-.7,2.5-2,2.9-4.4,3.1-6.1.7-12.4,1-14.1,7.4-1.2,4.6,1.6,6.7,5.8,6.7s6.7-1.7,9.5-4.7h0c-.6,2.4-.6,4,2.2,4s1.1,0,1.8-.2l.6-2.4c-.3.1-.6.2-.9.2-1.1,0-1.5-.6-1.2-1.7l3.2-12.2c1.6-6.2-2.4-7.4-6.4-7.4s-9.5,2.3-11.2,7.7h2.8Z"/>
    <path class="st5" d="M535.3,715.6h-2.8l-1.8,6.9h-3.9l-.6,2.4h3.9l-4.1,15.7c-1.1,3.9-.1,5.2,3.5,5.2s1.6,0,2.5,0l.6-2.4c-.8,0-1.6.1-2.4.1-1.9-.1-1.9-1.2-1.4-3l4.1-15.5h4.6l.6-2.4h-4.6l1.8-6.9Z"/>
    <path class="st5" d="M536.9,745.5h2.8l6-23h-2.8l-6.1,23ZM544.1,718.2h2.8l1.2-4.5h-2.8l-1.2,4.5Z"/>
    <path class="st5" d="M545.8,745.5h2.8l3.5-13.4c1.3-4.5,4.8-7.9,9.2-7.9s4.9,3,3.9,7l-3.8,14.3h2.8l3.9-14.8c1.4-5.5.4-8.9-5.9-8.9s-6.7,1.9-8.4,4.6h0l1-4h-2.8l-6,23Z"/>
    <path class="st5" d="M580,742.9c-5.1,0-6.3-4.5-5-9.1,1.3-4.8,4.7-9.5,10-9.5s5.9,5,4.8,9.5c-1.2,4.6-4.9,9.1-9.7,9.1ZM595.3,722.5h-2.8l-1,4h0c-.4-2.5-2.6-4.6-6-4.6-6.5,0-11.6,5.3-13.2,11.6-1.7,6.6-.1,11.8,7.1,11.8s6.4-1.9,8.4-4.7h0l-.8,3.1c-1.5,5.7-4.4,8.7-9.6,8.7s-5.7-1.2-5.4-4.6h-2.8c-.9,4.9,3,6.9,7.5,6.9,7.3,0,11.1-4.1,12.9-11.1l5.6-21.1Z"/>
    <path class="st5" d="M609.8,745.5h2.8l3.4-12.8c1.3-4.8,4.2-8.5,9-8.5s4.1,2.6,3.2,5.7l-4.1,15.6h2.8l3.4-13c1.1-4.3,3.5-8.3,8.3-8.3s4.8,2.1,3.8,5.8l-4.1,15.5h2.8l4.1-15.6c1.4-5.4-.4-8.1-5.4-8.1s-6.2,1.5-8.4,4.5c0-3-2.3-4.5-5.3-4.5s-6.4,1.7-8.6,4.5h-.1l1-3.9h-2.5l-6.1,23Z"/>
    <path class="st5" d="M647.2,745.5h2.8l6.1-23h-2.8l-6,23ZM654.3,718.2h2.8l1.2-4.5h-2.8l-1.2,4.5Z"/>
    <path class="st5" d="M656,745.5h2.8l3.5-13.4c1.3-4.5,4.7-7.9,9.2-7.9s4.9,3,3.9,7l-3.8,14.3h2.8l3.9-14.8c1.4-5.5.4-8.9-5.9-8.9s-6.7,1.9-8.4,4.6h0l1-4h-2.8l-6.1,23Z"/>
    <path class="st5" d="M685.3,734c1.3-4.8,4.7-9.8,10-9.8s6.6,5,5.3,9.8c-1.3,4.8-4.7,9.8-10.5,9.8s-6.1-5-4.8-9.8ZM708.7,713.7h-2.8l-3.5,13.2h0c-.3-3.3-3.2-5-6.5-5-6.9,0-11.6,5.6-13.4,12.2-1.7,6.6,0,12.2,7,12.2s7.4-2,9.4-5h0l-1.1,4.4h2.5l8.4-31.8Z"/>
    <path class="st5" d="M727,729.3c1.1-5-1.8-7.4-6.3-7.4s-9,1.8-10.2,6.5c-1,3.9,1.3,5.2,4.7,6.2l3.3.8c2.3.6,4.5,1.5,3.8,4.2-.8,3.2-4.7,4.4-7.3,4.4s-5.9-2-5.1-5.7h-2.8c-1,5.7,1.8,8.1,7.1,8.1s9.6-1.9,10.9-6.9c1.1-4-1.7-5.9-4.8-6.4l-3.5-.8c-1.8-.5-4.3-1.4-3.7-3.9.8-3,3.9-4,6.4-4s5.4,1.6,4.6,5h2.8Z"/>
    <polygon class="st5" points="733.7 745.5 734.9 740.8 731.3 740.8 730 745.5 733.7 745.5"/>
    <polygon class="st5" points="746.7 745.5 748 740.8 744.3 740.8 743.1 745.5 746.7 745.5"/>
    <polygon class="st5" points="759.8 745.5 761 740.8 757.4 740.8 756.1 745.5 759.8 745.5"/>
    <path class="st4" d="M336,506.6c-44.2,6.6-58-6.3-58-6.3l-11.9,14.7h0c18.1,13.2,41.9,5.2,72.2-1.1,14.6-3.1,25.9,2.8,33.8,10.1-10.1-14.1-20.6-19.6-36.1-17.3"/>
    <path class="st4" d="M410.8,506.6c44.2,6.6,58-6.3,58-6.3l12,14.7h0c-18.1,13.2-41.9,5.2-72.2-1.1-14.6-3.1-25.9,2.8-33.8,10.1,10.1-14.1,20.6-19.6,36.1-17.3"/>
    <path class="st0" d="M341.1,494.2c-42.2-5.3-49.6-15.9-49.6-15.9l-12.5,10.3h0c15.7,14,35.1,13.2,63.3,13,13.6,0,21.8,6.4,28.2,15.1-7.6-15.7-15-20.8-29.4-22.6"/>
    <path class="st0" d="M405.7,494.2c42.2-5.3,49.6-15.9,49.6-15.9l12.5,10.3h0c-15.7,14-35.1,13.2-63.3,13-13.6,0-21.8,6.4-28.2,15.1,7.6-15.7,15-20.8,29.4-22.6"/>
    <path class="st3" d="M347.4,482.5c-26.5-2.4-31.5-19.5-31.5-19.5l-13.3,5.9h0c11.4,17.8,16.8,16.3,44.7,20.5,14.4,2.2,19.3,10.5,23.2,20.6-3.1-17.2-8.8-26.1-23.2-27.5"/>
    <path class="st3" d="M399.4,482.5c26.5-2.4,31.5-19.5,31.5-19.5l13.3,5.9h0c-11.4,17.8-16.8,16.3-44.7,20.5-14.4,2.2-19.3,10.5-23.2,20.6,3.1-17.2,8.8-26.1,23.2-27.5"/>
    <rect class="st0" x="359.1" y="541.2" width="30.8" height="142.8"/>
    <polygon class="st0" points="521.8 541.3 552.7 541.3 552.7 596.1 609.4 596.1 609.4 541.3 640.3 541.3 640.3 684.1 609.4 684.1 609.4 622.5 552.7 622.5 552.7 684.1 521.8 684.1 521.8 541.3"/>
    <path class="st0" d="M504.2,650.6c-1-14.6-5.3-29.2-20.4-33.4v-.4c15.7-6.4,22.2-19,22.2-35.8s-15.9-39.4-41.1-39.4h-61.3v24.4h50.3c13.9,0,21.2,6,21.2,19.8s-7.3,20.4-21.2,20.4h-42.5v22.4h39.6c15.5,0,21.2,6.6,23.4,21.6,1.6,11.4,1.4,25.2,4.9,34.2h30.8c-5.7-7.8-5.3-24.8-5.9-33.8"/>
    <path class="st0" d="M753.4,650.6c-1-14.6-5.3-29.2-20.4-33.4v-.4c15.7-6.4,22.2-19,22.2-35.8s-15.9-39.4-41.1-39.4h-61.3v24.4h50.3c14,0,21.2,6,21.2,19.8s-7.3,20.4-21.2,20.4h-42.5v22.4h39.6c15.5,0,21.2,6.6,23.4,21.6,1.6,11.4,1.4,25.2,4.9,34.2h30.8c-5.7-7.8-5.3-24.8-5.9-33.8"/>
    <path class="st0" d="M243.6,683.8h-19.6l-3.1-16.2c-11,14.4-24.9,19.6-38.5,19.6-43.2,0-69-33-69-74.2s25.7-75.4,69-75.4,33.2,6.1,44.5,17.8c-7.1,8.4-12.3,18.6-15.5,30-4.3-14.3-15.1-21.4-29-21.4-27.7,0-38.1,24-38.1,49s10.4,47.8,38.1,47.8,31.6-10.8,33.4-30.8h-31v-23.4h58.9v77.2Z"/>
    <path class="st0" d="M246.3,600.2h-31c4.7-36,29.4-62.4,68.1-62.4s56,17.8,59.1,50.4h-29.5c-3.7-16-14.9-24-29.7-24-22.8,0-33.9,16.3-37.1,36M344.7,684h-19.6l-3.1-16.2c-11,14.4-25,19.6-38.5,19.6s-24.1-2.9-33.6-8.1v-41.2c5.4,13.2,16,22.9,33.6,22.9s31.6-10.8,33.4-30.8h-31v-23.4h58.9v77.2Z"/>
  </g>
  <g>
    <path class="st6" d="M177.3,366.5c-6.4,8.3-14.6,11.3-22.5,11.3-25.3,0-40.3-18.9-40.3-42.6s15-43.3,40.3-43.3,32.7,10.2,34.6,28.9h-17.2c-2.2-9.2-8.7-13.8-17.3-13.8-16.2,0-22.3,13.8-22.3,28.1s6.1,27.4,22.3,27.4,18.5-6.2,19.5-17.7h-18.1v-13.4h34.5v44.3h-11.5l-1.8-9.3Z"/>
    <path class="st6" d="M202.8,334.7c.9-15.2,14.6-19.9,27.9-19.9s26.1,2.6,26.1,16.9v30.9c0,5.4.6,10.8,2.1,13.2h-16.5c-.6-1.8-1-3.8-1.1-5.7-5.2,5.4-12.6,7.4-20,7.4-11.4,0-20.2-5.6-20.2-17.8.2-27,40.2-12.5,39.5-25.8,0-6.9-4.8-8-10.6-8s-10.2,2.5-10.8,9h-16.3ZM240.5,346.7c-2.8,2.4-8.5,2.5-13.6,3.4-5.1.9-9.6,2.8-9.6,8.7s4.7,7.6,10,7.6c12.7,0,13.2-10,13.2-13.7v-6.1Z"/>
    <path class="st6" d="M269.4,316.4h15.5v11h.2c3.1-7.5,10.8-12.6,19-12.6s2.4.2,3.6.6v15.2c-1.5-.3-3.9-.6-5.9-.6-12.1,0-16.1,8.5-16.1,19.1v26.8h-16.3v-59.4Z"/>
    <path class="st6" d="M314.1,293.8h16.3v29.9h.2c4-6.1,11.4-8.8,18.7-8.8,11.8,0,24.6,9.5,24.6,31.2s-12.7,31.3-24.6,31.3-16-2.6-19.5-9.2h-.2v7.6h-15.5v-82ZM343.7,327.1c-9.6,0-13.9,9-13.9,19.1s4.2,19,13.9,19,13.9-9.1,13.9-19-4.2-19.1-13.9-19.1"/>
    <path class="st6" d="M384.2,293.8h16.3v30.9h.3c4.1-6.8,11.3-9.9,17.3-9.9,17.3,0,21.7,9.8,21.7,24.5v36.5h-16.3v-33.5c0-9.8-2.8-14.6-10.5-14.6s-12.6,4.9-12.6,17v31.1h-16.3v-82Z"/>
    <path class="st6" d="M451.6,334.7c.9-15.2,14.6-19.9,27.9-19.9s26.1,2.6,26.1,16.9v30.9c0,5.4.6,10.8,2.1,13.2h-16.5c-.6-1.8-1-3.8-1.1-5.7-5.2,5.4-12.6,7.4-20,7.4-11.4,0-20.2-5.6-20.2-17.8.2-27,40.2-12.5,39.5-25.8,0-6.9-4.8-8-10.6-8s-10.2,2.5-10.8,9h-16.3ZM489.3,346.7c-2.8,2.4-8.5,2.5-13.6,3.4-5.1.9-9.6,2.8-9.6,8.7s4.7,7.6,10,7.6c12.7,0,13.2-10,13.2-13.7v-6.1Z"/>
    <path class="st6" d="M579.2,366.5c-6.4,8.3-14.6,11.3-22.5,11.3-25.3,0-40.3-18.9-40.3-42.6s15.1-43.3,40.3-43.3,32.7,10.2,34.6,28.9h-17.2c-2.2-9.2-8.7-13.8-17.3-13.8-16.2,0-22.3,13.8-22.3,28.1s6.1,27.4,22.3,27.4,18.5-6.2,19.5-17.7h-18.1v-13.4h34.5v44.3h-11.5l-1.8-9.3Z"/>
    <path class="st6" d="M661.1,375.8h-15.5v-8.3h-.3c-4.1,6.8-11.3,9.9-18.1,9.9-17.3,0-21.7-9.8-21.7-24.5v-36.5h16.3v33.5c0,9.8,2.8,14.6,10.5,14.6s12.6-4.9,12.6-17v-31.1h16.3v59.4Z"/>
    <path class="st6" d="M715.8,368.2h-.2c-3.8,6.4-10.3,9.2-18,9.2-17.9,0-26.6-15.3-26.6-31.8s8.8-30.8,26.3-30.8,13.9,3,17.6,8.8h.2v-29.9h16.3v82h-15.5v-7.6ZM701.6,327.1c-10.7,0-14.4,9.3-14.4,18.9s4.3,19.1,14.4,19.1,14-9.4,14-19.2-3.4-18.8-14-18.8"/>
    <path class="st6" d="M760.4,307.2h-16.3v-13.4h16.3v13.4ZM744.1,316.4h16.3v59.4h-16.3v-59.4Z"/>
  </g>
  <g>
    <path class="st2" d="M756.5,138c-2.4-2.4-5.8-3.9-9.5-3.9s-7,1.5-9.5,3.9c-2.4,2.4-3.9,5.8-3.9,9.5s1.5,7,3.9,9.5c2.4,2.4,5.8,3.9,9.5,3.9s7-1.5,9.5-3.9c2.4-2.4,3.9-5.8,3.9-9.5s-1.5-7-3.9-9.5ZM755.6,156c-2.2,2.2-5.2,3.5-8.5,3.5s-6.3-1.3-8.5-3.5c-2.2-2.2-3.5-5.2-3.5-8.5s1.4-6.3,3.5-8.5c2.2-2.2,5.2-3.5,8.5-3.5s6.4,1.3,8.5,3.5c2.2,2.2,3.5,5.2,3.5,8.5s-1.4,6.3-3.5,8.5Z"/>
    <path class="st2" d="M751.8,149.2c-.2.6-.4,1.1-.5,1.5,0-.3-.2-.7-.4-1.3l-2.1-6.4h-1.8v9.1h1.2v-7.7l2.6,7.7h1.1l2.6-7.6v7.6h1.2v-9.1h-1.6l-2.2,6.3Z"/>
    <polygon class="st2" points="738.6 144 741.5 144 741.5 152 742.7 152 742.7 144 745.7 144 745.7 142.9 738.6 142.9 738.6 144"/>
    <path class="st2" d="M227.3,122c2,0,3.9,1,5.5,3-1.1-7.2-5.2-11-12.4-11.6-3.4-.3-6.4.4-9,1.9-2.6,1.6-4.2,3.8-4.8,6.8-.7,4.1.9,8.4,4.9,13.1,4.2,5,6.3,8.6,6.3,10.8,0,4.8-3.2,7.1-9.7,7.1h-80.8c-3.5,0-5.8-.2-6.8-.7-1-.5-2.5-2.1-4.4-4.9l-.6.8c2.3,3.5,3.3,6.9,3,10.1-.1,1.9-.9,4.1-2.1,6.7-1.3,2.6-1.9,4.9-1.7,7.1.1,4.5,1.4,8.1,3.9,11l.6-.6c-.8-1.6-1.2-3-1.2-4.3,0-3.4,2.6-5.1,7.7-5.1h12.4c-6.9,2.4-12.2,6.6-15.9,12.5-3.7,5.9-5.6,12.6-5.6,20.1s1.1,17.4,3.3,24c3.4,9.8,8.7,14.7,16,14.7s4.6-1.1,7.7-3.4c3.1-2.3,5.7-3.5,7.7-3.5,4.5,0,7,2.3,7.5,6.9,4.2-4.6,6.5-7.2,6.9-7.7,1.9-2.7,2.8-6,2.8-9.8,0-7.2-2.9-11.5-8.7-12.8-5.4-.4-10.8-.9-16-1.4-5.8-1.6-8.7-6.4-8.7-14.2s4.3-14.8,13-19.5c7-3.8,15.1-5.7,24.2-5.7s17.3,2,24.6,5.9c8.8,4.7,13.2,11.3,13.2,19.5s-2.8,11.6-8.5,13.6c-5.3.9-10.6,1.9-15.8,2.8-5.7,1.5-8.5,5.4-8.5,11.6s.9,8,2.8,11.4c2.3,4.2,5.4,6.3,9.3,6.3s5-1.1,8.6-3.4c3.6-2.3,6.5-3.5,8.6-3.5,5.3,0,8.1,2.3,8.5,6.9,8.5-8.5,12.8-22.1,12.8-40.6s-2.8-15.2-8.3-21.7c-3.1-3.5-6.8-6.4-10.9-8.9,6.2,0,11.4-1.9,15.4-5.6,4.1-3.7,6-8.9,5.7-15.5-.1-2.8-1.5-6.9-4-12.2-2.5-5.3-3.8-9.1-3.8-11.4,0-4.5,1.8-6.7,5.5-6.7Z"/>
    <path class="st2" d="M291.8,238.7c-2.7,3.6-5.3,7.1-7.9,10.7-3.1,4.3-4.7,8.4-4.7,12.3s1.9,7,5.7,7.8c.9.1,2.7-.4,5.4-1.7,2.6-1.3,4.4-2,5.4-2.1,1-.1,1.9.2,2.7,1.1.9.9,1.3,1.8,1.3,2.7,3.1-1.8,4.7-4.5,4.7-8.1s-1.6-8-4.7-12.2c-2.6-3.5-5.2-7-7.9-10.6Z"/>
    <path class="st2" d="M347.1,122c2,0,3.9,1,5.5,3-1.1-7.2-5.2-11-12.4-11.6-3.4-.3-6.4.4-9,1.9-2.6,1.6-4.2,3.8-4.8,6.8-.7,4.1.9,8.4,4.9,13.1,4.2,5,6.3,8.6,6.3,10.8,0,4.8-3.2,7.1-9.7,7.1h-18.3c-5.9,0-10.3-1.9-13-5.7l-.6.8c2.2,3,3.2,5.8,3.2,8.2s-.7,4.6-2,8c-1.4,3.4-2,6.1-2,8,0,4.4,1.3,8.1,3.8,11.1l.6-.6c-.8-1.7-1.2-3.1-1.2-4.2,0-3.7,4.3-5.5,12.8-5.5s12.2,1.7,17.1,5c5.3,3.8,7.9,8.8,7.9,15.1s-2.1,10.9-6.4,14.5c-4.3,3.6-9.5,5.5-15.7,5.5s-13.5-1.3-16.6-4c-3.5-3-5-8.2-4.5-15.9h-2.2v5.8c.1,9.4-5.8,14.1-17.8,14.1s-13.4-3.3-13.4-9.9,2.8-5.6,8.4-7.3c8.7-2.7,13.8-4.5,15.4-5.4,5.6-3.2,8.4-8.3,8.4-15.3s-2.8-13.4-8.5-17.3c-4.9-3.4-11.3-5-19.3-5s-13.9,1.6-18.9,4.8c-5.7,3.9-8.5,9.4-8.5,16.6s2,11.2,6.1,15.1c.9-4.1,3.4-6.1,7.5-6.1s2.8.2,5.3.5c2.4.3,4.3.5,5.5.5,4.7,0,7.6-1.6,8.7-4.9-2.3.8-4.6,1.2-6.9,1.2-4.7,0-7.1-2-7.1-6s1.4-4.8,4.1-6.4c2.3-1.5,4.9-2.2,7.9-2.2,8.8,0,13.2,3.3,13.2,10s-3.8,8.2-11.5,9.5c-11.8,2-18.9,3.6-21.3,4.9-7.6,4.1-11.5,11.8-11.5,23.1s3.2,17.4,9.7,22.9c6.1,5.1,14,7.7,23.9,7.7s11.5-1.8,20-5.5c8.5-3.7,15.1-5.5,19.8-5.5,8.1,0,13.2,3.7,15.2,11,14.8-7.4,22.3-21,22.3-40.6s-2.2-17.9-6.7-24.4c-1.9-2.8-4.2-5-6.7-7,3.7-.8,7-2.4,9.7-4.9,4.1-3.7,6-8.9,5.7-15.5-.1-2.8-1.5-6.9-4-12.2-2.5-5.3-3.8-9.1-3.8-11.4,0-4.5,1.8-6.7,5.5-6.7Z"/>
    <path class="st2" d="M441.3,158.5c-.3-3.2.8-6.6,3.1-10.2l-.6-.8c-1.9,2.8-3.4,4.5-4.4,5-1,.5-3.3.7-6.8.7h-53.8c-6.2,0-11.6,2.3-16.1,6.8-4.5,4.5-6.8,9.9-6.8,16.1,0,9.8,3.9,16.2,11.6,19.5-7.7,4.6-11.6,11.7-11.6,21.3s2.1,14.4,6.3,19.7c4.2,5.3,10,7.9,17.3,7.9s6.7-1.3,11.3-4c4.5-2.6,8.2-4,11.1-4,6.8,0,10.5,2.6,11.2,7.9,8.3-7.2,12.4-16.9,12.4-29s-.2-6.9-.6-11.8c-3.4,7.3-13.6,11-30.7,11s-17.9-2.8-18.1-8.3c-.1-3.4,1.8-5.5,5.9-6.3,1.3-.4,5.3-.7,12-.8,1.3,0,2.7.4,4.2,1.1,1.4.7,2.1,1.7,2.1,2.7s-.2,1.1-.6,1.6l.4.2c1.2-1.3,1.9-3.2,2-5.5,0-1.1-.3-2.3-.9-3.7-.6-1.4-1-2.5-1.1-3.5-.1-1.8.5-3.5,2-5.3l-.4-.4c-1.8,2.6-4.9,3.9-9.5,3.9-11.7,0-17.5-3.1-17.5-9.3s.9-4,2.8-5.6c1.9-1.6,4-2.3,6.3-2.3h49.7c5.7,0,8.5,1.8,8.5,5.5s-.4,2.4-1.2,3.9l.6.6c2.5-2.8,3.7-6.5,3.9-11,.1-2.2-.4-4.5-1.7-7.1-1.3-2.6-2-4.8-2.1-6.7Z"/>
    <path class="st2" d="M602.8,153.2c-1.4,0-3.2.4-5.7,1.2-2.4.8-4.3,1.2-5.5,1.2-6,0-10.8-2.7-14.6-8.1l-.6.8c2.2,3,3.2,5.8,3.2,8.3s-.7,4.3-2,7.7c-1.3,3.4-2,6-2,7.9,0,4.2,1.3,7.9,3.9,11l.6-.6-1-4c0-3.6,3.7-5.4,11-5.4,17,0,25.6,6.8,25.6,20.4s-2.4,11.6-7.3,15.2c-4.3,3.2-9.9,4.8-16.6,4.8-13,0-21-2.9-24.4-8.7,0-.4,0-.7,0-1.1,0-8-2.8-15.2-8.3-21.7-3.1-3.5-6.7-6.4-10.9-8.9,6.2,0,11.3-1.9,15.4-5.6,4.1-3.7,6-8.9,5.7-15.5-.1-2.8-1.5-6.9-4-12.2-2.5-5.3-3.8-9.1-3.8-11.4,0-4.5,1.8-6.7,5.5-6.7s3.9,1,5.5,3c-1.1-7.2-5.2-11-12.4-11.6-3.4-.3-6.4.4-9,1.9-2.6,1.6-4.2,3.8-4.8,6.8-.7,4.1.9,8.4,4.9,13.1,4.2,5,6.3,8.6,6.3,10.8,0,4.8-3.2,7.1-9.7,7.1h-80.8c-3.5,0-5.8-.2-6.8-.7-1-.5-2.5-2.1-4.4-4.9l-.6.8c2.3,3.5,3.3,6.9,3.1,10.1-.1,1.9-.9,4.1-2.1,6.7-1.3,2.6-1.9,4.9-1.7,7.1.1,4.5,1.4,8.1,3.9,11l.6-.6c-.8-1.6-1.2-3-1.2-4.3,0-3.4,2.6-5.1,7.7-5.1h12.4c-6.9,2.4-12.2,6.6-15.9,12.5-3.7,5.9-5.6,12.6-5.6,20.1s1.1,17.4,3.3,24c3.4,9.8,8.7,14.7,16,14.7s4.6-1.1,7.7-3.4c3.1-2.3,5.7-3.5,7.7-3.5,4.5,0,7,2.3,7.5,6.9,4.2-4.6,6.5-7.2,6.9-7.7,1.9-2.7,2.8-6,2.8-9.8,0-7.2-2.9-11.5-8.7-12.8-5.4-.4-10.8-.9-16-1.4-5.8-1.6-8.7-6.4-8.7-14.2s4.3-14.8,13-19.5c7-3.8,15.1-5.7,24.2-5.7s17.2,2,24.6,5.9c8.8,4.7,13.2,11.3,13.2,19.5s-2.8,11.6-8.5,13.6c-5.3.9-10.5,1.9-15.8,2.8-5.7,1.5-8.5,5.4-8.5,11.6s.9,8,2.8,11.4c2.3,4.2,5.4,6.3,9.3,6.3s5-1.1,8.6-3.4c3.6-2.3,6.5-3.5,8.6-3.5,5.3,0,8.1,2.3,8.5,6.9,3.8-3.8,6.7-8.7,8.9-14.5.2.4.3.9.5,1.3,3.9,8.8,10.2,13.3,18.7,13.3s5.3-1.3,8.9-4c3.7-2.6,6.6-4,8.9-4,6.1,0,9.4,2.6,10,7.9,8.9-8.7,13.4-23.7,13.4-45s-1.1-20-3.4-27.9c-3.5-12.3-9.3-18.5-17.5-18.5Z"/>
    <path class="st2" d="M716.1,151.2c-9.1-6.5-20.2-9.8-33.3-9.8s-16.4,1.4-23.1,4.3c-9.1,3.8-13.6,9.3-13.6,16.7s2,11.1,5.9,14.2c-13.4,6.2-20.1,16.5-20.1,30.7s3.1,18.4,9.3,25.6c6.6,7.7,14.7,11.6,24.4,11.6s11.6-1.8,20.1-5.5c8.5-3.7,15.2-5.5,20.1-5.5,8,0,13,3.7,15,11,14.9-7.5,22.3-20.3,22.3-38.6s-3.1-20.7-9.1-25.6c-2.2-12.5-8.1-22.2-17.9-29.1ZM722.9,184.9c1.4,1.5,2.1,3.2,2.1,5.3s-.7,3.8-2.1,5.3c-1.4,1.5-3.2,2.2-5.2,2.2s-3.8-.7-5.2-2.2c-1.4-1.5-2.1-3.2-2.1-5.3s.7-3.8,2.1-5.3c1.4-1.5,3.1-2.2,5.2-2.2s3.8.7,5.2,2.2ZM672.3,155.9c2.6-1.9,5.5-2.8,8.7-2.8s5.4.9,7.6,2.8c2.2,1.9,3.3,4.3,3.3,7.1s-1.2,5.3-3.5,7.3c-2.4,2-5,3-7.8,3s-6.1-.9-8.5-2.6c-2.4-1.8-3.7-4.2-3.7-7.3s1.3-5.6,3.9-7.5ZM710,213.5c-14.3,0-21.4-5.3-21.3-15.8h-2c0,4.9-1.7,8.8-5.1,11.6-3.4,2.8-7.6,4.2-12.6,4.2-12.2,0-18.3-5.3-18.3-15.7s3-12.2,8.9-17.4c4.7,1.9,9.3,2.8,13.6,2.8,7.6,0,14.1-1.6,19.5-4.6,6.5-3.6,9.7-9,9.7-16.1s-1-6.5-3-9.3c11,.9,18.4,8.9,22.3,23.8-1.9-1.4-4.4-2-7.5-2-6,0-11,1.3-15,3.9-4.9,3.1-7.3,7.4-7.3,13s2.1,9.2,6.3,12.5c4.2,3.3,8.9,5,14,5s12.8-2.5,17.3-7.5c-3.1,7.9-9.6,11.8-19.5,11.8Z"/>
  </g>
  <rect class="st1" x="114.2" y="424" width="647.1" height="1.8"/>
</svg>