<?xml version="1.0" encoding="UTF-8"?>
<svg xmlns="http://www.w3.org/2000/svg" version="1.1" viewBox="0 0 924.4 326">
  <!-- Generator: Adobe Illustrator 30.3.0, SVG Export Plug-In . SVG Version: 2.1.3 Build 182)  -->
  <defs>
    <style>
      .st0 {
        fill: #79b6e3;
      }

      .st1 {
        fill: #4d4d4e;
      }

      .st1, .st2 {
        fill-rule: evenodd;
      }

      .st3 {
        fill: #c7c5c4;
      }

      .st4 {
        isolation: isolate;
      }

      .st5, .st2 {
        fill: #ef4166;
      }

      .st6 {
        fill: #a8aaad;
        mix-blend-mode: multiply;
      }

      .st7 {
        fill: #58595b;
      }

      .st8 {
        fill: #209dbf;
      }

      .st9 {
        fill: #ef4066;
      }

      .st10 {
        fill: #353635;
      }
    </style>
  </defs>
  <g class="st4">
    <g id="Layer_1">
      <g>
        <rect class="st3" x="511" y="102.8" width="1.7" height="106.2"/>
        <g>
          <path class="st10" d="M227.2,204.5c-2.9,3.7-6.6,5.1-10.2,5.1-11.4,0-18.2-8.6-18.2-19.3s6.8-19.6,18.2-19.6,14.8,4.6,15.7,13.1h-7.8c-1-4.2-4-6.2-7.9-6.2-7.3,0-10.1,6.2-10.1,12.7s2.8,12.4,10.1,12.4,8.4-2.8,8.8-8h-8.2v-6.1h15.6v20.1h-5.2l-.8-4.2Z"/>
          <path class="st10" d="M238.8,190.1c.4-6.9,6.6-9,12.6-9s11.8,1.2,11.8,7.6v14c0,2.4.3,4.9.9,6h-7.5c-.3-.8-.5-1.7-.5-2.6-2.3,2.4-5.7,3.3-9,3.3-5.1,0-9.1-2.5-9.1-8.1.1-12.2,18.2-5.7,17.9-11.7,0-3.1-2.2-3.6-4.8-3.6s-4.6,1.1-4.9,4.1h-7.4ZM255.8,195.6c-1.2,1.1-3.9,1.1-6.1,1.6-2.3.4-4.4,1.2-4.4,4s2.1,3.4,4.5,3.4c5.8,0,6-4.5,6-6.2v-2.8Z"/>
          <path class="st10" d="M268.9,181.8h7v5h.1c1.4-3.4,4.9-5.7,8.6-5.7s1.1.1,1.6.3v6.9c-.7-.2-1.8-.3-2.7-.3-5.5,0-7.3,3.8-7.3,8.6v12.1h-7.4v-26.9Z"/>
          <path class="st10" d="M289.1,171.6h7.4v13.5h.1c1.8-2.8,5.1-4,8.5-4,5.4,0,11.1,4.3,11.1,14.1s-5.8,14.2-11.1,14.2-7.2-1.2-8.8-4.2h-.1v3.4h-7v-37.1ZM302.5,186.7c-4.4,0-6.3,4.1-6.3,8.6s1.9,8.6,6.3,8.6,6.3-4.1,6.3-8.6-1.9-8.6-6.3-8.6"/>
          <path class="st10" d="M320.9,171.6h7.4v14h.2c1.9-3.1,5.1-4.5,7.9-4.5,7.8,0,9.8,4.4,9.8,11.1v16.5h-7.4v-15.2c0-4.4-1.2-6.6-4.7-6.6s-5.7,2.2-5.7,7.7v14.1h-7.4v-37.1Z"/>
          <path class="st10" d="M351.4,190.1c.4-6.9,6.6-9,12.6-9s11.8,1.2,11.8,7.6v14c0,2.4.3,4.9.9,6h-7.5c-.3-.8-.5-1.7-.5-2.6-2.3,2.4-5.7,3.3-9,3.3-5.1,0-9.1-2.5-9.1-8.1.1-12.2,18.2-5.7,17.9-11.7,0-3.1-2.2-3.6-4.8-3.6s-4.6,1.1-4.9,4.1h-7.4ZM368.5,195.6c-1.2,1.1-3.8,1.1-6.1,1.6-2.3.4-4.4,1.2-4.4,4s2.1,3.4,4.5,3.4c5.8,0,6-4.5,6-6.2v-2.8Z"/>
          <path class="st10" d="M409.2,204.5c-2.9,3.7-6.6,5.1-10.2,5.1-11.4,0-18.3-8.6-18.3-19.3s6.8-19.6,18.3-19.6,14.8,4.6,15.6,13.1h-7.8c-1-4.2-4-6.2-7.9-6.2-7.3,0-10.1,6.2-10.1,12.7s2.8,12.4,10.1,12.4,8.4-2.8,8.8-8h-8.2v-6.1h15.6v20.1h-5.2l-.8-4.2Z"/>
          <path class="st10" d="M446.2,208.7h-7v-3.7h-.2c-1.9,3.1-5.1,4.5-8.2,4.5-7.8,0-9.8-4.4-9.8-11.1v-16.5h7.4v15.2c0,4.4,1.2,6.6,4.7,6.6s5.7-2.2,5.7-7.7v-14.1h7.4v26.9Z"/>
          <path class="st10" d="M471,205.3h-.1c-1.7,2.9-4.7,4.2-8.2,4.2-8.1,0-12.1-6.9-12.1-14.4s4-13.9,11.9-13.9,6.3,1.4,8,4h.1v-13.5h7.4v37.1h-7v-3.4ZM464.6,186.7c-4.8,0-6.5,4.2-6.5,8.6s1.9,8.6,6.5,8.6,6.3-4.3,6.3-8.7-1.6-8.5-6.3-8.5"/>
          <path class="st10" d="M491.2,177.7h-7.4v-6.1h7.4v6.1ZM483.8,181.8h7.4v26.9h-7.4v-26.9Z"/>
          <g>
            <path class="st1" d="M140.6,108.8c-.7-.8-1.3-1.6-2-2.4,5.7-5.9,11.5-11.8,17.2-17.6,23.5,31,29.7,67.8,21.5,90.9-13.2,37.1-64.6,37.2-78.9,5.6-4.8-13.2.8-24.2,10.4-30.4,6.4-4.2,12.6-6,20.3-4.7,8.1,1.4,18.1,5.2,28,7.3,2.6.6,9.8,2.5,11.8,1.6,1.9-.9,1.9-3.1,2-4.5.6.3,1.4.6,2,.8l-4.6,10.9c-12.3-3.1-24.8-6.2-37.1-9.4-7.5-1.4-14.1-1.2-19.6,1.1-18.4,7.6-14.6,26.9-.7,37.5,23.5,18.1,56.6,7.7,65-20.7,5.5-18.8.9-33.2-6.2-50.8-4.2-10.5-9.5-20-16.3-28-4.2,4.3-8.4,8.6-12.7,12.9"/>
            <path class="st10" d="M171.8,93.6v-4.3h.9l1,3.1c0,.3.2.5.2.6,0-.2.1-.4.2-.7l1-3h.8v4.3h-.6v-3.6l-1.3,3.6h-.5l-1.2-3.7v3.7h-.5ZM169.2,93.6v-3.8h-1.4v-.5h3.4v.5h-1.4v3.8h-.6ZM175.9,87.4c-1-1-2.5-1.7-4.1-1.7s-3,.6-4.1,1.7c-1,1-1.7,2.5-1.7,4.1s.6,3,1.7,4.1c1,1,2.5,1.7,4.1,1.7s3-.6,4.1-1.7c1-1,1.7-2.5,1.7-4.1s-.6-3-1.7-4.1M171.9,85c1.8,0,3.4.7,4.5,1.9,1.2,1.2,1.9,2.8,1.9,4.5s-.7,3.4-1.9,4.5c-1.2,1.2-2.8,1.9-4.5,1.9s-3.4-.7-4.5-1.9c-1.2-1.2-1.9-2.7-1.9-4.5s.7-3.4,1.9-4.5c1.2-1.2,2.7-1.9,4.5-1.9"/>
            <path class="st2" d="M125.4,182.1c-.6-2.9-2.6-4.2-4.9-4.3-5.5-.3-8.4,6.2-7.8,10.9.6,4.5,4.1,7.8,10.8,7.1,4.4,2.8,7.9,4.9,12,5.9,5.8,1.5,14.2.8,16.9-5.5,1.9-4.4-1.3-9.1-6.6-10.5-.2-2.1-.3-4.2-.5-6.3,1.5-2.9-1.3-4.6-3.2-5.1-1.1,0-1.9,1.2-1.3,2,.8.9,1.6,1.4,2.1,2.7-.2,2.2-2,4.7-3,6.8-1.2,2.1-1,3.9,1.1,5.2,1.6.7,2.3,1.4,1.8,2.4-1.5.3-1.7-1.8-3.6-2.5-1.8.1-3.6,2.1-5.2,1.2.5-1.9.8-3.7.6-5.5,0-1.4-1.7-1.7-2.3-2.9.5-.7,1.1-1.2.8-2.5-.9-1.1-2.9-.8-3,0,.1.8.1,1.8.5,2.6.4,1.2.5,2.3,1.3,3.3-.4.7-.9,1.3-1.3,2-.3.6-1.4-.3-.9-1.2,1.5-2.3,0-4.4-1.1-4.7,0-.4-.1-1.1-.4-1.4-.8.4-1.9.6-2.9.5"/>
            <path class="st2" d="M158.7,108.3c-1,4.6-1.9,9.1-2.9,13.7-.3-2.6-1-4.5-2.1-5.8-3.6-4.6-16.8-2.1-21.5-.3-4.6,1.8-8.6,4.7-12.1,8.7-10,11.2-16.5,40.6.7,46.6,10.2,3.6,27.4-5.3,28.9-17.2.7-5.2-1-10.6-5.1-14.1,8.2-1.1,13,1.7,9.8,13.9-2,4.7-4.5,8.6-7.6,11.7-10.6,10.7-36.8,15.6-41.8-2.6-3.8-13.9,2.3-30.7,12.7-40.4,4.8-4.4,10.6-8,17.7-10.6,7.6-2.8,15.3-4.3,23.2-3.6"/>
            <polygon class="st6" points="90.5 199.9 88.9 198 89.6 197.5 93.4 202 92.7 202.5 91.1 200.7 85.7 205.3 85 204.5 90.5 199.9"/>
            <polygon class="st6" points="95 203.5 92.7 206 95.6 208.6 97.9 206.2 98.6 206.9 93.2 212.8 92.5 212.1 95 209.3 92.1 206.7 89.6 209.5 88.8 208.8 94.2 202.9 95 203.5"/>
            <polygon class="st6" points="101.3 214 98.7 212.2 97 214.6 99.9 216.6 99.4 217.3 95.7 214.7 100.3 208.2 103.9 210.7 103.4 211.4 100.7 209.5 99.2 211.5 101.8 213.3 101.3 214"/>
            <path class="st6" d="M109.8,222.5c-.4,0-1.2-.2-2.1-.6-2-1-3-3-1.8-5.4,1.1-2.3,3.3-3.1,5.6-2,.9.4,1.4.9,1.6,1.1l-.6.7c-.3-.3-.7-.7-1.3-1-1.7-.8-3.3-.3-4.2,1.6-.8,1.8-.4,3.4,1.4,4.2.6.3,1.2.4,1.7.4l-.2.8Z"/>
            <path class="st6" d="M119.6,221.9c-.8,2.6-2.9,3.5-4.8,2.9-2-.6-2.9-2.7-2.2-5,.8-2.4,2.8-3.5,4.8-2.9,2.1.7,2.9,2.7,2.2,5M113.7,220.1c-.5,1.6-.1,3.4,1.4,3.9,1.6.5,2.9-.6,3.5-2.4.5-1.5.2-3.4-1.4-3.9-1.6-.5-2.9.7-3.5,2.4"/>
            <path class="st6" d="M121.1,225c.4.4,1,.7,1.7.9,1,.2,1.8-.2,1.9-1,.1-.7-.2-1.2-1.2-1.8-1.2-.7-1.9-1.5-1.7-2.6.2-1.2,1.4-1.9,2.9-1.7.8.1,1.4.4,1.7.7l-.4.8c-.2-.2-.7-.5-1.4-.7-1.1-.2-1.6.4-1.7.9-.1.7.3,1.2,1.3,1.8,1.2.8,1.8,1.5,1.6,2.7-.2,1.2-1.3,2.1-3.2,1.8-.8-.1-1.5-.5-1.9-.9l.4-.8Z"/>
            <path class="st6" d="M135,224.4c0-1.1,0-2.5,0-3.5h0c-.3.9-.7,1.9-1.2,3l-1.6,3.8h-.8s-1.1-3.9-1.1-3.9c-.3-1.1-.6-2.2-.8-3.2h0c0,1-.2,2.3-.3,3.5l-.4,3.4h-1s.9-8,.9-8h1.3c0,0,1.2,4,1.2,4,.3,1,.5,1.9.7,2.7h0c.2-.8.6-1.7,1-2.7l1.6-3.8h1.3c0,0,.1,8.1.1,8.1h-1c0,0,0-3.6,0-3.6Z"/>
            <rect class="st6" x="138.6" y="219.7" width="1" height="8" transform="translate(-15 10) rotate(-3.9)"/>
            <path class="st6" d="M148.4,226.2c-.3.2-1.1.6-2,.7-2.2.4-4.1-.8-4.6-3.4-.4-2.5,1-4.4,3.5-4.8,1-.2,1.6,0,1.9,0v.9c-.5-.1-1.1-.2-1.8,0-1.9.3-2.9,1.7-2.6,3.8.3,1.9,1.6,3,3.6,2.7.6,0,1.2-.3,1.6-.6l.3.8Z"/>
            <path class="st6" d="M155.2,224.7l-4.7-6.8,1-.4,2.3,3.5c.6.9,1.1,1.7,1.5,2.4h0c-.2-.8-.3-1.8-.4-2.8l-.4-4.2,1-.4,2.3,3.5c.5.8,1.1,1.6,1.5,2.4h0c-.2-.9-.3-1.8-.4-2.8l-.4-4.2,1-.4.7,8.3-1,.4-2.4-3.6c-.6-.9-1-1.5-1.4-2.3h0c.1.8.3,1.6.3,2.7l.4,4.3-1,.4Z"/>
            <path class="st6" d="M168.6,213.8c1.4,2.4.7,4.5-1.1,5.5-1.8,1.1-3.9.4-5.2-1.7-1.3-2.2-.7-4.4,1.1-5.5,1.9-1.1,4-.3,5.1,1.7M163.3,217c.9,1.5,2.4,2.4,3.8,1.5,1.4-.8,1.5-2.6.6-4.2-.8-1.4-2.3-2.4-3.8-1.5-1.5.9-1.4,2.7-.6,4.2"/>
            <path class="st6" d="M176,208.8c-.8-.8-1.6-1.8-2.3-2.6h0c.4.9.7,1.9,1.1,3l1.3,3.9-.6.5-3.4-2.2c-1-.6-1.9-1.2-2.7-1.8h0c.6.8,1.4,1.9,2.1,2.9l2,2.8-.8.6-4.6-6.6,1-.8,3.5,2.2c.9.6,1.6,1.1,2.3,1.6h0c-.4-.8-.7-1.6-1-2.7l-1.3-3.9,1-.8,5.4,5.9-.8.6-2.4-2.6Z"/>
            <path class="st6" d="M175.4,203.2c.2-.4.7-1,1.2-1.5.7-.8,1.3-1.1,1.9-1.2.5,0,1,0,1.5.5.6.5.7,1.4.4,2.2h0c.7-.4,1.7-.6,2.6.2.5.5.7,1,.7,1.6,0,.8-.4,1.6-1.3,2.5-.5.5-.9.9-1.2,1.1l-5.8-5.4ZM178.5,204.7l.6-.7c.7-.8.8-1.7.2-2.2-.7-.6-1.4-.4-2.2.4-.3.3-.5.6-.6.7l1.9,1.8ZM181.4,207.3c.2-.1.4-.3.6-.6.7-.8,1.1-1.8.3-2.6-.8-.7-1.8-.4-2.5.5l-.6.6,2.2,2.1Z"/>
          </g>
          <g>
            <path class="st5" d="M489.3,101.5c-1.1-1.1-2.6-1.8-4.3-1.8s-3.2.7-4.3,1.8c-1.1,1.1-1.8,2.6-1.8,4.3s.7,3.2,1.8,4.3c1.1,1.1,2.6,1.8,4.3,1.8s3.2-.7,4.3-1.8c1.1-1.1,1.8-2.6,1.8-4.3s-.7-3.2-1.8-4.3ZM488.9,109.6c-1,1-2.3,1.6-3.9,1.6s-2.9-.6-3.9-1.6c-1-1-1.6-2.4-1.6-3.9s.6-2.9,1.6-3.9c1-1,2.4-1.6,3.9-1.6s2.9.6,3.9,1.6c1,1,1.6,2.4,1.6,3.9s-.6,2.9-1.6,3.9Z"/>
            <path class="st5" d="M487.2,106.6c0,.3-.2.5-.2.7,0-.1,0-.3-.2-.6l-1-2.9h-.8v4.1h.5v-3.5l1.2,3.5h.5l1.2-3.4v3.4h.5v-4.1h-.7l-1,2.9Z"/>
            <polygon class="st5" points="481.2 104.2 482.5 104.2 482.5 107.8 483.1 107.8 483.1 104.2 484.4 104.2 484.4 103.7 481.2 103.7 481.2 104.2"/>
            <path class="st5" d="M249.7,94.2c.9,0,1.7.5,2.5,1.4-.5-3.2-2.4-5-5.6-5.2-1.5-.1-2.9.2-4.1.9-1.2.7-1.9,1.7-2.2,3.1-.3,1.8.4,3.8,2.2,5.9,1.9,2.3,2.9,3.9,2.9,4.9,0,2.2-1.5,3.2-4.4,3.2h-36.6c-1.6,0-2.6-.1-3.1-.3-.5-.2-1.1-1-2-2.2l-.3.4c1,1.6,1.5,3.1,1.4,4.6,0,.9-.4,1.9-1,3-.6,1.2-.8,2.2-.8,3.2,0,2,.6,3.7,1.7,5l.3-.3c-.4-.7-.5-1.4-.5-1.9,0-1.5,1.2-2.3,3.5-2.3h5.6c-3.1,1.1-5.5,3-7.2,5.7-1.7,2.7-2.5,5.7-2.5,9.1s.5,7.9,1.5,10.9c1.5,4.4,4,6.6,7.3,6.6s2.1-.5,3.5-1.6c1.4-1,2.6-1.6,3.5-1.6,2,0,3.2,1,3.4,3.1,1.9-2.1,2.9-3.3,3.1-3.5.9-1.2,1.3-2.7,1.3-4.4,0-3.3-1.3-5.2-4-5.8-2.5-.2-4.9-.4-7.3-.6-2.6-.7-4-2.9-4-6.5s2-6.7,5.9-8.8c3.2-1.7,6.8-2.6,10.9-2.6s7.8.9,11.1,2.7c4,2.1,6,5.1,6,8.8s-1.3,5.3-3.9,6.2c-2.4.4-4.8.9-7.2,1.3-2.6.7-3.9,2.4-3.9,5.3s.4,3.6,1.3,5.2c1,1.9,2.4,2.9,4.2,2.9s2.3-.5,3.9-1.6c1.6-1,2.9-1.6,3.9-1.6,2.4,0,3.7,1,3.9,3.1,3.9-3.9,5.8-10,5.8-18.4s-1.3-6.9-3.8-9.8c-1.4-1.6-3.1-2.9-5-4,2.8,0,5.1-.8,7-2.5,1.8-1.7,2.7-4,2.6-7,0-1.3-.7-3.1-1.8-5.5-1.1-2.4-1.7-4.1-1.7-5.1,0-2,.8-3,2.5-3Z"/>
            <path class="st5" d="M278.9,147.1c-1.2,1.6-2.4,3.2-3.6,4.8-1.4,1.9-2.1,3.8-2.1,5.6s.9,3.2,2.6,3.5c.4,0,1.2-.2,2.4-.8,1.2-.6,2-.9,2.4-1,.4,0,.8.1,1.2.5.4.4.6.8.6,1.2,1.4-.8,2.1-2,2.1-3.7s-.7-3.6-2.1-5.5c-1.2-1.6-2.4-3.2-3.6-4.8Z"/>
            <path class="st5" d="M303.9,94.2c.9,0,1.8.5,2.5,1.4-.5-3.2-2.4-5-5.6-5.2-1.5-.1-2.9.2-4.1.9-1.2.7-1.9,1.7-2.2,3.1-.3,1.8.4,3.8,2.2,5.9,1.9,2.3,2.8,3.9,2.8,4.9,0,2.2-1.5,3.2-4.4,3.2h-8.3c-2.7,0-4.7-.9-5.9-2.6l-.3.4c1,1.4,1.5,2.6,1.5,3.7s-.3,2.1-.9,3.6c-.6,1.6-.9,2.8-.9,3.6,0,2,.6,3.7,1.7,5l.3-.3c-.4-.8-.6-1.4-.6-1.9,0-1.7,1.9-2.5,5.8-2.5s5.5.8,7.7,2.3c2.4,1.7,3.6,4,3.6,6.9s-1,4.9-2.9,6.6c-1.9,1.6-4.3,2.5-7.1,2.5s-6.1-.6-7.5-1.8c-1.6-1.3-2.3-3.7-2-7.2h-1v2.6c0,4.2-2.6,6.4-8.1,6.4s-6.1-1.5-6.1-4.5,1.3-2.6,3.8-3.3c3.9-1.2,6.3-2,7-2.5,2.5-1.5,3.8-3.8,3.8-6.9s-1.3-6.1-3.9-7.9c-2.2-1.5-5.1-2.3-8.7-2.3s-6.3.7-8.5,2.2c-2.6,1.8-3.9,4.3-3.9,7.5s.9,5.1,2.8,6.9c.4-1.8,1.6-2.8,3.4-2.8s1.3,0,2.4.2c1.1.2,1.9.2,2.5.2,2.1,0,3.5-.7,4-2.2-1,.4-2.1.6-3.1.6-2.1,0-3.2-.9-3.2-2.7s.6-2.2,1.8-2.9c1-.7,2.2-1,3.6-1,4,0,6,1.5,6,4.5s-1.7,3.7-5.2,4.3c-5.3.9-8.6,1.7-9.7,2.2-3.5,1.8-5.2,5.3-5.2,10.5s1.5,7.9,4.4,10.4c2.7,2.3,6.3,3.5,10.8,3.5s5.2-.8,9.1-2.5c3.8-1.7,6.8-2.5,9-2.5,3.7,0,6,1.7,6.9,5,6.7-3.4,10.1-9.5,10.1-18.4s-1-8.1-3-11c-.8-1.2-1.9-2.3-3-3.2,1.7-.4,3.2-1.1,4.4-2.2,1.8-1.7,2.7-4,2.6-7,0-1.3-.7-3.1-1.8-5.5-1.1-2.4-1.7-4.1-1.7-5.1,0-2,.8-3,2.5-3Z"/>
            <path class="st5" d="M346.6,110.8c-.1-1.5.3-3,1.4-4.6l-.3-.4c-.9,1.3-1.5,2-2,2.2-.5.2-1.5.3-3.1.3h-24.4c-2.8,0-5.3,1-7.3,3.1-2.1,2.1-3.1,4.5-3.1,7.3,0,4.4,1.7,7.4,5.2,8.8-3.5,2.1-5.2,5.3-5.2,9.7s.9,6.5,2.8,8.9c1.9,2.4,4.5,3.6,7.8,3.6s3-.6,5.1-1.8c2.1-1.2,3.7-1.8,5-1.8,3.1,0,4.7,1.2,5.1,3.6,3.7-3.3,5.6-7.6,5.6-13.1s0-3.1-.3-5.4c-1.5,3.3-6.2,5-13.9,5s-8.1-1.3-8.2-3.8c0-1.5.8-2.5,2.7-2.8.6-.2,2.4-.3,5.4-.4.6,0,1.2.2,1.9.5.6.3,1,.8,1,1.2s0,.5-.3.7h.2c.6-.5.9-1.4.9-2.4,0-.5-.1-1-.4-1.7-.3-.6-.4-1.1-.5-1.6,0-.8.2-1.6.9-2.4l-.2-.2c-.8,1.2-2.2,1.7-4.3,1.7-5.3,0-7.9-1.4-7.9-4.2s.4-1.8,1.3-2.5c.9-.7,1.8-1.1,2.9-1.1h22.5c2.6,0,3.9.8,3.9,2.5s-.2,1.1-.6,1.7l.3.3c1.1-1.3,1.7-2.9,1.7-5,0-1-.2-2.1-.8-3.2-.6-1.2-.9-2.2-1-3Z"/>
            <path class="st5" d="M419.7,108.4c-.6,0-1.5.2-2.6.5-1.1.4-1.9.6-2.5.6-2.7,0-4.9-1.2-6.6-3.7l-.3.4c1,1.3,1.5,2.6,1.5,3.8s-.3,2-.9,3.5c-.6,1.5-.9,2.7-.9,3.6,0,1.9.6,3.6,1.7,5l.3-.3-.5-1.8c0-1.6,1.7-2.4,5-2.4,7.7,0,11.6,3.1,11.6,9.2s-1.1,5.3-3.3,6.9c-2,1.5-4.5,2.2-7.5,2.2-5.9,0-9.5-1.3-11-3.9,0-.2,0-.3,0-.5,0-3.6-1.3-6.9-3.8-9.8-1.4-1.6-3.1-2.9-4.9-4,2.8,0,5.1-.8,7-2.5,1.8-1.7,2.7-4,2.6-7,0-1.3-.7-3.1-1.8-5.5-1.1-2.4-1.7-4.1-1.7-5.1,0-2,.8-3,2.5-3s1.7.5,2.5,1.4c-.5-3.2-2.4-5-5.6-5.2-1.5-.1-2.9.2-4.1.9-1.2.7-1.9,1.7-2.2,3.1-.3,1.8.4,3.8,2.2,5.9,1.9,2.3,2.8,3.9,2.8,4.9,0,2.2-1.5,3.2-4.4,3.2h-36.6c-1.6,0-2.6-.1-3.1-.3-.5-.2-1.1-1-2-2.2l-.3.4c1,1.6,1.5,3.1,1.4,4.6,0,.9-.4,1.9-1,3-.6,1.2-.8,2.2-.8,3.2,0,2,.6,3.7,1.8,5l.3-.3c-.4-.7-.6-1.4-.6-1.9,0-1.5,1.2-2.3,3.5-2.3h5.6c-3.1,1.1-5.5,3-7.2,5.7-1.7,2.7-2.5,5.7-2.5,9.1s.5,7.9,1.5,10.9c1.5,4.4,4,6.6,7.3,6.6s2.1-.5,3.5-1.6c1.4-1,2.6-1.6,3.5-1.6,2,0,3.2,1,3.4,3.1,1.9-2.1,2.9-3.3,3.1-3.5.9-1.2,1.3-2.7,1.3-4.4,0-3.3-1.3-5.2-4-5.8-2.5-.2-4.9-.4-7.3-.6-2.6-.7-4-2.9-4-6.5s2-6.7,5.9-8.8c3.2-1.7,6.8-2.6,10.9-2.6s7.8.9,11.1,2.7c4,2.1,6,5.1,6,8.8s-1.3,5.3-3.9,6.2c-2.4.4-4.8.9-7.2,1.3-2.6.7-3.9,2.4-3.9,5.3s.4,3.6,1.3,5.2c1,1.9,2.5,2.9,4.2,2.9s2.3-.5,3.9-1.6c1.6-1,2.9-1.6,3.9-1.6,2.4,0,3.7,1,3.9,3.1,1.7-1.7,3.1-3.9,4-6.6,0,.2.1.4.2.6,1.8,4,4.6,6,8.5,6s2.4-.6,4-1.8c1.7-1.2,3-1.8,4-1.8,2.8,0,4.3,1.2,4.5,3.6,4-3.9,6.1-10.7,6.1-20.4s-.5-9.1-1.6-12.6c-1.6-5.6-4.2-8.4-7.9-8.4Z"/>
            <path class="st5" d="M471,107.5c-4.1-2.9-9.1-4.4-15.1-4.4s-7.4.6-10.5,1.9c-4.1,1.7-6.2,4.2-6.2,7.5s.9,5,2.7,6.4c-6.1,2.8-9.1,7.5-9.1,13.9s1.4,8.3,4.2,11.6c3,3.5,6.7,5.2,11,5.2s5.2-.8,9.1-2.5c3.9-1.7,6.9-2.5,9.1-2.5,3.6,0,5.9,1.7,6.8,5,6.7-3.4,10.1-9.2,10.1-17.5s-1.4-9.4-4.1-11.6c-1-5.6-3.7-10-8.1-13.2ZM474.1,122.7c.6.7,1,1.5,1,2.4s-.3,1.7-1,2.4c-.6.7-1.4,1-2.3,1s-1.7-.3-2.3-1c-.6-.7-1-1.5-1-2.4s.3-1.7,1-2.4c.6-.7,1.4-1,2.3-1s1.7.3,2.3,1ZM451.2,109.6c1.2-.9,2.5-1.3,4-1.3s2.4.4,3.4,1.3c1,.9,1.5,1.9,1.5,3.2s-.5,2.4-1.6,3.3c-1.1.9-2.3,1.4-3.5,1.4s-2.8-.4-3.9-1.2c-1.1-.8-1.7-1.9-1.7-3.3s.6-2.5,1.7-3.4ZM468.3,135.7c-6.5,0-9.7-2.4-9.7-7.2h-.9c0,2.2-.8,4-2.3,5.3-1.5,1.3-3.4,1.9-5.7,1.9-5.5,0-8.3-2.4-8.3-7.1s1.4-5.5,4.1-7.9c2.1.9,4.2,1.3,6.2,1.3,3.4,0,6.4-.7,8.8-2.1,2.9-1.6,4.4-4.1,4.4-7.3s-.5-2.9-1.4-4.2c5,.4,8.3,4,10.1,10.8-.9-.6-2-.9-3.4-.9-2.7,0-5,.6-6.8,1.7-2.2,1.4-3.3,3.4-3.3,5.9s1,4.2,2.9,5.7c1.9,1.5,4,2.3,6.3,2.3s5.8-1.1,7.8-3.4c-1.4,3.6-4.4,5.3-8.8,5.3Z"/>
          </g>
        </g>
        <g>
          <path class="st7" d="M639.4,236.3h1.4l3.1-11.7h-1.4l-3.1,11.7ZM643.1,222.4h1.4l.6-2.3h-1.4l-.6,2.3Z"/>
          <polygon class="st7" points="644 236.3 645.4 236.3 649.7 220.1 648.3 220.1 644 236.3"/>
          <polygon class="st7" points="648.6 236.3 650.1 236.3 654.4 220.1 653 220.1 648.6 236.3"/>
          <path class="st7" d="M665.8,224.6h-1.4l-1.6,6.1c-.6,2.4-2.3,4.7-4.8,4.7s-2.8-1.1-2.3-3.2l2-7.6h-1.4l-2,7.6c-.7,2.7,0,4.4,2.9,4.4s3.5-.9,4.7-2.4h0l-.6,2.1h1.3l3.1-11.7Z"/>
          <path class="st7" d="M665.8,236.3h1.4l1.7-6.5c.7-2.4,2.2-4.3,4.6-4.3s2.1,1.3,1.7,2.9l-2.1,7.9h1.4l1.8-6.6c.6-2.2,1.8-4.2,4.3-4.2s2.5,1,2,3l-2.1,7.8h1.4l2.1-7.9c.7-2.7-.2-4.1-2.8-4.1s-3.2.7-4.3,2.3c0-1.5-1.2-2.3-2.7-2.3s-3.3.9-4.4,2.3h0l.5-2h-1.3l-3.1,11.7Z"/>
          <path class="st7" d="M685.2,236.3h1.4l3.1-11.7h-1.4l-3.1,11.7ZM688.9,222.4h1.4l.6-2.3h-1.4l-.6,2.3Z"/>
          <path class="st7" d="M689.8,236.3h1.4l1.8-6.8c.7-2.3,2.5-4,4.7-4s2.6,1.5,2,3.5l-2,7.3h1.4l2-7.5c.7-2.8.2-4.5-3.1-4.5s-3.4.9-4.4,2.4h0l.5-2h-1.4l-3.1,11.7Z"/>
          <path class="st7" d="M711.1,231.8c-.6,2.3-2.9,3.7-5.1,3.7s-2.4-.9-2-2.3c.6-2.3,3.6-2.3,6.2-2.7.4,0,1.1-.2,1.3-.5h0l-.5,1.9ZM705.8,228.2c.6-1.9,2.1-2.7,3.9-2.7s2.9.5,2.4,2.4c-.3,1.3-1.1,1.5-2.3,1.6-3.2.4-6.4.5-7.3,3.8-.6,2.4.8,3.4,3,3.4s3.5-.9,4.9-2.4h0c-.3,1.2-.3,2,1.1,2s.6,0,1,0l.3-1.2c-.2,0-.3,0-.5,0-.6,0-.8-.3-.6-.9l1.7-6.2c.8-3.1-1.2-3.8-3.3-3.8s-4.9,1.2-5.8,3.9h1.4Z"/>
          <path class="st7" d="M720.9,221.1h-1.4l-.9,3.5h-2l-.3,1.2h2l-2.1,8c-.6,2,0,2.6,1.8,2.6s.8,0,1.3,0l.3-1.2c-.4,0-.8,0-1.2,0-1,0-1-.6-.7-1.5l2.1-7.9h2.4l.3-1.2h-2.4l.9-3.5Z"/>
          <path class="st7" d="M721.7,236.3h1.4l3.1-11.7h-1.4l-3.1,11.7ZM725.5,222.4h1.4l.6-2.3h-1.4l-.6,2.3Z"/>
          <path class="st7" d="M726.3,236.3h1.4l1.8-6.8c.7-2.3,2.5-4,4.7-4s2.6,1.5,2,3.5l-2,7.3h1.4l2-7.5c.7-2.8.2-4.5-3.1-4.5s-3.4.9-4.4,2.4h0l.5-2h-1.4l-3.1,11.7Z"/>
          <path class="st7" d="M744,235c-2.6,0-3.2-2.3-2.6-4.6.6-2.4,2.4-4.8,5.1-4.8s3.1,2.6,2.5,4.8c-.6,2.4-2.5,4.6-5,4.6ZM751.9,224.6h-1.4l-.5,2h0c-.2-1.3-1.4-2.4-3.1-2.4-3.4,0-6,2.7-6.8,5.9-.9,3.3,0,6,3.7,6s3.3-.9,4.4-2.4h0l-.4,1.6c-.8,2.9-2.3,4.4-4.9,4.4s-3-.6-2.8-2.3h-1.4c-.5,2.5,1.6,3.5,3.9,3.5,3.8,0,5.7-2.1,6.7-5.6l2.9-10.7Z"/>
          <path class="st7" d="M759.4,236.3h1.4l1.7-6.5c.7-2.4,2.2-4.3,4.6-4.3s2.1,1.3,1.7,2.9l-2.1,7.9h1.4l1.8-6.6c.6-2.2,1.8-4.2,4.3-4.2s2.5,1,2,3l-2.1,7.8h1.4l2.1-7.9c.7-2.7-.2-4.1-2.8-4.1s-3.2.7-4.3,2.3c0-1.5-1.2-2.3-2.7-2.3s-3.3.9-4.4,2.3h0l.5-2h-1.3l-3.1,11.7Z"/>
          <path class="st7" d="M778.7,236.3h1.4l3.1-11.7h-1.4l-3.1,11.7ZM782.4,222.4h1.4l.6-2.3h-1.4l-.6,2.3Z"/>
          <path class="st7" d="M783.3,236.3h1.4l1.8-6.8c.7-2.3,2.5-4,4.7-4s2.6,1.5,2,3.5l-2,7.3h1.4l2-7.5c.7-2.8.2-4.5-3.1-4.5s-3.4.9-4.4,2.4h0l.5-2h-1.4l-3.1,11.7Z"/>
          <path class="st7" d="M798.4,230.4c.6-2.4,2.4-5,5.2-5s3.4,2.6,2.8,5c-.6,2.4-2.4,5-5.4,5s-3.1-2.6-2.5-5ZM810.5,220.1h-1.4l-1.8,6.7h0c-.1-1.7-1.6-2.6-3.4-2.6-3.6,0-6,2.8-6.9,6.2-.9,3.3,0,6.2,3.6,6.2s3.8-1,4.8-2.6h0l-.6,2.2h1.3l4.3-16.1Z"/>
          <path class="st7" d="M820,228c.6-2.5-.9-3.8-3.3-3.8s-4.6.9-5.3,3.3c-.5,2,.7,2.6,2.4,3.1l1.7.4c1.2.3,2.4.8,2,2.1-.4,1.6-2.4,2.2-3.8,2.2s-3.1-1-2.7-2.9h-1.4c-.5,2.9,1,4.1,3.7,4.1s4.9-1,5.6-3.5c.5-2-.9-3-2.5-3.2l-1.8-.4c-.9-.2-2.2-.7-1.9-2,.4-1.5,2-2,3.3-2s2.8.8,2.4,2.6h1.4Z"/>
          <polygon class="st7" points="823.4 236.3 824.1 233.9 822.2 233.9 821.5 236.3 823.4 236.3"/>
          <polygon class="st7" points="830.2 236.3 830.8 233.9 828.9 233.9 828.3 236.3 830.2 236.3"/>
          <path class="st9" d="M638,123.2c-21,3.1-27.6-3-27.6-3l-5.7,6.9h0c8.6,6.2,19.9,2.5,34.4-.5,6.9-1.4,12.3,1.3,16.1,4.7-4.8-6.6-9.8-9.2-17.2-8.1"/>
          <path class="st9" d="M673.6,123.2c21,3.1,27.6-3,27.6-3l5.7,6.9h0c-8.6,6.2-19.9,2.5-34.4-.5-6.9-1.4-12.3,1.3-16.1,4.7,4.8-6.6,9.8-9.2,17.2-8.1"/>
          <path class="st8" d="M640.5,117.4c-20.1-2.5-23.6-7.4-23.6-7.4l-6,4.8h0c7.5,6.5,16.7,6.2,30.1,6.1,6.5,0,10.4,3,13.4,7-3.6-7.4-7.1-9.7-14-10.5"/>
          <path class="st8" d="M671.2,117.4c20.1-2.5,23.6-7.4,23.6-7.4l6,4.8h0c-7.5,6.5-16.7,6.2-30.1,6.1-6.5,0-10.4,3-13.4,7,3.6-7.4,7.1-9.7,14-10.5"/>
          <path class="st0" d="M643.5,111.9c-12.6-1.1-15-9.1-15-9.1l-6.3,2.8h0c5.4,8.3,8,7.6,21.3,9.6,6.9,1,9.2,4.9,11,9.6-1.5-8-4.2-12.2-11-12.8"/>
          <path class="st0" d="M668.2,111.9c12.6-1.1,15-9.1,15-9.1l6.3,2.8h0c-5.4,8.3-8,7.6-21.3,9.6-6.9,1-9.2,4.9-11,9.6,1.5-8,4.2-12.2,11-12.8"/>
          <rect class="st8" x="649" y="139.3" width="14.7" height="66.7"/>
          <polygon class="st8" points="726.4 139.4 741.1 139.4 741.1 165 768.1 165 768.1 139.4 782.8 139.4 782.8 206.1 768.1 206.1 768.1 177.4 741.1 177.4 741.1 206.1 726.4 206.1 726.4 139.4"/>
          <path class="st8" d="M718,190.5c-.5-6.8-2.5-13.6-9.7-15.6v-.2c7.5-3,10.6-8.9,10.6-16.7s-7.6-18.4-19.5-18.4h-29.2v11.4h23.9c6.6,0,10.1,2.8,10.1,9.3s-3.5,9.5-10.1,9.5h-20.2v10.5h18.8c7.4,0,10.1,3.1,11.1,10.1.7,5.3.7,11.8,2.3,16h14.7c-2.7-3.6-2.5-11.6-2.8-15.8"/>
          <path class="st8" d="M836.6,190.5c-.5-6.8-2.5-13.6-9.7-15.6v-.2c7.5-3,10.6-8.9,10.6-16.7s-7.6-18.4-19.5-18.4h-29.2v11.4h23.9c6.6,0,10.1,2.8,10.1,9.3s-3.5,9.5-10.1,9.5h-20.2v10.5h18.8c7.4,0,10.1,3.1,11.1,10.1.7,5.3.7,11.8,2.3,16h14.7c-2.7-3.6-2.5-11.6-2.8-15.8"/>
          <path class="st8" d="M594.1,206h-9.3l-1.5-7.6c-5.2,6.7-11.9,9.2-18.3,9.2-20.6,0-32.8-15.4-32.8-34.7s12.2-35.2,32.8-35.2,15.8,2.9,21.2,8.3c-3.4,3.9-5.9,8.7-7.4,14-2-6.7-7.2-10-13.8-10-13.2,0-18.1,11.2-18.1,22.9s5,22.3,18.1,22.3,15.1-5,15.9-14.4h-14.8v-10.9h28v36.1Z"/>
          <path class="st8" d="M595.3,166.9h-14.8c2.3-16.8,14-29.2,32.4-29.2s26.6,8.3,28.1,23.6h-14c-1.8-7.5-7.1-11.2-14.1-11.2-10.9,0-16.1,7.6-17.6,16.8M642.2,206.1h-9.3l-1.5-7.6c-5.2,6.7-11.9,9.2-18.3,9.2s-11.5-1.4-16-3.8v-19.3c2.6,6.2,7.6,10.7,16,10.7s15.1-5,15.9-14.4h-14.8v-10.9h28v36.1Z"/>
        </g>
      </g>
    </g>
  </g>
</svg>