<?xml version="1.0" encoding="UTF-8"?>
<svg id="Layer_1" xmlns="http://www.w3.org/2000/svg" version="1.1" viewBox="0 0 874.7 874.7">
  <!-- Generator: Adobe Illustrator 30.3.0, SVG Export Plug-In . SVG Version: 2.1.3 Build 182)  -->
  <defs>
    <style>
      .st0, .st1 {
        fill: #ee4166;
      }

      .st0, .st2 {
        fill-rule: evenodd;
      }

      .st3 {
        fill: #0a6080;
      }

      .st4, .st2 {
        fill: #5a5a5c;
      }

      .st5 {
        fill: #efeeee;
      }

      .st6 {
        fill: #ee4266;
      }

      .st7 {
        fill: #353635;
      }
    </style>
  </defs>
  <circle class="st5" cx="437.3" cy="437.3" r="324"/>
  <g>
    <path class="st3" d="M190.3,463c-5.5-3.2-9.8-7.5-12.9-13-3.1-5.5-4.6-11.6-4.6-18.2s1.7-13.4,5-18.9c1.7-2.8,3.9-5.4,6.4-7.5,6-5,13.2-7.5,21.6-7.5s10.8.8,15,2.3c4.1,1.5,7.2,3.5,9.2,5.8,1.1,1.5,1.8,3.3,2.1,5.6.3,2.3.4,5,.4,8.3h0c-1.7,0-3.2-1.2-3.7-2.8-1.3-4.6-3.4-8.1-6.2-10.4-3.4-2.8-8-4.2-13.8-4.2s-13,2.8-16.6,8.4c-3.6,5.6-5.4,12.6-5.4,21.1s2,19.6,5.9,24.5c4,5,9.3,7.4,16,7.4s9.7-.9,13.5-2.6v-17.8c0-3.5,1.3-6.4,4-8.7,2.7-2.3,7.8-3.4,15.4-3.4h0c0,1.3-.9,2.4-2.2,2.8-2.8,1-4.2,4-4.2,9.2v13.9c0,2.6-1.5,4.9-3.8,6-2.7,1.3-5.5,2.3-8.4,3-4.3,1.1-9.1,1.6-14.3,1.6s-12.9-1.6-18.4-4.7Z"/>
    <path class="st3" d="M500.6,463c-5.5-3.2-9.8-7.5-12.9-13-3.1-5.5-4.6-11.6-4.6-18.2s1.7-13.4,5-18.9c1.7-2.8,3.9-5.4,6.4-7.5,6-5,13.2-7.5,21.6-7.5s10.8.8,15,2.3c4.1,1.5,7.2,3.5,9.2,5.8,1.1,1.5,1.8,3.3,2.1,5.6.3,2.3.4,5,.4,8.3h0c-1.7,0-3.2-1.2-3.7-2.8-1.3-4.6-3.4-8.1-6.2-10.4-3.4-2.8-8-4.2-13.8-4.2s-13,2.8-16.6,8.4c-3.6,5.6-5.4,12.6-5.4,21.1s2,19.6,5.9,24.5c4,5,9.3,7.4,16,7.4s9.7-.9,13.5-2.6v-17.8c0-3.5,1.3-6.4,4-8.7,2.7-2.3,7.8-3.4,15.4-3.4h0c0,1.3-.9,2.4-2.2,2.8-2.8,1-4.2,4-4.2,9.2v13.9c0,2.6-1.5,4.9-3.8,6-2.7,1.3-5.5,2.3-8.4,3-4.3,1.1-9.1,1.6-14.3,1.6s-12.9-1.6-18.4-4.7Z"/>
    <path class="st3" d="M245.3,463.1c-3-2.4-4.4-5.7-4.4-9.8s.8-6.1,2.3-8.3c1.6-2.2,4.3-3.9,8.2-5,3.9-1.1,9.4-1.7,16.4-1.7h1.5c0-5.8-.8-9.9-2.4-12.3-1.6-2.4-4-3.6-7.1-3.6s-4.7.6-6.4,1.9c-.9.7-1.7,1.7-2.3,3.1-1.1,2.4-3.4,4-6,4h0c-.4,0-.8-.4-.8-.8,0-1.9.2-3.6.4-5,.3-1.6,1-3,2-4.2,2.1-2.3,7.1-3.5,15-3.5s11.7,1.7,15.2,5.2c3.5,3.5,5.2,8.7,5.2,15.7v20.3c0,3.7-3,6.6-6.6,6.6h-5.3s0-4.5,0-4.5h-.5c-.6.9-1.5,1.9-2.8,2.8-2.3,1.8-5.3,2.7-9.2,2.7s-9.6-1.2-12.5-3.6ZM264.4,460.9c1-.6,2-1.3,2.9-2.3.9-.9,1.5-2,2-3.3v-12.5h-1.5c-4.7,0-8.2.8-10.3,2.5-2.1,1.7-3.2,4.3-3.2,7.9s.6,4.8,1.7,6.3c1.1,1.5,2.7,2.2,4.8,2.2s2.6-.3,3.6-.8Z"/>
    <path class="st3" d="M435.5,463.1c-3-2.4-4.4-5.7-4.4-9.8s.8-6.1,2.3-8.3c1.6-2.2,4.3-3.9,8.2-5,3.9-1.1,9.4-1.7,16.4-1.7h1.5c0-5.8-.8-9.9-2.4-12.3-1.6-2.4-4-3.6-7.1-3.6s-4.7.6-6.4,1.9c-.9.7-1.7,1.7-2.3,3.1-1.1,2.4-3.4,4-6,4h0c-.4,0-.8-.4-.8-.8,0-1.9.2-3.6.4-5,.3-1.6,1-3,2-4.2,2.1-2.3,7.1-3.5,15-3.5s11.7,1.7,15.2,5.2c3.5,3.5,5.2,8.7,5.2,15.7v20.3c0,3.7-3,6.6-6.6,6.6h-5.3s0-4.5,0-4.5h-.5c-.6.9-1.5,1.9-2.8,2.8-2.3,1.8-5.3,2.7-9.2,2.7s-9.6-1.2-12.5-3.6ZM454.6,460.9c1-.6,2-1.3,2.9-2.3.9-.9,1.5-2,2-3.3v-12.5h-1.5c-4.7,0-8.2.8-10.3,2.5-2.1,1.7-3.2,4.3-3.2,7.9s.6,4.8,1.7,6.3c1.1,1.5,2.7,2.2,4.8,2.2s2.6-.3,3.6-.8Z"/>
    <path class="st3" d="M609.7,463.1c-3-2.4-4.4-5.7-4.4-9.8s.8-6.1,2.3-8.3c1.6-2.2,4.3-3.9,8.2-5,3.9-1.1,9.4-1.7,16.4-1.7h1.5c0-5.8-.8-9.9-2.4-12.3-1.6-2.4-4-3.6-7.1-3.6s-4.7.6-6.4,1.9c-.9.7-1.7,1.7-2.3,3.1-1.1,2.4-3.4,4-6,4h0c-.4,0-.8-.4-.8-.8,0-1.9.2-3.6.4-5,.3-1.6,1-3,2-4.2,2.1-2.3,7.1-3.5,15-3.5s11.7,1.7,15.2,5.2c3.5,3.5,5.2,8.7,5.2,15.7v20.3c0,3.7-3,6.6-6.6,6.6h-5.3s0-4.5,0-4.5h-.5c-.6.9-1.5,1.9-2.8,2.8-2.3,1.8-5.3,2.7-9.2,2.7s-9.6-1.2-12.5-3.6ZM628.8,460.9c1-.6,2-1.3,2.9-2.3.9-.9,1.5-2,2-3.3v-12.5h-1.5c-4.7,0-8.2.8-10.3,2.5-2.1,1.7-3.2,4.3-3.2,7.9s.6,4.8,1.7,6.3c1.1,1.5,2.7,2.2,4.8,2.2s2.6-.3,3.6-.8Z"/>
    <path class="st3" d="M326.1,422.7h0c.5,1,.2,2.1-.6,2.7l-1.5,1.1c-1.2.9-2.9.8-4-.2h0c-1.5-1.4-3.2-2-5.1-2-3.9,0-6.8,1-8.9,3.1l.2,1.5c.1,1.2.2,2.3.2,3.3v26.9c0,3.7-3,6.6-6.6,6.6h-6.3v-33.9c0-3.4-.4-5.9-1.3-7.5-.9-1.6-2.7-2.4-5.5-2.4h-1c0-1.7,1.3-3,3-3h6.9c2.3,0,4,.3,5.3.8,1.3.6,2.3,1.5,3,2.8,3.6-3.1,7.8-4.7,12.6-4.7s5.2.7,7.1,2c1.2.9,2.1,1.8,2.6,2.8Z"/>
    <path class="st3" d="M346.4,464.1c-1.1-.8-2-1.7-2.7-2.8h-.5l-1.5,1.9c-1.3,1.6-3.2,2.6-5.2,2.6h-5.2v-52.9c0-3.4-.5-5.9-1.4-7.5-.9-1.6-2.8-2.4-5.6-2.4h-1c0-1.7,1.3-3,3-3h9c2.4,0,4.2.4,5.5,1.2,1.3.8,2.2,2.1,2.7,3.9.5,1.8.8,4.4.8,7.8v8c.9-.5,1.8-1,2.8-1.5,2.7-1,5.3-1.5,7.7-1.5,6.9,0,12.2,2.3,15.9,6.8,3.7,4.6,5.5,10.4,5.5,17.6s-1.8,13.1-5.4,17.6c-3.6,4.6-8.8,6.8-15.5,6.8s-6.5-.9-8.8-2.7ZM360.3,456.9c1.5-3.6,2.3-8.5,2.3-14.6,0-13.3-3.3-20-10-20s-4,.5-6.1,1.5c-.9.5-1.7,1-2.4,1.5v30.5c.6,1.3,1.3,2.4,2.2,3.3,2,2.1,4.3,3.2,6.8,3.2s5.7-1.8,7.2-5.4Z"/>
    <path class="st3" d="M381.8,412.9c0-3.4-.5-5.9-1.4-7.5-.9-1.6-2.8-2.4-5.6-2.4h-1c0-1.7,1.3-3,3-3h9c2.4,0,4.2.4,5.5,1.2,1.3.8,2.2,2.1,2.7,3.9.5,1.8.8,4.4.8,7.8v8.8c.6-.5,1.6-1.1,3.1-1.9,2.7-1.3,5.3-1.9,7.9-1.9,5.4,0,9.9,1.4,13.5,4.1,3.6,2.8,5.4,7.5,5.4,14.1v23c0,3.7-3,6.6-6.6,6.6h-6.3v-29.2c0-4.8-.8-8.3-2.5-10.5-1.7-2.2-3.8-3.3-6.4-3.3s-3.7.6-5.7,1.8c-.8.5-1.6,1-2.3,1.7v32.8c0,3.7-3,6.6-6.6,6.6h-6.3v-52.9Z"/>
    <path class="st3" d="M556.9,431.8c0-3.4-.4-5.9-1.3-7.5-.9-1.6-2.7-2.4-5.5-2.4h-1c0-1.7,1.3-3,3-3h6.9c2.3,0,4,.3,5.3.8,1.3.6,2.3,1.5,3,2.8,3.4-3.1,8.3-4.7,14.6-4.7s11.1,1.5,14.2,4.4c3.2,3,4.7,7.6,4.7,13.9v22.9c0,3.7-3,6.6-6.6,6.6h-6.3v-29.7c0-4.6-.8-8-2.5-10.1-1.7-2.1-4-3.2-6.9-3.2s-3.9.3-5.4.8c-1.6.6-2.8,1.3-3.7,2.2l.3,1.4c.3.8.4,2.1.4,3.9v27.9c0,3.7-3,6.6-6.6,6.6h-6.3v-33.9Z"/>
    <path class="st3" d="M657.8,431.8c0-3.4-.4-5.9-1.3-7.5-.9-1.6-2.7-2.4-5.5-2.4h-1c0-1.7,1.3-3,3-3h6.9c2.3,0,4,.3,5.3.8,1.3.6,2.3,1.5,3,2.8,3.4-3.1,8.3-4.7,14.6-4.7s11.1,1.5,14.2,4.4c3.2,3,4.7,7.6,4.7,13.9v22.9c0,3.7-3,6.6-6.6,6.6h-6.3v-29.7c0-4.6-.8-8-2.5-10.1-1.7-2.1-4-3.2-6.9-3.2s-3.9.3-5.4.8c-1.6.6-2.8,1.3-3.7,2.2l.3,1.4c.3.8.4,2.1.4,3.9v27.9c0,3.7-3,6.6-6.6,6.6h-6.3v-33.9Z"/>
    <g>
      <path class="st4" d="M180.9,517.4h-5.5v-40.4h28v4.8h-22.5v12.4h19.8v4.8h-19.8v18.3Z"/>
      <path class="st4" d="M266.8,497.2c0,1.5-.1,3-.4,4.6-.3,1.6-.7,3.2-1.4,4.8-.6,1.6-1.4,3.1-2.4,4.5-1,1.4-2.2,2.7-3.7,3.8-1.5,1.1-3.2,2-5.1,2.6-2,.6-4.2,1-6.7,1s-4.7-.3-6.7-1c-2-.6-3.7-1.5-5.1-2.6-1.5-1.1-2.7-2.4-3.7-3.8-1-1.4-1.8-2.9-2.4-4.5-.6-1.6-1.1-3.2-1.3-4.8-.3-1.6-.4-3.2-.4-4.6s.1-3,.4-4.6c.3-1.6.7-3.2,1.3-4.8.6-1.6,1.4-3.1,2.4-4.5,1-1.4,2.2-2.7,3.7-3.8,1.5-1.1,3.2-2,5.1-2.6,1.9-.6,4.2-1,6.7-1s4.7.3,6.7,1c2,.6,3.7,1.5,5.1,2.6,1.5,1.1,2.7,2.4,3.7,3.8,1,1.4,1.8,2.9,2.4,4.5.6,1.6,1.1,3.2,1.4,4.8.3,1.6.4,3.1.4,4.6ZM261.2,497.2c0-2.4-.3-4.5-1-6.6-.6-2-1.6-3.7-2.8-5.2-1.2-1.5-2.7-2.6-4.4-3.4-1.7-.8-3.7-1.2-5.9-1.2s-4.2.4-5.9,1.2c-1.7.8-3.2,2-4.4,3.4-1.2,1.5-2.1,3.2-2.8,5.2-.6,2-1,4.2-1,6.6s.3,4.5,1,6.6c.6,2,1.6,3.7,2.8,5.2,1.2,1.5,2.7,2.6,4.4,3.4,1.7.8,3.7,1.2,5.9,1.2s4.1-.4,5.9-1.2c1.7-.8,3.2-2,4.4-3.4,1.2-1.5,2.1-3.2,2.8-5.2.6-2,1-4.2,1-6.6Z"/>
      <path class="st4" d="M323.9,477v26.2c0,2.1-.3,4-1,5.9-.7,1.9-1.7,3.5-3,4.9-1.3,1.4-3,2.5-5.1,3.3-2,.8-4.5,1.2-7.2,1.2s-5-.4-7-1.2c-2-.8-3.6-1.9-4.8-3.2-1.3-1.4-2.2-2.9-2.8-4.6-.6-1.7-.9-3.6-.9-5.4v-26.9h5.5v25.4c0,2.2.3,4,.9,5.5.6,1.4,1.4,2.6,2.4,3.4,1,.9,2.1,1.5,3.3,1.8,1.2.3,2.4.5,3.7.5s2.5-.2,3.8-.5c1.3-.3,2.4-.9,3.4-1.7,1-.8,1.8-1.9,2.5-3.4.6-1.4,1-3.2,1-5.5v-25.5h5.5Z"/>
      <path class="st4" d="M378.5,477h5.3v40.4h-6.1l-20.5-32.6h-.1v32.6h-5.3v-40.4h6.5l20.2,32.6h.1v-32.6Z"/>
      <path class="st4" d="M411.7,477h16.4c2.6,0,5,.5,7.1,1.4,2.1,1,3.9,2.3,5.3,4,1.5,1.7,2.6,3.8,3.4,6.2.8,2.4,1.2,5.1,1.2,8s-.3,4.6-.8,7.1c-.5,2.5-1.5,4.7-2.8,6.7-1.3,2-3.1,3.7-5.3,5-2.2,1.3-5,2-8.3,2h-16.1v-40.4ZM417.2,512.7h10.6c3.6,0,6.4-1.3,8.5-4,2.1-2.7,3.2-6.6,3.2-11.7s-1.1-8.9-3.3-11.5c-2.2-2.5-5.1-3.8-8.8-3.8h-10.2v31Z"/>
      <path class="st4" d="M472.8,505.7l-4.2,11.8h-5.6l15.2-40.4h6.2l14.6,40.4h-6l-4-11.8h-16.2ZM487.1,500.8l-6-17.8h-.1l-6.5,17.8h12.5Z"/>
      <path class="st4" d="M514.1,477h32.8v4.8h-13.7v35.5h-5.5v-35.5h-13.7v-4.8Z"/>
      <path class="st4" d="M577.4,517.4h-5.5v-40.4h5.5v40.4Z"/>
      <path class="st4" d="M642.8,497.2c0,1.5-.1,3-.4,4.6-.3,1.6-.7,3.2-1.4,4.8-.6,1.6-1.4,3.1-2.4,4.5-1,1.4-2.2,2.7-3.7,3.8-1.5,1.1-3.2,2-5.1,2.6-2,.6-4.2,1-6.7,1s-4.7-.3-6.7-1c-2-.6-3.7-1.5-5.1-2.6-1.5-1.1-2.7-2.4-3.7-3.8-1-1.4-1.8-2.9-2.4-4.5-.6-1.6-1.1-3.2-1.3-4.8-.3-1.6-.4-3.2-.4-4.6s.1-3,.4-4.6c.3-1.6.7-3.2,1.3-4.8.6-1.6,1.4-3.1,2.4-4.5,1-1.4,2.2-2.7,3.7-3.8,1.5-1.1,3.2-2,5.1-2.6,1.9-.6,4.2-1,6.7-1s4.7.3,6.7,1c2,.6,3.7,1.5,5.1,2.6,1.5,1.1,2.7,2.4,3.7,3.8,1,1.4,1.8,2.9,2.4,4.5.6,1.6,1.1,3.2,1.4,4.8.3,1.6.4,3.1.4,4.6ZM637.2,497.2c0-2.4-.3-4.5-1-6.6-.6-2-1.6-3.7-2.8-5.2-1.2-1.5-2.7-2.6-4.4-3.4-1.7-.8-3.7-1.2-5.9-1.2s-4.2.4-5.9,1.2c-1.7.8-3.2,2-4.4,3.4-1.2,1.5-2.1,3.2-2.8,5.2-.6,2-1,4.2-1,6.6s.3,4.5,1,6.6c.6,2,1.6,3.7,2.8,5.2,1.2,1.5,2.7,2.6,4.4,3.4,1.7.8,3.7,1.2,5.9,1.2s4.1-.4,5.9-1.2c1.7-.8,3.2-2,4.4-3.4,1.2-1.5,2.1-3.2,2.8-5.2.6-2,1-4.2,1-6.6Z"/>
      <path class="st4" d="M694.8,477h5.3v40.4h-6.1l-20.5-32.6h-.1v32.6h-5.3v-40.4h6.5l20.2,32.6h.1v-32.6Z"/>
    </g>
  </g>
  <circle class="st1" cx="437.3" cy="239" r="32.5"/>
  <g>
    <path class="st1" d="M461.7,305.1c19.5-21.6,49.4-32.1,94-32.7,15-.2,28-4.7,38.4-10.4.4-7.4.5-15.6.3-24.7,0,0-19.7,23.5-55.1,27.3-37.5,4-63.1,12.1-79.9,34.3-9.5,12.5-14.6,31.7-17.3,49.2,3-14.7,8.7-31.1,19.5-43Z"/>
    <path class="st6" d="M668.6,287.7c-1.6-3.1-5.4-4.3-8.5-2.8l-1.5.8-3.2,1.7c-1.2.6-2.4,1.1-3.6,1.7-2.4,1.1-4.9,2.1-7.3,3-5,1.9-10,3.5-15.2,4.8-10.3,2.6-20.9,3.8-31.4,3.6-5.3-.1-10.5-.5-15.8-1.3l-8.5-1.2c-2.9-.4-5.7-.7-8.6-1-11.5-1.3-23.1-2.1-35-1.9-5.9.2-11.9.6-17.9,1.5-6,.9-12,2.2-17.9,4.1-5.9,1.9-11.6,4.3-17,7.4-5.4,3.1-10.4,6.7-15,10.8-4.7,4.2-8.7,8.9-12.2,14-3.4,5.1-6.3,10.4-8.7,16-2.4,5.5-4.3,11.2-5.7,17-.7,2.9-1.3,5.8-1.8,8.7-.3,1.5-.5,2.9-.7,4.4,0,.7-.2,1.5-.3,2.2,0,.8-.1,1.5-.2,2.4-.2,2.7,1.8,5.2,4.6,5.5,2.8.3,5.4-1.7,5.7-4.6v-.2c0-.5.2-1.2.3-1.8l.3-2c.2-1.3.5-2.6.8-4,.6-2.6,1.2-5.3,2-7.8,1.5-5.2,3.5-10.2,5.8-15,2.3-4.8,5.1-9.3,8.2-13.5,3.2-4.1,6.7-8,10.7-11.2l1.5-1.2,1.6-1.2c1-.8,2.1-1.5,3.2-2.2,2.2-1.4,4.4-2.7,6.7-3.8,4.6-2.3,9.5-4.1,14.5-5.4,10.1-2.5,20.7-3.2,31.6-3,5.4,0,10.9.4,16.4.9,5.5.5,11,1,16.5,1.7l16.7,2.2c6,.8,12.1,1.2,18.2,1.1,12.1,0,24.3-1.9,35.9-5.3,2.9-.9,5.8-1.8,8.6-2.9,2.8-1.1,5.6-2.3,8.3-3.6,1.2-.6,2.3-1.2,3.5-1.8-.7,3.4-1.7,6.7-2.9,10-1.4,4-3.1,8-5.1,11.8-2,3.8-4.3,7.6-6.9,11h0c-.2.2-.2.5,0,.7.2.2.6.3.8,0,3.5-2.9,6.6-6.1,9.6-9.5,3-3.4,5.7-7.1,8.2-11,5-7.7,8.9-16.4,11.4-25.6h0c.4-1.4.2-3-.5-4.5Z"/>
    <path class="st3" d="M461.8,312.6c.9-1.1,1.8-2.1,2.7-3,19.6-20.8,48.8-30.5,92-30.5h1.7c33.6,0,57.7-21.5,65.8-29.8.1,18.8-2.3,32.6-4.5,41.3-7.7,1.6-15.5,2.4-23.4,2.4-5.4,0-10.6-.3-15.6-.9l-8.5-1c-2.9-.3-5.8-.6-8.6-.9-10.1-1-19.1-1.4-27.5-1.4s-5.2,0-7.8.1c-6.2.3-12.3.9-18.1,1.8-6.3,1.1-12.4,2.6-18.1,4.5-6.5,2.3-12.1,4.9-17.2,7.9-4.6,2.7-9,5.9-13.1,9.5Z"/>
  </g>
  <g>
    <path class="st1" d="M413,305.1c-19.5-21.6-49.4-32.1-94-32.7-15-.2-28-4.7-38.4-10.4-.4-7.4-.5-15.6-.3-24.7,0,0,19.7,23.5,55.1,27.3,37.5,4,63.1,12.1,79.9,34.3,9.5,12.5,14.6,31.7,17.3,49.2-3-14.7-8.7-31.1-19.5-43Z"/>
    <path class="st6" d="M206.1,287.7c1.6-3.1,5.4-4.3,8.5-2.8l1.5.8,3.2,1.7c1.2.6,2.4,1.1,3.6,1.7,2.4,1.1,4.9,2.1,7.3,3,5,1.9,10,3.5,15.2,4.8,10.3,2.6,20.9,3.8,31.4,3.6,5.3-.1,10.5-.5,15.8-1.3l8.5-1.2c2.9-.4,5.7-.7,8.6-1,11.5-1.3,23.1-2.1,35-1.9,5.9.2,11.9.6,17.9,1.5,6,.9,12,2.2,17.9,4.1,5.9,1.9,11.6,4.3,17,7.4,5.4,3.1,10.4,6.7,15,10.8,4.7,4.2,8.7,8.9,12.2,14,3.4,5.1,6.3,10.4,8.7,16,2.4,5.5,4.3,11.2,5.7,17,.7,2.9,1.3,5.8,1.8,8.7.3,1.5.5,2.9.7,4.4,0,.7.2,1.5.3,2.2,0,.8.1,1.5.2,2.4.2,2.7-1.8,5.2-4.6,5.5-2.8.3-5.4-1.7-5.7-4.6v-.2c0-.5-.2-1.2-.3-1.8l-.3-2c-.2-1.3-.5-2.6-.8-4-.6-2.6-1.2-5.3-2-7.8-1.5-5.2-3.5-10.2-5.8-15-2.3-4.8-5.1-9.3-8.2-13.5-3.2-4.1-6.7-8-10.7-11.2l-1.5-1.2-1.6-1.2c-1-.8-2.1-1.5-3.2-2.2-2.2-1.4-4.4-2.7-6.7-3.8-4.6-2.3-9.5-4.1-14.5-5.4-10.1-2.5-20.7-3.2-31.6-3-5.4,0-10.9.4-16.4.9-5.5.5-11,1-16.5,1.7l-16.7,2.2c-6,.8-12.1,1.2-18.2,1.1-12.1,0-24.3-1.9-35.9-5.3-2.9-.9-5.8-1.8-8.6-2.9-2.8-1.1-5.6-2.3-8.3-3.6-1.2-.6-2.3-1.2-3.5-1.8.7,3.4,1.7,6.7,2.9,10,1.4,4,3.1,8,5.1,11.8,2,3.8,4.3,7.6,6.9,11h0c.2.2.2.5,0,.7-.2.2-.6.3-.8,0-3.5-2.9-6.6-6.1-9.6-9.5-3-3.4-5.7-7.1-8.2-11-5-7.7-8.9-16.4-11.4-25.6h0c-.4-1.4-.2-3,.5-4.5Z"/>
    <path class="st3" d="M412.9,312.6c-4.1-3.6-8.5-6.8-13.1-9.5-5-3-10.6-5.6-17.1-7.9-5.7-1.9-11.7-3.4-18.1-4.5-5.8-.9-11.9-1.5-18.1-1.8-2.6,0-5.2-.1-7.8-.1-8.4,0-17.4.5-27.5,1.4-2.9.3-5.8.5-8.6.9l-8.5,1c-5,.6-10.2.9-15.6.9-7.8,0-15.6-.8-23.3-2.4-2.2-8.7-4.6-22.5-4.5-41.3,8.1,8.3,32.2,29.8,65.8,29.8h1.7c43.2,0,72.5,9.7,92,30.5.9,1,1.8,2,2.7,3Z"/>
  </g>
  <g>
    <path class="st2" d="M443,567.3c-.6-.7-1.2-1.5-1.8-2.2,5.3-5.4,10.5-10.8,15.8-16.1,21.5,28.4,27.2,62.2,19.7,83.3-12.1,34-59.2,34.1-72.3,5.1-4.4-12.1.7-22.2,9.5-27.9,5.9-3.9,11.6-5.5,18.6-4.3,7.4,1.2,16.6,4.7,25.6,6.7,2.4.5,9,2.3,10.8,1.4,1.7-.8,1.7-2.8,1.9-4.1.5.2,1.3.5,1.8.8l-4.2,10c-11.3-2.8-22.7-5.7-34-8.6-6.9-1.3-12.9-1.1-18,1-16.9,6.9-13.4,24.6-.7,34.4,21.5,16.6,51.9,7.1,59.6-19,5.1-17.2.8-30.4-5.7-46.6-3.9-9.6-8.8-18.3-14.9-25.7-3.9,3.9-7.7,7.9-11.6,11.8"/>
    <path class="st7" d="M471.6,553.4v-4h.8l.9,2.8c0,.3.2.5.2.6,0-.1.1-.4.2-.6l.9-2.8h.7v4h-.5v-3.3l-1.2,3.3h-.5l-1.1-3.4v3.4h-.5ZM469.3,553.4v-3.5h-1.3v-.5h3.1v.5h-1.3v3.5h-.5ZM475.4,547.7c-1-1-2.3-1.5-3.7-1.5s-2.8.6-3.7,1.5c-1,1-1.5,2.3-1.5,3.7s.6,2.8,1.5,3.7c.9,1,2.3,1.5,3.7,1.5s2.8-.6,3.7-1.5c1-1,1.5-2.3,1.5-3.7s-.6-2.8-1.5-3.7M471.7,545.6c1.6,0,3.1.7,4.1,1.7,1.1,1.1,1.7,2.5,1.7,4.1s-.7,3.1-1.7,4.1c-1.1,1.1-2.5,1.7-4.1,1.7s-3.1-.7-4.1-1.7c-1.1-1.1-1.7-2.5-1.7-4.1s.7-3.1,1.7-4.1c1.1-1.1,2.5-1.7,4.1-1.7"/>
    <path class="st0" d="M429.1,634.5c-.5-2.6-2.4-3.8-4.5-3.9-5-.2-7.7,5.6-7.1,10,.5,4.1,3.8,7.1,9.9,6.5,4,2.5,7.3,4.5,11,5.4,5.3,1.4,13,.7,15.5-5,1.7-4-1.2-8.3-6-9.6-.2-1.9-.3-3.8-.5-5.8,1.4-2.6-1.2-4.2-2.9-4.7-1,0-1.7,1.1-1.2,1.8.8.9,1.5,1.3,1.9,2.5-.2,2-1.8,4.3-2.7,6.2-1.1,1.9-.9,3.5,1,4.8,1.5.6,2.1,1.3,1.6,2.2-1.4.3-1.6-1.6-3.3-2.3-1.7.1-3.3,2-4.8,1.1.5-1.7.8-3.4.5-5,0-1.3-1.5-1.5-2.1-2.7.5-.6,1-1.1.8-2.3-.9-1-2.6-.7-2.7,0,.1.8.1,1.7.4,2.4.4,1.1.5,2.1,1.2,3-.4.6-.8,1.2-1.2,1.8-.2.6-1.3-.2-.8-1.1,1.3-2.1,0-4.1-1-4.3,0-.4-.1-1-.4-1.3-.8.4-1.7.5-2.6.4"/>
    <path class="st0" d="M459.7,566.9c-.9,4.2-1.7,8.3-2.6,12.5-.3-2.4-1-4.1-1.9-5.3-3.3-4.2-15.4-1.9-19.7-.3-4.2,1.7-7.9,4.3-11.1,8-9.2,10.2-15.2,37.2.6,42.7,9.4,3.3,25.1-4.9,26.5-15.8.6-4.8-1-9.7-4.7-12.9,7.5-1,11.9,1.6,9,12.8-1.8,4.3-4.1,7.8-7,10.7-9.7,9.8-33.7,14.3-38.3-2.4-3.5-12.7,2.1-28.1,11.7-37,4.4-4.1,9.7-7.3,16.2-9.7,6.9-2.6,14-3.9,21.3-3.3"/>
    <polygon class="st4" points="397.1 650.8 395.7 649.1 396.3 648.6 399.8 652.7 399.2 653.2 397.7 651.5 392.8 655.8 392.1 655 397.1 650.8"/>
    <polygon class="st4" points="401.3 654.2 399.2 656.4 401.8 658.8 403.9 656.6 404.6 657.2 399.6 662.6 398.9 662 401.3 659.4 398.6 657 396.3 659.6 395.6 658.9 400.6 653.5 401.3 654.2"/>
    <polygon class="st4" points="407 663.8 404.7 662.1 403.1 664.3 405.7 666.1 405.3 666.8 401.9 664.4 406.1 658.4 409.4 660.7 408.9 661.3 406.5 659.6 405.1 661.5 407.4 663.1 407 663.8"/>
    <path class="st4" d="M414.8,671.6c-.4,0-1.1-.1-1.9-.5-1.9-.9-2.7-2.7-1.7-4.9,1-2.1,3.1-2.8,5.1-1.8.8.4,1.3.8,1.4,1l-.5.6c-.3-.3-.7-.7-1.2-.9-1.6-.7-3.1-.2-3.9,1.5-.8,1.6-.3,3.1,1.3,3.9.5.2,1.1.4,1.5.4v.8Z"/>
    <path class="st4" d="M423.8,671c-.8,2.4-2.6,3.2-4.4,2.6-1.8-.6-2.7-2.4-2-4.6.7-2.2,2.6-3.2,4.4-2.6,1.9.6,2.7,2.5,2,4.5M418.4,669.3c-.5,1.5,0,3.1,1.3,3.5,1.4.5,2.7-.6,3.2-2.2.4-1.4.2-3.1-1.3-3.6-1.5-.5-2.7.7-3.2,2.2"/>
    <path class="st4" d="M425.1,673.9c.4.3.9.7,1.6.8,1,.2,1.6-.2,1.7-1,.1-.7-.2-1.1-1.1-1.7-1.1-.6-1.7-1.4-1.5-2.4.2-1.1,1.3-1.8,2.7-1.5.7.1,1.2.4,1.5.7l-.4.7c-.2-.2-.7-.5-1.3-.6-1-.2-1.5.3-1.6.8-.1.7.3,1.1,1.2,1.7,1.1.7,1.6,1.4,1.4,2.5-.2,1.1-1.2,1.9-2.9,1.6-.7-.1-1.4-.5-1.8-.8l.4-.7Z"/>
    <path class="st4" d="M437.9,673.2c0-1,0-2.3,0-3.2h0c-.3.8-.6,1.7-1.1,2.7l-1.5,3.5h-.7s-1-3.6-1-3.6c-.3-1.1-.5-2-.7-2.9h0c0,.9-.2,2.1-.3,3.2l-.3,3.1h-.9s.9-7.4.9-7.4h1.2c0,0,1.1,3.7,1.1,3.7.3.9.5,1.7.6,2.5h0c.2-.7.5-1.5.9-2.4l1.5-3.5h1.2c0,0,.1,7.4.1,7.4h-.9s0-3.3,0-3.3Z"/>
    <rect class="st4" x="441.2" y="668.9" width=".9" height="7.3" transform="translate(-44.9 31.7) rotate(-3.9)"/>
    <path class="st4" d="M450.2,675c-.3.2-1,.5-1.9.7-2,.3-3.8-.7-4.2-3.1-.4-2.3.9-4.1,3.2-4.4.9-.1,1.5,0,1.8,0v.8c-.5-.1-1-.2-1.6,0-1.7.3-2.7,1.5-2.4,3.4.3,1.8,1.5,2.8,3.3,2.5.6,0,1.1-.3,1.5-.5l.3.7Z"/>
    <path class="st4" d="M456.4,673.5l-4.3-6.2.9-.4,2.1,3.2c.5.8,1,1.6,1.4,2.2h0c-.1-.7-.2-1.6-.3-2.6l-.4-3.8.9-.3,2.1,3.2c.5.7,1,1.5,1.4,2.2h0c-.1-.8-.2-1.7-.3-2.6l-.4-3.8.9-.3.6,7.6-.9.3-2.2-3.3c-.5-.8-.9-1.4-1.3-2.1h0c.1.7.2,1.5.3,2.5l.4,4-.9.3Z"/>
    <path class="st4" d="M468.7,663.5c1.3,2.2.6,4.1-1,5.1-1.7,1-3.6.3-4.7-1.6-1.2-2-.7-4.1,1-5,1.7-1,3.6-.3,4.7,1.6M463.8,666.5c.8,1.4,2.2,2.2,3.5,1.4,1.3-.8,1.3-2.4.5-3.8-.7-1.3-2.1-2.2-3.5-1.4-1.4.8-1.3,2.4-.5,3.8"/>
    <path class="st4" d="M475.5,658.9c-.7-.8-1.5-1.7-2.1-2.4h0c.3.8.7,1.8,1,2.8l1.2,3.6-.6.5-3.1-2c-.9-.6-1.7-1.1-2.5-1.7h0c.6.7,1.3,1.7,1.9,2.6l1.8,2.6-.7.6-4.2-6,.9-.8,3.2,2c.8.5,1.5,1,2.1,1.5h0c-.3-.7-.6-1.5-1-2.4l-1.2-3.6.9-.8,5,5.4-.7.6-2.2-2.4Z"/>
    <path class="st4" d="M475,653.9c.2-.4.6-.9,1.1-1.4.6-.7,1.2-1,1.8-1.1.5,0,.9,0,1.4.4.5.5.7,1.2.3,2h0c.6-.4,1.6-.6,2.4.2.5.4.6.9.7,1.5,0,.7-.4,1.4-1.2,2.3-.4.5-.8.8-1.1,1l-5.3-4.9ZM477.8,655.2l.6-.6c.7-.7.7-1.5.2-2-.6-.6-1.3-.3-2,.4-.3.3-.4.5-.5.7l1.7,1.6ZM480.4,657.6c.2-.1.3-.3.6-.6.7-.7,1-1.6.2-2.4-.7-.7-1.6-.3-2.3.4l-.5.6,2.1,1.9Z"/>
  </g>
  <g>
    <path class="st4" d="M573.7,663.8c1.9-1.1,3.7-2.3,5.6-3.5.5-.3.7-1.1.4-1.6-.3-.5-1.1-.7-1.6-.4-15.5,9.9-31.9,18-48.9,24.4,0,0-.2,0-.3-.1-.4-.2-.8-.5-1.1-.8-.4-.3-.7-.6-1-1-.3-.4-.6-.8-.8-1.3-.4-1.1-.5-2-.1-2.8.4-.8,1-1.4,2-1.8.9-.4,1.9-.5,2.8-.4l-.2-2.7c-.6-.1-1.2,0-2,0-.8.1-1.5.3-2.2.6-.8.3-1.5.7-2.1,1.3-.6.5-1.1,1.1-1.4,1.8-.3.7-.5,1.4-.6,2.2,0,.8.1,1.6.4,2.4.2.6.5,1.1.9,1.5.4.4.7.8,1.1,1.1.4.3.8.6,1.2.8.2,0,.3.1.4.2l-7,2.4c-4.5,1.5-9,2.8-13.6,4.1-.4-.3-.8-.7-1.3-1-3.4-2.1-7.4-3.5-11-3.6-1.8,0-3.6-.4-5.5,0-2.8.5-4.8,1.4-6.2,2.8-1.3,1.4-1.8,3-1.5,4.9,0,.5.3,1.1.5,1.5.1.3.3.5.4.7-2.6.4-5.3.9-8,1.2l-2.8-4c-1.2-1.7-2.5-2.9-4-3.7-1.5-.8-3.2-1.1-5.2-.8-.8.1-1.5.3-2.2.6-.7.3-1.3.6-1.7.9l1.5,2.8c.4-.2.8-.4,1.3-.6.5-.2,1-.3,1.6-.4.7,0,1.4-.1,1.9,0,.6,0,1.1.2,1.6.5.5.3,1,.6,1.4,1,.4.4.9.9,1.4,1.4l2.5,2.8c-10.9,1.4-21.9,2.1-33,2.1s-6.4,0-9.5-.2c-.6,0-1.2.5-1.2,1.1,0,.6.5,1.2,1.1,1.2,3.2.1,6.4.2,9.6.2,4.7,0,9.4-.1,14.1-.4.5.5,1.1,1.3,1.4,1.9.4.6.6,1.3.6,2.1,0,1.3-.3,2.2-1.1,2.9-.8.7-2.2,1.1-4.3,1.2h-1.2c0,1.3.3,2.3.6,3.3.3,1,.7,1.8,1.2,2.5-.8.6-1.7,1.1-2.6,1.5-1,.4-2.1.6-3.3.7-1.5,0-2.7-.2-3.7-.8-1-.6-1.5-1.5-1.6-2.9,0-1.3.3-2.3,1.1-3.1.8-.8,1.9-1.2,3.5-1.3h1.5c0,0-.1-2.8-.1-2.8l-13.8.6v2.7c.1,0,6.5-.3,6.5-.3-.6.3-1.1.9-1.5,1.6-.4.8-.6,1.6-.5,2.5,0,1,.3,2,.7,2.8.4.8,1,1.5,1.8,2.1.8.6,1.7,1,2.7,1.3,1,.3,2.2.4,3.4.4,3.1-.1,5.7-1.1,7.9-2.9.9.7,1.9,1.2,3,1.5,1.1.3,2.2.4,3.3.4,1.4,0,2.6-.3,3.5-.7.9-.4,1.6-.8,2-1.2l.3,7.4h3.2c0-.1-1.1-24.4-1.1-24.4,2.2-.2,4.5-.5,6.7-.8l3.4,24.2,3.2-.4-3.4-24.1c2.4-.3,4.8-.7,7.2-1.1l4.3,24,3.2-.6-4.3-24c6.5-1.2,12.9-2.6,19.3-4.3l1.6,6.2-6.8,1.7c-2.3.6-3.9,1.6-4.9,3.2-1,1.5-1.2,3.5-.6,5.7.5,1.9,1.3,3.7,2.4,5.1,1.2,1.5,2.5,2.9,4.2,4.3l2.4-2.1c-1.6-1.4-2.8-2.8-3.8-4-1-1.2-1.6-2.6-2-4-.3-1.3-.2-2.5.3-3.5.5-1,1.6-1.7,3.3-2.1l6.2-1.5,3.6,14.4,3.2-.8-5.8-23.4c2.7-.7,5.4-1.5,8.1-2.4,1.2.6,2.8,1.7,3.7,2.6.9.9,1.6,2,2,3.3.3.9.4,1.7.4,2.5,0,.8-.2,1.4-.5,1.9l-2.6-.9c-.6.2-1,.6-1.3,1.1-.3.6-.4,1.2-.1,1.9.2.5.4.9.8,1.2.3.3.7.6,1.2.7.4.2.9.3,1.4.3.5,0,.9,0,1.4-.2.7-.2,1.3-.6,1.8-1.1.5-.5,1-1.2,1.3-2,.3-.8.4-1.7.4-2.7,0-1-.2-2.1-.7-3.3-.3-.9-.7-1.6-1.1-2.3-.4-.7-.9-1.3-1.4-1.8-.5-.5-1-.9-1.5-1.3-.3-.2-1-.7-1.7-1,2.8-.9,5.6-1.9,8.4-2.9l7.8,22.6,3.1-1.1-7.8-22.7c2.7-1,5.4-2.1,8.1-3.2l4.3,9.7-.5.2c-.7.3-1.2.8-1.4,1.4-.2.6-.2,1.2.1,1.8.2.5.6,1,1,1.3.4.4.9.6,1.4.8.5.2,1,.2,1.6.2.5,0,1-.1,1.6-.4.5-.2.8-.5,1.1-.8.3-.3.4-.6.5-.8l-1.2-2.7,7.9-3.6,4.4,9.6,3-1.3-9.9-21.7c3.2-1.5,6.3-3.1,9.5-4.8.7.2,1.6.6,2.1,1,.6.4,1.1.9,1.5,1.6.6,1.1.7,2.1.3,3.1-.4.9-1.5,2-3.3,3l-1,.6c.8,1.4,1.8,2.6,2.9,3.4,1.1.8,2.3,1.4,3.5,1.7,1.2.3,2.4.3,3.6.1,1.2-.2,2.3-.6,3.4-1.2,1.3-.7,2.3-1.5,2.9-2.2.6-.8,1-1.4,1.2-2l3.7,6.4,2.8-1.6-11.7-20.6ZM483.9,694.5c-.1-.3-.2-.7-.3-1-.2-1.2,0-2.2.8-3.1.7-.9,2.1-1.6,4-1.9,1.3-.2,2.7,0,4.1,0,4,.2,8.4,1.7,9.5,2.7,0,0,0,0,.1,0-5.9,1.5-11.9,2.8-17.9,3.9-.1-.2-.2-.4-.3-.6ZM462.3,713.8c-.2.3-.6.6-1,.9-.4.3-.9.6-1.4.8-.5.2-1,.4-1.5.5-.5.1-1,.2-1.5.2-1.8,0-3.3-.3-4.5-1.1-1.1-.8-1.9-1.9-2.2-3.3,2.2-.2,3.9-.9,5-2,1.2-1.1,1.7-2.5,1.6-4.3,0-.9-.3-1.8-.7-2.5-.4-.7-.8-1.5-1.3-2,2.3-.2,4.6-.3,6.9-.5l.6,13.3ZM553.8,686.3l-7.9,3.6-4.4-9.6c2.6-1.1,5.3-2.3,7.9-3.5l4.3,9.6ZM576,679.2c-.7.9-1.5,1.6-2.5,2.1-1.6.9-3.1,1.3-4.5,1.1-1.4-.2-2.6-.8-3.5-1.9,1.8-1.2,3-2.6,3.5-4.1.5-1.5.3-3-.6-4.6-.5-.8-1.1-1.5-1.8-1.9-.7-.4-1.4-.8-2-.9l.7-.4c1.7-1,3.5-1.9,5.2-2.9h.2c0-.1,6.4,11.1,6.4,11.1-.1.8-.5,1.7-1.2,2.5Z"/>
    <path class="st4" d="M376,692.1c-1.6-.4-3.2-.8-4.7-1.2l-1.2-5.1c-.5-2-1.2-3.6-2.2-5-1-1.3-2.5-2.2-4.5-2.8-.8-.2-1.5-.3-2.3-.3-.8,0-1.4,0-1.9.2l.3,3.2c.4,0,.9,0,1.4,0,.5,0,1.1,0,1.6.2.7.2,1.3.4,1.8.7.5.3.9.6,1.3,1.1.4.4.7.9.9,1.5.3.5.5,1.1.7,1.8l1.3,3.9c-18.3-5-36-11.9-52.8-20.7l-5.6-3c-4.6-2.6-9.2-5.3-13.7-8.2-.5-.3-1.3-.2-1.6.4-.3.5-.2,1.3.4,1.6,4.9,3.1,10,6.1,15.1,8.9l1.2.7-2.9,5.1-6.1-3.5c-2.1-1.2-4-1.5-5.7-1.1-1.8.4-3.2,1.7-4.4,3.7-1,1.7-1.6,3.5-1.8,5.4-.2,1.9-.2,3.9,0,6h3.2c-.1-2-.1-3.8,0-5.4.2-1.6.6-3,1.4-4.3.7-1.2,1.5-1.9,2.6-2.3,1.1-.4,2.4-.1,3.8.7l5.6,3.2-7.4,12.9,2.8,1.6,11.8-20.6c2.4,1.3,4.9,2.5,7.4,3.7l-4.4,9.5-.5-.2c-.7-.3-1.4-.4-2-.2-.6.2-1,.6-1.3,1.3-.2.5-.4,1.1-.4,1.6,0,.5,0,1.1.3,1.6.2.5.5.9.8,1.3.4.4.8.7,1.3.9.5.2.9.3,1.3.3.4,0,.7,0,.9-.1l1.3-2.7,7.8,3.6-4.4,9.6,3,1.4,10-21.7c3.7,1.6,7.5,3,11.3,4.4.2.7.5,1.8.5,2.8,0,1,0,2.1-.5,3.3-.5,1.4-1.2,2.4-2.2,2.9-1,.5-2,.6-3,.3-.5-.2-.9-.4-1.2-.7-.3-.3-.5-.7-.7-1.2l-.5-1.3c-.6-.2-1.1-.2-1.6,0-.5.1-.9.5-1.1,1,0,.3-.1.6-.1,1,0,.4.2.9.4,1.7l3.8,13.8,3.3-.9-3.4-10.9c.1,0,.2.1.3.1,0,0,.2,0,.3.1,1.4.5,2.8.6,4.1.2.5.7,1.2,1.4,2,2,.8.6,1.7,1.1,2.6,1.4,1.9.7,3.5.9,4.7.7l-3.5,10.2,3.1,1.1,7.7-22.7c2.3.7,4.6,1.3,6.9,2l-6.1,23,3.1.8,6.1-23c1.2.3,2.4.6,3.6.9,0,0,.2,0,.3,0,.5,0,1-.4,1.1-.9.2-.6-.2-1.3-.9-1.4ZM328.1,689.5l-7.8-3.6,4.4-9.5c2.4,1.1,4.8,2.2,7.2,3.3l.7.3-4.4,9.5ZM355.6,698.7c-.6.2-1.4.3-2.3.3-.9,0-1.9-.2-3-.6-.6-.2-1.2-.5-1.6-.7-.5-.3-.9-.6-1.3-1,1.1-.9,2-2.2,2.5-3.8.4-1.2.6-2.3.5-3.4,0-1-.4-2.1-.6-2.8,3,1,5.9,2,8.9,2.9l-3.1,9Z"/>
    <path class="st4" d="M418.9,698.7c-4.6-.3-9.2-.8-13.8-1.3l-16.7-2.6c-1.1-.2-2.2-.4-3.3-.6-.6-.1-1.3.3-1.4.9-.1.6.3,1.3.9,1.4,1.7.3,3.4.7,5.1,1l-1.7,10.5h-.5c-.8-.2-1.4,0-1.9.3-.5.4-.8.9-.9,1.6,0,.6,0,1.1,0,1.7.1.5.4,1,.7,1.4.3.4.7.8,1.2,1,.4.3.9.5,1.5.5.5,0,.9,0,1.3,0,.4-.1.7-.2.8-.4l.5-3,8.5,1.3-1.6,10.4,3.2.5,3.6-23.7c2.4.3,4.8.6,7.1.8l-2.1,23.7,3.2.3,2.1-23.7c1.3.1,2.6.2,3.9.3,0,0,0,0,0,0,.6,0,1.1-.5,1.2-1.1,0-.6-.4-1.2-1.1-1.3ZM399.7,709.7l-8.5-1.3,1.6-10.4c2.8.5,5.7.9,8.5,1.3l-1.6,10.5Z"/>
  </g>
</svg>