<?xml version="1.0" encoding="UTF-8"?>
<svg id="Layer_1" xmlns="http://www.w3.org/2000/svg" version="1.1" viewBox="0 0 874.7 464">
  <!-- Generator: Adobe Illustrator 30.3.0, SVG Export Plug-In . SVG Version: 2.1.3 Build 182)  -->
  <defs>
    <style>
      .st0 {
        fill: #5f2b7a;
      }

      .st1 {
        fill: #6d6e71;
      }

      .st2 {
        fill: #005c34;
      }

      .st3 {
        fill: #ef4066;
      }

      .st4 {
        fill: #72bf44;
      }
    </style>
  </defs>
  <path d="M135,215c3.9.5,5.2-.8,8.5-2.1,7.9-3.2,14-.6,21.6,1.6,3,.9,5.2,1.8,8.5,1.4.4,0,2.5-.8,3.3-.8,0,0-5.3,6.7-16.1,8-2.3.3-4.2-.5-6.4-.6-2.5-.1-5.1.1-7.6,0-.2.6.1.4.4.6,4.2,3.1,10.4,3.8,15.8,3.7,4.4,0,7.7-.9,11.4-3,2.8-1.6,4.9-5.1,8.3-5.5,5.8-.7,7.5,1.3,11.4,4.7,1,.9,3.2,1.5,3.1,3.3-1.7-.2-2.5,1.6-2.7,3.1-1.6,13.4,7.8,29,12.1,36.9,2,3.7,9.9,13.8,12.5,12.8s5.5-4.3-1.4-21.4c-.4-1-1.3-3.4-1.8-4.6-1.9-4.4-4.6-8.5-5.9-13.1.3-.3,1,.7,1.2.9.5.4,2.6,3,3,2.5,0-1.6.1-3.3,0-4.9-.2-3.1-1.4-8.1-.5-11.1.6-2,2-2.5,3.4-3.6,3.4-2.6,8.2-6,12.6-6.2,6.3-.3,11.4,5.8,17.7,7.1,5.7,1.2,12.5-.8,16.2-5.2.7-.8,1-1.8,1.7-2.5-2.5.8-4.5,1.4-4.7,1.4-5,1.5-10.7,2.8-15.6,0l-2.6-2.3c1.9-1.8,4.3-3.9,4.9-6.5-.5,0-1,.2-1.4.4-1.4.6-3.3,2.3-4.5,2.7-4.3,1.4-6.8-1.7-10-1.3-2.9.4-5.5,1.8-8.1,2.9-.5.2-3.9,1.8-4,1.6-.3-.2.9-1.2,1-1.3,3.8-3.3,7.4-6.1,10.9-10,1.8-2,3.4-5.1,5.2-6.7,4-3.7,10-1.5,13.8.7,5.5,3.2,12.4,10.6,18.4,12.5,5.3,1.6,6.7-.3,11.2-2,2.6-1,5.3-1.7,7.8-2.8.3-.4,0-.5-.4-.5-3.4-.4-9.7,1.3-9.9,1.3-.8.2-2.7.7-3.4.8-7.1,1-15.6-7.4-21.4-10.9-.9-.6-2.5-1.3-3.5-1.6,0-.5,1.4-.3,1.7-.3,2.4.1,4.7,2,7.5,2.4,2.6.4,5.1-.8,7.7-.5,4.2.5,8.5,2.4,12.8,2.4,3.3,0,7.1-1.4,10.2-2.4.6-.2,1.2-.6,2.2-.8-1.8-1.5-10.8,1.2-15.8-1.9-.7-.4-2.6-1.9-2-2.7l8.2-9.8c-6.8,1.3-8.2,8.7-14.8,10.9-.3.1-2.8.8-2.9.8,0,0-10.5,1.2-16.7-2.5-1.2-.7-4.9-2.1-4.9-2.1,4-8.1,14.9-12.6,23.5-12,10.8.8,14.3-2.7,19-5.6,1.1-.7,2.8-1.2,3.3-2.4,0,0-.8-.7-3.9,0-3.1.7-6.2,3.1-8.1,3.9-3.6,1.3-7.9,1.2-11.4.1,2.4-2.5,5.6-4.7,7.4-7.6,1.2-1.9,2.2-4.9,2.4-7.2,0-.5.2-1.3,0-1.7-.4.5-1.1,1.8-1.5,2.5-1.8,2.8-3.8,6.1-6.4,8.3-8.3,6.9-22.5,8.3-27.8,18.6-.1.3-.7,1.9-.6.4,0-3.5-.4-6.6-2.1-9.8-1.3-2.5-4.2-5.4-6.6-6.7-.4-.2-3.6-1.2-3.2-1.6.9,0,1.7-1.2,2.3-1.6,3.5-2.3,8.1-3.9,12.2-4.8,5.6-1.2,18.2-1.6,22.1-5.6.8-.9,2.1-2.8,1.7-4-.8-1.2-6,2.3-7.2,2.6-5.2,1.4-16.7,1.7-16.7,1.7.6-3.1.3-6.2.5-9.3,0-.9.4-2,.5-2.9.3-3.2,0-8.3,2.5-10.5.7-.6,1.7-.9,2.4-1.6,4.9-5.1,4.5-10.4,3.4-10.7-1-.2-1.3,3.2-2.5,4.8-1.2,1.6-3.9,2.5-4.4,3.1-.4.5-.9,2.6-1.3,3.5-2,4-4.3,7.5-5.1,12.2-.6,3.4-.3,8.6-2,11.3-1.1,1.7-4.1,3.9-5.7,5-1.6,1-3.6,1.8-5.3,2.7l2.3-4.6c6.3-9.7,0-22-.8-32.6-.2-2.1,0-4.3,0-6.5-3.1,3.3-3.4,9.1-3.2,13.4.3,8,2.4,15.3,0,23.3-.7,2.2-4,9.4-5.7,10.6-1.5,1-3.7,1.4-5.1,2.6-3.4-1.7-6.2-4.7-9.8-6.1-4.6-1.9-9-1.8-13.4.5-2.6,1.4-4.3,3.4-6.2,5.6-1.2-3.4-3.7-7.3-3.4-11,.6-7.8,13.3-12.7,18.9-16.4,5.5-3.7,10.6-9.1,11.1-16.4,0-.3.2-1.5-.4-1.2-2.5,3-4.3,6.7-7,9.4-1.6,1.6-3.5,3.1-5.6,3.9,0-.7.2-1.3.3-2,.3-7.2-2.7-11.8-.7-19,.4-1.6,1.4-2.9,1.5-4.5-4.4,2.6-6,6.3-5.9,11.3,0,4.9,1.7,8,.4,13.1-1.7,6.4-8.1,8.1-12.7,12-1.8,1.6-2.8,3.7-4.3,5.6-3.2-7,1.9-14.1,1.9-21.2,0-.9-.2-3-.4-3.8-.3-1.1-1.5-3.1-2.5-3.8.2,3.6.2,7.2-.6,10.8-.5,2.4-2.2,5.2-3,7.7-2.3,7.4-1.6,9.6,1.6,16.4.2.3.5.3.6.5.3.5,1,2.3,1.1,2.8,0,.3.3.5-.2.7-.2,0,0-.3-.3-.5-2.4-1.3-10.5-5.2-11.8-6.9-4.5-6.1-1.8-13.9-5-19.2-.3-.6-1.8-2-2.6-2.7-.9-.7.3,3.8.4,4.4,1,7.4-.4,13.2,4.1,19.9.5.8,1.1,1.5,1.8,2.2-.3.4-.5.4-.9.4-1.9.2-5.4.4-7.2,0-.8-.2-2.4-1-3-1.6-2-2.1-2-5.7-4.4-8.3-.2-.3-1.5-1.3-2-1.2.5.8,1.1,2.6,1.2,3.3.2,2.8,2.2,9.8,8.3,11.2,6.6,1.6,13.8,0,20.4,2.5,1.9.7,5.2,3.1,6.5,4.9,1.4,1.9.8,1.7.3,3.4-2.9,9.8-.1,19.6,5.6,27.8,3.2,4.6,7.5,8.2,12.1,11.5-1-.5-2.2-.5-3.3-.8-5.9-1.8-13.7-6.1-17.8-11.4-3.9-5.1-5.3-10.6-9.8-15.5,0,0-1.8-2.3-7-3.4,2,2.1,3.9,4.1,5.4,6.5,3,4.7,5.7,13.1,6.8,14.7,1.2,1.6,2.1,2,2.1,2-2.5.2-4.9-.3-7.2-1.1-8.1-2.8-17.7-12.7-17.8-21.9,0-1.9.5-3.8.7-5.6.3-2,.3-4,.9-5.9-1,0-1.7,1.8-2.2,3-1.1,2.7-1.8,4.7-2.5,7.6,0,.4-.2,1.5-.6,1.6-.5-3.3-1.6-6.5-2.3-9.8-1-4.6-1-12.9-6.2-14.8-1.3-.5-2.9-.2-4.1-1-.4,1.5,1.9,2.4,2.7,3.3,4.2,4.4,2.4,15.1,3.6,21.3.7,3.3,2.1,3.7,3.9,6,3.4,4.1,6.8,8.8,8.5,13.9-4.7,1-9.1-1-12.5-3.9-5-4.3-9.4-12.6-17.3-8.9,0,0,5.7-.7,10.7,7.5,2.2,3.5,4.3,7.6,8.1,9.4-.4.9-3.3.8-4.1.7-1.3-.2-3.2-1.2-4.5-1.4-3.3-.5-7.7.4-11.2,0-.8,0,.6,2,.9,2.2,1.5,1.2,5.4.5,7.5,1,2.4.5,5,2.6,7.7,2.9ZM191.6,191.4l-1.3-.3c.9,1.4,1.6,2.9,1,4.6-.1.3-1.4,2.5-1.6,3-1.1,3.7.6,6,.1,6.3-.6-1-1.7-1.7-2.4-2.5-4.5-5.5-7.8-14.5-5.6-21.5,0-.3.4-.6.7-.7.6,3.6,3.4,6.1,6,8.4.3.3,3.4,2.5,3.1,2.8ZM195.1,208.7c0-.7,2.5-2.7,3.1-3.7,1.3-2.3,1.3-5.7,1.1-8.2-.1-1.5-1.8-5.6.7-4.7.5.2,1.2,1.2,2.6.8,1-.3,1.4-2.5,2.1-3.1.3-.2.9,0,1,0,.3-.3-.5-1.7-.5-2.2,0-1,1-2.6,1-3.8,0-1-.9-3.2-1.8-3.6-.6-.3-1.2-.2-1.6-.3-.2,0-.3-.4-.8-.6-5.2-1.4-7.8,3.6-7.7,8.1-.4,0-.7,0-1.1-.1-4.1-1-10.8-10.8-8.2-14,5.3-6.7,10.1-7.9,16.4-5.7,1.4.5,4.4,2.2,5.7,3.1,1,.7,2.1,2.2,3.4,2.5.6,0,1.3-.2,1.8-.4.5-.2,2.1-1.2,2.4-1.4,6.9-2.5,14.4.5,17.5,7.2,2.9,6.4,1.4,13.3-2,19-.9,1.5-3.1,5.8-5.1,4.6-1.1-.6-.9-1.6-1.1-2.1-1.8-3.7-6.2-3.9-9.5-2.4-1.3.6-2.9,2.4-4.3,2.3-.5,0-1-.3-1.6-.3-2,.2-.7,1.8-1.2,2.5-.1.2-1,.3-1.2.8-.2.5-.2,1-.4,1.3-.9,1.5-2.6,1-1.4,3.9.7,1.6,3.3,2.9,1.4,4.7-.6.6-1.6,1-1.6,1.3,0,.3,0,.5,1.5.6,3,.2,5.7-4.9,6.8-7.5,1.5-3.7,1.6-7.2,5.6-9.1.5-.2,1.2-.4,2.4-.1.8.2,1.7,1,.2,1.4-1.5.5-2.5-.6-3.9,1-3.1,3.5-2.8,9.2-6,12.9-3.2,3.8-8.7,1.6-12.1-1.1-.5-.4-3.4-3.5-3.5-3.8ZM204.2,181c2.2,1.4-.2,4.7-2.4,5.9-.3.2-.9.8-1.2.5-.4-.5,1.5-1.2,2.3-2,.5-.5,1.7-1.8,1.6-3,0-.4-1.2-2.1-.3-1.5Z"/>
  <path d="M246.8,313.1c-1.7-.5-3.9-1.4-5.3-2.4-.3-.2-2.4-1.3-2.3-2.3.5-4.7,11.8-2,17.6-.9-.6-3.7-4.7-4.3-7.8-4.8-6.7-1.1-13.5.9-19.5-1.3-4.8-1.8-7.6-4.8-9.2-9.6-.4-1.1-.6-2.8-.9-4l4.2,3.7c8.7,6.4,22.3,5.8,32.7,5.6.4,0,.7.1,1.1.2.6.2,3.7,3.2,4.3,3.9.5.6,1.6,3,3.3,3.3,1.7.3,2.3-1.6,1.6-3-.8-1.4-2.8-4.5-4.8-6.2,2.7-1.9,5.4-3.1,8.6-1.4,1,.5,1.7,1.5,2.7,2.1,7.4,2.6,11.2-10.1-5.6-9-3.7.2-7.7,1.3-11.3,2-9.4,2-16.9-.1-26.3-1.2-26.3-3.1-33.1-42.8-34.2-36.3-.9,5.5-.8,13.7-.8,19.3,0,10.1-4.6,15-7.6,15.8-8.3,2.3-17.4,0-25.8-.5-6.6-.4-13.5-.8-19.6.6-2.1.5-3.3,1-5.3,2.5-2.7,2-3.2,3.7-2.5,4.3,1.7,1.3,4.1-1.8,5-2.5,4.3-3.2,3.9.4,2.3,1.6-.5.4-2.4,2.2-2.5,2.6-.9,2.2.7,4.2,2.7,3.4,2-.8,9.5-9.7,14.8-4.2.2.2-.5.6-.7.7-1.7,1.4-5.8,6.9-6.3,8.9-.4,1.7-.2,3.4,1.9,3.2,1.5-.1,5.9-8.4,12.3-10.9,3.2-1.2,9.8-.4,13.5-.6,6.5-.3,13.9-1.9,19.6-5.1.9-.5,2-1.6,2.8-2.1.3-.2.5-.4.9-.3-.4.8-.2,1.6-.3,2.5-3.2,15.8-20.9,8.6-31.6,11.2-3.3.8-6.9,5.4-5.8,6.3,1.1.8,4.5-2,5.4-2.2,3.3-.9,7.2-.8,10.2.8,1,.6,2,1,1.2,2.2-1.4,2.2-5.1,2.1-9.1,2.6,0,0-4.6.6-5.6,2.2-1,1.6,5,4.2,7.4,4.7,2,.4,6.2-1,8.3-1.6,5.6-1.8,11-4.5,16.2-7.2l6.4-4.1c.2.2-2.6,4.8-3,5.4-2.9,4.3-12.9,10.4-11.9,12.4.8,1.8,3.6,2.9,6.2,2.3,2.5-.6,4.5-2.8,4.7-2.9l5.3-5.7s-.6,8.3-.2,9.6c.6,2.3,5.3,1.7,6,1.4,1.3-.4,1.1-2,1.1-2.6,0,0-.4-10.6,1.7-11.3.5,2.3,2.2,4,3.3,6,0,0,2.1,3.4,3.2,3.8,2.7,1.2,9.8-1.7,10.1-2.8.3-1.1-1.2-1.4-2.2-2-2.3-1.4-5.7-3.1-7.3-5.3-2-2.7-3-6.2-2.3-9.6,4.2,3.5,8.5,7.3,13.2,10.1,3.1,1.8,6,3,9.6,3.1,3.4,0,5.7-2,6.7-2.6,1-.7,1.6-1.2,1.3-1.6-.2-.2-1.3,0-1.7-.1Z"/>
  <path d="M147.4,299.1c-2.3-.7-7.2.6-7.5,3.4,0,.2,0,.6,0,.8-.2.2-.7.4-.9.6-.1.2-.1.4-.2.6,0,.1-.5.3-.6.5-1.8,1.6-.8,3.5-1,5.4-.1,1.4-1.5,1.4-2.6,1.3-2.4-.2-5-1.3-7.4-1.8-2-.4-3.6-.3-4.5,1.8-.4,1-.4,2.8-1.2,3.5l-.9.4c1.9,0,1.8-2.3,2.3-3.6.8-2,2.5-1.9,4.3-1.5,2.6.6,7,2.8,9.5,2,2.8-.8.4-4.7,2-6.4,0,0,.5-.4.6-.4.3,0,.5,0,.8,0,.2,0,.7-.5.9-.5.2,0,.6.3.8.4,2.3.9,5.1-1.8,6.1-3.7.6-1.2,1.1-2.5-.6-3Z"/>
  <path d="M221,343.6c0-1.6.3-2.9-.1-4.6-.4-1.4-1.3-2.6-2-3.9-.1-.3-.6-1.2-.6-1.5,0-.1.1-.2.2-.4,0-.3-.3-.7-.2-1,0-.2.3-.4.5-.6.8-1.2.1-3-.6-4.2-.7-1.1-2.9-3.5-3.9-1.4-.8,1.7-.7,5.9,1.5,6.6.2,0,.6,0,.7.2.2.2.2.6.3.8.1.2.3.2.5.3.2.1.6,1,.7,1.3,1.3,2.2,2.4,3.4,2.5,6.1.2,3.1,0,5.9,2.5,8.2.4.3.9.7,1.3.9l-1.2-1c-1.6-1.6-2.1-3.8-2-6Z"/>
  <path d="M265,315.4c-1.2-1.1-.5-3.6-2-4.7-1.5-1.1-3.6.2-5.1.4-1.1.1-3.5-.4-4.5-.8-.3-.1-.3-.2-.5-.4-.2-.2-.7-.1-1-.3-.2-.1-.2-.6-.3-.8-.7-1.2-2.5-1.6-3.7-1.5-1.1,0-4.3.7-3.4,2.4.9,1.7,4.6,3.6,6.4,2.3.2-.2.4-.5.6-.6.3-.1.7.1,1,.1.2,0,.3-.2.6-.2,1.9.3,3.7,1,5.6.5,1.4-.4,3.5-1.7,4.7,0,.8,1.1.5,4.3,2.4,4.3,1.5,0,2.6-1.9,3.8-1.8l.7.2c-1.6-1.5-3.6,2.3-5.2.9Z"/>
  <path d="M182.9,298c1.2-.4,2.4-.2,3.6-.2.2,0,.8,0,.9,0,.1,0,.2.2.3.2.1,0,.4-.1.5,0,.1,0,.2.2.3.3,1.1.9,3.4-.2,4-1.2,0-.1.2-.4.2-.5,0-.6-.9-.9-1.4-1-1-.2-2.6-.2-3.2.7,0,.1-.2.5-.2.5,0,0-.5,0-.6.2-.1,0-.1.2-.3.3-.1,0-.8,0-.9,0-1.5,0-2.5-.2-3.9.6-1.7,1-2.9,2-5,1.4l-.9-.3c.4.3.9.5,1.4.6,2.1.5,3.4-.7,5.2-1.4Z"/>
  <path d="M183.9,319.1c-1.8-.6-5.2.2-6.5,1.7-.5.7-.7,1.3-.7,2.1,0,.2-.7.4-.9.6-.2.2-.1.4-.2.5-.2.2-.6.4-.8.7-.3.4-.6.8-.9,1.2-.8.9-1.1.2-1.9-.2-.2,0-.4-.2-.6-.2-2.2-.4-1.7,2.2-3,3.2-1.9,1.4-4.7-.4-5.9,2.7-.2.6-.2,1.4-1,1.5-.6,0-1.1-.3-1.7-.2-.4,0-.8.6-1,1h.1c.2-.5.7-.9,1.3-.8.4,0,1.1.3,1.4.2.4,0,.7-.3.8-.6.1-.3.2-.7.4-1.1,1.4-3.2,5.2,0,7-3.3.3-.5.5-1.7,1.2-1.7.7,0,1.6,1.1,2.4,1.1.7,0,1.4-.9,1.9-1.4.1-.2.6-.8.8-.8.3-.1.6,0,.8,0,.3,0,.6-.4.9-.5.2,0,.6.3.9.4,2.3.8,5.3-2.2,6-4.2.3-.9.3-1.7-.7-2.1Z"/>
  <path d="M290.2,315.8c-.4-.4-.7-1.3-1-1.9-.8-1.5-1.9-1.9-3.5-1.7-1.1.1-2.3.8-3.4.3-2.2-.9-1.8-4.2-2.4-6-.5-1.6-2.3-2.7-3.6-3.6-1-.7-2.1-1.3-3-2-.2-.1-.6-.5-.7-.7-.1-.2-.1-.7-.2-1-.3-1.8-2.3-2.6-4-2.8-.6,0-1.8,0-2.3.3-.5.3-.3,1-.1,1.4.6,1.7,2.4,3.6,4.3,3.6.5,0,1.2-.4,1.7-.3.4,0,1.1.5,1.5.7,0,0,.1,0,.2,0,1.3.7,2.5,1.5,3.8,2.2.5.2,1.1.9,1.5,1.3.5.6.7,1.6.9,2.3.3,1.5.4,3.5,1.7,4.5,1.7,1.3,3,0,4.8,0,1,0,1.8.2,2.4,1.1.5.7.7,1.6,1.2,2.1,0,0,0,0,0,0,0,0,.2,0,.2.2,0,0,0,0,.1,0,.1-.1,0-.1,0-.2Z"/>
  <path d="M184.6,276c-.3.4-.4,1.2-.7,1.5-.3.3-1,.6-1.4.8,0,0-.1,0-.2.1-1.3.6-2.7,1.1-4,1.7-.5.2-1.4.4-1.9.4-.8,0-1.7-.3-2.4-.7-1.4-.7-3-1.8-4.6-1.3-2,.6-1.9,2.4-2.9,3.8-.6.8-1.3,1.4-2.3,1.3-.8,0-1.7-.4-2.5-.3,0,0,0,0,0,0,0,0-.2,0-.3,0,0,0,0,0,0,.1,0,.2.1,0,.2,0,.6,0,1.5.2,2.1.3,1.7.3,2.6-.4,3.5-1.8.6-1,.7-2.3,1.8-2.9,2-1.2,4.4,1,6.3,1.7,1.6.6,3.5-.2,5-.7,1.1-.4,2.3-.9,3.4-1.2.2,0,.8-.2,1-.2.3,0,.7.3.9.4,1.7.8,3.5-.3,4.6-1.5.4-.4,1.1-1.4,1.1-2,0-.6-.6-.8-1.1-1-1.7-.5-4.3-.3-5.5,1.3Z"/>
  <path class="st2" d="M242.7,228.8c-.3,0-.4-.5-.1-.6,1.5-1.2,6.3-3.9,14.1,3.6.3.3.3.9,0,1.2-1.7,1.6-7.1,5.5-14.9-1.6,0,0,0-.2,0-.2l8.4.6c.3,0,.4-.4,0-.5l-7.6-2.4Z"/>
  <path class="st4" d="M260.1,225.3c-.3,0-.5-.2-.4-.5.8-1.7,3.8-6.3,14.1-3.3.4.1.7.6.5,1-.8,2.2-3.8,8.1-14,5.4-.1,0-.1-.2,0-.2l7.7-3.3c.3-.1.2-.5-.1-.5l-7.9,1.4Z"/>
  <path class="st2" d="M248.8,213c-.3,0-.4-.3-.3-.5,1-1.4,4.7-4.9,13.3,0,.4.2.5.7.3,1-1.1,1.8-5,6.5-13.6,2,0,0,0-.2,0-.2l7.6-1.4c.3,0,.2-.4,0-.5l-7.3-.4Z"/>
  <path class="st4" d="M262.8,199.1c-.2-.1-.2-.5,0-.6,1.5-.8,6.3-2.4,12.1,5.6.2.3.1.8-.2,1.1-1.8,1.2-7.3,3.8-13.1-3.9,0,0,0-.2.1-.2l7.4,1.9c.3,0,.4-.3.2-.4l-6.5-3.4Z"/>
  <path class="st4" d="M255.9,190.8c-.3.1-.6,0-.5-.4.2-1.8,1.6-7,12.1-7.4.4,0,.8.4.8.8,0,2.3-1,8.7-11.3,9.3-.1,0-.2-.1,0-.2l6.2-5.4c.2-.2,0-.5-.3-.4l-6.9,3.7Z"/>
  <path class="st4" d="M252.5,171.6c-.1.2-.5.2-.6,0-.7-1.5-2-6.2,6-11.2.3-.2.8,0,1,.3,1,1.8,3.2,7.2-4.5,12.3,0,0-.2,0-.2-.1l2.3-7c0-.2-.3-.4-.4-.2l-3.7,6Z"/>
  <path class="st4" d="M219.9,186.7c.2.2,0,.5-.2.5-1.5.3-6,.2-8.5-8.2-.1-.4.1-.7.5-.8,1.9-.5,7.2-1,9.9,7.2,0,0,0,.2-.1.1l-5.7-3.8c-.2-.1-.4.1-.3.3l4.4,4.8Z"/>
  <path class="st4" d="M227,198c0,.3-.3.4-.5.3-1.4-1-4.8-4.7.1-13.2.2-.4.7-.5,1-.2,1.8,1.1,6.4,5,1.8,13.4,0,0-.2,0-.2,0l-1.3-7.5c0-.3-.4-.2-.5,0l-.5,7.2Z"/>
  <path class="st4" d="M197.5,168.2c-.2-.1-.2-.4,0-.5,1.3-.6,5.4-1.5,9.5,5.7.2.3,0,.7-.3.9-1.6.8-6.4,2.5-10.5-4.4,0,0,0-.2.1-.1l6,2.3c.2,0,.4-.2.2-.3l-5-3.4Z"/>
  <path class="st4" d="M269.3,155.6c-.2.2-.5,0-.6-.2-.3-1.6-.4-6.4,8.6-9.4.4-.1.8.1.9.5.6,2,1.3,7.7-7.4,10.8,0,0-.2,0-.1-.2l3.9-6.2c.1-.2-.2-.5-.3-.3l-5,4.9Z"/>
  <path class="st2" d="M249.1,152.6c-.2.1-.4,0-.4-.1-.3-1.3-.3-5.2,6.9-7.6.3,0,.6,0,.7.4.5,1.6,1.1,6.2-6,8.7,0,0-.1,0-.1-.1l3.2-5c.1-.2-.1-.4-.3-.2l-4,3.9Z"/>
  <path class="st4" d="M242.7,144.3c-.2.1-.4,0-.4-.1-.3-1.3-.3-5.2,6.9-7.6.3,0,.6,0,.7.4.5,1.6,1.1,6.2-6,8.7,0,0-.1,0-.1-.1l3.2-5c.1-.2-.1-.4-.3-.2l-4,3.9Z"/>
  <path class="st4" d="M196.1,133.9c-.1,0-.3,0-.3-.2,0-1.1.6-4.2,6.8-4.8.3,0,.5.2.5.4,0,1.3-.2,5.1-6.2,5.9,0,0-.1,0,0-.1l3.4-3.4c.1-.1,0-.3-.2-.2l-3.9,2.4Z"/>
  <path class="st2" d="M145.9,152.1c0,.2-.2.3-.4.2-.9-.8-3.2-3.4.4-9.2.2-.2.5-.3.7-.1,1.2.8,4.3,3.7.9,9.5,0,0-.1,0-.1,0l-.7-5.3c0-.2-.3-.2-.3,0l-.5,5Z"/>
  <path class="st2" d="M156.2,136.4c0,.2-.3.2-.4,0-.6-1-1.7-4.2,3.6-8.2.2-.2.5-.1.7.1.8,1.2,2.6,4.8-2.5,8.8,0,0-.1,0-.1,0l1.2-5c0-.2-.2-.3-.3-.1l-2.2,4.4Z"/>
  <path class="st4" d="M158.6,146.4c0,.2-.4.2-.5,0-.7-1.2-2.2-4.8,3.8-9.7.3-.2.6-.2.8.1,1,1.3,3.3,5.5-2.5,10.4,0,0-.2,0-.1,0l1.2-5.9c0-.2-.2-.3-.3-.1l-2.4,5.2Z"/>
  <path class="st4" d="M153.7,160.5c0,.2,0,.4-.2.4-1.2,0-4.5-.8-5-7.4,0-.3.2-.5.5-.5,1.4,0,5.5.4,6.2,6.8,0,0,0,.1-.1,0l-3.6-3.7c-.1-.1-.3,0-.2.2l2.5,4.2Z"/>
  <path class="st4" d="M141.8,174.6c-.1.2-.4.1-.5,0-.4-1.3-.9-5.2,6.2-8.4.3-.1.7,0,.8.3.6,1.6,1.8,6.2-5.1,9.5,0,0-.2,0-.1-.1l2.7-5.4c0-.2-.2-.4-.3-.2l-3.7,4.4Z"/>
  <path class="st4" d="M188.3,122.3c.1.2,0,.4-.2.4-1.3.1-5.1-.1-6.8-7.3,0-.3.1-.6.4-.7,1.6-.3,6.1-.5,8,6.5,0,0,0,.1-.1,0l-4.6-3.5c-.2-.1-.4,0-.2.2l3.5,4.2Z"/>
  <path class="st2" d="M197.9,160.9c-.2.1-.4,0-.4-.2,0-1.3.8-5.1,8.4-5.9.3,0,.6.2.6.5,0,1.7-.3,6.3-7.7,7.2,0,0-.1,0,0-.1l4.2-4.2c.1-.1,0-.4-.2-.3l-4.8,3Z"/>
  <path class="st4" d="M191.4,184.5c0,.2-.2.2-.3.2-.8-.5-2.9-2.4-.6-7.4,0-.2.4-.3.6-.2,1.1.5,3.8,2.5,1.6,7.4s-.1,0-.1,0l-1.1-4.1c0-.1-.3-.1-.3,0v4.1Z"/>
  <path class="st4" d="M175.9,195.5c.2.2,0,.4-.1.5-1.3.3-5.3.3-7.7-7.1-.1-.3,0-.7.4-.7,1.6-.5,6.4-1.1,8.9,6.1,0,0,0,.2-.1.1l-5.1-3.3c-.2-.1-.4.1-.2.3l4,4.1Z"/>
  <path class="st2" d="M174.6,227.1c.2-.3.6-.2.7.1.6,2,1.4,7.9-9.3,12.8-.4.2-1,0-1.2-.5-1-2.4-2.7-9.4,7.7-14.4.1,0,.2,0,.2.2l-4,8.2c-.1.3.3.5.5.3l5.5-6.7Z"/>
  <path class="st2" d="M158.9,229.2c.2-.1.5,0,.5.3,0,1.7-.9,6.6-10.6,7.9-.4,0-.8-.3-.8-.7-.2-2.1.2-8.1,9.7-9.6.1,0,.2.1.1.2l-5.2,5.6c-.2.2,0,.5.3.3l6-4Z"/>
  <path class="st4" d="M161.2,215.8c.2,0,.5.1.4.4-.4,1.6-2.5,6-11.9,4.7-.4,0-.7-.4-.6-.8.4-2,2.2-7.6,11.5-6.5.1,0,.1.1,0,.2l-6.3,3.9c-.2.1,0,.5.2.4l6.7-2.2Z"/>
  <path class="st2" d="M132.7,195c0,.2-.3.3-.4.2-1.1-.9-3.7-3.9.5-10.5.2-.3.6-.4.8-.2,1.4,1,4.9,4.2,1,10.8,0,0-.2,0-.2,0l-.8-6c0-.2-.3-.2-.4,0l-.6,5.7Z"/>
  <path class="st2" d="M134.5,179c.2.2.1.5-.1.5-1.5.4-5.8.9-9.3-7-.1-.3,0-.7.4-.9,1.8-.7,6.9-1.9,10.5,5.8,0,0,0,.2-.1.1l-6-3.1c-.2-.1-.4.2-.2.3l4.9,4.1Z"/>
  <path class="st4" d="M124.9,189.7c0,.3-.3.5-.5.3-1.5-.9-5.4-4.1-1.5-13.2.2-.4.6-.6,1-.4,1.9.9,7,4.3,3.5,13.3,0,0-.2,0-.2,0l-2.2-7.4c0-.3-.5-.2-.4,0l.4,7.3Z"/>
  <path class="st4" d="M185.5,197.6c0,.2-.2.3-.4.2-1-.6-3.5-2.9-.7-8.9.1-.3.4-.4.7-.2,1.3.7,4.6,3,2,9,0,0-.1,0-.1,0l-1.3-5c0-.2-.3-.1-.3,0v4.9Z"/>
  <path class="st4" d="M163.4,187.4c0,.2-.2.3-.4.2-1.1-.7-3.8-3.1-.7-9.7.1-.3.5-.4.7-.2,1.4.7,5,3.3,2.1,9.8,0,0-.1,0-.2,0l-1.4-5.4c0-.2-.3-.2-.3,0v5.3Z"/>
  <path class="st2" d="M131.1,204c.2,0,.2.2,0,.4-.8.7-3.3,2.4-8-1.4-.2-.2-.2-.5,0-.7.9-1,3.7-3.3,8.3.3,0,0,0,.1,0,.1h-4.7c-.2,0-.2.2,0,.3l4.3,1Z"/>
  <path class="st4" d="M144.4,200.7c.2.1.1.4,0,.4-1.2.5-4.7,1.4-8.4-4.8-.2-.3,0-.6.2-.8,1.4-.7,5.5-2.3,9.3,3.7,0,0,0,.1,0,.1l-5.3-1.9c-.2,0-.3.2-.1.3l4.5,2.9Z"/>
  <path class="st4" d="M121.9,206.3c.2.1.1.4,0,.4-1.2.5-4.7,1.4-8.4-4.8-.2-.3,0-.6.2-.8,1.4-.7,5.5-2.3,9.3,3.7,0,0,0,.1,0,.1l-5.3-1.9c-.2,0-.3.2-.1.3l4.5,2.9Z"/>
  <path class="st2" d="M129.6,216.6c.3,0,.4.2.3.4-.7,1.5-3.3,5.3-12.1,2.5-.4-.1-.6-.5-.4-.9.7-1.9,3.3-6.8,12-4.3,0,0,.1.2,0,.2l-6.6,2.6c-.2,0-.1.4.1.4l6.7-1Z"/>
  <path class="st2" d="M145.7,216.4c.2-.1.5,0,.5.3-.2,1.6-1.7,6-10.8,5.9-.4,0-.7-.3-.7-.7.1-2,1.2-7.5,10.2-7.5,0,0,.1.1,0,.2l-5.6,4.4c-.2.2,0,.5.2.4l6.1-2.9Z"/>
  <path class="st4" d="M146.8,225.7c.3,0,.6.2.5.5-.5,1.9-3,7-14,5.4-.5,0-.8-.5-.7-1,.5-2.4,2.7-8.9,13.6-7.5.1,0,.2.2,0,.2l-7.5,4.5c-.3.2,0,.6.2.5l7.9-2.5Z"/>
  <path class="st2" d="M123.2,198c.2,0,.2.3,0,.4-1,.8-4.1,2.7-9.5-2.1-.2-.2-.2-.6,0-.8,1.1-1.1,4.6-3.8,10,.8,0,0,0,.1,0,.1l-5.6-.2c-.2,0-.2.3,0,.3l5.1,1.5Z"/>
  <path class="st4" d="M186.5,173.3c-.1,0-.3,0-.3-.2.1-1,.9-3.8,6.7-3.9.2,0,.4.2.4.4,0,1.2-.6,4.7-6.3,4.9,0,0,0,0,0-.1l3.4-2.9c.1-.1,0-.3-.1-.2l-3.8,1.9Z"/>
  <path class="st4" d="M214.1,165.5c0,.2-.1.4-.4.4-1.4-.4-5.2-2.3-3.8-10.5,0-.3.4-.6.7-.5,1.8.4,6.6,2.1,5.4,10.2s-.1.1-.2,0l-3.3-5.6c-.1-.2-.4,0-.4.2l1.8,5.9Z"/>
  <path class="st4" d="M174.8,145.8c-.2.2-.4,0-.5-.2-.2-1.5,0-5.7,8.1-7.8.3,0,.7.1.8.5.4,1.8.7,6.9-7.1,9.1,0,0-.2,0-.1-.1l3.8-5.2c.1-.2-.1-.4-.3-.3l-4.7,4Z"/>
  <path class="st2" d="M162.2,158.4c0,.2-.3.3-.5.2-1.1-1-3.6-4.4,1.3-11.1.2-.3.6-.3.9-.1,1.4,1.1,4.9,4.8.3,11.5,0,0-.2,0-.2,0l-.4-6.5c0-.2-.3-.2-.4,0l-1.1,6.1Z"/>
  <path class="st4" d="M140.6,151.7c.1.2,0,.5-.4.5-1.6-.3-6.2-1.9-5.7-11.4,0-.4.4-.7.8-.7,2.1.2,7.7,1.5,7.5,10.8,0,.1-.1.1-.2,0l-4.4-5.9c-.2-.2-.5,0-.4.2l2.8,6.4Z"/>
  <path class="st2" d="M141.2,159.5c.2.1.2.4,0,.5-1.3.7-5.5,1.9-10.1-5.2-.2-.3,0-.7.2-.9,1.6-1,6.4-3,11.1,3.8,0,0,0,.2-.1.1l-6.3-1.9c-.2,0-.4.2-.2.4l5.4,3.2Z"/>
  <path class="st4" d="M131.9,167.6c.2.1.2.4,0,.5-1.3.7-5.5,1.9-10.1-5.2-.2-.3,0-.7.2-.9,1.6-1,6.4-3,11.1,3.8,0,0,0,.2-.1.1l-6.3-1.9c-.2,0-.4.2-.2.4l5.4,3.2Z"/>
  <path class="st4" d="M283.4,179c-.2.1-.5,0-.5-.3.1-1.6,1.4-6.3,10.8-6.6.4,0,.7.3.7.7,0,2-.9,7.8-10.1,8.3,0,0-.2-.1,0-.2l5.5-4.8c.2-.2,0-.5-.2-.4l-6.1,3.3Z"/>
  <path class="st4" d="M233.4,206.4c-.3,0-.4-.3-.2-.6,1.1-1.3,4.9-4.6,13.3.7.3.2.4.7.2,1.1-1.2,1.8-5.4,6.2-13.6,1.2,0,0,0-.2,0-.2l7.6-.9c.3,0,.3-.4,0-.5l-7.3-.8Z"/>
  <path class="st4" d="M225.8,221.5c-.3-.1-.3-.5,0-.7,1.7-.9,6.9-2.7,13.2,6.1.3.4.2.9-.2,1.2-2,1.3-7.9,4.1-14.3-4.3,0,0,0-.2.1-.2l8.1,2.1c.3,0,.4-.3.2-.5l-7-3.7Z"/>
  <path class="st2" d="M274.3,215.2c-.3,0-.5-.3-.4-.5.9-1.7,4.2-6.1,14.3-2.3.4.2.6.7.5,1.1-.9,2.2-4.3,7.9-14.3,4.5-.1,0-.1-.2,0-.2l7.9-2.8c.3,0,.2-.5-.1-.5l-7.9.8Z"/>
  <path class="st2" d="M282.3,191.3c-.3,0-.5-.2-.4-.5.7-1.7,3.7-6.3,14.1-3.4.4.1.7.6.5,1-.7,2.2-3.7,8.2-13.9,5.5-.1,0-.1-.2,0-.2l7.7-3.3c.3-.1.1-.5-.1-.5l-7.9,1.4Z"/>
  <path class="st2" d="M274.2,166.6c-.3.1-.6,0-.5-.4.2-1.9,1.7-7.2,12.5-7.3.5,0,.8.4.8.8,0,2.3-1.2,8.9-11.7,9.3-.1,0-.2-.1,0-.2l6.4-5.4c.2-.2,0-.5-.3-.4l-7.1,3.6Z"/>
  <path class="st4" d="M253.7,140c-.1.3-.5.3-.7,0-.9-1.7-2.5-6.9,6.4-13,.4-.3.9-.1,1.1.2,1.2,2,3.9,8-4.7,14.2,0,0-.2,0-.2-.1l2.3-8.1c0-.3-.3-.5-.5-.2l-3.9,7Z"/>
  <path class="st4" d="M195,148.8c-.3,0-.5-.2-.4-.4.6-1.5,3.2-5.5,12.1-3.1.4.1.6.5.5.9-.6,1.9-3.1,7.1-11.9,4.9,0,0-.1-.2,0-.2l6.6-3c.2-.1.1-.5-.1-.4l-6.8,1.3Z"/>
  <path class="st2" d="M259.2,146.3c-.3.1-.6-.1-.6-.4.3-2,2.3-7.5,13.8-7.1.5,0,.9.5.8.9-.2,2.5-1.8,9.4-13.1,9.2-.1,0-.2-.2,0-.2l7.2-5.4c.3-.2,0-.6-.3-.5l-7.8,3.4Z"/>
  <path class="st2" d="M238.6,127.4c-.2.3-.6.2-.7,0-.7-1.9-1.8-7.7,8.3-13.1.4-.2,1,0,1.2.4,1.1,2.3,3.2,9-6.6,14.6-.1,0-.2,0-.2-.2l3.4-8.3c.1-.3-.3-.5-.5-.3l-5,6.9Z"/>
  <path class="st2" d="M208.6,123.9c-.2.1-.5,0-.5-.3.1-1.6,1.3-6.2,10.6-6.6.4,0,.7.3.7.7,0,2-.8,7.6-9.9,8.2,0,0-.2-.1,0-.2l5.4-4.8c.2-.2,0-.5-.2-.3l-6,3.3Z"/>
  <path class="st2" d="M233.9,145.4c0,.2-.1.5-.4.5-1.6-.3-6.2-2.1-5.4-11.7,0-.4.4-.7.8-.7,2.1.2,7.7,1.8,7.2,11.1,0,.1-.1.1-.2,0l-4.3-6.1c-.2-.2-.5,0-.4.2l2.6,6.6Z"/>
  <path class="st2" d="M206.5,137.1c-.2.1-.5,0-.5-.3.2-1.7,1.6-6.3,11.1-6.4.4,0,.7.3.7.7,0,2.1-1.1,7.9-10.4,8.2-.1,0-.2-.1,0-.2l5.7-4.8c.2-.2,0-.5-.2-.4l-6.3,3.2Z"/>
  <path class="st2" d="M176.4,127.7c0,.2-.3.4-.5.2-1.2-1-3.9-4.5,1-11.7.2-.3.6-.4.9-.2,1.5,1.1,5.4,4.9.7,12.1,0,0-.2,0-.2,0l-.6-6.8c0-.2-.4-.2-.4,0l-.9,6.4Z"/>
  <path class="st2" d="M185.8,137.4c0,.3-.2.5-.5.4-1.5-.7-5.6-3.4-2.8-12.5.1-.4.5-.6.9-.5,2,.7,7.2,3.4,4.7,12.4,0,0-.2.1-.2,0l-2.9-6.9c-.1-.2-.5-.1-.4.1l1.1,7Z"/>
  <path class="st2" d="M169.4,137.3c0,.3-.1.5-.4.4-1.6-.4-6-2.5-4.6-12,0-.4.5-.7.8-.6,2,.4,7.6,2.3,6.5,11.6,0,.1-.1.1-.2,0l-3.9-6.4c-.1-.2-.5,0-.4.2l2.2,6.7Z"/>
  <path class="st2" d="M149.7,142c0,.3-.1.5-.4.4-1.6-.4-6-2.5-4.6-12,0-.4.5-.7.8-.6,2,.4,7.6,2.3,6.5,11.6,0,.1-.1.1-.2,0l-3.9-6.4c-.1-.2-.5,0-.4.2l2.2,6.7Z"/>
  <path class="st2" d="M175.2,177.4c.3,0,.3.4,0,.6-1.4,1-6.1,3.3-12.9-4.1-.3-.3-.3-.8,0-1.1,1.7-1.4,6.9-4.7,13.8,2.3,0,0,0,.2,0,.2l-7.8-1c-.3,0-.4.4-.1.4l7,2.7Z"/>
  <path class="st4" d="M155.1,199.8c0,.3-.4.4-.6.2-1.3-1.2-4.5-5.2,1.2-13.5.2-.3.7-.4,1.1-.2,1.8,1.3,6.1,5.7.7,13.9,0,0-.2,0-.2,0l-.7-7.8c0-.3-.4-.3-.5,0l-1.1,7.4Z"/>
  <path class="st2" d="M198,125.9c-.1.2-.4.3-.6,0-.9-1.4-2.8-5.9,4.4-12.1.3-.3.8-.2,1,.1,1.3,1.6,4.2,6.7-2.8,13,0,0-.2,0-.2,0l1.3-7.3c0-.3-.3-.4-.4-.1l-2.8,6.5Z"/>
  <path class="st2" d="M228.8,127.4c0,.3-.4.4-.5.2-1.3-1.1-4.3-4.9,1.2-12.8.2-.3.7-.4,1-.2,1.7,1.2,5.8,5.4.7,13.2,0,0-.2,0-.2,0l-.6-7.4c0-.3-.4-.3-.4,0l-1,7Z"/>
  <path class="st2" d="M238.3,179.2c-.1.3-.5.3-.7,0-1-1.7-2.9-7.2,5.6-14.5.4-.3.9-.2,1.2.2,1.4,2,4.4,8.3-3.8,15.6,0,0-.2,0-.2-.1l1.8-8.8c0-.3-.3-.5-.5-.2l-3.5,7.8Z"/>
  <path class="st2" d="M212.9,141.6s8.2,1.3,6.1,12l-3.8-7s2.4,7.6,2.2,7.8c-3.1,0-5.3-3.2-4.5-12.8Z"/>
  <path class="st2" d="M158.2,170s5.3,8.7-6.4,15.3l3.6-9.1s-5.2,8.3-5.6,8.2c-2.5-2.9-1.2-7.5,8.4-14.4Z"/>
  <path class="st2" d="M217.6,173.8s7.2-5.2,13.7,4.6l-8.1-2.5s7.5,4,7.5,4.3c-2.4,2.3-6.4,1.5-13-6.4Z"/>
  <path class="st2" d="M191.7,153.2s.3,8.3-10.6,8.3l6.2-5s-7,3.8-7.2,3.6c-.6-3,2.1-5.8,11.7-6.8Z"/>
  <path class="st3" d="M211,172.9c-.3,0-.5-.3-.7-.4-.2-.2-.7-.5-.9-.7-13.7-10.1-26.7-3.6-28,13.1-.3,11,7.2,20.2,15.2,27.2,2.8,2.5,5.9,4.7,9,7,0,0-.6-.1-.6-.1,6.3-2.2,11.9-6.7,16.9-11.1,7.1-6.4,13.6-15.3,11.6-25.3-1.9-10-10.8-14.5-20.1-10.5-.8.3-1.6.7-2.4.9h0ZM211.2,171.1c.3-.3.5-.6.9-.8.2-.1.7-.4.9-.5,16.2-8.5,28.9,7.7,24.6,23.4-3.2,11-12.4,18.8-22,24.1-3.3,1.7-6.6,3.2-10.4,3.6-.2,0-.4,0-.6-.1-16.2-6.7-33.3-23.1-27.6-42.3,5.3-17,22.2-20.5,34.2-7.6.1.1.3.4.5.5,0,0-.3-.2-.5-.2h0Z"/>
  <path class="st4" d="M291.2,244.1c-11.7-2.6-16.1,7.3-17,10.1-.1.4.1.7.5.8,2.9.5,13.7,1.4,17-10.1,0-.3-.1-.7-.5-.8Z"/>
  <path class="st2" d="M154,268c-6.8-1.5-9.4,4.3-9.9,5.9,0,.2,0,.4.3.5,1.7.3,8,.8,9.9-5.9,0-.2,0-.4-.3-.4Z"/>
  <path class="st4" d="M168.6,251.7c-1.5,9.5,6.7,12.4,8.9,13,.3,0,.6-.1.6-.4.2-2.3.4-11-8.9-13-.3,0-.5.1-.6.4Z"/>
  <path class="st2" d="M228.8,246.1c-.3,6.8,5.7,8.2,7.3,8.4.2,0,.4-.1.4-.3,0-1.6-.6-7.7-7.3-8.4-.2,0-.4.1-.4.3Z"/>
  <path class="st4" d="M748.4,190.1c0-15.2-13.6-17.8-17.3-18.2-.5,0-.9.3-.9.8.2,3.7,2.1,17.3,17.3,18.1.4,0,.8-.3.8-.8Z"/>
  <path class="st3" d="M390.1,169.5c10.7,0,16-5.9,16-17.8s-.4-6.2-1.2-9.2c-.8-3-2-5.9-3.6-8.7h-14.6c.8,2.2,1.4,4.5,1.9,6.9.5,2.3.8,4.7.8,7s-.5,4.5-1.5,5.7c-1,1.1-2.7,1.7-5.1,1.7h-63.4v14.5h32.5c8.2,0,14.8,1,19.9,3,5.1,2,8.9,5.1,11.2,9.4,2.4,4.2,3.6,9.7,3.6,16.4v3.9c0,3.6-.6,6.3-1.9,8.1-1.2,1.8-3.2,2.7-5.9,2.7s-4.6-.8-5.9-2.4c-1.3-1.6-2-4-2.2-7.2l-.3-5.8h-17.9l-.3,5.5c-.2,3.4-1.1,5.9-2.8,7.6-1.6,1.7-4,2.5-7.2,2.5s-4.8-.6-6.2-1.9c-1.3-1.3-2-3.2-2-5.8v-.8c0-2.4.6-4.3,1.7-5.4,1.1-1.2,2.8-1.8,5.1-1.8s2.1.1,3.1.3c1,.2,1.9.5,2.6.9l-.9-15.2c-1.3-.6-2.6-1-4.1-1.3-1.5-.3-3.2-.4-5.2-.4-6.6,0-11.7,1.9-15.1,5.8-3.5,3.8-5.2,9.4-5.2,16.6v1.9c0,7.7,2,13.6,6,17.5,4,4,9.9,5.9,17.8,5.9s11.7-1.3,15.2-4c3.5-2.7,5.6-6.6,6.1-11.7h.5c.5,5.1,2.5,9,5.9,11.7,3.4,2.7,8.3,4,14.6,4s13.3-2.2,17.1-6.5c3.9-4.3,5.8-10.7,5.8-19.2v-4.2c0-6.2-.8-11.4-2.3-15.5-1.5-4.1-3.8-7.3-6.8-9.6-3-2.3-6.8-3.7-11.4-4.4v-.5h5.6Z"/>
  <path class="st3" d="M439.8,160.1c-9.7,0-17,2.4-21.9,7.3-4.9,4.9-7.4,12.2-7.4,22v6.8c0,9.7,2.5,17,7.4,21.9,4.9,4.9,12.2,7.3,21.9,7.3s17-2.4,21.9-7.3c4.9-4.9,7.4-12.2,7.4-21.9v-6.8c0-9.8-2.5-17.1-7.4-22-4.9-4.9-12.2-7.3-21.9-7.3ZM451.4,196.2c0,4.7-1,8.1-2.9,10.4-1.9,2.3-4.8,3.4-8.7,3.4s-6.8-1.1-8.7-3.4c-1.9-2.3-2.9-5.8-2.9-10.4v-6.9c0-4.7,1-8.2,2.9-10.5,1.9-2.3,4.8-3.4,8.7-3.4s6.8,1.2,8.7,3.5c1.9,2.3,2.9,5.8,2.9,10.5v6.8Z"/>
  <path class="st3" d="M528.8,169.8v-.5c9-.9,13.6-6.8,13.6-17.7s-.4-6.2-1.2-9.2c-.8-3-2-5.9-3.6-8.7h-14.6c.8,2.3,1.4,4.6,2,6.9.5,2.4.8,4.7.8,7s-.5,4.5-1.5,5.6c-1,1.1-2.7,1.7-5.1,1.7h-45.1v13.8h13.5v.5c-3.9.7-6.7,2.1-8.5,4.2-1.8,2.1-2.8,5.2-2.8,9.2v1.6h18.5l-2,.7c-4.4,1.5-8,3.2-10.8,5.1-2.8,1.8-4.8,4-6.1,6.7-1.2,2.6-1.9,5.9-1.9,9.7v.3c0,5.1,1.2,9.3,3.8,12.8,1.7,2.3,3.9,4.2,6.5,5.6,0-.2,0-.4.2-.5.4-.7,1-1.1,1.7-1.2,1.8-.4,3.7-.6,5.4-.6,6.9,0,11.5,3.2,14.6,6.8,4-7.1,11.9-16.6,26.4-16.6s4.2.2,6.4.7c1.8-4.1,2.6-9,2.6-14.7v-6.1c0-6.7-1.1-11.8-3.2-15.6-2.1-3.8-5.3-6.2-9.6-7.4ZM494.8,181.7c0-4.2,1.1-7.4,3.4-9.4,2.3-2.1,5.6-3.1,10.1-3.1s9.2,1.5,11.5,4.5c.4.6.8,1.2,1.1,1.8l-26.1,8.7v-2.6ZM523.3,197c0,5.9-1.4,10.3-4.3,13.1-2.9,2.9-7.3,4.3-13.3,4.3s-5.8-.4-7.8-1c-2-.7-3.4-1.7-4.4-2.9s-1.4-2.6-1.4-4.2v-.2c0-1.4.3-2.5.9-3.4.5-1,1.4-1.8,2.7-2.6,1.2-.7,2.9-1.5,4.9-2.2l22.8-8.1v7.3Z"/>
  <path class="st0" d="M638.9,184c1.5,4.1,2.3,9.3,2.3,15.5v4.2c0,8.4-1.9,14.9-5.8,19.2-3.9,4.3-9.6,6.5-17.1,6.5s-11.2-1.3-14.6-4c-3.4-2.7-5.4-6.5-5.9-11.6h-.5c-.6,5.1-2.6,9-6.1,11.6-3.6,2.7-8.6,4-15.2,4s-13.8-2-17.8-5.9c-4-4-6.1-9.8-6.1-17.5v-1.9c0-7.3,1.7-12.8,5.2-16.6,3.4-3.9,8.5-5.8,15.1-5.8s3.7.1,5.2.4,2.9.7,4.2,1.3l.9,15.2c-.8-.4-1.6-.7-2.6-.9-1-.2-2-.3-3-.3-2.4,0-4,.6-5.2,1.8-1.1,1.1-1.7,3-1.7,5.4v.8c0,2.6.7,4.5,2,5.8,1.3,1.3,3.4,1.9,6.1,1.9s5.5-.8,7.2-2.5c1.6-1.7,2.6-4.2,2.7-7.6l.3-5.5h17.9l.3,5.8c.2,3.2.9,5.6,2.2,7.2,1.3,1.5,3.3,2.3,5.9,2.3s4.7-.9,5.9-2.7c1.2-1.7,1.8-4.5,1.8-8.1v-3.9c0-6.7-1.2-12.1-3.6-16.4-2.3-4.2-6.1-7.3-11.2-9.3-5.1-2-11.8-3-19.9-3h-32.4v-14.4h63.4c2.4,0,4.2-.6,5.1-1.7,1-1.1,1.5-3,1.5-5.6s-.3-4.6-.8-7c-.5-2.3-1.2-4.6-2-6.9h14.6c1.3,2.1,2.3,4.4,3,6.7-.5,0-1,0-1.5,0-1.7,0-3.6.2-5.4.6-.7.2-1.3.6-1.7,1.2-.4.6-.5,1.4-.3,2.1,2,7.1,6.1,10.9,10.3,13-1.5,8.1-6.7,12.2-15.5,12.2h-5.6v.5c4.6.7,8.4,2.2,11.4,4.5,3,2.3,5.3,5.5,6.8,9.6Z"/>
  <path class="st0" d="M651.9,222h-9c1.7,2.6,3,5.5,3.9,8.6.9,3.1,1.3,6.8,1.3,11.1v3.5c0,3.5-.7,6.1-2.1,7.9-1.4,1.8-3.7,2.7-6.8,2.7s-5.1-.6-6.6-1.8c-1.4-1.2-2.1-2.9-2.2-5.2h.2c.3,1.2,1,2,2,2.6,1,.6,2.3.9,3.9.9s3.8-.7,5-2c1.2-1.3,1.7-3.2,1.7-5.8v-.5c0-3-.8-5.3-2.5-6.9-1.7-1.6-4.1-2.4-7.3-2.4s-6.4.9-8.3,2.8c-1.9,1.9-2.8,4.7-2.8,8.5v1.6h0v.6c0,4.9,1.5,8.6,4.4,11.1,3,2.5,7.1,3.8,12.5,3.8s10.6-1.5,13.5-4.5c2.9-3,4.3-7.5,4.3-13.4v-3.6c0-4.4-.4-8.2-1.3-11.3-.9-3.1-2.1-5.9-3.8-8.4ZM630.3,245.1c0-1.3.2-2.2.6-2.8.4-.6,1.1-.9,2.1-.9s1.5.2,1.9.7c.4.4.6,1.1.6,2.1v.3c0,.8-.2,1.4-.6,1.8-.4.4-.9.6-1.7.6s-1.5-.2-2.1-.6c-.3-.2-.5-.4-.7-.6v-.5Z"/>
  <path class="st0" d="M712.2,224.8c5.1-3.6,7.6-8.8,7.6-15.7v-.8c0-4.2-.9-7.6-2.8-9.9-1.8-2.4-4.4-3.8-7.8-4.4v-.5l13.8.3v-14.4h-24.7v-9.9h10.5c10.7,0,16-5.9,16-17.8s-.4-6.2-1.2-9.2c-.8-3-2-5.9-3.6-8.7h-14.6c.8,2.2,1.4,4.5,1.9,6.9.5,2.3.8,4.7.8,7s-.5,4.5-1.5,5.7c-1,1.1-2.7,1.7-5.1,1.7h-45.7v14.5h24.7v9.9h-24.7v14.4l14-.3v.5c-3.3.6-6,2-7.8,4.4-1.9,2.4-2.8,5.7-2.8,9.9v.8c0,6.9,2.5,12.1,7.6,15.7,5.1,3.6,12.6,5.4,22.7,5.4s17.7-1.8,22.7-5.4ZM677,203.9v-.5c0-3.7,1-6.4,3.1-8.1,2-1.7,5.2-2.6,9.4-2.6s7.3.9,9.3,2.6c2,1.8,3,4.4,3,8.1v.6c0,3.7-1,6.4-3,8.1-2,1.7-5.1,2.6-9.3,2.6s-7.4-.9-9.4-2.6c-2-1.7-3.1-4.4-3.1-8.1Z"/>
  <path class="st0" d="M726.8,256.6c-.1,1.4-.2,2.6-.3,3.8-.1,1.2-.2,2.1-.2,2.7h12.1c-.7-3.7-1.3-7.2-1.9-10.4-.6-3.2-1.3-6.3-1.9-9.3-.7-3-1.4-6-2.1-9.1h-11.3c.3,1.5.4,2.8.6,4,.1,1.2.2,2.3.2,3.4,0,1.8-.4,3.1-1.1,4-.7.9-1.8,1.3-3.3,1.3s-2.5-.4-3.2-1.3c-.7-.8-1.2-2.1-1.3-3.9l-.2-3.2h-10.8l-.2,3.2c-.1,1.6-.6,2.9-1.3,3.8-.7.9-1.9,1.3-3.5,1.3s-2.7-.4-3.5-1.2c-.8-.8-1.2-2.1-1.2-3.7v-.2c0-1.2.1-2.4.4-3.6.3-1.1.7-2.1,1.1-3h-10.7c-.7,1.2-1.2,2.5-1.5,3.9-.3,1.4-.5,2.8-.5,4.4v.3c0,4.3,1.2,7.5,3.6,9.7,2.4,2.2,5.9,3.3,10.5,3.3s6.4-.7,8.4-2.1c2-1.4,3.2-3.4,3.6-6h.2c.4,2.6,1.5,4.7,3.2,6,1.7,1.4,4,2.1,7,2.1s4.5-.6,6.1-1.7c1.6-1.1,2.7-2.8,3.3-5.2h.3c0,.6-.1,1.4-.2,2.6,0,1.2-.2,2.4-.3,3.8Z"/>
  <path class="st0" d="M463.2,123c-.3,0-.5-.2-.6-.4-.2-.2-.6-.4-.8-.6-10.7-7.6-20.7-2.6-21.7,10.3-.2,8.6,5.6,15.8,11.8,21.3,2.2,2,4.6,3.8,7,5.7,0,0-.6-.1-.6-.1,4.9-1.9,9.3-5.4,13.2-8.9,5.5-5.1,10.6-12,9.1-19.8-1.4-7.8-8.2-11.2-15.5-8.2-.6.2-1.4.5-2,.7h0ZM463.4,121.2c.2-.3.4-.5.6-.6.2-.1.5-.3.7-.4,13-7.2,23.6,6.3,20.1,18.9-2.6,8.9-10,15.2-17.8,19.3-2.7,1.3-5.4,2.5-8.5,2.7-.2,0-.4,0-.6-.1-13.2-5-27-18.5-22.3-34,4.2-13.7,18.3-16.7,27.9-6,.1.1.3.3.4.4,0,0-.3-.2-.5-.2h0Z"/>
  <path class="st4" d="M687.5,134c-23.6-5.2-32.3,14.7-34.2,20.2-.3.7.2,1.5,1,1.6,5.7.9,27.5,2.9,34.2-20.3.2-.7-.2-1.4-.9-1.5Z"/>
  <path class="st2" d="M633.9,142.7c15.7-3.5,21.6,9.8,22.8,13.5.2.5-.1,1-.6,1.1-3.8.6-18.3,1.9-22.8-13.6-.1-.5.2-.9.6-1Z"/>
  <path class="st4" d="M540.1,216.5c-23.6-5.2-32.3,14.7-34.2,20.2-.3.7.2,1.5,1,1.6,5.7.9,27.5,2.9,34.2-20.3.2-.7-.2-1.4-.9-1.5Z"/>
  <path class="st2" d="M486.5,225.2c15.7-3.5,21.6,9.8,22.8,13.5.2.5-.1,1-.6,1.1-3.8.6-18.3,1.9-22.8-13.6-.1-.5.2-.9.6-1Z"/>
  <path class="st3" d="M747.6,205c-.2-.1-.3-.3-.4-.5-3.3-5-9.7-8-14.5-3.1-6.4,6-3.9,15.6.2,22.2,1.1,1.9,2.3,3.7,3.6,5.5l-.4-.2c3.8-.2,7.7-1.7,11.2-3.2,5.2-2.4,10-5.9,10.7-11.6.7-7-4-9.8-10.4-9.2h0ZM748.2,203.8c.2-.1.3-.2.4-.3,1.8-.5,3.8-.5,5.7,0,7.5,1.9,8.7,11.9,4.7,17.5-3.8,5.6-10.3,8.3-16.7,9.4-2,.2-4.9.7-6.9-.2-9.2-7.3-15.7-22.2-5.2-31.4,6.4-5.9,15.2-2.5,18.2,5.2,0,0,0,.1,0,.1,0,0,0,0,0,0,0,0-.2-.2-.3-.3h0Z"/>
  <path class="st4" d="M376.9,147.1c0-15.2-13.6-17.8-17.3-18.2-.5,0-.9.3-.9.8.2,3.7,2.1,17.3,17.3,18.1.4,0,.8-.3.8-.8Z"/>
  <path class="st3" d="M315.9,267.2h7.2l7,24.4,7.1-24.4h7l-11,32.3h-6.4l-10.9-32.3Z"/>
  <path class="st3" d="M348.7,283.1h-6.2c.1-2.4,1.1-4.4,2.9-6,1.8-1.6,4.5-2.3,8.2-2.3s3,.2,4.3.5c1.3.3,2.2.8,2.9,1.3.6.5,1.1,1.2,1.4,2,.5,1.1.7,2.4.7,3.9v12.2c0,1.4.1,2.4.4,2.8.2.5.6.8,1.1.9v1h-6.9c-.4-.9-.6-1.8-.6-2.8-1.3,1.3-2.5,2.2-3.6,2.8-1.1.5-2.4.8-3.9.8s-2.9-.3-4.1-.9c-1.2-.6-2-1.5-2.6-2.6-.6-1.1-.9-2.4-.9-3.7,0-2,.5-3.7,1.6-5,1-1.3,3-2.2,5.8-2.7l5.3-.8c.8-.1,1.4-.3,1.7-.6.3-.3.5-.7.5-1.3,0-.9-.3-1.5-.9-2-.6-.5-1.5-.7-2.9-.7s-2.4.2-3,.7c-.6.5-1,1.3-1.2,2.6ZM356.7,287.8c-.5.3-1.1.5-1.6.7-.5.2-1.2.3-2,.5-1.6.3-2.6.5-3,.7-.7.3-1.2.7-1.5,1.1-.3.5-.5,1.1-.5,1.8s.3,1.7.9,2.3c.6.6,1.3.9,2.3.9,1.4,0,2.6-.4,3.8-1.3,1.1-.9,1.7-2.3,1.7-4.2v-2.4Z"/>
  <path class="st3" d="M400.8,299.4h-6.2v-15.1c0-1.4-.3-2.5-.9-3.2-.6-.7-1.5-1-2.6-1s-2.2.4-3,1.2c-.8.8-1.2,2.1-1.2,3.7v14.3h-6.2v-14.3c0-1.2-.1-2.2-.3-2.8-.2-.7-.6-1.2-1.2-1.6-.6-.4-1.3-.6-2.1-.6-1.5,0-2.6.5-3.3,1.6-.5.7-.7,1.9-.7,3.4v14.3h-6.2v-23.9h6v3.5c.7-1.3,1.5-2.3,2.4-2.9,1.3-.9,2.8-1.3,4.5-1.3s2,.2,2.9.5c.8.3,1.5.8,2.1,1.4.4.4,1,1.1,1.5,2.1.8-1.3,1.7-2.2,2.9-2.9,1.1-.7,2.5-1,4-1s2.7.3,3.8.8c1,.5,1.8,1.2,2.4,2,.6.8,1,1.7,1.2,2.6.2,1,.3,2.3.3,4.1v15.1Z"/>
  <path class="st3" d="M424.3,289.9c-.2-.6-.5-1.1-.8-1.6-.4-.5-.8-1-1.4-1.4-.6-.4-1.4-.8-2.3-1.1-.4-.1-1.3-.4-2.7-.8l-4.4-1.1c-1-.2-1.7-.5-2.1-.7-.4-.2-.6-.4-.8-.7-.1-.2-.2-.5-.2-.8,0-.6.3-1.1.9-1.6.6-.4,1.6-.7,3-.7s1.6.1,2.3.4c.5.2,1,.6,1.2,1.1.2.4.4,1,.5,1.8h6.2c-.1-1.1-.4-2-.6-2.7-.2-.7-.6-1.3-1.1-2-.4-.4-.7-.8-1.2-1.2-.2.1-.4.2-.6.4-2.1,1.2-4.5,1.5-6.1,1.5s-1,0-1.4,0c0,0,0,0,0,0-.4,0-1,.1-1.7.1-1.4,0-3.4-.3-5.1-1.7-.5.4-1,1-1.4,1.6-.8,1.2-1.2,2.6-1.2,4s.4,2.7,1.1,3.6c.7,1,1.8,1.8,3.2,2.4,1,.4,3.3,1,6.9,1.8,1.6.4,2.6.8,3,1.1.4.4.6.8.6,1.3,0,.7-.2,1.2-.8,1.7-.8.5-2,.8-3.6.8s-2-.1-2.7-.5c-.7-.3-1.2-.8-1.6-1.4-.2-.5-.4-1.1-.4-1.8h-6.5c.2,1.4.5,2.6.9,3.6.4.9,1.1,1.7,1.9,2.5.9.8,2,1.3,3.4,1.7,1.4.4,3,.6,4.8.6s3.4-.2,4.8-.5c1.4-.4,2.5-.9,3.4-1.5.9-.7,1.6-1.5,2.1-2.6.5-1.1.7-2.3.7-3.6s0-1.4-.3-2Z"/>
  <path class="st3" d="M447.8,299.4h-6.2v-14.6c0-1.7-.3-2.9-1-3.6-.7-.7-1.6-1.1-2.9-1.1s-2,.3-2.8.8c-.8.5-1.4,1.2-1.8,2-.4.8-.5,2-.5,3.5v12.9h-6.2v-32.3h6.2v11.5c.7-1.2,1.7-2.1,2.9-2.8,1.2-.7,2.6-1,4.1-1s2.6.2,3.7.7c1.1.5,2,1.1,2.7,1.8.7.7,1.2,1.6,1.5,2.5.3.9.5,2.4.5,4.3v15.3Z"/>
  <path class="st3" d="M457.1,283.1h-6.2c.1-2.4,1.1-4.4,2.9-6,1.8-1.6,4.5-2.3,8.2-2.3s3,.2,4.3.5c1.3.3,2.2.8,2.9,1.3.6.5,1.1,1.2,1.4,2,.5,1.1.7,2.4.7,3.9v12.2c0,1.4.1,2.4.4,2.8.2.5.6.8,1.1.9v1h-6.9c-.4-.9-.6-1.8-.6-2.8-1.3,1.3-2.5,2.2-3.6,2.8-1.1.5-2.4.8-3.9.8s-2.9-.3-4.1-.9c-1.2-.6-2-1.5-2.6-2.6-.6-1.1-.9-2.4-.9-3.7,0-2,.5-3.7,1.6-5,1-1.3,3-2.2,5.8-2.7l5.3-.8c.8-.1,1.4-.3,1.7-.6.3-.3.5-.7.5-1.3,0-.9-.3-1.5-.9-2-.6-.5-1.5-.7-2.9-.7s-2.4.2-3,.7c-.6.5-1,1.3-1.2,2.6ZM465.1,287.8c-.5.3-1.1.5-1.6.7-.5.2-1.2.3-2,.5-1.6.3-2.6.5-3,.7-.7.3-1.2.7-1.5,1.1-.3.5-.5,1.1-.5,1.8s.3,1.7.9,2.3c.6.6,1.3.9,2.3.9,1.4,0,2.6-.4,3.8-1.3s1.7-2.3,1.7-4.2v-2.4Z"/>
  <path class="st0" d="M366,249.9c-.2,0-.4-.3-.6-.4-4.4-3.6-11.1-4.3-14,1.5-4.1,7.3,1,15.3,6.8,20,1.5,1.3,3.2,2.5,4.9,3.8h-.3c3.4-1.2,6.5-3.7,9.2-6,4-3.6,7.3-8.3,6.3-13.7-1.3-6.3-6.6-7.8-12.2-5.2h0ZM366.2,248.9c8.6-6.1,16.8,2.8,14.3,11.9-1.7,6.7-11.1,14.5-17.9,14.9-10-4-20-15-13.5-26.1,3.9-7,12.4-6.4,17.3-.8,0,0,0,0,.1.1,0,0-.1-.1-.3-.1h0Z"/>
  <path class="st4" d="M391.5,272c0-6.5-5.8-7.6-7.4-7.8-.2,0-.4.1-.4.4,0,1.6.9,7.4,7.4,7.7.2,0,.4-.1.4-.3Z"/>
  <path class="st2" d="M482.5,307.4c0-6.5-5.8-7.6-7.4-7.8-.2,0-.4.1-.4.4,0,1.6.9,7.4,7.4,7.7.2,0,.4-.1.4-.3Z"/>
  <path class="st4" d="M424.2,269.4c-8.7-1.9-11.9,5.4-12.6,7.5,0,.3,0,.6.4.6,2.1.3,10.2,1.1,12.6-7.5,0-.3,0-.5-.3-.6Z"/>
  <path class="st2" d="M404.4,272.6c5.8-1.3,8,3.6,8.4,5,0,.2,0,.4-.2.4-1.4.2-6.8.7-8.4-5,0-.2,0-.3.2-.4Z"/>
  <path class="st4" d="M639.9,283.7c0-6.5-5.8-7.6-7.4-7.8-.2,0-.4.1-.4.4,0,1.6.9,7.4,7.4,7.7.2,0,.4-.1.4-.3Z"/>
  <path class="st0" d="M469.5,267.2h7.2l7,24.4,7.1-24.4h7l-11,32.3h-6.4l-10.9-32.3Z"/>
  <path class="st0" d="M510.3,275v6.4c-.6,0-1.1-.1-1.5-.1-1.6,0-2.9.3-3.8.9-1,.6-1.6,1.3-1.9,2.1-.3.8-.5,2.1-.5,3.8v11.4h-6.2v-23.9h6v4.1c.3-.8.8-1.6,1.5-2.4.7-.8,1.5-1.4,2.3-1.8.9-.4,1.8-.6,2.7-.6s.9,0,1.3.2Z"/>
  <path class="st0" d="M512.2,275.5h6.2v14.4c0,1.5.2,2.6.7,3.4.7,1,1.7,1.5,3.3,1.5s2-.3,2.8-.8c.8-.5,1.4-1.2,1.7-2,.3-.8.5-2,.5-3.6v-13h6.2v23.9h-6v-3.4c-.8,1.3-1.6,2.3-2.6,2.9-1.3.8-2.9,1.2-4.7,1.2s-2.4-.2-3.4-.6c-1-.4-1.8-.9-2.4-1.5-.6-.6-1.1-1.2-1.4-1.9-.3-.7-.6-1.6-.7-2.7-.1-.8-.2-2-.2-3.5v-14.4Z"/>
  <path class="st0" d="M535.4,299.4v-32.3h6.2v17.6l7.8-9.2h7.7l-8.4,9.2,8.7,14.7h-7.5l-5.7-10.2-2.6,2.7v7.5h-6.2Z"/>
  <path class="st0" d="M571.2,282.7c-.1-.8-.3-1.4-.5-1.8-.3-.5-.7-.9-1.3-1.1-.7-.3-1.4-.4-2.3-.4-1.4,0-2.4.2-3,.7-.6.5-.9,1-.9,1.6s0,.6.2.9c.1.3.4.5.8.7.4.2,1.1.5,2.1.7l4.4,1.1c1.5.4,2.4.6,2.7.8.9.3,1.7.7,2.3,1.1.6.4,1.1.9,1.4,1.3.4.5.6,1,.8,1.6.2.6.3,1.3.3,2,0,1.3-.2,2.5-.7,3.6-.5,1.1-1.2,1.9-2.1,2.6-.9.7-2,1.2-3.4,1.5-1.4.4-2.9.5-4.8.5s-3.5-.2-4.9-.6c-1.4-.4-2.5-1-3.4-1.7-.9-.8-1.5-1.6-1.9-2.5s-.7-2.1-.9-3.5h6.5c0,.8.1,1.4.4,1.8.4.6.9,1.1,1.6,1.4.7.3,1.6.5,2.7.5,1.6,0,2.8-.3,3.6-.8.5-.4.8-1,.8-1.6s-.2-1-.6-1.3c-.4-.4-1.4-.7-3-1.1-3.6-.8-5.8-1.4-6.9-1.8-1.4-.6-2.5-1.4-3.2-2.4-.7-1-1.1-2.2-1.1-3.6s.4-2.8,1.2-4.1c.8-1.2,1.9-2.2,3.4-2.9,1.5-.7,3.4-1,5.6-1s2.5.1,3.7.4c1.2.3,2.1.6,2.9,1.1.8.5,1.4,1.1,1.9,1.7.5.7.9,1.3,1.1,2,.2.7.4,1.6.6,2.7h-6.2Z"/>
  <path class="st0" d="M599.4,291.4c.7-.1,1.4-.2,2-.2h0v-7c0-1.9-.2-3.3-.5-4.3-.3-1-.8-1.8-1.5-2.6-.7-.7-1.5-1.3-2.7-1.8-1.1-.5-2.3-.7-3.7-.7s-2.9.4-4.1,1.1c-1.2.7-2.1,1.6-2.9,2.8v-11.5h-6.2v32.3h6.2v-13c0-1.5.2-2.7.5-3.6.4-.8,1-1.5,1.8-2,.8-.5,1.8-.8,2.8-.8s2.3.4,2.9,1.1c.7.8,1,2,1,3.7v14.6h6.2v-2.7c-1.1-.8-2.1-2.1-2.7-4.2-.1-.3,0-.5,0-.8.1-.2.4-.4.7-.5Z"/>
  <path class="st0" d="M625.3,297.5c-.2-.5-.4-1.4-.4-2.9v-12.2c0-1.6-.2-2.9-.7-3.9-.3-.8-.8-1.5-1.4-2-.7-.5-1.6-1-2.9-1.2-1.3-.4-2.7-.5-4.3-.5-3.6,0-6.4.8-8.1,2.4-1.8,1.5-2.7,3.5-2.9,5.9h6.2c.2-1.2.6-2.1,1.2-2.6.6-.5,1.6-.7,3-.7s2.3.2,2.9.7c.6.5.9,1.2.9,2s-.2,1-.5,1.3c-.4.3-.9.5-1.8.7l-5.2.8c-2.8.4-4.8,1.3-5.8,2.7-.8,1-1.2,2.2-1.4,3.7,1.2.5,2.1,1.2,2.8,2,1.5-2.7,4.4-6.2,9.8-6.2s1.4,0,2.1.2c.2,0,.5,0,.8.1.4,0,.7.4,1,.7.2.4.2.8.1,1.2-1,3.6-3,5.8-5.2,7-2.1,1.2-4.5,1.4-6.1,1.4s-1,0-1.4,0c0,0,0,0,0,0-.4,0-1,.1-1.6.1h-.4c.4.4.9.8,1.4,1.1,1.1.6,2.5.9,4.1.9s2.8-.2,3.9-.8c1.1-.5,2.3-1.4,3.6-2.7,0,1,.2,1.8.6,2.8h6.8v-1c-.5-.1-.8-.5-1.1-.9Z"/>
  <path class="st3" d="M635.8,287.4c0,0-.1-.1-.2-.2,0,0-.1-.2-.1-.2-.2-.3-.4-.5-.7-.8-4.5-4.4-8.7,2.3-6.5,6.7.6,1.7,1.6,3.3,2.7,4.8h-.2c.8-.1,1.6-.3,2.4-.6,2.2-.7,4.8-1.9,6.1-3.8,2-3.2.4-6.5-3.6-6h0ZM636.1,286.9c1.6-.8,4.1,0,5,1.7,2.1,3.8-1.3,7.9-4.8,9-1.7.6-3.6,1.1-5.5.6-1.5-1.3-2.8-2.8-3.7-4.7-.9-1.8-1.2-4.1-.4-6.2,1.6-4.4,7-5.5,9.3-1,0,.2.2.5.3.6,0,0,0,0-.1,0h0Z"/>
  <path class="st4" d="M619.4,288.8c-8.7-1.9-11.9,5.4-12.6,7.5,0,.3,0,.6.4.6,2.1.3,10.2,1.1,12.6-7.5,0-.3,0-.5-.3-.6Z"/>
  <path class="st2" d="M599.5,292c5.8-1.3,8,3.6,8.4,5,0,.2,0,.4-.2.4-1.4.2-6.8.7-8.4-5,0-.2,0-.3.2-.4Z"/>
  <path class="st1" d="M495.1,329.2l6.8-18.9h4.5l6.7,18.9h-4.3l-1.2-3.9h-7l-1.3,3.9h-4.2ZM501.6,322h4.8l-2.4-7.5h0l-2.4,7.5Z"/>
  <path class="st1" d="M514.2,329.2v-3.9h3.9v3.9h-3.9Z"/>
  <path class="st1" d="M520.6,310.3h9.4c1.5,0,2.6.2,3.4.6.8.4,1.5,1,2,1.9.5.9.8,1.8.8,2.8s-.3,2-.8,2.8c-.5.8-1.2,1.3-2.1,1.7.9.4,1.6.9,2,1.7.3.5.4,1.4.4,2.7v1.3c0,1.1,0,1.8.2,2.2,0,.3.3.5.6.6v.5h-4.4c-.3-.8-.4-1.7-.4-2.6v-1.8c0-.9-.1-1.5-.3-1.9-.2-.4-.5-.7-.9-.9-.4-.2-1-.3-1.9-.3h-4.1v7.4h-3.9v-18.9ZM524.6,313.5v5.1h4.5c1,0,1.8-.1,2.2-.4.7-.4,1-1.1,1-2.1s-.3-1.6-1-2.1c-.4-.3-1.1-.5-2.1-.5h-4.6Z"/>
  <path class="st1" d="M538.4,329.2v-3.9h3.9v3.9h-3.9Z"/>
  <path class="st1" d="M541.7,313.5v-3.2h15.5v3.2h-5.8v15.6h-3.9v-15.6h-5.8Z"/>
  <path class="st1" d="M557.1,329.2v-3.9h3.9v3.9h-3.9Z"/>
  <path class="st1" d="M568.2,329.2v-18.9h9.3c1.4,0,2.5.2,3.3.6.8.4,1.5,1,2,1.7.5.8.7,1.6.7,2.6s-.2,1.7-.5,2.3c-.4.6-1,1.1-1.8,1.5.7.3,1.3.7,1.7,1,.4.4.7.8.9,1.4.2.6.3,1.3.3,2.1,0,1.1-.2,2.1-.6,2.9-.4.8-.9,1.4-1.6,1.8-.6.4-1.4.7-2.3.9-.7.1-1.6.2-2.9.2h-8.4ZM572.1,313.5v4.2h4.7c1,0,1.7-.2,2.1-.6.4-.4.7-.9.7-1.6s-.2-1.1-.6-1.5c-.4-.3-1.1-.5-2.1-.5h-4.8ZM572.1,320.8v5.1h4.8c.5,0,.9,0,1.2,0,.4,0,.8-.2,1-.4.3-.2.5-.5.7-.9.2-.4.3-.8.3-1.3s-.1-1-.4-1.4c-.2-.4-.5-.7-.9-.8-.4-.2-1.1-.2-2-.2h-4.7Z"/>
  <path class="st1" d="M588.7,319.6h-3.6c0-1.4.6-2.6,1.7-3.5,1-.9,2.6-1.4,4.8-1.4s1.8,0,2.5.3c.8.2,1.3.4,1.7.7.4.3.7.7.8,1.2.3.6.4,1.4.4,2.3v7.2c0,.8,0,1.4.2,1.6.1.3.4.5.6.5v.6h-4c-.2-.5-.3-1.1-.3-1.6-.7.8-1.4,1.3-2.1,1.6-.6.3-1.4.4-2.3.4s-1.7-.2-2.4-.5c-.7-.4-1.2-.9-1.5-1.5-.3-.7-.5-1.4-.5-2.2,0-1.2.3-2.1.9-2.9.6-.8,1.7-1.3,3.4-1.6l3.1-.5c.5,0,.8-.2,1-.4.2-.2.3-.4.3-.8,0-.5-.2-.9-.5-1.2-.3-.3-.9-.4-1.7-.4s-1.4.1-1.8.4c-.3.3-.6.8-.7,1.5ZM593.4,322.3c-.3.2-.6.3-.9.4-.3,0-.7.2-1.2.3-.9.2-1.5.3-1.8.4-.4.2-.7.4-.9.7-.2.3-.3.6-.3,1s.2,1,.5,1.3c.3.3.8.5,1.3.5.8,0,1.5-.3,2.2-.8.7-.5,1-1.3,1-2.5v-1.4Z"/>
  <path class="st1" d="M611.9,329.2h-3.7v-8.5c0-1-.2-1.7-.6-2.1-.4-.4-1-.6-1.8-.6s-1.7.3-2.2,1c-.5.7-.7,1.6-.7,2.7v7.6h-3.6v-14h3.5v2.1c.5-.8,1.1-1.5,1.7-1.9.7-.4,1.5-.6,2.5-.6,1.5,0,2.7.4,3.5,1.3.9.8,1.3,2.1,1.3,3.7v9.4Z"/>
  <path class="st1" d="M614.2,329.2v-18.9h3.6v10.3l4.6-5.4h4.5l-4.9,5.4,5.1,8.6h-4.4l-3.3-6-1.5,1.6v4.4h-3.6Z"/>
</svg>